M48
;Layer_Color=9474304
;FILE_FORMAT=2:4
INCH,TZ
;TYPE=PLATED
T1F00S00C0.0118
T2F00S00C0.0138
T3F00S00C0.0402
T4F00S00C0.0531
T5F00S00C0.0886
;TYPE=NON_PLATED
T6F00S00C0.0500
%
T01
X919Y8999
X907Y9642
Y10267
Y10892
Y11517
X950Y13400
Y14050
X951Y14681
Y15306
Y15931
Y16581
Y17206
Y17831
Y18456
Y19081
T02
X4862Y2706
X10374
X7300Y6400
X17700Y7350
X15885Y2706
X21397
X28287Y5462
X26909Y8218
X25750Y11500
X24650Y11550
X22900Y11400
X28650Y14050
X25531Y16485
X23550Y16150
X23600Y19250
X23100
X24153Y19241
X22775Y21997
X24153Y24753
X26909
X25531Y27509
X20019
X21397Y24753
X15885
X17263Y21997
X14507Y27509
X8996
X10374Y24753
X2106
X3484Y27509
Y21997
X14507Y16485
T03
X8200Y5400
Y6400
X9200
X10200
X11200
X12200
X13200
X14200
X15200
Y5400
X14200
X13200
X12200
X11200
X10200
X9200
X9250Y9650
X8250
Y10650
X9250
X10250
Y9650
X11250
Y10650
X12250
Y9650
X13250
Y10650
X14250
Y9650
X15250
Y10650
X15100Y14350
X14100
X13100
X12100
X11100
X10100
Y15350
X11100
X12100
X13100
X14100
X15100
X16100
Y14350
X17100
X18100
X19100
X20100
X21100
X22100
X23100
X24100
Y15350
X23100
X22100
X21100
X20100
X19100
X18100
X17100
X17250Y10650
X16250
Y9650
X17250
X18250
Y10650
X19250
Y9650
X20250
Y10650
X21250
Y9650
X22250
Y10650
X23250
Y9650
X24250
Y10650
X25250
Y9650
X26250
Y10650
X27250
Y9650
X27200Y6400
X26200
X25200
X24200
X23200
X22200
X21200
X20200
X19200
X18200
X17200
X16200
Y5400
X17200
X18200
X19200
X20200
X21200
X22200
X23200
X24200
X25200
X26200
X27200
T04
X15800Y22532
Y26532
X19800
X21050
X25050
Y22532
X21050
X19800
X14350
Y26532
X10350
X9087Y26528
X5087
Y22528
X9087
X10350Y22532
T05
X17800Y24028
X23050
X12350
X7087Y24024
T06
X2250Y4313
X2841Y22187
M30
