G04*
G04 #@! TF.GenerationSoftware,Altium Limited,Altium Designer,23.0.1 (38)*
G04*
G04 Layer_Color=128*
%FSLAX25Y25*%
%MOIN*%
G70*
G04*
G04 #@! TF.SameCoordinates,0F18841D-DA8F-46EF-A0D6-61A62281B5C3*
G04*
G04*
G04 #@! TF.FilePolarity,Positive*
G04*
G01*
G75*
%ADD35R,0.04724X0.01968*%
D35*
X15807Y49035D02*
D03*
X29193D02*
D03*
X15807Y52185D02*
D03*
X29193D02*
D03*
X15807Y55335D02*
D03*
X29193D02*
D03*
X15807Y58484D02*
D03*
X29193D02*
D03*
X15807Y61634D02*
D03*
X29193D02*
D03*
X15807Y64784D02*
D03*
X29193D02*
D03*
X15807Y67933D02*
D03*
X29193D02*
D03*
X15807Y71083D02*
D03*
X29193D02*
D03*
X15807Y74232D02*
D03*
X29193D02*
D03*
X15807Y77382D02*
D03*
X29193D02*
D03*
X15807Y80532D02*
D03*
X29193D02*
D03*
X15807Y83681D02*
D03*
X29193D02*
D03*
X15807Y86831D02*
D03*
X29193D02*
D03*
X15807Y89980D02*
D03*
X29193D02*
D03*
X15807Y93130D02*
D03*
X29193D02*
D03*
X15807Y96280D02*
D03*
X29193D02*
D03*
X15807Y99429D02*
D03*
X29193D02*
D03*
X15807Y102579D02*
D03*
X29193D02*
D03*
X15807Y105728D02*
D03*
X29193D02*
D03*
X15807Y108878D02*
D03*
X29193D02*
D03*
X15807Y112028D02*
D03*
X29193D02*
D03*
X15807Y115177D02*
D03*
X29193D02*
D03*
X15807Y118327D02*
D03*
X29193D02*
D03*
X15807Y134075D02*
D03*
X29193D02*
D03*
X15807Y137224D02*
D03*
X29193D02*
D03*
X15807Y140374D02*
D03*
X29193D02*
D03*
X15807Y143524D02*
D03*
X29193D02*
D03*
X15807Y146673D02*
D03*
X29193D02*
D03*
X15807Y149823D02*
D03*
X29193D02*
D03*
X15807Y152972D02*
D03*
X29193D02*
D03*
X15807Y156122D02*
D03*
X29193D02*
D03*
X15807Y159272D02*
D03*
X29193D02*
D03*
X15807Y162421D02*
D03*
X29193D02*
D03*
X15807Y165571D02*
D03*
X29193D02*
D03*
X15807Y168720D02*
D03*
X29193D02*
D03*
X15807Y171870D02*
D03*
X29193D02*
D03*
X15807Y175020D02*
D03*
X29193D02*
D03*
X15807Y178169D02*
D03*
X29193D02*
D03*
X15807Y181319D02*
D03*
X29193D02*
D03*
X15807Y184468D02*
D03*
X29193D02*
D03*
X15807Y187618D02*
D03*
X29193D02*
D03*
X15807Y190768D02*
D03*
X29193D02*
D03*
X15807Y193917D02*
D03*
X29193D02*
D03*
X15807Y197067D02*
D03*
X29193D02*
D03*
X15807Y200217D02*
D03*
X29193D02*
D03*
X15807Y203366D02*
D03*
X29193D02*
D03*
X15807Y206516D02*
D03*
X29193D02*
D03*
X15807Y209665D02*
D03*
X29193D02*
D03*
X15807Y212815D02*
D03*
X29193D02*
D03*
X15807Y215965D02*
D03*
X29193D02*
D03*
M02*
