G04*
G04 #@! TF.GenerationSoftware,Altium Limited,Altium Designer,23.0.1 (38)*
G04*
G04 Layer_Physical_Order=1*
G04 Layer_Color=255*
%FSLAX25Y25*%
%MOIN*%
G70*
G04*
G04 #@! TF.SameCoordinates,6CF20236-6BE3-4E0F-A595-27D61DE2D083*
G04*
G04*
G04 #@! TF.FilePolarity,Positive*
G04*
G01*
G75*
%ADD10C,0.01968*%
%ADD24C,0.01500*%
%ADD25C,0.05000*%
%ADD26C,0.06102*%
%ADD27R,0.05394X0.05394*%
%ADD28C,0.05394*%
%ADD29C,0.07650*%
%ADD30C,0.13287*%
%ADD31C,0.06024*%
%ADD32R,0.06024X0.06024*%
%ADD33C,0.02165*%
%ADD34C,0.01968*%
G36*
X289912Y294230D02*
X291085Y293744D01*
X292141Y293038D01*
X293038Y292141D01*
X293744Y291085D01*
X294230Y289912D01*
X294477Y288669D01*
X294473Y288037D01*
X294473Y288034D01*
X294473Y288032D01*
X294478Y7248D01*
Y6613D01*
X294230Y5368D01*
X293744Y4195D01*
X293038Y3139D01*
X292141Y2241D01*
X291085Y1536D01*
X289912Y1050D01*
X288666Y802D01*
X288032Y802D01*
X7248Y798D01*
X6613D01*
X5368Y1046D01*
X4195Y1532D01*
X3139Y2237D01*
X2241Y3135D01*
X1536Y4191D01*
X1050Y5364D01*
X802Y6609D01*
Y7244D01*
X798Y288032D01*
X798Y288666D01*
X1046Y289912D01*
X1532Y291085D01*
X2237Y292141D01*
X3135Y293038D01*
X4191Y293744D01*
X5364Y294230D01*
X6607Y294477D01*
X7239Y294473D01*
X7242Y294473D01*
X7244Y294473D01*
X288032Y294478D01*
X288666D01*
X289912Y294230D01*
D02*
G37*
%LPC*%
G36*
X276385Y284477D02*
X274796D01*
X274717Y284461D01*
X274637D01*
X273077Y284151D01*
X273003Y284120D01*
X272924Y284105D01*
X271455Y283496D01*
X271389Y283452D01*
X271314Y283421D01*
X269992Y282538D01*
X269936Y282481D01*
X269869Y282436D01*
X268745Y281312D01*
X268700Y281245D01*
X268643Y281189D01*
X267760Y279867D01*
X267729Y279792D01*
X267685Y279726D01*
X267076Y278257D01*
X267061Y278178D01*
X267030Y278104D01*
X266720Y276545D01*
Y276464D01*
X266704Y276385D01*
Y274796D01*
X266720Y274717D01*
Y274637D01*
X267030Y273077D01*
X267061Y273003D01*
X267076Y272924D01*
X267685Y271455D01*
X267729Y271389D01*
X267760Y271314D01*
X268643Y269992D01*
X268700Y269936D01*
X268745Y269869D01*
X269869Y268745D01*
X269936Y268700D01*
X269992Y268643D01*
X271314Y267760D01*
X271389Y267729D01*
X271455Y267685D01*
X272924Y267076D01*
X273003Y267061D01*
X273077Y267030D01*
X274637Y266720D01*
X274717D01*
X274796Y266704D01*
X276385D01*
X276464Y266720D01*
X276545D01*
X278104Y267030D01*
X278178Y267061D01*
X278257Y267076D01*
X279726Y267685D01*
X279792Y267729D01*
X279867Y267760D01*
X281189Y268643D01*
X281245Y268700D01*
X281312Y268745D01*
X282436Y269869D01*
X282481Y269936D01*
X282538Y269992D01*
X283421Y271314D01*
X283452Y271389D01*
X283496Y271455D01*
X284105Y272924D01*
X284120Y273003D01*
X284151Y273077D01*
X284461Y274637D01*
Y274717D01*
X284477Y274796D01*
Y276385D01*
X284461Y276464D01*
Y276545D01*
X284151Y278104D01*
X284120Y278178D01*
X284105Y278257D01*
X283496Y279726D01*
X283452Y279792D01*
X283421Y279867D01*
X282538Y281189D01*
X282481Y281245D01*
X282436Y281312D01*
X281312Y282436D01*
X281245Y282481D01*
X281189Y282538D01*
X279867Y283421D01*
X279792Y283452D01*
X279726Y283496D01*
X278257Y284105D01*
X278178Y284120D01*
X278104Y284151D01*
X276545Y284461D01*
X276464D01*
X276385Y284477D01*
D02*
G37*
G36*
X20480D02*
X18890D01*
X18811Y284461D01*
X18731D01*
X17172Y284151D01*
X17097Y284120D01*
X17019Y284105D01*
X15550Y283496D01*
X15483Y283452D01*
X15409Y283421D01*
X14087Y282538D01*
X14030Y282481D01*
X13963Y282436D01*
X12839Y281312D01*
X12795Y281245D01*
X12738Y281189D01*
X11855Y279867D01*
X11824Y279792D01*
X11779Y279726D01*
X11171Y278257D01*
X11155Y278178D01*
X11124Y278104D01*
X10814Y276545D01*
Y276464D01*
X10798Y276385D01*
Y274796D01*
X10814Y274717D01*
Y274637D01*
X11124Y273077D01*
X11155Y273003D01*
X11171Y272924D01*
X11779Y271455D01*
X11824Y271389D01*
X11855Y271314D01*
X12738Y269992D01*
X12795Y269936D01*
X12839Y269869D01*
X13963Y268745D01*
X14030Y268700D01*
X14087Y268643D01*
X15409Y267760D01*
X15483Y267729D01*
X15550Y267685D01*
X17019Y267076D01*
X17097Y267061D01*
X17172Y267030D01*
X18731Y266720D01*
X18811D01*
X18890Y266704D01*
X20480D01*
X20559Y266720D01*
X20639D01*
X22198Y267030D01*
X22273Y267061D01*
X22351Y267076D01*
X23820Y267685D01*
X23887Y267729D01*
X23961Y267760D01*
X25283Y268643D01*
X25340Y268700D01*
X25407Y268745D01*
X26531Y269869D01*
X26575Y269936D01*
X26632Y269992D01*
X27516Y271314D01*
X27546Y271389D01*
X27591Y271455D01*
X28199Y272924D01*
X28215Y273003D01*
X28246Y273077D01*
X28556Y274637D01*
Y274717D01*
X28572Y274796D01*
Y276385D01*
X28556Y276464D01*
Y276545D01*
X28246Y278104D01*
X28215Y278178D01*
X28199Y278257D01*
X27591Y279726D01*
X27546Y279792D01*
X27516Y279867D01*
X26632Y281189D01*
X26575Y281245D01*
X26531Y281312D01*
X25407Y282436D01*
X25340Y282481D01*
X25283Y282538D01*
X23961Y283421D01*
X23887Y283452D01*
X23820Y283496D01*
X22351Y284105D01*
X22273Y284120D01*
X22198Y284151D01*
X20639Y284461D01*
X20559D01*
X20480Y284477D01*
D02*
G37*
G36*
X250500Y269982D02*
X249293Y269823D01*
X248167Y269357D01*
X247201Y268616D01*
X246460Y267650D01*
X245994Y266524D01*
X245835Y265317D01*
X245994Y264110D01*
X246460Y262984D01*
X247201Y262018D01*
X248167Y261277D01*
X249293Y260811D01*
X250500Y260652D01*
X251707Y260811D01*
X252833Y261277D01*
X253799Y262018D01*
X254540Y262984D01*
X255006Y264110D01*
X255165Y265317D01*
X255006Y266524D01*
X254540Y267650D01*
X253799Y268616D01*
X252833Y269357D01*
X251707Y269823D01*
X250500Y269982D01*
D02*
G37*
G36*
X210500D02*
X209293Y269823D01*
X208168Y269357D01*
X207201Y268616D01*
X206460Y267650D01*
X205994Y266524D01*
X205835Y265317D01*
X205994Y264110D01*
X206460Y262984D01*
X207201Y262018D01*
X208168Y261277D01*
X209293Y260811D01*
X210500Y260652D01*
X211707Y260811D01*
X212832Y261277D01*
X213799Y262018D01*
X214540Y262984D01*
X215006Y264110D01*
X215165Y265317D01*
X215006Y266524D01*
X214540Y267650D01*
X213799Y268616D01*
X212832Y269357D01*
X211707Y269823D01*
X210500Y269982D01*
D02*
G37*
G36*
X198000D02*
X196793Y269823D01*
X195668Y269357D01*
X194701Y268616D01*
X193960Y267650D01*
X193494Y266524D01*
X193335Y265317D01*
X193494Y264110D01*
X193960Y262984D01*
X194701Y262018D01*
X195668Y261277D01*
X196793Y260811D01*
X198000Y260652D01*
X199207Y260811D01*
X200332Y261277D01*
X201299Y262018D01*
X202040Y262984D01*
X202506Y264110D01*
X202665Y265317D01*
X202506Y266524D01*
X202040Y267650D01*
X201299Y268616D01*
X200332Y269357D01*
X199207Y269823D01*
X198000Y269982D01*
D02*
G37*
G36*
X158000D02*
X156793Y269823D01*
X155668Y269357D01*
X154701Y268616D01*
X153960Y267650D01*
X153494Y266524D01*
X153335Y265317D01*
X153494Y264110D01*
X153960Y262984D01*
X154701Y262018D01*
X155668Y261277D01*
X156793Y260811D01*
X158000Y260652D01*
X159207Y260811D01*
X160332Y261277D01*
X161299Y262018D01*
X162040Y262984D01*
X162506Y264110D01*
X162665Y265317D01*
X162506Y266524D01*
X162040Y267650D01*
X161299Y268616D01*
X160332Y269357D01*
X159207Y269823D01*
X158000Y269982D01*
D02*
G37*
G36*
X143500D02*
X142293Y269823D01*
X141168Y269357D01*
X140201Y268616D01*
X139460Y267650D01*
X138994Y266524D01*
X138835Y265317D01*
X138994Y264110D01*
X139460Y262984D01*
X140201Y262018D01*
X141168Y261277D01*
X142293Y260811D01*
X143500Y260652D01*
X144707Y260811D01*
X145832Y261277D01*
X146799Y262018D01*
X147540Y262984D01*
X148006Y264110D01*
X148165Y265317D01*
X148006Y266524D01*
X147540Y267650D01*
X146799Y268616D01*
X145832Y269357D01*
X144707Y269823D01*
X143500Y269982D01*
D02*
G37*
G36*
X103500D02*
X102293Y269823D01*
X101168Y269357D01*
X100201Y268616D01*
X99460Y267650D01*
X98994Y266524D01*
X98835Y265317D01*
X98994Y264110D01*
X99460Y262984D01*
X100201Y262018D01*
X101168Y261277D01*
X102293Y260811D01*
X103500Y260652D01*
X104707Y260811D01*
X105832Y261277D01*
X106799Y262018D01*
X107540Y262984D01*
X108006Y264110D01*
X108165Y265317D01*
X108006Y266524D01*
X107540Y267650D01*
X106799Y268616D01*
X105832Y269357D01*
X104707Y269823D01*
X103500Y269982D01*
D02*
G37*
G36*
X90866Y269947D02*
X89659Y269788D01*
X88534Y269321D01*
X87568Y268580D01*
X86826Y267614D01*
X86360Y266489D01*
X86201Y265282D01*
X86360Y264074D01*
X86826Y262949D01*
X87568Y261983D01*
X88534Y261242D01*
X89659Y260776D01*
X90866Y260617D01*
X92074Y260776D01*
X93199Y261242D01*
X94165Y261983D01*
X94906Y262949D01*
X95372Y264074D01*
X95531Y265282D01*
X95372Y266489D01*
X94906Y267614D01*
X94165Y268580D01*
X93199Y269321D01*
X92074Y269788D01*
X90866Y269947D01*
D02*
G37*
G36*
X50866D02*
X49659Y269788D01*
X48534Y269321D01*
X47567Y268580D01*
X46826Y267614D01*
X46360Y266489D01*
X46201Y265282D01*
X46360Y264074D01*
X46826Y262949D01*
X47567Y261983D01*
X48534Y261242D01*
X49659Y260776D01*
X50866Y260617D01*
X52074Y260776D01*
X53199Y261242D01*
X54165Y261983D01*
X54906Y262949D01*
X55372Y264074D01*
X55531Y265282D01*
X55372Y266489D01*
X54906Y267614D01*
X54165Y268580D01*
X53199Y269321D01*
X52074Y269788D01*
X50866Y269947D01*
D02*
G37*
G36*
X231500Y247860D02*
Y241278D01*
X238082D01*
X238033Y241776D01*
X237596Y243217D01*
X236886Y244545D01*
X235931Y245709D01*
X234767Y246664D01*
X233439Y247374D01*
X231998Y247811D01*
X231500Y247860D01*
D02*
G37*
G36*
X229500D02*
X229002Y247811D01*
X227561Y247374D01*
X226233Y246664D01*
X225069Y245709D01*
X224114Y244545D01*
X223404Y243217D01*
X222967Y241776D01*
X222918Y241278D01*
X229500D01*
Y247860D01*
D02*
G37*
G36*
X123500Y247757D02*
X122041Y247614D01*
X120638Y247188D01*
X119344Y246497D01*
X118211Y245567D01*
X117281Y244433D01*
X116590Y243140D01*
X116164Y241737D01*
X116020Y240278D01*
X116164Y238818D01*
X116590Y237415D01*
X117281Y236122D01*
X118211Y234989D01*
X119344Y234058D01*
X120638Y233367D01*
X122041Y232942D01*
X123500Y232798D01*
X124959Y232942D01*
X126362Y233367D01*
X127655Y234058D01*
X128789Y234989D01*
X129719Y236122D01*
X130410Y237415D01*
X130836Y238818D01*
X130980Y240278D01*
X130836Y241737D01*
X130410Y243140D01*
X129719Y244433D01*
X128789Y245567D01*
X127655Y246497D01*
X126362Y247188D01*
X124959Y247614D01*
X123500Y247757D01*
D02*
G37*
G36*
X238082Y239278D02*
X231500D01*
Y232695D01*
X231998Y232745D01*
X233439Y233182D01*
X234767Y233891D01*
X235931Y234847D01*
X236886Y236011D01*
X237596Y237338D01*
X238033Y238779D01*
X238082Y239278D01*
D02*
G37*
G36*
X229500D02*
X222918D01*
X222967Y238779D01*
X223404Y237338D01*
X224114Y236011D01*
X225069Y234847D01*
X226233Y233891D01*
X227561Y233182D01*
X229002Y232745D01*
X229500Y232695D01*
Y239278D01*
D02*
G37*
G36*
X250500Y229982D02*
X249293Y229823D01*
X248167Y229357D01*
X247201Y228616D01*
X246460Y227649D01*
X245994Y226524D01*
X245835Y225317D01*
X245994Y224110D01*
X246460Y222985D01*
X247201Y222018D01*
X248167Y221277D01*
X249293Y220811D01*
X250500Y220652D01*
X251707Y220811D01*
X252833Y221277D01*
X253799Y222018D01*
X254540Y222985D01*
X255006Y224110D01*
X255165Y225317D01*
X255006Y226524D01*
X254540Y227649D01*
X253799Y228616D01*
X252833Y229357D01*
X251707Y229823D01*
X250500Y229982D01*
D02*
G37*
G36*
X210500D02*
X209293Y229823D01*
X208168Y229357D01*
X207201Y228616D01*
X206460Y227649D01*
X205994Y226524D01*
X205835Y225317D01*
X205994Y224110D01*
X206460Y222985D01*
X207201Y222018D01*
X208168Y221277D01*
X209293Y220811D01*
X210500Y220652D01*
X211707Y220811D01*
X212832Y221277D01*
X213799Y222018D01*
X214540Y222985D01*
X215006Y224110D01*
X215165Y225317D01*
X215006Y226524D01*
X214540Y227649D01*
X213799Y228616D01*
X212832Y229357D01*
X211707Y229823D01*
X210500Y229982D01*
D02*
G37*
G36*
X198000D02*
X196793Y229823D01*
X195668Y229357D01*
X194701Y228616D01*
X193960Y227649D01*
X193494Y226524D01*
X193335Y225317D01*
X193494Y224110D01*
X193960Y222985D01*
X194701Y222018D01*
X195668Y221277D01*
X196793Y220811D01*
X198000Y220652D01*
X199207Y220811D01*
X200332Y221277D01*
X201299Y222018D01*
X202040Y222985D01*
X202506Y224110D01*
X202665Y225317D01*
X202506Y226524D01*
X202040Y227649D01*
X201299Y228616D01*
X200332Y229357D01*
X199207Y229823D01*
X198000Y229982D01*
D02*
G37*
G36*
X158000D02*
X156793Y229823D01*
X155668Y229357D01*
X154701Y228616D01*
X153960Y227649D01*
X153494Y226524D01*
X153335Y225317D01*
X153494Y224110D01*
X153960Y222985D01*
X154701Y222018D01*
X155668Y221277D01*
X156793Y220811D01*
X158000Y220652D01*
X159207Y220811D01*
X160332Y221277D01*
X161299Y222018D01*
X162040Y222985D01*
X162506Y224110D01*
X162665Y225317D01*
X162506Y226524D01*
X162040Y227649D01*
X161299Y228616D01*
X160332Y229357D01*
X159207Y229823D01*
X158000Y229982D01*
D02*
G37*
G36*
X143500D02*
X142293Y229823D01*
X141168Y229357D01*
X140201Y228616D01*
X139460Y227649D01*
X138994Y226524D01*
X138835Y225317D01*
X138994Y224110D01*
X139460Y222985D01*
X140201Y222018D01*
X141168Y221277D01*
X142293Y220811D01*
X143500Y220652D01*
X144707Y220811D01*
X145832Y221277D01*
X146799Y222018D01*
X147540Y222985D01*
X148006Y224110D01*
X148165Y225317D01*
X148006Y226524D01*
X147540Y227649D01*
X146799Y228616D01*
X145832Y229357D01*
X144707Y229823D01*
X143500Y229982D01*
D02*
G37*
G36*
X103500D02*
X102293Y229823D01*
X101168Y229357D01*
X100201Y228616D01*
X99460Y227649D01*
X98994Y226524D01*
X98835Y225317D01*
X98994Y224110D01*
X99460Y222985D01*
X100201Y222018D01*
X101168Y221277D01*
X102293Y220811D01*
X103500Y220652D01*
X104707Y220811D01*
X105832Y221277D01*
X106799Y222018D01*
X107540Y222985D01*
X108006Y224110D01*
X108165Y225317D01*
X108006Y226524D01*
X107540Y227649D01*
X106799Y228616D01*
X105832Y229357D01*
X104707Y229823D01*
X103500Y229982D01*
D02*
G37*
G36*
X90866Y229946D02*
X89659Y229787D01*
X88534Y229322D01*
X87568Y228580D01*
X86826Y227614D01*
X86360Y226489D01*
X86201Y225282D01*
X86360Y224074D01*
X86826Y222949D01*
X87568Y221983D01*
X88534Y221242D01*
X89659Y220776D01*
X90866Y220617D01*
X92074Y220776D01*
X93199Y221242D01*
X94165Y221983D01*
X94906Y222949D01*
X95372Y224074D01*
X95531Y225282D01*
X95372Y226489D01*
X94906Y227614D01*
X94165Y228580D01*
X93199Y229322D01*
X92074Y229787D01*
X90866Y229946D01*
D02*
G37*
G36*
X50866D02*
X49659Y229787D01*
X48534Y229322D01*
X47567Y228580D01*
X46826Y227614D01*
X46360Y226489D01*
X46201Y225282D01*
X46360Y224074D01*
X46826Y222949D01*
X47567Y221983D01*
X48534Y221242D01*
X49659Y220776D01*
X50866Y220617D01*
X52074Y220776D01*
X53199Y221242D01*
X54165Y221983D01*
X54906Y222949D01*
X55372Y224074D01*
X55531Y225282D01*
X55372Y226489D01*
X54906Y227614D01*
X54165Y228580D01*
X53199Y229322D01*
X52074Y229787D01*
X50866Y229946D01*
D02*
G37*
G36*
X28405Y225199D02*
X27544Y225085D01*
X26741Y224753D01*
X26052Y224224D01*
X25523Y223534D01*
X25190Y222732D01*
X25077Y221870D01*
X25190Y221009D01*
X25523Y220206D01*
X26052Y219516D01*
X26741Y218987D01*
X27544Y218655D01*
X28405Y218542D01*
X29267Y218655D01*
X30070Y218987D01*
X30759Y219516D01*
X31288Y220206D01*
X31621Y221009D01*
X31734Y221870D01*
X31621Y222732D01*
X31288Y223534D01*
X30759Y224224D01*
X30070Y224753D01*
X29267Y225085D01*
X28405Y225199D01*
D02*
G37*
G36*
X9513Y192631D02*
X8817Y192493D01*
X8226Y192098D01*
X7832Y191508D01*
X7694Y190812D01*
X7832Y190116D01*
X8226Y189525D01*
X8817Y189131D01*
X9513Y188993D01*
X10209Y189131D01*
X10359Y189231D01*
X183534D01*
X214420Y158345D01*
Y156663D01*
X214069Y156446D01*
X213632Y156334D01*
X212942Y156864D01*
X212005Y157252D01*
X211000Y157384D01*
X209995Y157252D01*
X209058Y156864D01*
X208253Y156247D01*
X207636Y155442D01*
X207248Y154505D01*
X207116Y153500D01*
X207248Y152495D01*
X207636Y151558D01*
X208253Y150753D01*
X209058Y150136D01*
X209995Y149748D01*
X211000Y149616D01*
X212005Y149748D01*
X212942Y150136D01*
X213632Y150665D01*
X214069Y150554D01*
X214420Y150337D01*
Y148500D01*
X214540Y147895D01*
X214882Y147382D01*
X217398Y144867D01*
X217248Y144505D01*
X217116Y143500D01*
X217248Y142495D01*
X217636Y141558D01*
X218253Y140753D01*
X219058Y140136D01*
X219995Y139748D01*
X221000Y139616D01*
X222005Y139748D01*
X222942Y140136D01*
X223747Y140753D01*
X224364Y141558D01*
X224752Y142495D01*
X224884Y143500D01*
X224752Y144505D01*
X224364Y145442D01*
X223747Y146247D01*
X222942Y146864D01*
X222005Y147252D01*
X221000Y147384D01*
X219995Y147252D01*
X219633Y147102D01*
X217580Y149155D01*
Y150337D01*
X217931Y150554D01*
X218368Y150665D01*
X219058Y150136D01*
X219995Y149748D01*
X221000Y149616D01*
X222005Y149748D01*
X222942Y150136D01*
X223747Y150753D01*
X224364Y151558D01*
X224752Y152495D01*
X224884Y153500D01*
X224752Y154505D01*
X224364Y155442D01*
X223747Y156247D01*
X222942Y156864D01*
X222005Y157252D01*
X221000Y157384D01*
X219995Y157252D01*
X219058Y156864D01*
X218368Y156334D01*
X217931Y156446D01*
X217580Y156663D01*
Y159000D01*
X217460Y159605D01*
X217118Y160117D01*
X185306Y191929D01*
X184793Y192272D01*
X184188Y192392D01*
X10359D01*
X10209Y192493D01*
X9513Y192631D01*
D02*
G37*
G36*
Y186381D02*
X8817Y186243D01*
X8226Y185848D01*
X7832Y185258D01*
X7694Y184562D01*
X7832Y183866D01*
X8226Y183275D01*
X8817Y182881D01*
X9513Y182743D01*
X10209Y182881D01*
X10359Y182981D01*
X172284D01*
X194420Y160845D01*
Y156663D01*
X194069Y156446D01*
X193632Y156334D01*
X192942Y156864D01*
X192005Y157252D01*
X191000Y157384D01*
X189995Y157252D01*
X189058Y156864D01*
X188253Y156247D01*
X187636Y155442D01*
X187248Y154505D01*
X187116Y153500D01*
X187248Y152495D01*
X187636Y151558D01*
X188253Y150753D01*
X189058Y150136D01*
X189995Y149748D01*
X191000Y149616D01*
X192005Y149748D01*
X192942Y150136D01*
X193632Y150665D01*
X194069Y150554D01*
X194420Y150337D01*
Y148500D01*
X194540Y147895D01*
X194883Y147382D01*
X197398Y144867D01*
X197248Y144505D01*
X197116Y143500D01*
X197248Y142495D01*
X197636Y141558D01*
X198253Y140753D01*
X199058Y140136D01*
X199995Y139748D01*
X201000Y139616D01*
X202005Y139748D01*
X202942Y140136D01*
X203747Y140753D01*
X204364Y141558D01*
X204752Y142495D01*
X204884Y143500D01*
X204752Y144505D01*
X204364Y145442D01*
X203747Y146247D01*
X202942Y146864D01*
X202005Y147252D01*
X201000Y147384D01*
X199995Y147252D01*
X199633Y147102D01*
X197580Y149155D01*
Y150337D01*
X197931Y150554D01*
X198368Y150665D01*
X199058Y150136D01*
X199995Y149748D01*
X201000Y149616D01*
X202005Y149748D01*
X202942Y150136D01*
X203747Y150753D01*
X204364Y151558D01*
X204752Y152495D01*
X204884Y153500D01*
X204752Y154505D01*
X204364Y155442D01*
X203747Y156247D01*
X202942Y156864D01*
X202005Y157252D01*
X201000Y157384D01*
X199995Y157252D01*
X199058Y156864D01*
X198368Y156334D01*
X197931Y156446D01*
X197580Y156663D01*
Y161500D01*
X197460Y162105D01*
X197117Y162618D01*
X174056Y185679D01*
X173543Y186022D01*
X172938Y186142D01*
X10359D01*
X10209Y186243D01*
X9513Y186381D01*
D02*
G37*
G36*
Y173881D02*
X8817Y173743D01*
X8226Y173348D01*
X7832Y172758D01*
X7694Y172062D01*
X7832Y171366D01*
X8226Y170775D01*
X8817Y170381D01*
X9513Y170243D01*
X10209Y170381D01*
X10359Y170481D01*
X143784D01*
X154818Y159447D01*
Y156472D01*
X154031Y156205D01*
X153889Y156389D01*
X153043Y157039D01*
X152058Y157447D01*
X152000Y157455D01*
Y153500D01*
Y149546D01*
X152058Y149553D01*
X153043Y149961D01*
X153889Y150611D01*
X154031Y150795D01*
X154818Y150528D01*
Y148101D01*
X154939Y147496D01*
X155281Y146984D01*
X157398Y144867D01*
X157248Y144505D01*
X157116Y143500D01*
X157248Y142495D01*
X157636Y141558D01*
X158253Y140753D01*
X159058Y140136D01*
X159995Y139748D01*
X161000Y139616D01*
X162005Y139748D01*
X162942Y140136D01*
X163747Y140753D01*
X164364Y141558D01*
X164752Y142495D01*
X164884Y143500D01*
X164752Y144505D01*
X164364Y145442D01*
X163747Y146247D01*
X162942Y146864D01*
X162005Y147252D01*
X161000Y147384D01*
X159995Y147252D01*
X159633Y147102D01*
X157979Y148756D01*
Y149971D01*
X158767Y150359D01*
X159058Y150136D01*
X159995Y149748D01*
X161000Y149616D01*
X162005Y149748D01*
X162942Y150136D01*
X163747Y150753D01*
X164364Y151558D01*
X164752Y152495D01*
X164884Y153500D01*
X164752Y154505D01*
X164364Y155442D01*
X163747Y156247D01*
X162942Y156864D01*
X162005Y157252D01*
X161000Y157384D01*
X159995Y157252D01*
X159058Y156864D01*
X158767Y156641D01*
X157979Y157029D01*
Y160101D01*
X157859Y160706D01*
X157516Y161219D01*
X145556Y173179D01*
X145043Y173522D01*
X144438Y173642D01*
X10359D01*
X10209Y173743D01*
X9513Y173881D01*
D02*
G37*
G36*
Y180131D02*
X8817Y179993D01*
X8226Y179598D01*
X7832Y179008D01*
X7694Y178312D01*
X7832Y177616D01*
X8226Y177025D01*
X8817Y176631D01*
X9513Y176493D01*
X10209Y176631D01*
X10359Y176731D01*
X156534D01*
X174819Y158447D01*
Y156143D01*
X174031Y155876D01*
X173747Y156247D01*
X172942Y156864D01*
X172005Y157252D01*
X171000Y157384D01*
X169995Y157252D01*
X169058Y156864D01*
X168253Y156247D01*
X167636Y155442D01*
X167248Y154505D01*
X167116Y153500D01*
X167248Y152495D01*
X167636Y151558D01*
X168253Y150753D01*
X169058Y150136D01*
X169995Y149748D01*
X171000Y149616D01*
X172005Y149748D01*
X172942Y150136D01*
X173747Y150753D01*
X174031Y151124D01*
X174819Y150857D01*
Y148101D01*
X174939Y147496D01*
X175281Y146984D01*
X177398Y144867D01*
X177248Y144505D01*
X177116Y143500D01*
X177248Y142495D01*
X177636Y141558D01*
X178253Y140753D01*
X179058Y140136D01*
X179995Y139748D01*
X181000Y139616D01*
X182005Y139748D01*
X182942Y140136D01*
X183747Y140753D01*
X184364Y141558D01*
X184752Y142495D01*
X184884Y143500D01*
X184752Y144505D01*
X184364Y145442D01*
X183747Y146247D01*
X182942Y146864D01*
X182005Y147252D01*
X181000Y147384D01*
X179995Y147252D01*
X179633Y147102D01*
X177979Y148756D01*
Y149971D01*
X178767Y150359D01*
X179058Y150136D01*
X179995Y149748D01*
X181000Y149616D01*
X182005Y149748D01*
X182942Y150136D01*
X183747Y150753D01*
X184364Y151558D01*
X184752Y152495D01*
X184884Y153500D01*
X184752Y154505D01*
X184364Y155442D01*
X183747Y156247D01*
X182942Y156864D01*
X182005Y157252D01*
X181000Y157384D01*
X179995Y157252D01*
X179058Y156864D01*
X178767Y156641D01*
X177979Y157029D01*
Y159101D01*
X177859Y159706D01*
X177516Y160219D01*
X158306Y179429D01*
X157793Y179772D01*
X157188Y179892D01*
X10359D01*
X10209Y179993D01*
X9513Y180131D01*
D02*
G37*
G36*
Y167631D02*
X8817Y167493D01*
X8226Y167098D01*
X7832Y166508D01*
X7694Y165812D01*
X7832Y165116D01*
X8226Y164525D01*
X8817Y164131D01*
X9513Y163993D01*
X10209Y164131D01*
X10359Y164231D01*
X119034D01*
X124819Y158447D01*
Y156143D01*
X124031Y155876D01*
X123747Y156247D01*
X122942Y156864D01*
X122005Y157252D01*
X121000Y157384D01*
X119995Y157252D01*
X119058Y156864D01*
X118253Y156247D01*
X117636Y155442D01*
X117248Y154505D01*
X117116Y153500D01*
X117248Y152495D01*
X117636Y151558D01*
X118253Y150753D01*
X119058Y150136D01*
X119995Y149748D01*
X121000Y149616D01*
X122005Y149748D01*
X122942Y150136D01*
X123747Y150753D01*
X124031Y151124D01*
X124819Y150857D01*
Y148101D01*
X124939Y147496D01*
X125281Y146984D01*
X127398Y144867D01*
X127248Y144505D01*
X127116Y143500D01*
X127248Y142495D01*
X127636Y141558D01*
X128253Y140753D01*
X129058Y140136D01*
X129995Y139748D01*
X131000Y139616D01*
X132005Y139748D01*
X132942Y140136D01*
X133747Y140753D01*
X134364Y141558D01*
X134752Y142495D01*
X134884Y143500D01*
X134752Y144505D01*
X134364Y145442D01*
X133747Y146247D01*
X132942Y146864D01*
X132005Y147252D01*
X131000Y147384D01*
X129995Y147252D01*
X129633Y147102D01*
X127979Y148756D01*
Y149971D01*
X128767Y150359D01*
X129058Y150136D01*
X129995Y149748D01*
X131000Y149616D01*
X132005Y149748D01*
X132942Y150136D01*
X133747Y150753D01*
X134364Y151558D01*
X134752Y152495D01*
X134884Y153500D01*
X134752Y154505D01*
X134364Y155442D01*
X133747Y156247D01*
X132942Y156864D01*
X132005Y157252D01*
X131000Y157384D01*
X129995Y157252D01*
X129058Y156864D01*
X128767Y156641D01*
X127979Y157029D01*
Y159101D01*
X127859Y159706D01*
X127516Y160219D01*
X120806Y166929D01*
X120293Y167272D01*
X119688Y167392D01*
X10359D01*
X10209Y167493D01*
X9513Y167631D01*
D02*
G37*
G36*
X242000Y157455D02*
Y154500D01*
X244954D01*
X244947Y154558D01*
X244539Y155543D01*
X243889Y156389D01*
X243043Y157039D01*
X242058Y157447D01*
X242000Y157455D01*
D02*
G37*
G36*
X240000D02*
X239942Y157447D01*
X238957Y157039D01*
X238111Y156389D01*
X237461Y155543D01*
X237053Y154558D01*
X237046Y154500D01*
X240000D01*
Y157455D01*
D02*
G37*
G36*
X150000D02*
X149942Y157447D01*
X148957Y157039D01*
X148111Y156389D01*
X147461Y155543D01*
X147053Y154558D01*
X147046Y154500D01*
X150000D01*
Y157455D01*
D02*
G37*
G36*
X231000Y157384D02*
X229995Y157252D01*
X229058Y156864D01*
X228253Y156247D01*
X227636Y155442D01*
X227248Y154505D01*
X227116Y153500D01*
X227248Y152495D01*
X227636Y151558D01*
X228253Y150753D01*
X229058Y150136D01*
X229995Y149748D01*
X231000Y149616D01*
X232005Y149748D01*
X232942Y150136D01*
X233747Y150753D01*
X234364Y151558D01*
X234752Y152495D01*
X234884Y153500D01*
X234752Y154505D01*
X234364Y155442D01*
X233747Y156247D01*
X232942Y156864D01*
X232005Y157252D01*
X231000Y157384D01*
D02*
G37*
G36*
X141000D02*
X139995Y157252D01*
X139058Y156864D01*
X138253Y156247D01*
X137636Y155442D01*
X137248Y154505D01*
X137116Y153500D01*
X137248Y152495D01*
X137636Y151558D01*
X138253Y150753D01*
X139058Y150136D01*
X139995Y149748D01*
X141000Y149616D01*
X142005Y149748D01*
X142942Y150136D01*
X143747Y150753D01*
X144364Y151558D01*
X144752Y152495D01*
X144884Y153500D01*
X144752Y154505D01*
X144364Y155442D01*
X143747Y156247D01*
X142942Y156864D01*
X142005Y157252D01*
X141000Y157384D01*
D02*
G37*
G36*
X9513Y161131D02*
X8817Y160993D01*
X8226Y160598D01*
X7832Y160008D01*
X7694Y159312D01*
X7832Y158616D01*
X8226Y158025D01*
X8817Y157631D01*
X9513Y157493D01*
X10209Y157631D01*
X10359Y157731D01*
X99094D01*
X99251Y156944D01*
X99058Y156864D01*
X98253Y156247D01*
X97636Y155442D01*
X97248Y154505D01*
X97116Y153500D01*
X97248Y152495D01*
X97636Y151558D01*
X98253Y150753D01*
X99058Y150136D01*
X99995Y149748D01*
X101000Y149616D01*
X102005Y149748D01*
X102942Y150136D01*
X103522Y150581D01*
X104309Y150273D01*
Y148610D01*
X104430Y148005D01*
X104772Y147493D01*
X107398Y144867D01*
X107248Y144505D01*
X107116Y143500D01*
X107248Y142495D01*
X107636Y141558D01*
X108253Y140753D01*
X109058Y140136D01*
X109995Y139748D01*
X111000Y139616D01*
X112005Y139748D01*
X112942Y140136D01*
X113747Y140753D01*
X114364Y141558D01*
X114752Y142495D01*
X114884Y143500D01*
X114752Y144505D01*
X114364Y145442D01*
X113747Y146247D01*
X112942Y146864D01*
X112005Y147252D01*
X111000Y147384D01*
X109995Y147252D01*
X109633Y147102D01*
X107470Y149265D01*
Y150480D01*
X108253Y150753D01*
X109058Y150136D01*
X109995Y149748D01*
X111000Y149616D01*
X112005Y149748D01*
X112942Y150136D01*
X113747Y150753D01*
X114364Y151558D01*
X114752Y152495D01*
X114884Y153500D01*
X114752Y154505D01*
X114364Y155442D01*
X113747Y156247D01*
X112942Y156864D01*
X112005Y157252D01*
X111000Y157384D01*
X109995Y157252D01*
X109058Y156864D01*
X108253Y156247D01*
X108051Y155983D01*
X108025Y155973D01*
X107121Y156064D01*
X107007Y156235D01*
X102813Y160429D01*
X102300Y160772D01*
X101695Y160892D01*
X10359D01*
X10209Y160993D01*
X9513Y161131D01*
D02*
G37*
G36*
X244954Y152500D02*
X242000D01*
Y149546D01*
X242058Y149553D01*
X243043Y149961D01*
X243889Y150611D01*
X244539Y151457D01*
X244947Y152442D01*
X244954Y152500D01*
D02*
G37*
G36*
X240000D02*
X237046D01*
X237053Y152442D01*
X237461Y151457D01*
X238111Y150611D01*
X238957Y149961D01*
X239942Y149553D01*
X240000Y149546D01*
Y152500D01*
D02*
G37*
G36*
X150000D02*
X147046D01*
X147053Y152442D01*
X147461Y151457D01*
X148111Y150611D01*
X148957Y149961D01*
X149942Y149553D01*
X150000Y149546D01*
Y152500D01*
D02*
G37*
G36*
X241000Y147384D02*
X239995Y147252D01*
X239058Y146864D01*
X238253Y146247D01*
X237636Y145442D01*
X237248Y144505D01*
X237116Y143500D01*
X237248Y142495D01*
X237636Y141558D01*
X238253Y140753D01*
X239058Y140136D01*
X239995Y139748D01*
X241000Y139616D01*
X242005Y139748D01*
X242942Y140136D01*
X243747Y140753D01*
X244364Y141558D01*
X244752Y142495D01*
X244884Y143500D01*
X244752Y144505D01*
X244364Y145442D01*
X243747Y146247D01*
X242942Y146864D01*
X242005Y147252D01*
X241000Y147384D01*
D02*
G37*
G36*
X231000D02*
X229995Y147252D01*
X229058Y146864D01*
X228253Y146247D01*
X227636Y145442D01*
X227248Y144505D01*
X227116Y143500D01*
X227248Y142495D01*
X227636Y141558D01*
X228253Y140753D01*
X229058Y140136D01*
X229995Y139748D01*
X231000Y139616D01*
X232005Y139748D01*
X232942Y140136D01*
X233747Y140753D01*
X234364Y141558D01*
X234752Y142495D01*
X234884Y143500D01*
X234752Y144505D01*
X234364Y145442D01*
X233747Y146247D01*
X232942Y146864D01*
X232005Y147252D01*
X231000Y147384D01*
D02*
G37*
G36*
X211000D02*
X209995Y147252D01*
X209058Y146864D01*
X208253Y146247D01*
X207636Y145442D01*
X207248Y144505D01*
X207116Y143500D01*
X207248Y142495D01*
X207636Y141558D01*
X208253Y140753D01*
X209058Y140136D01*
X209995Y139748D01*
X211000Y139616D01*
X212005Y139748D01*
X212942Y140136D01*
X213747Y140753D01*
X214364Y141558D01*
X214752Y142495D01*
X214884Y143500D01*
X214752Y144505D01*
X214364Y145442D01*
X213747Y146247D01*
X212942Y146864D01*
X212005Y147252D01*
X211000Y147384D01*
D02*
G37*
G36*
X191000D02*
X189995Y147252D01*
X189058Y146864D01*
X188253Y146247D01*
X187636Y145442D01*
X187248Y144505D01*
X187116Y143500D01*
X187248Y142495D01*
X187636Y141558D01*
X188253Y140753D01*
X189058Y140136D01*
X189995Y139748D01*
X191000Y139616D01*
X192005Y139748D01*
X192942Y140136D01*
X193747Y140753D01*
X194364Y141558D01*
X194752Y142495D01*
X194884Y143500D01*
X194752Y144505D01*
X194364Y145442D01*
X193747Y146247D01*
X192942Y146864D01*
X192005Y147252D01*
X191000Y147384D01*
D02*
G37*
G36*
X171000D02*
X169995Y147252D01*
X169058Y146864D01*
X168253Y146247D01*
X167636Y145442D01*
X167248Y144505D01*
X167116Y143500D01*
X167248Y142495D01*
X167636Y141558D01*
X168253Y140753D01*
X169058Y140136D01*
X169995Y139748D01*
X171000Y139616D01*
X172005Y139748D01*
X172942Y140136D01*
X173747Y140753D01*
X174364Y141558D01*
X174752Y142495D01*
X174884Y143500D01*
X174752Y144505D01*
X174364Y145442D01*
X173747Y146247D01*
X172942Y146864D01*
X172005Y147252D01*
X171000Y147384D01*
D02*
G37*
G36*
X151000D02*
X149995Y147252D01*
X149058Y146864D01*
X148253Y146247D01*
X147636Y145442D01*
X147248Y144505D01*
X147116Y143500D01*
X147248Y142495D01*
X147636Y141558D01*
X148253Y140753D01*
X149058Y140136D01*
X149995Y139748D01*
X151000Y139616D01*
X152005Y139748D01*
X152942Y140136D01*
X153747Y140753D01*
X154364Y141558D01*
X154752Y142495D01*
X154884Y143500D01*
X154752Y144505D01*
X154364Y145442D01*
X153747Y146247D01*
X152942Y146864D01*
X152005Y147252D01*
X151000Y147384D01*
D02*
G37*
G36*
X141000D02*
X139995Y147252D01*
X139058Y146864D01*
X138253Y146247D01*
X137636Y145442D01*
X137248Y144505D01*
X137116Y143500D01*
X137248Y142495D01*
X137636Y141558D01*
X138253Y140753D01*
X139058Y140136D01*
X139995Y139748D01*
X141000Y139616D01*
X142005Y139748D01*
X142942Y140136D01*
X143747Y140753D01*
X144364Y141558D01*
X144752Y142495D01*
X144884Y143500D01*
X144752Y144505D01*
X144364Y145442D01*
X143747Y146247D01*
X142942Y146864D01*
X142005Y147252D01*
X141000Y147384D01*
D02*
G37*
G36*
X121000D02*
X119995Y147252D01*
X119058Y146864D01*
X118253Y146247D01*
X117636Y145442D01*
X117248Y144505D01*
X117116Y143500D01*
X117248Y142495D01*
X117636Y141558D01*
X118253Y140753D01*
X119058Y140136D01*
X119995Y139748D01*
X121000Y139616D01*
X122005Y139748D01*
X122942Y140136D01*
X123747Y140753D01*
X124364Y141558D01*
X124752Y142495D01*
X124884Y143500D01*
X124752Y144505D01*
X124364Y145442D01*
X123747Y146247D01*
X122942Y146864D01*
X122005Y147252D01*
X121000Y147384D01*
D02*
G37*
G36*
X101000D02*
X99995Y147252D01*
X99058Y146864D01*
X98253Y146247D01*
X97636Y145442D01*
X97248Y144505D01*
X97116Y143500D01*
X97248Y142495D01*
X97636Y141558D01*
X98253Y140753D01*
X99058Y140136D01*
X99995Y139748D01*
X101000Y139616D01*
X102005Y139748D01*
X102942Y140136D01*
X103747Y140753D01*
X104364Y141558D01*
X104752Y142495D01*
X104884Y143500D01*
X104752Y144505D01*
X104364Y145442D01*
X103747Y146247D01*
X102942Y146864D01*
X102005Y147252D01*
X101000Y147384D01*
D02*
G37*
G36*
X9513Y154881D02*
X8817Y154743D01*
X8226Y154348D01*
X7832Y153758D01*
X7694Y153062D01*
X7832Y152366D01*
X8226Y151775D01*
X8817Y151381D01*
X9513Y151243D01*
X10209Y151381D01*
X10359Y151481D01*
X68284D01*
X85883Y133882D01*
X86395Y133540D01*
X87000Y133420D01*
X217345D01*
X235666Y115099D01*
Y109674D01*
X234879Y109334D01*
X234364Y109729D01*
X233500Y110087D01*
Y106500D01*
Y102913D01*
X234364Y103271D01*
X234879Y103666D01*
X235666Y103326D01*
Y101753D01*
X235787Y101148D01*
X236129Y100636D01*
X239169Y97596D01*
X239093Y97413D01*
X238973Y96500D01*
X239093Y95587D01*
X239445Y94736D01*
X240006Y94006D01*
X240737Y93445D01*
X241587Y93093D01*
X242500Y92973D01*
X243275Y93075D01*
X254981Y78871D01*
Y67509D01*
X254194Y67121D01*
X253922Y67330D01*
X252995Y67714D01*
X252000Y67845D01*
X251005Y67714D01*
X250078Y67330D01*
X249281Y66719D01*
X248930Y66260D01*
X248142Y66527D01*
Y79438D01*
X248097Y79668D01*
X248073Y79900D01*
X248037Y79968D01*
X248022Y80043D01*
X247892Y80237D01*
X247781Y80443D01*
X235704Y95097D01*
X235907Y95587D01*
X236027Y96500D01*
X235907Y97413D01*
X235555Y98264D01*
X234994Y98994D01*
X234263Y99555D01*
X233413Y99907D01*
X232500Y100027D01*
X231587Y99907D01*
X230736Y99555D01*
X230006Y98994D01*
X229446Y98264D01*
X229093Y97413D01*
X228973Y96500D01*
X229093Y95587D01*
X229446Y94736D01*
X230006Y94006D01*
X230736Y93445D01*
X231587Y93093D01*
X232500Y92973D01*
X233275Y93075D01*
X244981Y78871D01*
Y67509D01*
X244194Y67121D01*
X243922Y67330D01*
X242995Y67714D01*
X242000Y67845D01*
X241005Y67714D01*
X240078Y67330D01*
X239281Y66719D01*
X238930Y66260D01*
X238142Y66527D01*
Y79438D01*
X238097Y79668D01*
X238073Y79900D01*
X238037Y79968D01*
X238022Y80043D01*
X237892Y80237D01*
X237781Y80443D01*
X225704Y95097D01*
X225907Y95587D01*
X226027Y96500D01*
X225907Y97413D01*
X225554Y98264D01*
X224994Y98994D01*
X224264Y99555D01*
X223413Y99907D01*
X222500Y100027D01*
X221587Y99907D01*
X221404Y99831D01*
X218580Y102655D01*
Y104768D01*
X219368Y104924D01*
X219445Y104736D01*
X220006Y104006D01*
X220737Y103445D01*
X221587Y103093D01*
X222500Y102973D01*
X223413Y103093D01*
X224264Y103445D01*
X224994Y104006D01*
X225554Y104736D01*
X225907Y105587D01*
X226027Y106500D01*
X225907Y107413D01*
X225554Y108264D01*
X224994Y108994D01*
X224264Y109555D01*
X223413Y109907D01*
X222500Y110027D01*
X221587Y109907D01*
X220737Y109555D01*
X220006Y108994D01*
X219445Y108264D01*
X219368Y108076D01*
X218580Y108232D01*
Y114000D01*
X218460Y114605D01*
X218117Y115118D01*
X201117Y132117D01*
X200605Y132460D01*
X200000Y132580D01*
X79655D01*
X64306Y147929D01*
X63793Y148272D01*
X63188Y148392D01*
X10359D01*
X10209Y148493D01*
X9513Y148631D01*
X8817Y148493D01*
X8226Y148098D01*
X7832Y147508D01*
X7694Y146812D01*
X7832Y146116D01*
X8226Y145525D01*
X8817Y145131D01*
X9513Y144993D01*
X10209Y145131D01*
X10359Y145231D01*
X62534D01*
X77882Y129883D01*
X78395Y129540D01*
X79000Y129420D01*
X199345D01*
X215420Y113345D01*
Y109660D01*
X214632Y109272D01*
X214264Y109555D01*
X213413Y109907D01*
X212500Y110027D01*
X211587Y109907D01*
X210736Y109555D01*
X210006Y108994D01*
X209446Y108264D01*
X209093Y107413D01*
X208973Y106500D01*
X209093Y105587D01*
X209446Y104736D01*
X210006Y104006D01*
X210736Y103445D01*
X211587Y103093D01*
X212500Y102973D01*
X213413Y103093D01*
X214264Y103445D01*
X214632Y103728D01*
X215420Y103340D01*
Y102000D01*
X215540Y101395D01*
X215882Y100882D01*
X219169Y97596D01*
X219093Y97413D01*
X218973Y96500D01*
X219093Y95587D01*
X219445Y94736D01*
X220006Y94006D01*
X220737Y93445D01*
X221587Y93093D01*
X222500Y92973D01*
X223275Y93075D01*
X234981Y78871D01*
Y67509D01*
X234194Y67121D01*
X233922Y67330D01*
X232995Y67714D01*
X232000Y67845D01*
X231005Y67714D01*
X230078Y67330D01*
X229281Y66719D01*
X228930Y66260D01*
X228142Y66527D01*
Y79438D01*
X228097Y79668D01*
X228073Y79900D01*
X228037Y79968D01*
X228022Y80043D01*
X227892Y80237D01*
X227781Y80443D01*
X215704Y95097D01*
X215907Y95587D01*
X216027Y96500D01*
X215907Y97413D01*
X215554Y98264D01*
X214994Y98994D01*
X214264Y99555D01*
X213413Y99907D01*
X212500Y100027D01*
X211587Y99907D01*
X210736Y99555D01*
X210006Y98994D01*
X209446Y98264D01*
X209093Y97413D01*
X208973Y96500D01*
X209093Y95587D01*
X209446Y94736D01*
X210006Y94006D01*
X210736Y93445D01*
X211587Y93093D01*
X212500Y92973D01*
X213275Y93075D01*
X224981Y78871D01*
Y67509D01*
X224194Y67121D01*
X223922Y67330D01*
X222995Y67714D01*
X222000Y67845D01*
X221005Y67714D01*
X220078Y67330D01*
X219281Y66719D01*
X218930Y66260D01*
X218142Y66527D01*
Y79438D01*
X218097Y79668D01*
X218073Y79900D01*
X218037Y79968D01*
X218022Y80043D01*
X217892Y80237D01*
X217781Y80443D01*
X205704Y95097D01*
X205907Y95587D01*
X206027Y96500D01*
X205907Y97413D01*
X205555Y98264D01*
X204994Y98994D01*
X204263Y99555D01*
X203413Y99907D01*
X202500Y100027D01*
X201587Y99907D01*
X201404Y99831D01*
X199080Y102155D01*
Y103919D01*
X199868Y104186D01*
X200006Y104006D01*
X200736Y103445D01*
X201587Y103093D01*
X202500Y102973D01*
X203413Y103093D01*
X204263Y103445D01*
X204994Y104006D01*
X205555Y104736D01*
X205907Y105587D01*
X206027Y106500D01*
X205907Y107413D01*
X205555Y108264D01*
X204994Y108994D01*
X204263Y109555D01*
X203413Y109907D01*
X202500Y110027D01*
X201587Y109907D01*
X200736Y109555D01*
X200006Y108994D01*
X199868Y108814D01*
X199080Y109081D01*
Y111000D01*
X198960Y111605D01*
X198617Y112118D01*
X183117Y127618D01*
X182605Y127960D01*
X182000Y128080D01*
X75655D01*
X62117Y141618D01*
X61605Y141960D01*
X61000Y142080D01*
X10346D01*
X10196Y142181D01*
X9500Y142319D01*
X8804Y142181D01*
X8214Y141786D01*
X7819Y141196D01*
X7681Y140500D01*
X7819Y139804D01*
X8214Y139214D01*
X8804Y138819D01*
X9500Y138681D01*
X10196Y138819D01*
X10346Y138920D01*
X60345D01*
X73883Y125382D01*
X74395Y125040D01*
X75000Y124920D01*
X181345D01*
X195920Y110345D01*
Y109081D01*
X195132Y108814D01*
X194994Y108994D01*
X194264Y109555D01*
X193413Y109907D01*
X192500Y110027D01*
X191587Y109907D01*
X190736Y109555D01*
X190006Y108994D01*
X189445Y108264D01*
X189093Y107413D01*
X188973Y106500D01*
X189093Y105587D01*
X189445Y104736D01*
X190006Y104006D01*
X190736Y103445D01*
X191587Y103093D01*
X192500Y102973D01*
X193413Y103093D01*
X194264Y103445D01*
X194994Y104006D01*
X195132Y104186D01*
X195920Y103919D01*
Y101500D01*
X196040Y100895D01*
X196382Y100382D01*
X199169Y97596D01*
X199093Y97413D01*
X198973Y96500D01*
X199093Y95587D01*
X199445Y94736D01*
X200006Y94006D01*
X200736Y93445D01*
X201587Y93093D01*
X202500Y92973D01*
X203275Y93075D01*
X214981Y78871D01*
Y67509D01*
X214194Y67121D01*
X213922Y67330D01*
X212995Y67714D01*
X212000Y67845D01*
X211005Y67714D01*
X210078Y67330D01*
X209281Y66719D01*
X208930Y66260D01*
X208142Y66527D01*
Y79438D01*
X208097Y79668D01*
X208073Y79900D01*
X208037Y79968D01*
X208022Y80043D01*
X207892Y80237D01*
X207781Y80443D01*
X195704Y95097D01*
X195907Y95587D01*
X196027Y96500D01*
X195907Y97413D01*
X195554Y98264D01*
X194994Y98994D01*
X194264Y99555D01*
X193413Y99907D01*
X192500Y100027D01*
X191587Y99907D01*
X190736Y99555D01*
X190006Y98994D01*
X189445Y98264D01*
X189093Y97413D01*
X188973Y96500D01*
X189093Y95587D01*
X189445Y94736D01*
X190006Y94006D01*
X190736Y93445D01*
X191587Y93093D01*
X192500Y92973D01*
X193275Y93075D01*
X204981Y78871D01*
Y67509D01*
X204194Y67121D01*
X203922Y67330D01*
X202995Y67714D01*
X202000Y67845D01*
X201005Y67714D01*
X200078Y67330D01*
X199281Y66719D01*
X198930Y66260D01*
X198142Y66527D01*
Y79438D01*
X198097Y79668D01*
X198073Y79900D01*
X198037Y79968D01*
X198022Y80043D01*
X197892Y80237D01*
X197781Y80443D01*
X185704Y95097D01*
X185907Y95587D01*
X186027Y96500D01*
X185907Y97413D01*
X185555Y98264D01*
X184994Y98994D01*
X184264Y99555D01*
X183413Y99907D01*
X182500Y100027D01*
X181587Y99907D01*
X181404Y99831D01*
X179080Y102155D01*
Y103919D01*
X179868Y104186D01*
X180006Y104006D01*
X180736Y103445D01*
X181587Y103093D01*
X182500Y102973D01*
X183413Y103093D01*
X184264Y103445D01*
X184994Y104006D01*
X185555Y104736D01*
X185907Y105587D01*
X186027Y106500D01*
X185907Y107413D01*
X185555Y108264D01*
X184994Y108994D01*
X184264Y109555D01*
X183413Y109907D01*
X182500Y110027D01*
X181587Y109907D01*
X180736Y109555D01*
X180006Y108994D01*
X179868Y108814D01*
X179080Y109081D01*
Y109500D01*
X178960Y110105D01*
X178618Y110617D01*
X165618Y123617D01*
X165105Y123960D01*
X164500Y124080D01*
X69655D01*
X58618Y135117D01*
X58105Y135460D01*
X57500Y135580D01*
X10346D01*
X10196Y135681D01*
X9500Y135819D01*
X8804Y135681D01*
X8214Y135286D01*
X7819Y134696D01*
X7681Y134000D01*
X7819Y133304D01*
X8214Y132714D01*
X8804Y132319D01*
X9500Y132181D01*
X10196Y132319D01*
X10346Y132420D01*
X56845D01*
X67397Y121868D01*
X67071Y121080D01*
X13395D01*
X12790Y120960D01*
X12277Y120617D01*
X8547Y116888D01*
X8370Y116852D01*
X7780Y116458D01*
X7386Y115868D01*
X7247Y115172D01*
X7386Y114476D01*
X7780Y113885D01*
X8370Y113491D01*
X9066Y113353D01*
X9763Y113491D01*
X10353Y113885D01*
X10747Y114476D01*
X10783Y114653D01*
X14050Y117920D01*
X147845D01*
X155920Y109845D01*
Y109081D01*
X155132Y108814D01*
X154994Y108994D01*
X154263Y109555D01*
X153413Y109907D01*
X152500Y110027D01*
X151587Y109907D01*
X150736Y109555D01*
X150006Y108994D01*
X149445Y108264D01*
X149093Y107413D01*
X148973Y106500D01*
X149093Y105587D01*
X149445Y104736D01*
X150006Y104006D01*
X150736Y103445D01*
X151587Y103093D01*
X152500Y102973D01*
X153413Y103093D01*
X154263Y103445D01*
X154994Y104006D01*
X155132Y104186D01*
X155920Y103919D01*
Y103310D01*
X155957Y103123D01*
X155965Y102933D01*
X156016Y102824D01*
X156040Y102705D01*
X156146Y102547D01*
X156226Y102375D01*
X159373Y98089D01*
X159093Y97413D01*
X158973Y96500D01*
X159093Y95587D01*
X159446Y94736D01*
X160006Y94006D01*
X160737Y93445D01*
X161587Y93093D01*
X162500Y92973D01*
X162808Y93014D01*
X165858Y88110D01*
Y66527D01*
X165070Y66260D01*
X164719Y66719D01*
X163922Y67330D01*
X162995Y67714D01*
X162000Y67845D01*
X161005Y67714D01*
X160078Y67330D01*
X159806Y67121D01*
X159019Y67509D01*
Y88562D01*
X158993Y88689D01*
X158997Y88819D01*
X158934Y88989D01*
X158898Y89167D01*
X158826Y89275D01*
X158780Y89397D01*
X155501Y94667D01*
X155554Y94736D01*
X155907Y95587D01*
X156027Y96500D01*
X155907Y97413D01*
X155554Y98264D01*
X154994Y98994D01*
X154263Y99555D01*
X153413Y99907D01*
X152500Y100027D01*
X151587Y99907D01*
X150736Y99555D01*
X150006Y98994D01*
X149445Y98264D01*
X149093Y97413D01*
X148973Y96500D01*
X149093Y95587D01*
X149445Y94736D01*
X150006Y94006D01*
X150736Y93445D01*
X151587Y93093D01*
X152500Y92973D01*
X152808Y93014D01*
X155858Y88110D01*
Y66527D01*
X155070Y66260D01*
X154719Y66719D01*
X153922Y67330D01*
X152995Y67714D01*
X152000Y67845D01*
X151005Y67714D01*
X150078Y67330D01*
X149806Y67121D01*
X149019Y67509D01*
Y88562D01*
X148993Y88689D01*
X148997Y88819D01*
X148934Y88989D01*
X148898Y89167D01*
X148826Y89275D01*
X148780Y89397D01*
X145501Y94667D01*
X145554Y94736D01*
X145907Y95587D01*
X146027Y96500D01*
X145907Y97413D01*
X145554Y98264D01*
X144994Y98994D01*
X144264Y99555D01*
X143413Y99907D01*
X142500Y100027D01*
X141957Y99956D01*
X139385Y103524D01*
X140006Y104006D01*
X140736Y103445D01*
X141587Y103093D01*
X142500Y102973D01*
X143413Y103093D01*
X144264Y103445D01*
X144994Y104006D01*
X145554Y104736D01*
X145907Y105587D01*
X146027Y106500D01*
X145907Y107413D01*
X145554Y108264D01*
X144994Y108994D01*
X144264Y109555D01*
X143413Y109907D01*
X142500Y110027D01*
X141587Y109907D01*
X140736Y109555D01*
X140006Y108994D01*
X139445Y108264D01*
X139368Y108076D01*
X138580Y108232D01*
Y110000D01*
X138460Y110605D01*
X138118Y111117D01*
X132617Y116618D01*
X132105Y116960D01*
X131500Y117080D01*
X15645D01*
X15040Y116960D01*
X14527Y116618D01*
X8547Y110638D01*
X8370Y110602D01*
X7780Y110208D01*
X7386Y109618D01*
X7247Y108922D01*
X7386Y108226D01*
X7780Y107635D01*
X8370Y107241D01*
X9066Y107103D01*
X9763Y107241D01*
X10353Y107635D01*
X10747Y108226D01*
X10783Y108403D01*
X16299Y113920D01*
X17754D01*
X17832Y113132D01*
X17370Y113040D01*
X16858Y112698D01*
X8547Y104388D01*
X8370Y104352D01*
X7780Y103958D01*
X7386Y103368D01*
X7247Y102672D01*
X7386Y101976D01*
X7780Y101385D01*
X8370Y100991D01*
X9066Y100853D01*
X9763Y100991D01*
X10353Y101385D01*
X10747Y101976D01*
X10783Y102153D01*
X18630Y110000D01*
X78217D01*
X79003Y109997D01*
Y103080D01*
X76721D01*
X76720Y103080D01*
X14272D01*
X13667Y102960D01*
X13154Y102618D01*
X8706Y98169D01*
X8370Y98102D01*
X7780Y97708D01*
X7386Y97118D01*
X7247Y96422D01*
X7386Y95726D01*
X7780Y95135D01*
X8370Y94741D01*
X9066Y94603D01*
X9763Y94741D01*
X10353Y95135D01*
X10747Y95726D01*
X10751Y95744D01*
X14926Y99920D01*
X76721D01*
X76722Y99920D01*
X79919D01*
X80186Y99132D01*
X80006Y98994D01*
X79445Y98264D01*
X79093Y97413D01*
X78973Y96500D01*
X79093Y95587D01*
X79445Y94736D01*
X80006Y94006D01*
X80737Y93445D01*
X81587Y93093D01*
X82500Y92973D01*
X82808Y93014D01*
X85858Y88110D01*
Y66856D01*
X85070Y66589D01*
X84861Y66861D01*
X84023Y67504D01*
X83047Y67909D01*
X83000Y67915D01*
Y64000D01*
Y60085D01*
X83047Y60091D01*
X84023Y60496D01*
X84861Y61139D01*
X85070Y61411D01*
X85858Y61144D01*
Y58562D01*
X85978Y57957D01*
X86321Y57444D01*
X88428Y55337D01*
X88286Y54995D01*
X88155Y54000D01*
X88286Y53005D01*
X88428Y52663D01*
X84345Y48580D01*
X74655D01*
X32131Y91104D01*
X31618Y91447D01*
X31014Y91567D01*
X10034D01*
X9883Y91667D01*
X9187Y91806D01*
X8491Y91667D01*
X7901Y91273D01*
X7507Y90683D01*
X7368Y89986D01*
X7507Y89290D01*
X7901Y88700D01*
X8491Y88306D01*
X9187Y88167D01*
X9883Y88306D01*
X10034Y88406D01*
X30359D01*
X72882Y45882D01*
X73395Y45540D01*
X74000Y45420D01*
X85000D01*
X85605Y45540D01*
X86118Y45882D01*
X90663Y50428D01*
X91005Y50286D01*
X92000Y50155D01*
X92995Y50286D01*
X93922Y50670D01*
X94719Y51281D01*
X95330Y52078D01*
X95714Y53005D01*
X95845Y54000D01*
X95714Y54995D01*
X95330Y55922D01*
X94719Y56719D01*
X93922Y57330D01*
X92995Y57714D01*
X92000Y57845D01*
X91005Y57714D01*
X90663Y57572D01*
X89019Y59216D01*
Y60491D01*
X89806Y60879D01*
X90078Y60670D01*
X91005Y60286D01*
X92000Y60155D01*
X92995Y60286D01*
X93922Y60670D01*
X94719Y61281D01*
X95070Y61740D01*
X95858Y61473D01*
Y58562D01*
X95978Y57957D01*
X96321Y57444D01*
X98428Y55337D01*
X98286Y54995D01*
X98155Y54000D01*
X98286Y53005D01*
X98670Y52078D01*
X99281Y51281D01*
X100078Y50670D01*
X101005Y50286D01*
X102000Y50155D01*
X102995Y50286D01*
X103922Y50670D01*
X104719Y51281D01*
X105330Y52078D01*
X105714Y53005D01*
X105845Y54000D01*
X105714Y54995D01*
X105330Y55922D01*
X104719Y56719D01*
X103922Y57330D01*
X102995Y57714D01*
X102000Y57845D01*
X101005Y57714D01*
X100663Y57572D01*
X99019Y59216D01*
Y60491D01*
X99806Y60879D01*
X100078Y60670D01*
X101005Y60286D01*
X102000Y60155D01*
X102995Y60286D01*
X103922Y60670D01*
X104719Y61281D01*
X105070Y61740D01*
X105858Y61473D01*
Y58562D01*
X105978Y57957D01*
X106321Y57444D01*
X108428Y55337D01*
X108286Y54995D01*
X108155Y54000D01*
X108286Y53005D01*
X108670Y52078D01*
X109281Y51281D01*
X110078Y50670D01*
X111005Y50286D01*
X112000Y50155D01*
X112995Y50286D01*
X113922Y50670D01*
X114719Y51281D01*
X115330Y52078D01*
X115714Y53005D01*
X115845Y54000D01*
X115714Y54995D01*
X115330Y55922D01*
X114719Y56719D01*
X113922Y57330D01*
X112995Y57714D01*
X112000Y57845D01*
X111005Y57714D01*
X110663Y57572D01*
X109019Y59216D01*
Y60491D01*
X109806Y60879D01*
X110078Y60670D01*
X111005Y60286D01*
X112000Y60155D01*
X112995Y60286D01*
X113922Y60670D01*
X114719Y61281D01*
X115070Y61740D01*
X115858Y61473D01*
Y58562D01*
X115978Y57957D01*
X116321Y57444D01*
X118428Y55337D01*
X118286Y54995D01*
X118155Y54000D01*
X118286Y53005D01*
X118670Y52078D01*
X119281Y51281D01*
X120078Y50670D01*
X121005Y50286D01*
X122000Y50155D01*
X122995Y50286D01*
X123922Y50670D01*
X124719Y51281D01*
X125330Y52078D01*
X125714Y53005D01*
X125845Y54000D01*
X125714Y54995D01*
X125330Y55922D01*
X124719Y56719D01*
X123922Y57330D01*
X122995Y57714D01*
X122000Y57845D01*
X121005Y57714D01*
X120663Y57572D01*
X119019Y59216D01*
Y60491D01*
X119806Y60879D01*
X120078Y60670D01*
X121005Y60286D01*
X122000Y60155D01*
X122995Y60286D01*
X123922Y60670D01*
X124719Y61281D01*
X125070Y61740D01*
X125858Y61473D01*
Y58562D01*
X125978Y57957D01*
X126321Y57444D01*
X128428Y55337D01*
X128286Y54995D01*
X128155Y54000D01*
X128286Y53005D01*
X128670Y52078D01*
X129281Y51281D01*
X130078Y50670D01*
X131005Y50286D01*
X132000Y50155D01*
X132995Y50286D01*
X133922Y50670D01*
X134719Y51281D01*
X135330Y52078D01*
X135714Y53005D01*
X135845Y54000D01*
X135714Y54995D01*
X135330Y55922D01*
X134719Y56719D01*
X133922Y57330D01*
X132995Y57714D01*
X132000Y57845D01*
X131005Y57714D01*
X130663Y57572D01*
X129019Y59216D01*
Y60491D01*
X129806Y60879D01*
X130078Y60670D01*
X131005Y60286D01*
X132000Y60155D01*
X132995Y60286D01*
X133922Y60670D01*
X134719Y61281D01*
X135070Y61740D01*
X135858Y61473D01*
Y58562D01*
X135978Y57957D01*
X136321Y57444D01*
X138428Y55337D01*
X138286Y54995D01*
X138155Y54000D01*
X138286Y53005D01*
X138670Y52078D01*
X139281Y51281D01*
X140078Y50670D01*
X141005Y50286D01*
X142000Y50155D01*
X142995Y50286D01*
X143922Y50670D01*
X144719Y51281D01*
X145330Y52078D01*
X145714Y53005D01*
X145845Y54000D01*
X145714Y54995D01*
X145330Y55922D01*
X144719Y56719D01*
X143922Y57330D01*
X142995Y57714D01*
X142000Y57845D01*
X141005Y57714D01*
X140663Y57572D01*
X139019Y59216D01*
Y60491D01*
X139806Y60879D01*
X140078Y60670D01*
X141005Y60286D01*
X142000Y60155D01*
X142995Y60286D01*
X143922Y60670D01*
X144719Y61281D01*
X145070Y61740D01*
X145858Y61473D01*
Y58562D01*
X145978Y57957D01*
X146321Y57444D01*
X148428Y55337D01*
X148286Y54995D01*
X148155Y54000D01*
X148286Y53005D01*
X148670Y52078D01*
X149281Y51281D01*
X150078Y50670D01*
X151005Y50286D01*
X152000Y50155D01*
X152995Y50286D01*
X153922Y50670D01*
X154719Y51281D01*
X155330Y52078D01*
X155714Y53005D01*
X155845Y54000D01*
X155714Y54995D01*
X155330Y55922D01*
X154719Y56719D01*
X153922Y57330D01*
X152995Y57714D01*
X152000Y57845D01*
X151005Y57714D01*
X150663Y57572D01*
X149019Y59216D01*
Y60491D01*
X149806Y60879D01*
X150078Y60670D01*
X151005Y60286D01*
X152000Y60155D01*
X152995Y60286D01*
X153922Y60670D01*
X154719Y61281D01*
X155070Y61740D01*
X155858Y61473D01*
Y58562D01*
X155978Y57957D01*
X156321Y57444D01*
X158428Y55337D01*
X158286Y54995D01*
X158155Y54000D01*
X158286Y53005D01*
X158670Y52078D01*
X159281Y51281D01*
X160078Y50670D01*
X161005Y50286D01*
X162000Y50155D01*
X162995Y50286D01*
X163922Y50670D01*
X164719Y51281D01*
X165330Y52078D01*
X165714Y53005D01*
X165845Y54000D01*
X165714Y54995D01*
X165330Y55922D01*
X164719Y56719D01*
X163922Y57330D01*
X162995Y57714D01*
X162000Y57845D01*
X161005Y57714D01*
X160663Y57572D01*
X159019Y59216D01*
Y60491D01*
X159806Y60879D01*
X160078Y60670D01*
X161005Y60286D01*
X162000Y60155D01*
X162995Y60286D01*
X163922Y60670D01*
X164719Y61281D01*
X165070Y61740D01*
X165858Y61473D01*
Y58562D01*
X165978Y57957D01*
X166321Y57444D01*
X168428Y55337D01*
X168286Y54995D01*
X168155Y54000D01*
X168286Y53005D01*
X168670Y52078D01*
X169281Y51281D01*
X170078Y50670D01*
X171005Y50286D01*
X172000Y50155D01*
X172995Y50286D01*
X173922Y50670D01*
X174719Y51281D01*
X175330Y52078D01*
X175714Y53005D01*
X175845Y54000D01*
X175714Y54995D01*
X175330Y55922D01*
X174719Y56719D01*
X173922Y57330D01*
X172995Y57714D01*
X172000Y57845D01*
X171005Y57714D01*
X170663Y57572D01*
X169019Y59216D01*
Y60491D01*
X169806Y60879D01*
X170078Y60670D01*
X171005Y60286D01*
X172000Y60155D01*
X172995Y60286D01*
X173922Y60670D01*
X174719Y61281D01*
X175330Y62078D01*
X175714Y63005D01*
X175845Y64000D01*
X175714Y64995D01*
X175330Y65922D01*
X174719Y66719D01*
X173922Y67330D01*
X172995Y67714D01*
X172000Y67845D01*
X171005Y67714D01*
X170078Y67330D01*
X169806Y67121D01*
X169019Y67509D01*
Y88562D01*
X168993Y88689D01*
X168997Y88819D01*
X168934Y88989D01*
X168898Y89167D01*
X168826Y89275D01*
X168780Y89397D01*
X165501Y94667D01*
X165554Y94736D01*
X165907Y95587D01*
X166027Y96500D01*
X165907Y97413D01*
X165554Y98264D01*
X164994Y98994D01*
X164263Y99555D01*
X163413Y99907D01*
X162500Y100027D01*
X161926Y99951D01*
X159516Y103235D01*
X159555Y103360D01*
X160471Y103649D01*
X160737Y103445D01*
X161587Y103093D01*
X162500Y102973D01*
X163413Y103093D01*
X164263Y103445D01*
X164994Y104006D01*
X165554Y104736D01*
X165907Y105587D01*
X166027Y106500D01*
X165907Y107413D01*
X165554Y108264D01*
X164994Y108994D01*
X164263Y109555D01*
X163413Y109907D01*
X162500Y110027D01*
X161587Y109907D01*
X160737Y109555D01*
X160006Y108994D01*
X159868Y108814D01*
X159080Y109081D01*
Y110500D01*
X158960Y111105D01*
X158617Y111618D01*
X150103Y120132D01*
X150429Y120920D01*
X163845D01*
X174425Y110340D01*
X173979Y109672D01*
X173413Y109907D01*
X172500Y110027D01*
X171587Y109907D01*
X170737Y109555D01*
X170006Y108994D01*
X169446Y108264D01*
X169093Y107413D01*
X168973Y106500D01*
X169093Y105587D01*
X169446Y104736D01*
X170006Y104006D01*
X170737Y103445D01*
X171587Y103093D01*
X172500Y102973D01*
X173413Y103093D01*
X174264Y103445D01*
X174994Y104006D01*
X175132Y104186D01*
X175920Y103919D01*
Y101500D01*
X176040Y100895D01*
X176383Y100382D01*
X179169Y97596D01*
X179093Y97413D01*
X178973Y96500D01*
X179093Y95587D01*
X179446Y94736D01*
X180006Y94006D01*
X180736Y93445D01*
X181587Y93093D01*
X182500Y92973D01*
X183275Y93075D01*
X194981Y78871D01*
Y67509D01*
X194194Y67121D01*
X193922Y67330D01*
X192995Y67714D01*
X192000Y67845D01*
X191005Y67714D01*
X190078Y67330D01*
X189281Y66719D01*
X188930Y66260D01*
X188142Y66527D01*
Y79438D01*
X188097Y79668D01*
X188073Y79900D01*
X188037Y79968D01*
X188022Y80043D01*
X187892Y80237D01*
X187781Y80443D01*
X175704Y95097D01*
X175907Y95587D01*
X176027Y96500D01*
X175907Y97413D01*
X175555Y98264D01*
X174994Y98994D01*
X174264Y99555D01*
X173413Y99907D01*
X172500Y100027D01*
X171587Y99907D01*
X170737Y99555D01*
X170006Y98994D01*
X169446Y98264D01*
X169093Y97413D01*
X168973Y96500D01*
X169093Y95587D01*
X169446Y94736D01*
X170006Y94006D01*
X170737Y93445D01*
X171587Y93093D01*
X172500Y92973D01*
X173275Y93075D01*
X184981Y78871D01*
Y67761D01*
X184194Y67373D01*
X184023Y67504D01*
X183047Y67909D01*
X183000Y67915D01*
Y64000D01*
Y60085D01*
X183047Y60091D01*
X184023Y60496D01*
X184194Y60627D01*
X184981Y60238D01*
Y59438D01*
X185102Y58833D01*
X185444Y58321D01*
X188428Y55337D01*
X188286Y54995D01*
X188155Y54000D01*
X188286Y53005D01*
X188670Y52078D01*
X189281Y51281D01*
X190078Y50670D01*
X191005Y50286D01*
X192000Y50155D01*
X192995Y50286D01*
X193922Y50670D01*
X194719Y51281D01*
X195330Y52078D01*
X195714Y53005D01*
X195845Y54000D01*
X195714Y54995D01*
X195330Y55922D01*
X194719Y56719D01*
X193922Y57330D01*
X192995Y57714D01*
X192000Y57845D01*
X191005Y57714D01*
X190663Y57572D01*
X188142Y60093D01*
Y61473D01*
X188930Y61740D01*
X189281Y61281D01*
X190078Y60670D01*
X191005Y60286D01*
X192000Y60155D01*
X192995Y60286D01*
X193922Y60670D01*
X194194Y60879D01*
X194981Y60491D01*
Y59438D01*
X195102Y58833D01*
X195444Y58321D01*
X198428Y55337D01*
X198286Y54995D01*
X198155Y54000D01*
X198286Y53005D01*
X198670Y52078D01*
X199281Y51281D01*
X200078Y50670D01*
X201005Y50286D01*
X202000Y50155D01*
X202995Y50286D01*
X203922Y50670D01*
X204719Y51281D01*
X205330Y52078D01*
X205714Y53005D01*
X205845Y54000D01*
X205714Y54995D01*
X205330Y55922D01*
X204719Y56719D01*
X203922Y57330D01*
X202995Y57714D01*
X202000Y57845D01*
X201005Y57714D01*
X200663Y57572D01*
X198142Y60093D01*
Y61473D01*
X198930Y61740D01*
X199281Y61281D01*
X200078Y60670D01*
X201005Y60286D01*
X202000Y60155D01*
X202995Y60286D01*
X203922Y60670D01*
X204194Y60879D01*
X204981Y60491D01*
Y59438D01*
X205102Y58833D01*
X205444Y58321D01*
X208428Y55337D01*
X208286Y54995D01*
X208155Y54000D01*
X208286Y53005D01*
X208670Y52078D01*
X209281Y51281D01*
X210078Y50670D01*
X211005Y50286D01*
X212000Y50155D01*
X212995Y50286D01*
X213922Y50670D01*
X214719Y51281D01*
X215330Y52078D01*
X215714Y53005D01*
X215845Y54000D01*
X215714Y54995D01*
X215330Y55922D01*
X214719Y56719D01*
X213922Y57330D01*
X212995Y57714D01*
X212000Y57845D01*
X211005Y57714D01*
X210663Y57572D01*
X208142Y60093D01*
Y61473D01*
X208930Y61740D01*
X209281Y61281D01*
X210078Y60670D01*
X211005Y60286D01*
X212000Y60155D01*
X212995Y60286D01*
X213922Y60670D01*
X214194Y60879D01*
X214981Y60491D01*
Y59438D01*
X215102Y58833D01*
X215444Y58321D01*
X218428Y55337D01*
X218286Y54995D01*
X218155Y54000D01*
X218286Y53005D01*
X218670Y52078D01*
X219281Y51281D01*
X220078Y50670D01*
X221005Y50286D01*
X222000Y50155D01*
X222995Y50286D01*
X223922Y50670D01*
X224719Y51281D01*
X225330Y52078D01*
X225714Y53005D01*
X225845Y54000D01*
X225714Y54995D01*
X225330Y55922D01*
X224719Y56719D01*
X223922Y57330D01*
X222995Y57714D01*
X222000Y57845D01*
X221005Y57714D01*
X220663Y57572D01*
X218142Y60093D01*
Y61473D01*
X218930Y61740D01*
X219281Y61281D01*
X220078Y60670D01*
X221005Y60286D01*
X222000Y60155D01*
X222995Y60286D01*
X223922Y60670D01*
X224194Y60879D01*
X224981Y60491D01*
Y59438D01*
X225102Y58833D01*
X225444Y58321D01*
X228428Y55337D01*
X228286Y54995D01*
X228155Y54000D01*
X228286Y53005D01*
X228670Y52078D01*
X229281Y51281D01*
X230078Y50670D01*
X231005Y50286D01*
X232000Y50155D01*
X232995Y50286D01*
X233922Y50670D01*
X234719Y51281D01*
X235330Y52078D01*
X235714Y53005D01*
X235845Y54000D01*
X235714Y54995D01*
X235330Y55922D01*
X234719Y56719D01*
X233922Y57330D01*
X232995Y57714D01*
X232000Y57845D01*
X231005Y57714D01*
X230663Y57572D01*
X228142Y60093D01*
Y61473D01*
X228930Y61740D01*
X229281Y61281D01*
X230078Y60670D01*
X231005Y60286D01*
X232000Y60155D01*
X232995Y60286D01*
X233922Y60670D01*
X234194Y60879D01*
X234981Y60491D01*
Y59438D01*
X235102Y58833D01*
X235444Y58321D01*
X238428Y55337D01*
X238286Y54995D01*
X238155Y54000D01*
X238286Y53005D01*
X238670Y52078D01*
X239281Y51281D01*
X240078Y50670D01*
X241005Y50286D01*
X242000Y50155D01*
X242995Y50286D01*
X243922Y50670D01*
X244719Y51281D01*
X245330Y52078D01*
X245714Y53005D01*
X245845Y54000D01*
X245714Y54995D01*
X245330Y55922D01*
X244719Y56719D01*
X243922Y57330D01*
X242995Y57714D01*
X242000Y57845D01*
X241005Y57714D01*
X240663Y57572D01*
X238142Y60093D01*
Y61473D01*
X238930Y61740D01*
X239281Y61281D01*
X240078Y60670D01*
X241005Y60286D01*
X242000Y60155D01*
X242995Y60286D01*
X243922Y60670D01*
X244194Y60879D01*
X244981Y60491D01*
Y59438D01*
X245102Y58833D01*
X245444Y58321D01*
X248428Y55337D01*
X248286Y54995D01*
X248155Y54000D01*
X248286Y53005D01*
X248670Y52078D01*
X249281Y51281D01*
X250078Y50670D01*
X251005Y50286D01*
X252000Y50155D01*
X252995Y50286D01*
X253922Y50670D01*
X254719Y51281D01*
X255330Y52078D01*
X255714Y53005D01*
X255845Y54000D01*
X255714Y54995D01*
X255330Y55922D01*
X254719Y56719D01*
X253922Y57330D01*
X252995Y57714D01*
X252000Y57845D01*
X251005Y57714D01*
X250663Y57572D01*
X248142Y60093D01*
Y61473D01*
X248930Y61740D01*
X249281Y61281D01*
X250078Y60670D01*
X251005Y60286D01*
X252000Y60155D01*
X252995Y60286D01*
X253922Y60670D01*
X254194Y60879D01*
X254981Y60491D01*
Y59438D01*
X255102Y58833D01*
X255444Y58321D01*
X258428Y55337D01*
X258286Y54995D01*
X258155Y54000D01*
X258286Y53005D01*
X258670Y52078D01*
X259281Y51281D01*
X260078Y50670D01*
X261005Y50286D01*
X262000Y50155D01*
X262995Y50286D01*
X263922Y50670D01*
X264719Y51281D01*
X265330Y52078D01*
X265714Y53005D01*
X265845Y54000D01*
X265714Y54995D01*
X265330Y55922D01*
X264719Y56719D01*
X263922Y57330D01*
X262995Y57714D01*
X262000Y57845D01*
X261005Y57714D01*
X260663Y57572D01*
X258142Y60093D01*
Y61473D01*
X258930Y61740D01*
X259281Y61281D01*
X260078Y60670D01*
X261005Y60286D01*
X262000Y60155D01*
X262995Y60286D01*
X263922Y60670D01*
X264719Y61281D01*
X265330Y62078D01*
X265714Y63005D01*
X265845Y64000D01*
X265714Y64995D01*
X265330Y65922D01*
X264719Y66719D01*
X263922Y67330D01*
X262995Y67714D01*
X262000Y67845D01*
X261005Y67714D01*
X260078Y67330D01*
X259281Y66719D01*
X258930Y66260D01*
X258142Y66527D01*
Y79438D01*
X258097Y79668D01*
X258073Y79900D01*
X258037Y79968D01*
X258022Y80043D01*
X257892Y80237D01*
X257781Y80443D01*
X245704Y95097D01*
X245907Y95587D01*
X246027Y96500D01*
X245907Y97413D01*
X245554Y98264D01*
X244994Y98994D01*
X244264Y99555D01*
X243413Y99907D01*
X242500Y100027D01*
X241587Y99907D01*
X241404Y99831D01*
X238827Y102408D01*
Y103920D01*
X239615Y104188D01*
X239863Y103863D01*
X240636Y103271D01*
X241500Y102913D01*
Y106500D01*
Y110087D01*
X240636Y109729D01*
X239863Y109137D01*
X239615Y108812D01*
X238827Y109080D01*
Y115753D01*
X238707Y116358D01*
X238364Y116871D01*
X219117Y136117D01*
X218605Y136460D01*
X218000Y136580D01*
X87655D01*
X70056Y154179D01*
X69543Y154522D01*
X68938Y154642D01*
X10359D01*
X10209Y154743D01*
X9513Y154881D01*
D02*
G37*
G36*
X263500Y110087D02*
Y107500D01*
X266087D01*
X265729Y108364D01*
X265137Y109137D01*
X264364Y109729D01*
X263500Y110087D01*
D02*
G37*
G36*
X261500D02*
X260636Y109729D01*
X259863Y109137D01*
X259271Y108364D01*
X258913Y107500D01*
X261500D01*
Y110087D01*
D02*
G37*
G36*
X253500D02*
Y107500D01*
X256087D01*
X255729Y108364D01*
X255137Y109137D01*
X254364Y109729D01*
X253500Y110087D01*
D02*
G37*
G36*
X251500D02*
X250636Y109729D01*
X249863Y109137D01*
X249271Y108364D01*
X248913Y107500D01*
X251500D01*
Y110087D01*
D02*
G37*
G36*
X243500D02*
Y107500D01*
X246087D01*
X245729Y108364D01*
X245137Y109137D01*
X244364Y109729D01*
X243500Y110087D01*
D02*
G37*
G36*
X231500D02*
X230636Y109729D01*
X229863Y109137D01*
X229271Y108364D01*
X228913Y107500D01*
X231500D01*
Y110087D01*
D02*
G37*
G36*
X178000Y247757D02*
X176541Y247614D01*
X175138Y247188D01*
X173845Y246497D01*
X172711Y245567D01*
X171781Y244433D01*
X171090Y243140D01*
X170664Y241737D01*
X170520Y240278D01*
X170664Y238818D01*
X171090Y237415D01*
X171781Y236122D01*
X172711Y234989D01*
X173845Y234058D01*
X175138Y233367D01*
X176181Y233051D01*
Y225000D01*
X176181Y225000D01*
X176319Y224304D01*
X176714Y223714D01*
X198214Y202214D01*
X198214Y202214D01*
X198804Y201819D01*
X199500Y201681D01*
X249247D01*
X276681Y174247D01*
Y107527D01*
X275907Y107413D01*
X275554Y108264D01*
X274994Y108994D01*
X274342Y109494D01*
X274819Y172986D01*
X274818Y172993D01*
X274819Y173000D01*
X274751Y173342D01*
X274686Y173684D01*
X274682Y173689D01*
X274681Y173696D01*
X274488Y173985D01*
X274296Y174277D01*
X274290Y174281D01*
X274286Y174286D01*
X248786Y199786D01*
X248196Y200181D01*
X247500Y200319D01*
X247500Y200319D01*
X97254D01*
X72685Y224887D01*
Y233015D01*
X73729Y233332D01*
X75022Y234023D01*
X76155Y234953D01*
X77085Y236087D01*
X77776Y237380D01*
X78202Y238783D01*
X78346Y240242D01*
X78202Y241701D01*
X77776Y243105D01*
X77085Y244398D01*
X76155Y245531D01*
X75022Y246461D01*
X73729Y247153D01*
X72325Y247578D01*
X70866Y247722D01*
X69407Y247578D01*
X68004Y247153D01*
X66711Y246461D01*
X65577Y245531D01*
X64647Y244398D01*
X63956Y243105D01*
X63530Y241701D01*
X63386Y240242D01*
X63530Y238783D01*
X63956Y237380D01*
X64647Y236087D01*
X65577Y234953D01*
X66711Y234023D01*
X68004Y233332D01*
X69047Y233015D01*
Y224134D01*
X69047Y224134D01*
X69185Y223438D01*
X69580Y222848D01*
X95214Y197214D01*
X95214Y197214D01*
X95804Y196819D01*
X96500Y196681D01*
X96500Y196681D01*
X246746D01*
X271175Y172252D01*
X270704Y109529D01*
X270006Y108994D01*
X269445Y108264D01*
X269093Y107413D01*
X268973Y106500D01*
X269093Y105587D01*
X269445Y104736D01*
X270006Y104006D01*
X270737Y103445D01*
X271587Y103093D01*
X272500Y102973D01*
X273413Y103093D01*
X274264Y103445D01*
X274994Y104006D01*
X275554Y104736D01*
X275907Y105587D01*
X276681Y105473D01*
Y103253D01*
X273343Y99916D01*
X272500Y100027D01*
X271587Y99907D01*
X270737Y99555D01*
X270006Y98994D01*
X269445Y98264D01*
X269093Y97413D01*
X268973Y96500D01*
X269093Y95587D01*
X269445Y94736D01*
X270006Y94006D01*
X270737Y93445D01*
X271587Y93093D01*
X272500Y92973D01*
X273413Y93093D01*
X274264Y93445D01*
X274994Y94006D01*
X275554Y94736D01*
X275907Y95587D01*
X276027Y96500D01*
X275916Y97343D01*
X279786Y101214D01*
X279786Y101214D01*
X280181Y101804D01*
X280319Y102500D01*
X280319Y102500D01*
Y175000D01*
X280319Y175000D01*
X280181Y175696D01*
X279786Y176286D01*
X279786Y176286D01*
X251286Y204786D01*
X250696Y205181D01*
X250000Y205319D01*
X250000Y205319D01*
X200254D01*
X179819Y225753D01*
Y233051D01*
X180862Y233367D01*
X182156Y234058D01*
X183289Y234989D01*
X184219Y236122D01*
X184910Y237415D01*
X185336Y238818D01*
X185480Y240278D01*
X185336Y241737D01*
X184910Y243140D01*
X184219Y244433D01*
X183289Y245567D01*
X182156Y246497D01*
X180862Y247188D01*
X179459Y247614D01*
X178000Y247757D01*
D02*
G37*
G36*
X266087Y105500D02*
X263500D01*
Y102913D01*
X264364Y103271D01*
X265137Y103863D01*
X265729Y104636D01*
X266087Y105500D01*
D02*
G37*
G36*
X261500D02*
X258913D01*
X259271Y104636D01*
X259863Y103863D01*
X260636Y103271D01*
X261500Y102913D01*
Y105500D01*
D02*
G37*
G36*
X256087D02*
X253500D01*
Y102913D01*
X254364Y103271D01*
X255137Y103863D01*
X255729Y104636D01*
X256087Y105500D01*
D02*
G37*
G36*
X251500D02*
X248913D01*
X249271Y104636D01*
X249863Y103863D01*
X250636Y103271D01*
X251500Y102913D01*
Y105500D01*
D02*
G37*
G36*
X246087D02*
X243500D01*
Y102913D01*
X244364Y103271D01*
X245137Y103863D01*
X245729Y104636D01*
X246087Y105500D01*
D02*
G37*
G36*
X231500D02*
X228913D01*
X229271Y104636D01*
X229863Y103863D01*
X230636Y103271D01*
X231500Y102913D01*
Y105500D01*
D02*
G37*
G36*
X262500Y100027D02*
X261587Y99907D01*
X260736Y99555D01*
X260006Y98994D01*
X259446Y98264D01*
X259093Y97413D01*
X258973Y96500D01*
X259093Y95587D01*
X259446Y94736D01*
X260006Y94006D01*
X260736Y93445D01*
X261587Y93093D01*
X262500Y92973D01*
X263413Y93093D01*
X264264Y93445D01*
X264994Y94006D01*
X265554Y94736D01*
X265907Y95587D01*
X266027Y96500D01*
X265907Y97413D01*
X265554Y98264D01*
X264994Y98994D01*
X264264Y99555D01*
X263413Y99907D01*
X262500Y100027D01*
D02*
G37*
G36*
X252500D02*
X251587Y99907D01*
X250736Y99555D01*
X250006Y98994D01*
X249446Y98264D01*
X249093Y97413D01*
X248973Y96500D01*
X249093Y95587D01*
X249446Y94736D01*
X250006Y94006D01*
X250736Y93445D01*
X251587Y93093D01*
X252500Y92973D01*
X253413Y93093D01*
X254263Y93445D01*
X254994Y94006D01*
X255555Y94736D01*
X255907Y95587D01*
X256027Y96500D01*
X255907Y97413D01*
X255555Y98264D01*
X254994Y98994D01*
X254263Y99555D01*
X253413Y99907D01*
X252500Y100027D01*
D02*
G37*
G36*
X273000Y67915D02*
Y65000D01*
X275915D01*
X275909Y65047D01*
X275504Y66023D01*
X274861Y66861D01*
X274023Y67504D01*
X273047Y67909D01*
X273000Y67915D01*
D02*
G37*
G36*
X271000D02*
X270953Y67909D01*
X269977Y67504D01*
X269139Y66861D01*
X268496Y66023D01*
X268091Y65047D01*
X268085Y65000D01*
X271000D01*
Y67915D01*
D02*
G37*
G36*
X181000D02*
X180953Y67909D01*
X179977Y67504D01*
X179139Y66861D01*
X178496Y66023D01*
X178092Y65047D01*
X178085Y65000D01*
X181000D01*
Y67915D01*
D02*
G37*
G36*
X81000D02*
X80953Y67909D01*
X79977Y67504D01*
X79139Y66861D01*
X78496Y66023D01*
X78091Y65047D01*
X78085Y65000D01*
X81000D01*
Y67915D01*
D02*
G37*
G36*
X275915Y63000D02*
X273000D01*
Y60085D01*
X273047Y60091D01*
X274023Y60496D01*
X274861Y61139D01*
X275504Y61977D01*
X275909Y62953D01*
X275915Y63000D01*
D02*
G37*
G36*
X271000D02*
X268085D01*
X268091Y62953D01*
X268496Y61977D01*
X269139Y61139D01*
X269977Y60496D01*
X270953Y60091D01*
X271000Y60085D01*
Y63000D01*
D02*
G37*
G36*
X181000D02*
X178085D01*
X178092Y62953D01*
X178496Y61977D01*
X179139Y61139D01*
X179977Y60496D01*
X180953Y60091D01*
X181000Y60085D01*
Y63000D01*
D02*
G37*
G36*
X81000D02*
X78085D01*
X78091Y62953D01*
X78496Y61977D01*
X79139Y61139D01*
X79977Y60496D01*
X80953Y60091D01*
X81000Y60085D01*
Y63000D01*
D02*
G37*
G36*
X275812Y57812D02*
X268188D01*
Y50188D01*
X275812D01*
Y57812D01*
D02*
G37*
G36*
X182000Y57845D02*
X181005Y57714D01*
X180078Y57330D01*
X179281Y56719D01*
X178670Y55922D01*
X178286Y54995D01*
X178155Y54000D01*
X178286Y53005D01*
X178670Y52078D01*
X179281Y51281D01*
X180078Y50670D01*
X181005Y50286D01*
X182000Y50155D01*
X182995Y50286D01*
X183922Y50670D01*
X184719Y51281D01*
X185330Y52078D01*
X185714Y53005D01*
X185845Y54000D01*
X185714Y54995D01*
X185330Y55922D01*
X184719Y56719D01*
X183922Y57330D01*
X182995Y57714D01*
X182000Y57845D01*
D02*
G37*
G36*
X82000D02*
X81005Y57714D01*
X80078Y57330D01*
X79281Y56719D01*
X78670Y55922D01*
X78286Y54995D01*
X78155Y54000D01*
X78286Y53005D01*
X78670Y52078D01*
X79281Y51281D01*
X80078Y50670D01*
X81005Y50286D01*
X82000Y50155D01*
X82995Y50286D01*
X83922Y50670D01*
X84719Y51281D01*
X85330Y52078D01*
X85714Y53005D01*
X85845Y54000D01*
X85714Y54995D01*
X85330Y55922D01*
X84719Y56719D01*
X83922Y57330D01*
X82995Y57714D01*
X82000Y57845D01*
D02*
G37*
G36*
X22500Y46458D02*
X21639Y46345D01*
X20836Y46012D01*
X20146Y45483D01*
X19617Y44794D01*
X19285Y43991D01*
X19172Y43130D01*
X19285Y42268D01*
X19617Y41466D01*
X20146Y40776D01*
X20836Y40247D01*
X21639Y39915D01*
X22500Y39801D01*
X23361Y39915D01*
X24164Y40247D01*
X24854Y40776D01*
X25383Y41466D01*
X25715Y42268D01*
X25828Y43130D01*
X25715Y43991D01*
X25383Y44794D01*
X24854Y45483D01*
X24164Y46012D01*
X23361Y46345D01*
X22500Y46458D01*
D02*
G37*
G36*
X276385Y28572D02*
X274796D01*
X274717Y28556D01*
X274637D01*
X273077Y28246D01*
X273003Y28215D01*
X272924Y28199D01*
X271455Y27591D01*
X271389Y27546D01*
X271314Y27516D01*
X269992Y26632D01*
X269936Y26575D01*
X269869Y26531D01*
X268745Y25407D01*
X268700Y25340D01*
X268643Y25283D01*
X267760Y23961D01*
X267729Y23887D01*
X267685Y23820D01*
X267076Y22351D01*
X267061Y22273D01*
X267030Y22198D01*
X266720Y20639D01*
Y20559D01*
X266704Y20480D01*
Y18890D01*
X266720Y18811D01*
Y18731D01*
X267030Y17172D01*
X267061Y17097D01*
X267076Y17019D01*
X267685Y15550D01*
X267729Y15483D01*
X267760Y15409D01*
X268643Y14087D01*
X268700Y14030D01*
X268745Y13963D01*
X269869Y12839D01*
X269936Y12795D01*
X269992Y12738D01*
X271314Y11855D01*
X271389Y11824D01*
X271455Y11779D01*
X272924Y11171D01*
X273003Y11155D01*
X273077Y11124D01*
X274637Y10814D01*
X274717D01*
X274796Y10798D01*
X276385D01*
X276464Y10814D01*
X276545D01*
X278104Y11124D01*
X278178Y11155D01*
X278257Y11171D01*
X279726Y11779D01*
X279792Y11824D01*
X279867Y11855D01*
X281189Y12738D01*
X281245Y12795D01*
X281312Y12839D01*
X282436Y13963D01*
X282481Y14030D01*
X282538Y14087D01*
X283421Y15409D01*
X283452Y15483D01*
X283496Y15550D01*
X284105Y17019D01*
X284120Y17097D01*
X284151Y17172D01*
X284461Y18731D01*
Y18811D01*
X284477Y18890D01*
Y20480D01*
X284461Y20559D01*
Y20639D01*
X284151Y22198D01*
X284120Y22273D01*
X284105Y22351D01*
X283496Y23820D01*
X283452Y23887D01*
X283421Y23961D01*
X282538Y25283D01*
X282481Y25340D01*
X282436Y25407D01*
X281312Y26531D01*
X281245Y26575D01*
X281189Y26632D01*
X279867Y27516D01*
X279792Y27546D01*
X279726Y27591D01*
X278257Y28199D01*
X278178Y28215D01*
X278104Y28246D01*
X276545Y28556D01*
X276464D01*
X276385Y28572D01*
D02*
G37*
G36*
X20480D02*
X18890D01*
X18811Y28556D01*
X18731D01*
X17172Y28246D01*
X17097Y28215D01*
X17019Y28199D01*
X15550Y27591D01*
X15483Y27546D01*
X15409Y27516D01*
X14087Y26632D01*
X14030Y26575D01*
X13963Y26531D01*
X12839Y25407D01*
X12795Y25340D01*
X12738Y25283D01*
X11855Y23961D01*
X11824Y23887D01*
X11779Y23820D01*
X11171Y22351D01*
X11155Y22273D01*
X11124Y22198D01*
X10814Y20639D01*
Y20559D01*
X10798Y20480D01*
Y18890D01*
X10814Y18811D01*
Y18731D01*
X11124Y17172D01*
X11155Y17097D01*
X11171Y17019D01*
X11779Y15550D01*
X11824Y15483D01*
X11855Y15409D01*
X12738Y14087D01*
X12795Y14030D01*
X12839Y13963D01*
X13963Y12839D01*
X14030Y12795D01*
X14087Y12738D01*
X15409Y11855D01*
X15483Y11824D01*
X15550Y11779D01*
X17019Y11171D01*
X17097Y11155D01*
X17172Y11124D01*
X18731Y10814D01*
X18811D01*
X18890Y10798D01*
X20480D01*
X20559Y10814D01*
X20639D01*
X22198Y11124D01*
X22273Y11155D01*
X22351Y11171D01*
X23820Y11779D01*
X23887Y11824D01*
X23961Y11855D01*
X25283Y12738D01*
X25340Y12795D01*
X25407Y12839D01*
X26531Y13963D01*
X26575Y14030D01*
X26632Y14087D01*
X27516Y15409D01*
X27546Y15483D01*
X27591Y15550D01*
X28199Y17019D01*
X28215Y17097D01*
X28246Y17172D01*
X28556Y18731D01*
Y18811D01*
X28572Y18890D01*
Y20480D01*
X28556Y20559D01*
Y20639D01*
X28246Y22198D01*
X28215Y22273D01*
X28199Y22351D01*
X27591Y23820D01*
X27546Y23887D01*
X27516Y23961D01*
X26632Y25283D01*
X26575Y25340D01*
X26531Y25407D01*
X25407Y26531D01*
X25340Y26575D01*
X25283Y26632D01*
X23961Y27516D01*
X23887Y27546D01*
X23820Y27591D01*
X22351Y28199D01*
X22273Y28215D01*
X22198Y28246D01*
X20639Y28556D01*
X20559D01*
X20480Y28572D01*
D02*
G37*
%LPD*%
D10*
X250000Y203500D02*
X278500Y175000D01*
Y102500D02*
Y175000D01*
X272500Y96500D02*
X278500Y102500D01*
X178000Y225000D02*
X199500Y203500D01*
X250000D01*
X178000Y225000D02*
Y240278D01*
X272500Y106500D02*
X273000Y173000D01*
X70866Y224134D02*
Y240242D01*
Y224134D02*
X96500Y198500D01*
X247500D01*
X273000Y173000D01*
D24*
X137000Y104131D02*
Y110000D01*
Y104131D02*
X142500Y96500D01*
X131500Y115500D02*
X137000Y110000D01*
X237247Y101753D02*
X242500Y96500D01*
X217000Y102000D02*
X222500Y96500D01*
X217000Y102000D02*
Y114000D01*
X200000Y131000D02*
X217000Y114000D01*
X197500Y101500D02*
X202500Y96500D01*
X197500Y101500D02*
Y111000D01*
X182000Y126500D02*
X197500Y111000D01*
X75000Y126500D02*
X182000D01*
X164500Y122500D02*
X177500Y109500D01*
Y101500D02*
X182500Y96500D01*
X177500Y101500D02*
Y109500D01*
X182500Y96500D02*
Y96500D01*
X157500Y103310D02*
X162500Y96500D01*
X148500Y119500D02*
X157500Y110500D01*
Y103310D02*
Y110500D01*
X102500Y96500D02*
X107438Y88562D01*
X102500Y96500D02*
X102500Y96500D01*
X107438Y58562D02*
Y88562D01*
X97500Y101500D02*
X102500Y96500D01*
X76721Y101500D02*
X97500D01*
X122500Y96500D02*
X127438Y88562D01*
Y58562D02*
Y88562D01*
X117000Y102000D02*
X122500Y96500D01*
X117000Y102000D02*
Y109500D01*
X14272Y101500D02*
X76721D01*
X76721Y101500D01*
X9193Y96422D02*
X14272Y101500D01*
X114920Y111580D02*
X117000Y109500D01*
X17975Y111580D02*
X114920D01*
X9066Y102672D02*
X17975Y111580D01*
X13395Y119500D02*
X148500D01*
X9066Y115172D02*
X13395Y119500D01*
X9066Y108922D02*
X15645Y115500D01*
X131500D01*
X69000Y122500D02*
X164500D01*
X196000Y148500D02*
Y161500D01*
Y148500D02*
X201000Y143500D01*
X172938Y184562D02*
X196000Y161500D01*
X184188Y190812D02*
X216000Y159000D01*
X9513Y190812D02*
X184188D01*
X216000Y148500D02*
Y159000D01*
X105890Y148610D02*
Y155117D01*
Y148610D02*
X111000Y143500D01*
X9640Y153062D02*
X68938D01*
X87000Y135000D01*
X218000D01*
X9513Y159312D02*
X101695D01*
X105890Y155117D01*
X126399Y148101D02*
X131000Y143500D01*
X126399Y148101D02*
Y159101D01*
X119688Y165812D02*
X126399Y159101D01*
X9513Y165812D02*
X119688D01*
X9513Y172062D02*
X144438D01*
X156399Y160101D01*
Y148101D02*
X161000Y143500D01*
X156399Y148101D02*
Y160101D01*
X176399Y148101D02*
X181000Y143500D01*
X176399Y148101D02*
Y159101D01*
X157188Y178312D02*
X176399Y159101D01*
X9513Y178312D02*
X157188D01*
X9513Y184562D02*
X172938D01*
X216000Y148500D02*
X221000Y143500D01*
X9066Y96422D02*
X9193D01*
X57500Y134000D02*
X69000Y122500D01*
X61000Y140500D02*
X75000Y126500D01*
X79000Y131000D02*
X200000D01*
X63188Y146812D02*
X79000Y131000D01*
X218000Y135000D02*
X237247Y115753D01*
X82500Y96500D02*
X87438Y88562D01*
Y58562D02*
Y88562D01*
Y58562D02*
X92000Y54000D01*
X92500Y96500D02*
X97438Y88562D01*
Y58562D02*
Y88562D01*
Y58562D02*
X102000Y54000D01*
X107438Y58562D02*
X112000Y54000D01*
X117438Y58562D02*
Y88562D01*
X112500Y96500D02*
X117438Y88562D01*
Y58562D02*
X122000Y54000D01*
X127438Y58562D02*
X132000Y54000D01*
X137438Y58562D02*
Y88562D01*
Y58562D02*
X142000Y54000D01*
X132500Y96500D02*
X137438Y88562D01*
X147438Y58562D02*
Y88562D01*
Y58562D02*
X152000Y54000D01*
X142500Y96500D02*
X147438Y88562D01*
X152500Y96500D02*
X157438Y88562D01*
Y58562D02*
Y88562D01*
Y58562D02*
X162000Y54000D01*
X167438Y58562D02*
X172000Y54000D01*
X162500Y96500D02*
X167438Y88562D01*
Y58562D02*
Y88562D01*
X172500Y96500D02*
X186562Y79438D01*
Y59438D02*
X192000Y54000D01*
X186562Y59438D02*
Y79438D01*
X182500Y96500D02*
X196562Y79438D01*
Y59438D02*
X202000Y54000D01*
X196562Y59438D02*
Y79438D01*
X192500Y96500D02*
X206562Y79438D01*
Y59438D02*
Y79438D01*
Y59438D02*
X212000Y54000D01*
X202500Y96500D02*
X216562Y79438D01*
Y59438D02*
X222000Y54000D01*
X216562Y59438D02*
Y79438D01*
X212500Y96500D02*
X226562Y79438D01*
Y59438D02*
Y79438D01*
Y59438D02*
X232000Y54000D01*
X236562Y59438D02*
X242000Y54000D01*
X236562Y59438D02*
Y79438D01*
X222500Y96500D02*
X236562Y79438D01*
X246562Y59438D02*
Y79438D01*
X232500Y96500D02*
X246562Y79438D01*
Y59438D02*
X252000Y54000D01*
X256562Y59438D02*
X262000Y54000D01*
X256562Y59438D02*
Y79438D01*
X242500Y96500D02*
X256562Y79438D01*
X31014Y89986D02*
X74000Y47000D01*
X9187Y89986D02*
X31014D01*
X74000Y47000D02*
X85000D01*
X9500Y134000D02*
X57500D01*
X9500Y140500D02*
X61000D01*
X9513Y146812D02*
X63188D01*
X237247Y101753D02*
Y115753D01*
X85000Y47000D02*
X92000Y54000D01*
D25*
X28405Y221870D02*
D03*
X22500Y43130D02*
D03*
D26*
X241000Y143500D02*
D03*
X231000D02*
D03*
X221000D02*
D03*
X211000D02*
D03*
X201000D02*
D03*
X191000D02*
D03*
X181000D02*
D03*
X171000D02*
D03*
X161000D02*
D03*
X151000D02*
D03*
X141000D02*
D03*
X131000D02*
D03*
X121000D02*
D03*
X111000D02*
D03*
X101000D02*
D03*
X241000Y153500D02*
D03*
X231000D02*
D03*
X221000D02*
D03*
X211000D02*
D03*
X201000D02*
D03*
X191000D02*
D03*
X181000D02*
D03*
X171000D02*
D03*
X161000D02*
D03*
X151000D02*
D03*
X141000D02*
D03*
X131000D02*
D03*
X121000D02*
D03*
X111000D02*
D03*
X101000D02*
D03*
D27*
X82500Y106500D02*
D03*
D28*
Y96500D02*
D03*
X92500Y106500D02*
D03*
Y96500D02*
D03*
X102500Y106500D02*
D03*
Y96500D02*
D03*
X112500Y106500D02*
D03*
Y96500D02*
D03*
X122500Y106500D02*
D03*
Y96500D02*
D03*
X132500Y106500D02*
D03*
Y96500D02*
D03*
X142500Y106500D02*
D03*
Y96500D02*
D03*
X152500Y106500D02*
D03*
Y96500D02*
D03*
X162500Y106500D02*
D03*
Y96500D02*
D03*
X172500Y106500D02*
D03*
Y96500D02*
D03*
X182500Y106500D02*
D03*
Y96500D02*
D03*
X192500Y106500D02*
D03*
Y96500D02*
D03*
X202500Y106500D02*
D03*
Y96500D02*
D03*
X212500Y106500D02*
D03*
Y96500D02*
D03*
X222500Y106500D02*
D03*
Y96500D02*
D03*
X232500Y106500D02*
D03*
Y96500D02*
D03*
X242500Y106500D02*
D03*
Y96500D02*
D03*
X252500Y106500D02*
D03*
Y96500D02*
D03*
X262500Y106500D02*
D03*
Y96500D02*
D03*
X272500Y106500D02*
D03*
Y96500D02*
D03*
D29*
X158000Y265317D02*
D03*
Y225317D02*
D03*
X198000D02*
D03*
Y265317D02*
D03*
X50866Y265282D02*
D03*
Y225282D02*
D03*
X90866D02*
D03*
Y265282D02*
D03*
X250500Y265317D02*
D03*
Y225317D02*
D03*
X210500D02*
D03*
Y265317D02*
D03*
X143500D02*
D03*
Y225317D02*
D03*
X103500D02*
D03*
Y265317D02*
D03*
D30*
X178000Y240278D02*
D03*
X70866Y240242D02*
D03*
X230500Y240278D02*
D03*
X123500D02*
D03*
D31*
X82000Y64000D02*
D03*
X92000D02*
D03*
X102000D02*
D03*
X112000D02*
D03*
X122000D02*
D03*
X132000D02*
D03*
X142000D02*
D03*
X152000D02*
D03*
X162000D02*
D03*
X172000D02*
D03*
X182000D02*
D03*
X192000D02*
D03*
X202000D02*
D03*
X212000D02*
D03*
X222000D02*
D03*
X232000D02*
D03*
X242000D02*
D03*
X252000D02*
D03*
X262000D02*
D03*
X272000D02*
D03*
X82000Y54000D02*
D03*
X92000D02*
D03*
X102000D02*
D03*
X112000D02*
D03*
X122000D02*
D03*
X132000D02*
D03*
X142000D02*
D03*
X152000D02*
D03*
X162000D02*
D03*
X172000D02*
D03*
X182000D02*
D03*
X192000D02*
D03*
X202000D02*
D03*
X212000D02*
D03*
X222000D02*
D03*
X232000D02*
D03*
X242000D02*
D03*
X252000D02*
D03*
X262000D02*
D03*
D32*
X272000D02*
D03*
D33*
X246500Y115500D02*
D03*
X257500Y115000D02*
D03*
X231000Y192500D02*
D03*
X235500Y161500D02*
D03*
X236000Y192500D02*
D03*
X229000Y114000D02*
D03*
X73000Y64000D02*
D03*
X177000Y73500D02*
D03*
X286500Y140500D02*
D03*
X269091Y247532D02*
D03*
Y82177D02*
D03*
X282870Y54618D02*
D03*
X255311Y275091D02*
D03*
X241531Y247532D02*
D03*
Y192413D02*
D03*
X255311Y164854D02*
D03*
X213972Y247532D02*
D03*
X227752Y219972D02*
D03*
X213972Y27059D02*
D03*
X200193Y275091D02*
D03*
X158854Y247532D02*
D03*
X172634Y219972D02*
D03*
X158854Y27059D02*
D03*
X145075Y275091D02*
D03*
Y164854D02*
D03*
X103736Y247532D02*
D03*
Y27059D02*
D03*
X89957Y275091D02*
D03*
X34839D02*
D03*
X48618Y27059D02*
D03*
X34839Y219972D02*
D03*
X21059Y247532D02*
D03*
D34*
X9066Y96422D02*
D03*
X9500Y140500D02*
D03*
Y134000D02*
D03*
X9066Y102672D02*
D03*
Y115172D02*
D03*
Y108922D02*
D03*
X9187Y89986D02*
D03*
X9513Y165812D02*
D03*
Y146812D02*
D03*
Y159312D02*
D03*
Y153062D02*
D03*
Y172062D02*
D03*
Y178312D02*
D03*
Y190812D02*
D03*
Y184562D02*
D03*
M02*
