G04*
G04 #@! TF.GenerationSoftware,Altium Limited,Altium Designer,23.0.1 (38)*
G04*
G04 Layer_Physical_Order=2*
G04 Layer_Color=16711680*
%FSLAX25Y25*%
%MOIN*%
G70*
G04*
G04 #@! TF.SameCoordinates,0F18841D-DA8F-46EF-A0D6-61A62281B5C3*
G04*
G04*
G04 #@! TF.FilePolarity,Positive*
G04*
G01*
G75*
%ADD10C,0.01968*%
%ADD24C,0.01500*%
%ADD25C,0.05000*%
%ADD26C,0.06102*%
%ADD27R,0.05394X0.05394*%
%ADD28C,0.05394*%
%ADD29C,0.07650*%
%ADD30C,0.13287*%
%ADD31C,0.06024*%
%ADD32R,0.06024X0.06024*%
%ADD33C,0.02165*%
%ADD34C,0.01968*%
%ADD35R,0.04724X0.01968*%
G36*
X289912Y294230D02*
X291085Y293744D01*
X292141Y293038D01*
X293038Y292141D01*
X293744Y291085D01*
X294230Y289912D01*
X294477Y288669D01*
X294473Y288037D01*
X294473Y288034D01*
X294473Y288032D01*
X294478Y7248D01*
Y6613D01*
X294230Y5368D01*
X293744Y4195D01*
X293038Y3139D01*
X292141Y2241D01*
X291085Y1536D01*
X289912Y1050D01*
X288666Y802D01*
X288032Y802D01*
X7248Y798D01*
X6613D01*
X5368Y1046D01*
X4195Y1532D01*
X3139Y2237D01*
X2241Y3135D01*
X1536Y4191D01*
X1050Y5364D01*
X802Y6609D01*
Y7244D01*
X798Y288032D01*
X798Y288666D01*
X1046Y289912D01*
X1532Y291085D01*
X2237Y292141D01*
X3135Y293038D01*
X4191Y293744D01*
X5364Y294230D01*
X6607Y294477D01*
X7239Y294473D01*
X7242Y294473D01*
X7244Y294473D01*
X288032Y294478D01*
X288666D01*
X289912Y294230D01*
D02*
G37*
%LPC*%
G36*
X276385Y284477D02*
X274796D01*
X274717Y284461D01*
X274637D01*
X273077Y284151D01*
X273003Y284120D01*
X272924Y284105D01*
X271455Y283496D01*
X271389Y283452D01*
X271314Y283421D01*
X269992Y282538D01*
X269936Y282481D01*
X269869Y282436D01*
X268745Y281312D01*
X268700Y281245D01*
X268643Y281189D01*
X267760Y279867D01*
X267729Y279792D01*
X267685Y279726D01*
X267076Y278257D01*
X267061Y278178D01*
X267030Y278104D01*
X266720Y276545D01*
Y276464D01*
X266704Y276385D01*
Y274796D01*
X266720Y274717D01*
Y274637D01*
X267030Y273077D01*
X267061Y273003D01*
X267076Y272924D01*
X267685Y271455D01*
X267729Y271389D01*
X267760Y271314D01*
X268643Y269992D01*
X268700Y269936D01*
X268745Y269869D01*
X269869Y268745D01*
X269936Y268700D01*
X269992Y268643D01*
X271314Y267760D01*
X271389Y267729D01*
X271455Y267685D01*
X272924Y267076D01*
X273003Y267061D01*
X273077Y267030D01*
X274637Y266720D01*
X274717D01*
X274796Y266704D01*
X276385D01*
X276464Y266720D01*
X276545D01*
X278104Y267030D01*
X278178Y267061D01*
X278257Y267076D01*
X279726Y267685D01*
X279792Y267729D01*
X279867Y267760D01*
X281189Y268643D01*
X281245Y268700D01*
X281312Y268745D01*
X282436Y269869D01*
X282481Y269936D01*
X282538Y269992D01*
X283421Y271314D01*
X283452Y271389D01*
X283496Y271455D01*
X284105Y272924D01*
X284120Y273003D01*
X284151Y273077D01*
X284461Y274637D01*
Y274717D01*
X284477Y274796D01*
Y276385D01*
X284461Y276464D01*
Y276545D01*
X284151Y278104D01*
X284120Y278178D01*
X284105Y278257D01*
X283496Y279726D01*
X283452Y279792D01*
X283421Y279867D01*
X282538Y281189D01*
X282481Y281245D01*
X282436Y281312D01*
X281312Y282436D01*
X281245Y282481D01*
X281189Y282538D01*
X279867Y283421D01*
X279792Y283452D01*
X279726Y283496D01*
X278257Y284105D01*
X278178Y284120D01*
X278104Y284151D01*
X276545Y284461D01*
X276464D01*
X276385Y284477D01*
D02*
G37*
G36*
X20480D02*
X18890D01*
X18811Y284461D01*
X18731D01*
X17172Y284151D01*
X17097Y284120D01*
X17019Y284105D01*
X15550Y283496D01*
X15483Y283452D01*
X15409Y283421D01*
X14087Y282538D01*
X14030Y282481D01*
X13963Y282436D01*
X12839Y281312D01*
X12795Y281245D01*
X12738Y281189D01*
X11855Y279867D01*
X11824Y279792D01*
X11779Y279726D01*
X11171Y278257D01*
X11155Y278178D01*
X11124Y278104D01*
X10814Y276545D01*
Y276464D01*
X10798Y276385D01*
Y274796D01*
X10814Y274717D01*
Y274637D01*
X11124Y273077D01*
X11155Y273003D01*
X11171Y272924D01*
X11779Y271455D01*
X11824Y271389D01*
X11855Y271314D01*
X12738Y269992D01*
X12795Y269936D01*
X12839Y269869D01*
X13963Y268745D01*
X14030Y268700D01*
X14087Y268643D01*
X15409Y267760D01*
X15483Y267729D01*
X15550Y267685D01*
X17019Y267076D01*
X17097Y267061D01*
X17172Y267030D01*
X18731Y266720D01*
X18811D01*
X18890Y266704D01*
X20480D01*
X20559Y266720D01*
X20639D01*
X22198Y267030D01*
X22273Y267061D01*
X22351Y267076D01*
X23820Y267685D01*
X23887Y267729D01*
X23961Y267760D01*
X25283Y268643D01*
X25340Y268700D01*
X25407Y268745D01*
X26531Y269869D01*
X26575Y269936D01*
X26632Y269992D01*
X27516Y271314D01*
X27546Y271389D01*
X27591Y271455D01*
X28199Y272924D01*
X28215Y273003D01*
X28246Y273077D01*
X28556Y274637D01*
Y274717D01*
X28572Y274796D01*
Y276385D01*
X28556Y276464D01*
Y276545D01*
X28246Y278104D01*
X28215Y278178D01*
X28199Y278257D01*
X27591Y279726D01*
X27546Y279792D01*
X27516Y279867D01*
X26632Y281189D01*
X26575Y281245D01*
X26531Y281312D01*
X25407Y282436D01*
X25340Y282481D01*
X25283Y282538D01*
X23961Y283421D01*
X23887Y283452D01*
X23820Y283496D01*
X22351Y284105D01*
X22273Y284120D01*
X22198Y284151D01*
X20639Y284461D01*
X20559D01*
X20480Y284477D01*
D02*
G37*
G36*
X250500Y269982D02*
X249293Y269823D01*
X248167Y269357D01*
X247201Y268616D01*
X246460Y267650D01*
X245994Y266524D01*
X245835Y265317D01*
X245994Y264110D01*
X246460Y262984D01*
X247201Y262018D01*
X248167Y261277D01*
X249293Y260811D01*
X250500Y260652D01*
X251707Y260811D01*
X252833Y261277D01*
X253799Y262018D01*
X254540Y262984D01*
X255006Y264110D01*
X255165Y265317D01*
X255006Y266524D01*
X254540Y267650D01*
X253799Y268616D01*
X252833Y269357D01*
X251707Y269823D01*
X250500Y269982D01*
D02*
G37*
G36*
X210500D02*
X209293Y269823D01*
X208168Y269357D01*
X207201Y268616D01*
X206460Y267650D01*
X205994Y266524D01*
X205835Y265317D01*
X205994Y264110D01*
X206460Y262984D01*
X207201Y262018D01*
X208168Y261277D01*
X209293Y260811D01*
X210500Y260652D01*
X211707Y260811D01*
X212832Y261277D01*
X213799Y262018D01*
X214540Y262984D01*
X215006Y264110D01*
X215165Y265317D01*
X215006Y266524D01*
X214540Y267650D01*
X213799Y268616D01*
X212832Y269357D01*
X211707Y269823D01*
X210500Y269982D01*
D02*
G37*
G36*
X198000D02*
X196793Y269823D01*
X195668Y269357D01*
X194701Y268616D01*
X193960Y267650D01*
X193494Y266524D01*
X193335Y265317D01*
X193494Y264110D01*
X193960Y262984D01*
X194701Y262018D01*
X195668Y261277D01*
X196793Y260811D01*
X198000Y260652D01*
X199207Y260811D01*
X200332Y261277D01*
X201299Y262018D01*
X202040Y262984D01*
X202506Y264110D01*
X202665Y265317D01*
X202506Y266524D01*
X202040Y267650D01*
X201299Y268616D01*
X200332Y269357D01*
X199207Y269823D01*
X198000Y269982D01*
D02*
G37*
G36*
X158000D02*
X156793Y269823D01*
X155668Y269357D01*
X154701Y268616D01*
X153960Y267650D01*
X153494Y266524D01*
X153335Y265317D01*
X153494Y264110D01*
X153960Y262984D01*
X154701Y262018D01*
X155668Y261277D01*
X156793Y260811D01*
X158000Y260652D01*
X159207Y260811D01*
X160332Y261277D01*
X161299Y262018D01*
X162040Y262984D01*
X162506Y264110D01*
X162665Y265317D01*
X162506Y266524D01*
X162040Y267650D01*
X161299Y268616D01*
X160332Y269357D01*
X159207Y269823D01*
X158000Y269982D01*
D02*
G37*
G36*
X143500D02*
X142293Y269823D01*
X141168Y269357D01*
X140201Y268616D01*
X139460Y267650D01*
X138994Y266524D01*
X138835Y265317D01*
X138994Y264110D01*
X139460Y262984D01*
X140201Y262018D01*
X141168Y261277D01*
X142293Y260811D01*
X143500Y260652D01*
X144707Y260811D01*
X145832Y261277D01*
X146799Y262018D01*
X147540Y262984D01*
X148006Y264110D01*
X148165Y265317D01*
X148006Y266524D01*
X147540Y267650D01*
X146799Y268616D01*
X145832Y269357D01*
X144707Y269823D01*
X143500Y269982D01*
D02*
G37*
G36*
X103500D02*
X102293Y269823D01*
X101168Y269357D01*
X100201Y268616D01*
X99460Y267650D01*
X98994Y266524D01*
X98835Y265317D01*
X98994Y264110D01*
X99460Y262984D01*
X100201Y262018D01*
X101168Y261277D01*
X102293Y260811D01*
X103500Y260652D01*
X104707Y260811D01*
X105832Y261277D01*
X106799Y262018D01*
X107540Y262984D01*
X108006Y264110D01*
X108165Y265317D01*
X108006Y266524D01*
X107540Y267650D01*
X106799Y268616D01*
X105832Y269357D01*
X104707Y269823D01*
X103500Y269982D01*
D02*
G37*
G36*
X90866Y269947D02*
X89659Y269788D01*
X88534Y269321D01*
X87568Y268580D01*
X86826Y267614D01*
X86360Y266489D01*
X86201Y265282D01*
X86360Y264074D01*
X86826Y262949D01*
X87568Y261983D01*
X88534Y261242D01*
X89659Y260776D01*
X90866Y260617D01*
X92074Y260776D01*
X93199Y261242D01*
X94165Y261983D01*
X94906Y262949D01*
X95372Y264074D01*
X95531Y265282D01*
X95372Y266489D01*
X94906Y267614D01*
X94165Y268580D01*
X93199Y269321D01*
X92074Y269788D01*
X90866Y269947D01*
D02*
G37*
G36*
X50866D02*
X49659Y269788D01*
X48534Y269321D01*
X47567Y268580D01*
X46826Y267614D01*
X46360Y266489D01*
X46201Y265282D01*
X46360Y264074D01*
X46826Y262949D01*
X47567Y261983D01*
X48534Y261242D01*
X49659Y260776D01*
X50866Y260617D01*
X52074Y260776D01*
X53199Y261242D01*
X54165Y261983D01*
X54906Y262949D01*
X55372Y264074D01*
X55531Y265282D01*
X55372Y266489D01*
X54906Y267614D01*
X54165Y268580D01*
X53199Y269321D01*
X52074Y269788D01*
X50866Y269947D01*
D02*
G37*
G36*
X164778Y255319D02*
X164778Y255319D01*
X55500D01*
X55500Y255319D01*
X54804Y255181D01*
X54214Y254786D01*
X40214Y240786D01*
X39819Y240196D01*
X39681Y239500D01*
X39681Y239500D01*
Y220006D01*
X33017Y213342D01*
X32555Y213533D01*
Y214965D01*
X29193D01*
X25831D01*
Y213980D01*
Y213815D01*
X29193D01*
Y211815D01*
X25831D01*
Y211485D01*
X19169D01*
Y211815D01*
X15807D01*
X12445D01*
Y210831D01*
X12645D01*
Y208500D01*
X12445D01*
Y207516D01*
X15807D01*
Y205516D01*
X12445D01*
Y204532D01*
X12645D01*
Y202201D01*
X12445D01*
Y201217D01*
X15807D01*
Y199216D01*
X12445D01*
Y198232D01*
X12645D01*
Y195902D01*
X12445D01*
Y194917D01*
X15807D01*
X19169D01*
Y195248D01*
X25831D01*
Y194917D01*
X29193D01*
X32555D01*
Y195248D01*
X100567D01*
X100567Y195248D01*
X101263Y195386D01*
X101853Y195781D01*
X123500Y217427D01*
X145214Y195714D01*
X145214Y195714D01*
X145804Y195319D01*
X146500Y195181D01*
X209246D01*
X265681Y138747D01*
Y109205D01*
X265207Y109045D01*
X265137Y109137D01*
X264364Y109729D01*
X263500Y110087D01*
Y106500D01*
Y102913D01*
X264364Y103271D01*
X265137Y103863D01*
X265207Y103955D01*
X265681Y103795D01*
Y102253D01*
X263343Y99916D01*
X262500Y100027D01*
X261587Y99907D01*
X260736Y99555D01*
X260006Y98994D01*
X259446Y98264D01*
X259093Y97413D01*
X258973Y96500D01*
X259093Y95587D01*
X259446Y94736D01*
X260006Y94006D01*
X260736Y93445D01*
X261587Y93093D01*
X262500Y92973D01*
X263413Y93093D01*
X264264Y93445D01*
X264994Y94006D01*
X265554Y94736D01*
X265907Y95587D01*
X266027Y96500D01*
X265916Y97343D01*
X268786Y100214D01*
X268786Y100214D01*
X269181Y100804D01*
X269319Y101500D01*
X269319Y101500D01*
Y104080D01*
X269819Y104250D01*
X270006Y104006D01*
X270737Y103445D01*
X271587Y103093D01*
X272500Y102973D01*
X273413Y103093D01*
X274264Y103445D01*
X274994Y104006D01*
X275554Y104736D01*
X275907Y105587D01*
X276027Y106500D01*
X275907Y107413D01*
X275554Y108264D01*
X274994Y108994D01*
X274264Y109555D01*
X273413Y109907D01*
X272500Y110027D01*
X271587Y109907D01*
X270737Y109555D01*
X270006Y108994D01*
X269819Y108750D01*
X269319Y108920D01*
Y139500D01*
X269319Y139500D01*
X269181Y140196D01*
X268786Y140786D01*
X211286Y198286D01*
X210696Y198681D01*
X210000Y198819D01*
X210000Y198819D01*
X147254D01*
X125319Y220754D01*
Y233051D01*
X126362Y233367D01*
X127655Y234058D01*
X128789Y234989D01*
X129719Y236122D01*
X130410Y237415D01*
X130836Y238818D01*
X130980Y240278D01*
X130836Y241737D01*
X130410Y243140D01*
X129719Y244433D01*
X128789Y245567D01*
X127655Y246497D01*
X126362Y247188D01*
X124959Y247614D01*
X123500Y247757D01*
X122041Y247614D01*
X120638Y247188D01*
X119344Y246497D01*
X118211Y245567D01*
X117281Y244433D01*
X116590Y243140D01*
X116164Y241737D01*
X116020Y240278D01*
X116164Y238818D01*
X116590Y237415D01*
X117281Y236122D01*
X118211Y234989D01*
X119344Y234058D01*
X120638Y233367D01*
X121681Y233051D01*
Y220754D01*
X99813Y198886D01*
X32555D01*
Y199216D01*
X29193D01*
Y201217D01*
X32555D01*
Y201547D01*
X53866D01*
X53866Y201547D01*
X54562Y201685D01*
X55152Y202080D01*
X72153Y219080D01*
X72547Y219670D01*
X72685Y220366D01*
X72685Y220366D01*
Y233015D01*
X73729Y233332D01*
X75022Y234023D01*
X76155Y234953D01*
X77085Y236087D01*
X77776Y237380D01*
X78202Y238783D01*
X78346Y240242D01*
X78202Y241701D01*
X77776Y243105D01*
X77085Y244398D01*
X76155Y245531D01*
X75022Y246461D01*
X73729Y247153D01*
X72325Y247578D01*
X70866Y247722D01*
X69407Y247578D01*
X68004Y247153D01*
X66711Y246461D01*
X65577Y245531D01*
X64647Y244398D01*
X63956Y243105D01*
X63530Y241701D01*
X63386Y240242D01*
X63530Y238783D01*
X63956Y237380D01*
X64647Y236087D01*
X65577Y234953D01*
X66711Y234023D01*
X68004Y233332D01*
X69047Y233015D01*
Y221120D01*
X53113Y205185D01*
X32555D01*
Y205516D01*
X29193D01*
Y207516D01*
X32555D01*
Y207974D01*
X32609Y207985D01*
X33200Y208379D01*
X42786Y217966D01*
X42786Y217966D01*
X43181Y218556D01*
X43319Y219252D01*
X43319Y219252D01*
Y238747D01*
X56253Y251681D01*
X164024D01*
X171604Y244101D01*
X171090Y243140D01*
X170664Y241737D01*
X170520Y240278D01*
X170664Y238818D01*
X171090Y237415D01*
X171781Y236122D01*
X172711Y234989D01*
X173845Y234058D01*
X175138Y233367D01*
X176541Y232942D01*
X178000Y232798D01*
X179459Y232942D01*
X180862Y233367D01*
X182156Y234058D01*
X183289Y234989D01*
X184219Y236122D01*
X184910Y237415D01*
X185336Y238818D01*
X185480Y240278D01*
X185336Y241737D01*
X184910Y243140D01*
X184219Y244433D01*
X183289Y245567D01*
X182156Y246497D01*
X180862Y247188D01*
X179459Y247614D01*
X178000Y247757D01*
X176541Y247614D01*
X175138Y247188D01*
X174176Y246674D01*
X166064Y254786D01*
X165474Y255181D01*
X164778Y255319D01*
D02*
G37*
G36*
X231500Y247860D02*
Y241278D01*
X238082D01*
X238033Y241776D01*
X237596Y243217D01*
X236886Y244545D01*
X235931Y245709D01*
X234767Y246664D01*
X233439Y247374D01*
X231998Y247811D01*
X231500Y247860D01*
D02*
G37*
G36*
X229500D02*
X229002Y247811D01*
X227561Y247374D01*
X226233Y246664D01*
X225069Y245709D01*
X224114Y244545D01*
X223404Y243217D01*
X222967Y241776D01*
X222918Y241278D01*
X229500D01*
Y247860D01*
D02*
G37*
G36*
X238082Y239278D02*
X231500D01*
Y232695D01*
X231998Y232745D01*
X233439Y233182D01*
X234767Y233891D01*
X235931Y234847D01*
X236886Y236011D01*
X237596Y237338D01*
X238033Y238779D01*
X238082Y239278D01*
D02*
G37*
G36*
X229500D02*
X222918D01*
X222967Y238779D01*
X223404Y237338D01*
X224114Y236011D01*
X225069Y234847D01*
X226233Y233891D01*
X227561Y233182D01*
X229002Y232745D01*
X229500Y232695D01*
Y239278D01*
D02*
G37*
G36*
X250500Y229982D02*
X249293Y229823D01*
X248167Y229357D01*
X247201Y228616D01*
X246460Y227649D01*
X245994Y226524D01*
X245835Y225317D01*
X245994Y224110D01*
X246460Y222985D01*
X247201Y222018D01*
X248167Y221277D01*
X249293Y220811D01*
X250500Y220652D01*
X251707Y220811D01*
X252833Y221277D01*
X253799Y222018D01*
X254540Y222985D01*
X255006Y224110D01*
X255165Y225317D01*
X255006Y226524D01*
X254540Y227649D01*
X253799Y228616D01*
X252833Y229357D01*
X251707Y229823D01*
X250500Y229982D01*
D02*
G37*
G36*
X210500D02*
X209293Y229823D01*
X208168Y229357D01*
X207201Y228616D01*
X206460Y227649D01*
X205994Y226524D01*
X205835Y225317D01*
X205994Y224110D01*
X206460Y222985D01*
X207201Y222018D01*
X208168Y221277D01*
X209293Y220811D01*
X210500Y220652D01*
X211707Y220811D01*
X212832Y221277D01*
X213799Y222018D01*
X214540Y222985D01*
X215006Y224110D01*
X215165Y225317D01*
X215006Y226524D01*
X214540Y227649D01*
X213799Y228616D01*
X212832Y229357D01*
X211707Y229823D01*
X210500Y229982D01*
D02*
G37*
G36*
X198000D02*
X196793Y229823D01*
X195668Y229357D01*
X194701Y228616D01*
X193960Y227649D01*
X193494Y226524D01*
X193335Y225317D01*
X193494Y224110D01*
X193960Y222985D01*
X194701Y222018D01*
X195668Y221277D01*
X196793Y220811D01*
X198000Y220652D01*
X199207Y220811D01*
X200332Y221277D01*
X201299Y222018D01*
X202040Y222985D01*
X202506Y224110D01*
X202665Y225317D01*
X202506Y226524D01*
X202040Y227649D01*
X201299Y228616D01*
X200332Y229357D01*
X199207Y229823D01*
X198000Y229982D01*
D02*
G37*
G36*
X158000D02*
X156793Y229823D01*
X155668Y229357D01*
X154701Y228616D01*
X153960Y227649D01*
X153494Y226524D01*
X153335Y225317D01*
X153494Y224110D01*
X153960Y222985D01*
X154701Y222018D01*
X155668Y221277D01*
X156793Y220811D01*
X158000Y220652D01*
X159207Y220811D01*
X160332Y221277D01*
X161299Y222018D01*
X162040Y222985D01*
X162506Y224110D01*
X162665Y225317D01*
X162506Y226524D01*
X162040Y227649D01*
X161299Y228616D01*
X160332Y229357D01*
X159207Y229823D01*
X158000Y229982D01*
D02*
G37*
G36*
X143500D02*
X142293Y229823D01*
X141168Y229357D01*
X140201Y228616D01*
X139460Y227649D01*
X138994Y226524D01*
X138835Y225317D01*
X138994Y224110D01*
X139460Y222985D01*
X140201Y222018D01*
X141168Y221277D01*
X142293Y220811D01*
X143500Y220652D01*
X144707Y220811D01*
X145832Y221277D01*
X146799Y222018D01*
X147540Y222985D01*
X148006Y224110D01*
X148165Y225317D01*
X148006Y226524D01*
X147540Y227649D01*
X146799Y228616D01*
X145832Y229357D01*
X144707Y229823D01*
X143500Y229982D01*
D02*
G37*
G36*
X103500D02*
X102293Y229823D01*
X101168Y229357D01*
X100201Y228616D01*
X99460Y227649D01*
X98994Y226524D01*
X98835Y225317D01*
X98994Y224110D01*
X99460Y222985D01*
X100201Y222018D01*
X101168Y221277D01*
X102293Y220811D01*
X103500Y220652D01*
X104707Y220811D01*
X105832Y221277D01*
X106799Y222018D01*
X107540Y222985D01*
X108006Y224110D01*
X108165Y225317D01*
X108006Y226524D01*
X107540Y227649D01*
X106799Y228616D01*
X105832Y229357D01*
X104707Y229823D01*
X103500Y229982D01*
D02*
G37*
G36*
X90866Y229946D02*
X89659Y229787D01*
X88534Y229322D01*
X87568Y228580D01*
X86826Y227614D01*
X86360Y226489D01*
X86201Y225282D01*
X86360Y224074D01*
X86826Y222949D01*
X87568Y221983D01*
X88534Y221242D01*
X89659Y220776D01*
X90866Y220617D01*
X92074Y220776D01*
X93199Y221242D01*
X94165Y221983D01*
X94906Y222949D01*
X95372Y224074D01*
X95531Y225282D01*
X95372Y226489D01*
X94906Y227614D01*
X94165Y228580D01*
X93199Y229322D01*
X92074Y229787D01*
X90866Y229946D01*
D02*
G37*
G36*
X50866D02*
X49659Y229787D01*
X48534Y229322D01*
X47567Y228580D01*
X46826Y227614D01*
X46360Y226489D01*
X46201Y225282D01*
X46360Y224074D01*
X46826Y222949D01*
X47567Y221983D01*
X48534Y221242D01*
X49659Y220776D01*
X50866Y220617D01*
X52074Y220776D01*
X53199Y221242D01*
X54165Y221983D01*
X54906Y222949D01*
X55372Y224074D01*
X55531Y225282D01*
X55372Y226489D01*
X54906Y227614D01*
X54165Y228580D01*
X53199Y229322D01*
X52074Y229787D01*
X50866Y229946D01*
D02*
G37*
G36*
X28405Y225199D02*
X27544Y225085D01*
X26741Y224753D01*
X26052Y224224D01*
X25523Y223534D01*
X25190Y222732D01*
X25077Y221870D01*
X25190Y221009D01*
X25523Y220206D01*
X26052Y219516D01*
X26741Y218987D01*
X27544Y218655D01*
X28405Y218542D01*
X29267Y218655D01*
X30070Y218987D01*
X30759Y219516D01*
X31288Y220206D01*
X31621Y221009D01*
X31734Y221870D01*
X31621Y222732D01*
X31288Y223534D01*
X30759Y224224D01*
X30070Y224753D01*
X29267Y225085D01*
X28405Y225199D01*
D02*
G37*
G36*
X32555Y217949D02*
X30193D01*
Y216965D01*
X32555D01*
Y217949D01*
D02*
G37*
G36*
X19169D02*
X16807D01*
Y216965D01*
X19169D01*
Y217949D01*
D02*
G37*
G36*
X28193D02*
X25831D01*
Y216965D01*
X28193D01*
Y217949D01*
D02*
G37*
G36*
X14807D02*
X12445D01*
Y216965D01*
X14807D01*
Y217949D01*
D02*
G37*
G36*
X19169Y214965D02*
X15807D01*
X12445D01*
Y213980D01*
Y213815D01*
X15807D01*
X19169D01*
Y213980D01*
Y214965D01*
D02*
G37*
G36*
Y192917D02*
X15807D01*
X12445D01*
Y192370D01*
X10392D01*
X10209Y192493D01*
X9513Y192631D01*
X8817Y192493D01*
X8226Y192098D01*
X7832Y191508D01*
X7694Y190812D01*
X7832Y190116D01*
X8226Y189525D01*
X8817Y189131D01*
X9513Y188993D01*
X10209Y189131D01*
X10326Y189209D01*
X12445D01*
Y188618D01*
X15807D01*
X19169D01*
Y189602D01*
X18969D01*
Y191933D01*
X19169D01*
Y192917D01*
D02*
G37*
G36*
Y186618D02*
X15807D01*
X12445D01*
Y186095D01*
X10429D01*
X10209Y186243D01*
X9513Y186381D01*
X8817Y186243D01*
X8226Y185848D01*
X7832Y185258D01*
X7694Y184562D01*
X7832Y183866D01*
X8226Y183275D01*
X8817Y182881D01*
X9513Y182743D01*
X10209Y182881D01*
X10289Y182935D01*
X12445D01*
Y182319D01*
X15807D01*
X19169D01*
Y183303D01*
X18969D01*
Y185634D01*
X19169D01*
Y186618D01*
D02*
G37*
G36*
Y180319D02*
X15807D01*
X12445D01*
Y179821D01*
X10466D01*
X10209Y179993D01*
X9513Y180131D01*
X8817Y179993D01*
X8226Y179598D01*
X7832Y179008D01*
X7694Y178312D01*
X7832Y177616D01*
X8226Y177025D01*
X8817Y176631D01*
X9513Y176493D01*
X10209Y176631D01*
X10253Y176660D01*
X12445D01*
Y176020D01*
X15807D01*
X19169D01*
Y177004D01*
X18969D01*
Y179335D01*
X19169D01*
Y180319D01*
D02*
G37*
G36*
Y174020D02*
X15807D01*
X12445D01*
Y173553D01*
X10493D01*
X10209Y173743D01*
X9513Y173881D01*
X8817Y173743D01*
X8226Y173348D01*
X7832Y172758D01*
X7694Y172062D01*
X7832Y171366D01*
X8226Y170775D01*
X8817Y170381D01*
X9513Y170243D01*
X10209Y170381D01*
X10225Y170392D01*
X12445D01*
Y169720D01*
X15807D01*
X19169D01*
Y170705D01*
X18969D01*
Y173035D01*
X19169D01*
Y174020D01*
D02*
G37*
G36*
Y167720D02*
X15807D01*
X12445D01*
Y167392D01*
X10359D01*
X10209Y167493D01*
X9513Y167631D01*
X8817Y167493D01*
X8226Y167098D01*
X7832Y166508D01*
X7694Y165812D01*
X7832Y165116D01*
X8226Y164525D01*
X8817Y164131D01*
X9513Y163993D01*
X10209Y164131D01*
X10359Y164231D01*
X12445D01*
Y163421D01*
X15807D01*
X19169D01*
Y164406D01*
X18969D01*
Y166736D01*
X19169D01*
Y167720D01*
D02*
G37*
G36*
Y161421D02*
X15807D01*
X12445D01*
Y160872D01*
X10389D01*
X10209Y160993D01*
X9513Y161131D01*
X8817Y160993D01*
X8226Y160598D01*
X7832Y160008D01*
X7694Y159312D01*
X7832Y158616D01*
X8226Y158025D01*
X8817Y157631D01*
X9513Y157493D01*
X10209Y157631D01*
X10329Y157711D01*
X12445D01*
Y157122D01*
X15807D01*
X19169D01*
Y158106D01*
X18969D01*
Y160437D01*
X19169D01*
Y161421D01*
D02*
G37*
G36*
X32555Y192917D02*
X29193D01*
X25831D01*
Y191933D01*
X26031D01*
Y189602D01*
X25831D01*
Y188618D01*
X29193D01*
X32555D01*
Y189187D01*
X198078D01*
X224818Y162447D01*
Y155641D01*
X224528Y155514D01*
X224318Y155502D01*
X223747Y156247D01*
X222942Y156864D01*
X222005Y157252D01*
X221000Y157384D01*
X219995Y157252D01*
X219058Y156864D01*
X218253Y156247D01*
X217636Y155442D01*
X217248Y154505D01*
X217116Y153500D01*
X217248Y152495D01*
X217636Y151558D01*
X218253Y150753D01*
X219058Y150136D01*
X219995Y149748D01*
X221000Y149616D01*
X222005Y149748D01*
X222942Y150136D01*
X223747Y150753D01*
X224318Y151498D01*
X224528Y151486D01*
X224818Y151359D01*
Y148101D01*
X224939Y147496D01*
X225281Y146984D01*
X227398Y144867D01*
X227248Y144505D01*
X227116Y143500D01*
X227248Y142495D01*
X227636Y141558D01*
X228253Y140753D01*
X229058Y140136D01*
X229420Y139986D01*
Y135655D01*
X203596Y109831D01*
X203413Y109907D01*
X202500Y110027D01*
X201587Y109907D01*
X200736Y109555D01*
X200006Y108994D01*
X199445Y108264D01*
X199093Y107413D01*
X198973Y106500D01*
X199093Y105587D01*
X199445Y104736D01*
X200006Y104006D01*
X200561Y103580D01*
X200391Y103080D01*
X194609D01*
X194439Y103580D01*
X194994Y104006D01*
X195554Y104736D01*
X195907Y105587D01*
X196027Y106500D01*
X195907Y107413D01*
X195831Y107596D01*
X222117Y133882D01*
X222460Y134395D01*
X222580Y135000D01*
Y139986D01*
X222942Y140136D01*
X223747Y140753D01*
X224364Y141558D01*
X224752Y142495D01*
X224884Y143500D01*
X224752Y144505D01*
X224364Y145442D01*
X223747Y146247D01*
X222942Y146864D01*
X222005Y147252D01*
X221000Y147384D01*
X219995Y147252D01*
X219058Y146864D01*
X218253Y146247D01*
X217636Y145442D01*
X217248Y144505D01*
X217116Y143500D01*
X217248Y142495D01*
X217636Y141558D01*
X218253Y140753D01*
X219058Y140136D01*
X219420Y139986D01*
Y135655D01*
X193596Y109831D01*
X193413Y109907D01*
X192500Y110027D01*
X191587Y109907D01*
X190736Y109555D01*
X190006Y108994D01*
X189445Y108264D01*
X189093Y107413D01*
X188973Y106500D01*
X189093Y105587D01*
X189445Y104736D01*
X190006Y104006D01*
X190561Y103580D01*
X190391Y103080D01*
X184609D01*
X184439Y103580D01*
X184994Y104006D01*
X185555Y104736D01*
X185907Y105587D01*
X186027Y106500D01*
X185907Y107413D01*
X185831Y107596D01*
X212118Y133882D01*
X212460Y134395D01*
X212580Y135000D01*
Y139986D01*
X212942Y140136D01*
X213747Y140753D01*
X214364Y141558D01*
X214752Y142495D01*
X214884Y143500D01*
X214752Y144505D01*
X214364Y145442D01*
X213747Y146247D01*
X212942Y146864D01*
X212005Y147252D01*
X211000Y147384D01*
X209995Y147252D01*
X209279Y146956D01*
X207580Y148655D01*
Y150809D01*
X208080Y150979D01*
X208253Y150753D01*
X209058Y150136D01*
X209995Y149748D01*
X211000Y149616D01*
X212005Y149748D01*
X212942Y150136D01*
X213747Y150753D01*
X214364Y151558D01*
X214752Y152495D01*
X214884Y153500D01*
X214752Y154505D01*
X214364Y155442D01*
X213747Y156247D01*
X212942Y156864D01*
X212005Y157252D01*
X211000Y157384D01*
X209995Y157252D01*
X209058Y156864D01*
X208253Y156247D01*
X208080Y156021D01*
X207580Y156191D01*
Y163500D01*
X207460Y164105D01*
X207118Y164618D01*
X186149Y185586D01*
X185636Y185929D01*
X185031Y186049D01*
X32555D01*
Y186618D01*
X29193D01*
X25831D01*
Y185634D01*
X26031D01*
Y183303D01*
X25831D01*
Y182319D01*
X29193D01*
X32555D01*
Y182888D01*
X184377D01*
X204420Y162845D01*
Y156191D01*
X203920Y156021D01*
X203747Y156247D01*
X202942Y156864D01*
X202005Y157252D01*
X201000Y157384D01*
X199995Y157252D01*
X199058Y156864D01*
X198253Y156247D01*
X197636Y155442D01*
X197248Y154505D01*
X197116Y153500D01*
X197248Y152495D01*
X197636Y151558D01*
X198253Y150753D01*
X199058Y150136D01*
X199995Y149748D01*
X201000Y149616D01*
X202005Y149748D01*
X202942Y150136D01*
X203747Y150753D01*
X203920Y150979D01*
X204420Y150809D01*
Y148000D01*
X204540Y147395D01*
X204883Y146882D01*
X207251Y144514D01*
X207248Y144505D01*
X207116Y143500D01*
X207248Y142495D01*
X207636Y141558D01*
X208253Y140753D01*
X209058Y140136D01*
X209420Y139986D01*
Y135655D01*
X183596Y109831D01*
X183413Y109907D01*
X182500Y110027D01*
X181587Y109907D01*
X180736Y109555D01*
X180006Y108994D01*
X179446Y108264D01*
X179093Y107413D01*
X178973Y106500D01*
X179093Y105587D01*
X179446Y104736D01*
X180006Y104006D01*
X180561Y103580D01*
X180391Y103080D01*
X174609D01*
X174439Y103580D01*
X174994Y104006D01*
X175555Y104736D01*
X175907Y105587D01*
X176027Y106500D01*
X175907Y107413D01*
X175831Y107596D01*
X202117Y133882D01*
X202460Y134395D01*
X202580Y135000D01*
Y139986D01*
X202942Y140136D01*
X203747Y140753D01*
X204364Y141558D01*
X204752Y142495D01*
X204884Y143500D01*
X204752Y144505D01*
X204364Y145442D01*
X203747Y146247D01*
X202942Y146864D01*
X202005Y147252D01*
X201000Y147384D01*
X199995Y147252D01*
X199058Y146864D01*
X198253Y146247D01*
X197636Y145442D01*
X197248Y144505D01*
X197116Y143500D01*
X197248Y142495D01*
X197636Y141558D01*
X198253Y140753D01*
X199058Y140136D01*
X199420Y139986D01*
Y135655D01*
X173596Y109831D01*
X173413Y109907D01*
X172500Y110027D01*
X171587Y109907D01*
X170737Y109555D01*
X170006Y108994D01*
X169446Y108264D01*
X169093Y107413D01*
X168973Y106500D01*
X169093Y105587D01*
X169446Y104736D01*
X170006Y104006D01*
X170561Y103580D01*
X170391Y103080D01*
X164609D01*
X164439Y103580D01*
X164994Y104006D01*
X165554Y104736D01*
X165907Y105587D01*
X166027Y106500D01*
X165907Y107413D01*
X165831Y107596D01*
X192118Y133882D01*
X192460Y134395D01*
X192580Y135000D01*
Y139986D01*
X192942Y140136D01*
X193747Y140753D01*
X194364Y141558D01*
X194752Y142495D01*
X194884Y143500D01*
X194752Y144505D01*
X194364Y145442D01*
X193747Y146247D01*
X192942Y146864D01*
X192005Y147252D01*
X191000Y147384D01*
X189995Y147252D01*
X189633Y147102D01*
X187979Y148756D01*
Y150333D01*
X188479Y150580D01*
X189058Y150136D01*
X189995Y149748D01*
X191000Y149616D01*
X192005Y149748D01*
X192942Y150136D01*
X193747Y150753D01*
X194364Y151558D01*
X194752Y152495D01*
X194884Y153500D01*
X194752Y154505D01*
X194364Y155442D01*
X193747Y156247D01*
X192942Y156864D01*
X192005Y157252D01*
X191000Y157384D01*
X189995Y157252D01*
X189058Y156864D01*
X188479Y156420D01*
X187979Y156667D01*
Y162101D01*
X187859Y162706D01*
X187516Y163219D01*
X171448Y179287D01*
X170935Y179629D01*
X170331Y179750D01*
X32555D01*
Y180319D01*
X29193D01*
X25831D01*
Y179335D01*
X26031D01*
Y177004D01*
X25831D01*
Y176020D01*
X29193D01*
X32555D01*
Y176589D01*
X169676D01*
X184818Y161447D01*
Y155641D01*
X184528Y155514D01*
X184318Y155502D01*
X183747Y156247D01*
X182942Y156864D01*
X182005Y157252D01*
X181000Y157384D01*
X179995Y157252D01*
X179058Y156864D01*
X178253Y156247D01*
X177636Y155442D01*
X177248Y154505D01*
X177116Y153500D01*
X177248Y152495D01*
X177636Y151558D01*
X178253Y150753D01*
X179058Y150136D01*
X179995Y149748D01*
X181000Y149616D01*
X182005Y149748D01*
X182942Y150136D01*
X183747Y150753D01*
X184318Y151498D01*
X184528Y151486D01*
X184818Y151359D01*
Y148101D01*
X184939Y147496D01*
X185281Y146984D01*
X187398Y144867D01*
X187248Y144505D01*
X187116Y143500D01*
X187248Y142495D01*
X187636Y141558D01*
X188253Y140753D01*
X189058Y140136D01*
X189420Y139986D01*
Y135655D01*
X163596Y109831D01*
X163413Y109907D01*
X162500Y110027D01*
X161587Y109907D01*
X160737Y109555D01*
X160006Y108994D01*
X159446Y108264D01*
X159093Y107413D01*
X158973Y106500D01*
X159093Y105587D01*
X159446Y104736D01*
X160006Y104006D01*
X160561Y103580D01*
X160391Y103080D01*
X154609D01*
X154439Y103580D01*
X154994Y104006D01*
X155554Y104736D01*
X155907Y105587D01*
X156027Y106500D01*
X155907Y107413D01*
X155831Y107596D01*
X182117Y133882D01*
X182460Y134395D01*
X182580Y135000D01*
Y139986D01*
X182942Y140136D01*
X183747Y140753D01*
X184364Y141558D01*
X184752Y142495D01*
X184884Y143500D01*
X184752Y144505D01*
X184364Y145442D01*
X183747Y146247D01*
X182942Y146864D01*
X182005Y147252D01*
X181000Y147384D01*
X179995Y147252D01*
X179058Y146864D01*
X178253Y146247D01*
X177636Y145442D01*
X177248Y144505D01*
X177116Y143500D01*
X177248Y142495D01*
X177636Y141558D01*
X178253Y140753D01*
X179058Y140136D01*
X179420Y139986D01*
Y135655D01*
X153596Y109831D01*
X153413Y109907D01*
X152500Y110027D01*
X151587Y109907D01*
X150736Y109555D01*
X150006Y108994D01*
X149445Y108264D01*
X149093Y107413D01*
X148973Y106500D01*
X149093Y105587D01*
X149445Y104736D01*
X150006Y104006D01*
X150561Y103580D01*
X150391Y103080D01*
X144609D01*
X144439Y103580D01*
X144994Y104006D01*
X145554Y104736D01*
X145907Y105587D01*
X146027Y106500D01*
X145907Y107413D01*
X145831Y107596D01*
X172117Y133882D01*
X172460Y134395D01*
X172580Y135000D01*
Y139986D01*
X172942Y140136D01*
X173747Y140753D01*
X174364Y141558D01*
X174752Y142495D01*
X174884Y143500D01*
X174752Y144505D01*
X174364Y145442D01*
X173747Y146247D01*
X172942Y146864D01*
X172005Y147252D01*
X171000Y147384D01*
X169995Y147252D01*
X169633Y147102D01*
X167580Y149155D01*
Y150809D01*
X168080Y150979D01*
X168253Y150753D01*
X169058Y150136D01*
X169995Y149748D01*
X171000Y149616D01*
X172005Y149748D01*
X172942Y150136D01*
X173747Y150753D01*
X174364Y151558D01*
X174752Y152495D01*
X174884Y153500D01*
X174752Y154505D01*
X174364Y155442D01*
X173747Y156247D01*
X172942Y156864D01*
X172005Y157252D01*
X171000Y157384D01*
X169995Y157252D01*
X169058Y156864D01*
X168253Y156247D01*
X168080Y156021D01*
X167580Y156191D01*
Y159000D01*
X167460Y159605D01*
X167118Y160117D01*
X154247Y172988D01*
X153735Y173330D01*
X153130Y173451D01*
X32555D01*
Y174020D01*
X29193D01*
X25831D01*
Y173035D01*
X26031D01*
Y170705D01*
X25831D01*
Y169720D01*
X29193D01*
X32555D01*
Y170290D01*
X152475D01*
X164420Y158345D01*
Y156191D01*
X163920Y156021D01*
X163747Y156247D01*
X162942Y156864D01*
X162005Y157252D01*
X161000Y157384D01*
X159995Y157252D01*
X159058Y156864D01*
X158253Y156247D01*
X157636Y155442D01*
X157248Y154505D01*
X157116Y153500D01*
X157248Y152495D01*
X157636Y151558D01*
X158253Y150753D01*
X159058Y150136D01*
X159995Y149748D01*
X161000Y149616D01*
X162005Y149748D01*
X162942Y150136D01*
X163747Y150753D01*
X163920Y150979D01*
X164420Y150809D01*
Y148500D01*
X164540Y147895D01*
X164883Y147382D01*
X167398Y144867D01*
X167248Y144505D01*
X167116Y143500D01*
X167248Y142495D01*
X167636Y141558D01*
X168253Y140753D01*
X169058Y140136D01*
X169420Y139986D01*
Y135655D01*
X143596Y109831D01*
X143413Y109907D01*
X142500Y110027D01*
X141587Y109907D01*
X140736Y109555D01*
X140006Y108994D01*
X139445Y108264D01*
X139093Y107413D01*
X138973Y106500D01*
X139093Y105587D01*
X139445Y104736D01*
X140006Y104006D01*
X140561Y103580D01*
X140391Y103080D01*
X134609D01*
X134439Y103580D01*
X134994Y104006D01*
X135555Y104736D01*
X135907Y105587D01*
X136027Y106500D01*
X135907Y107413D01*
X135831Y107596D01*
X162118Y133882D01*
X162460Y134395D01*
X162580Y135000D01*
Y139986D01*
X162942Y140136D01*
X163747Y140753D01*
X164364Y141558D01*
X164752Y142495D01*
X164884Y143500D01*
X164752Y144505D01*
X164364Y145442D01*
X163747Y146247D01*
X162942Y146864D01*
X162005Y147252D01*
X161000Y147384D01*
X159995Y147252D01*
X159058Y146864D01*
X158253Y146247D01*
X157636Y145442D01*
X157248Y144505D01*
X157116Y143500D01*
X157248Y142495D01*
X157636Y141558D01*
X158253Y140753D01*
X159058Y140136D01*
X159420Y139986D01*
Y135655D01*
X133596Y109831D01*
X133413Y109907D01*
X132500Y110027D01*
X131587Y109907D01*
X130736Y109555D01*
X130006Y108994D01*
X129446Y108264D01*
X129093Y107413D01*
X128973Y106500D01*
X129093Y105587D01*
X129446Y104736D01*
X130006Y104006D01*
X130561Y103580D01*
X130391Y103080D01*
X124609D01*
X124439Y103580D01*
X124994Y104006D01*
X125555Y104736D01*
X125907Y105587D01*
X126027Y106500D01*
X125937Y107186D01*
X141975Y119756D01*
X142038Y119829D01*
X142118Y119883D01*
X142237Y120061D01*
X142377Y120224D01*
X142407Y120315D01*
X142460Y120395D01*
X142502Y120606D01*
X142569Y120810D01*
X142562Y120906D01*
X142580Y121000D01*
Y139986D01*
X142942Y140136D01*
X143747Y140753D01*
X144364Y141558D01*
X144752Y142495D01*
X144884Y143500D01*
X144752Y144505D01*
X144364Y145442D01*
X143747Y146247D01*
X142942Y146864D01*
X142005Y147252D01*
X141000Y147384D01*
X139995Y147252D01*
X139633Y147102D01*
X137979Y148756D01*
Y150333D01*
X138479Y150580D01*
X139058Y150136D01*
X139995Y149748D01*
X141000Y149616D01*
X142005Y149748D01*
X142942Y150136D01*
X143747Y150753D01*
X144364Y151558D01*
X144752Y152495D01*
X144884Y153500D01*
X144752Y154505D01*
X144364Y155442D01*
X143747Y156247D01*
X142942Y156864D01*
X142005Y157252D01*
X141000Y157384D01*
X139995Y157252D01*
X139058Y156864D01*
X138479Y156420D01*
X137979Y156667D01*
Y157601D01*
X137859Y158206D01*
X137516Y158719D01*
X129547Y166688D01*
X129034Y167031D01*
X128429Y167151D01*
X32555D01*
Y167720D01*
X29193D01*
X25831D01*
Y166736D01*
X26031D01*
Y164406D01*
X25831D01*
Y163421D01*
X29193D01*
X32555D01*
Y163990D01*
X127775D01*
X134818Y156947D01*
Y155641D01*
X134528Y155514D01*
X134318Y155502D01*
X133747Y156247D01*
X132942Y156864D01*
X132005Y157252D01*
X131000Y157384D01*
X129995Y157252D01*
X129058Y156864D01*
X128253Y156247D01*
X127636Y155442D01*
X127248Y154505D01*
X127116Y153500D01*
X127248Y152495D01*
X127636Y151558D01*
X128253Y150753D01*
X129058Y150136D01*
X129995Y149748D01*
X131000Y149616D01*
X132005Y149748D01*
X132942Y150136D01*
X133747Y150753D01*
X134318Y151498D01*
X134528Y151486D01*
X134818Y151359D01*
Y148101D01*
X134939Y147496D01*
X135281Y146984D01*
X137398Y144867D01*
X137248Y144505D01*
X137116Y143500D01*
X137248Y142495D01*
X137636Y141558D01*
X138253Y140753D01*
X139058Y140136D01*
X139420Y139986D01*
Y121769D01*
X123983Y109671D01*
X123413Y109907D01*
X122500Y110027D01*
X121587Y109907D01*
X120737Y109555D01*
X120006Y108994D01*
X119446Y108264D01*
X119093Y107413D01*
X118973Y106500D01*
X119093Y105587D01*
X119446Y104736D01*
X120006Y104006D01*
X120561Y103580D01*
X120391Y103080D01*
X114609D01*
X114439Y103580D01*
X114994Y104006D01*
X115554Y104736D01*
X115907Y105587D01*
X116027Y106500D01*
X115937Y107186D01*
X131400Y119306D01*
X131463Y119379D01*
X131543Y119432D01*
X132117Y120007D01*
X132460Y120519D01*
X132580Y121124D01*
Y139986D01*
X132942Y140136D01*
X133747Y140753D01*
X134364Y141558D01*
X134752Y142495D01*
X134884Y143500D01*
X134752Y144505D01*
X134364Y145442D01*
X133747Y146247D01*
X132942Y146864D01*
X132005Y147252D01*
X131000Y147384D01*
X129995Y147252D01*
X129058Y146864D01*
X128253Y146247D01*
X127636Y145442D01*
X127248Y144505D01*
X127116Y143500D01*
X127248Y142495D01*
X127636Y141558D01*
X128253Y140753D01*
X129058Y140136D01*
X129420Y139986D01*
Y121779D01*
X129375Y121734D01*
X113983Y109671D01*
X113413Y109907D01*
X112500Y110027D01*
X111587Y109907D01*
X110737Y109555D01*
X110006Y108994D01*
X109446Y108264D01*
X109093Y107413D01*
X108973Y106500D01*
X109093Y105587D01*
X109446Y104736D01*
X110006Y104006D01*
X110561Y103580D01*
X110391Y103080D01*
X104609D01*
X104439Y103580D01*
X104994Y104006D01*
X105554Y104736D01*
X105907Y105587D01*
X106027Y106500D01*
X105937Y107186D01*
X121975Y119756D01*
X122038Y119829D01*
X122117Y119883D01*
X122237Y120061D01*
X122377Y120224D01*
X122407Y120315D01*
X122460Y120395D01*
X122502Y120606D01*
X122569Y120810D01*
X122562Y120906D01*
X122580Y121000D01*
Y139986D01*
X122942Y140136D01*
X123747Y140753D01*
X124364Y141558D01*
X124752Y142495D01*
X124884Y143500D01*
X124752Y144505D01*
X124364Y145442D01*
X123747Y146247D01*
X122942Y146864D01*
X122005Y147252D01*
X121000Y147384D01*
X119995Y147252D01*
X119633Y147102D01*
X117580Y149155D01*
Y150809D01*
X118080Y150979D01*
X118253Y150753D01*
X119058Y150136D01*
X119995Y149748D01*
X121000Y149616D01*
X122005Y149748D01*
X122942Y150136D01*
X123747Y150753D01*
X124364Y151558D01*
X124752Y152495D01*
X124884Y153500D01*
X124752Y154505D01*
X124364Y155442D01*
X123747Y156247D01*
X122942Y156864D01*
X122005Y157252D01*
X121000Y157384D01*
X119995Y157252D01*
X119058Y156864D01*
X118253Y156247D01*
X118080Y156021D01*
X117580Y156191D01*
Y157000D01*
X117460Y157605D01*
X117118Y158117D01*
X114846Y160389D01*
X114333Y160732D01*
X113728Y160852D01*
X32555D01*
Y161421D01*
X29193D01*
X25831D01*
Y160437D01*
X26031D01*
Y158106D01*
X25831D01*
Y157122D01*
X29193D01*
X32555D01*
Y157691D01*
X99748D01*
X99848Y157191D01*
X99058Y156864D01*
X98253Y156247D01*
X97636Y155442D01*
X97248Y154505D01*
X97116Y153500D01*
X97248Y152495D01*
X97636Y151558D01*
X98253Y150753D01*
X99058Y150136D01*
X99995Y149748D01*
X101000Y149616D01*
X102005Y149748D01*
X102942Y150136D01*
X103747Y150753D01*
X104364Y151558D01*
X104752Y152495D01*
X104884Y153500D01*
X104752Y154505D01*
X104364Y155442D01*
X103747Y156247D01*
X102942Y156864D01*
X102152Y157191D01*
X102252Y157691D01*
X109748D01*
X109848Y157191D01*
X109058Y156864D01*
X108253Y156247D01*
X107636Y155442D01*
X107248Y154505D01*
X107116Y153500D01*
X107248Y152495D01*
X107636Y151558D01*
X108253Y150753D01*
X109058Y150136D01*
X109995Y149748D01*
X111000Y149616D01*
X112005Y149748D01*
X112942Y150136D01*
X113747Y150753D01*
X113920Y150979D01*
X114420Y150809D01*
Y148500D01*
X114540Y147895D01*
X114883Y147382D01*
X117398Y144867D01*
X117248Y144505D01*
X117116Y143500D01*
X117248Y142495D01*
X117636Y141558D01*
X118253Y140753D01*
X119058Y140136D01*
X119420Y139986D01*
Y121769D01*
X103983Y109671D01*
X103413Y109907D01*
X102500Y110027D01*
X101587Y109907D01*
X100736Y109555D01*
X100006Y108994D01*
X99445Y108264D01*
X99093Y107413D01*
X98973Y106500D01*
X99093Y105587D01*
X99445Y104736D01*
X100006Y104006D01*
X100561Y103580D01*
X100391Y103080D01*
X94609D01*
X94439Y103580D01*
X94994Y104006D01*
X95555Y104736D01*
X95907Y105587D01*
X96027Y106500D01*
X95937Y107186D01*
X111975Y119756D01*
X112038Y119829D01*
X112118Y119883D01*
X112237Y120061D01*
X112377Y120224D01*
X112407Y120315D01*
X112460Y120395D01*
X112502Y120606D01*
X112569Y120810D01*
X112562Y120906D01*
X112580Y121000D01*
Y139986D01*
X112942Y140136D01*
X113747Y140753D01*
X114364Y141558D01*
X114752Y142495D01*
X114884Y143500D01*
X114752Y144505D01*
X114364Y145442D01*
X113747Y146247D01*
X112942Y146864D01*
X112005Y147252D01*
X111000Y147384D01*
X109995Y147252D01*
X109058Y146864D01*
X108253Y146247D01*
X107636Y145442D01*
X107248Y144505D01*
X107116Y143500D01*
X107248Y142495D01*
X107636Y141558D01*
X108253Y140753D01*
X109058Y140136D01*
X109420Y139986D01*
Y121769D01*
X93983Y109671D01*
X93413Y109907D01*
X92500Y110027D01*
X91587Y109907D01*
X90737Y109555D01*
X90006Y108994D01*
X89446Y108264D01*
X89093Y107413D01*
X88973Y106500D01*
X89093Y105587D01*
X89446Y104736D01*
X90006Y104006D01*
X90561Y103580D01*
X90391Y103080D01*
X85997D01*
Y107233D01*
X101975Y119756D01*
X102038Y119829D01*
X102118Y119883D01*
X102237Y120061D01*
X102377Y120224D01*
X102407Y120315D01*
X102460Y120395D01*
X102502Y120606D01*
X102569Y120810D01*
X102562Y120906D01*
X102580Y121000D01*
Y139986D01*
X102942Y140136D01*
X103747Y140753D01*
X104364Y141558D01*
X104752Y142495D01*
X104884Y143500D01*
X104752Y144505D01*
X104364Y145442D01*
X103747Y146247D01*
X102942Y146864D01*
X102005Y147252D01*
X101000Y147384D01*
X99995Y147252D01*
X99058Y146864D01*
X98469Y146412D01*
X81191Y154407D01*
X81160Y154414D01*
X81132Y154432D01*
X80861Y154487D01*
X80592Y154551D01*
X80560Y154546D01*
X80528Y154553D01*
X32555D01*
Y155122D01*
X29193D01*
X25831D01*
Y154138D01*
X26031D01*
Y151807D01*
X25831D01*
Y150823D01*
X29193D01*
X32555D01*
Y151392D01*
X80180D01*
X97123Y143553D01*
X97116Y143500D01*
X97248Y142495D01*
X97636Y141558D01*
X98253Y140753D01*
X99058Y140136D01*
X99420Y139986D01*
Y121769D01*
X84400Y109997D01*
X79003D01*
Y104364D01*
X78541Y104172D01*
X34923Y147791D01*
X34410Y148133D01*
X33805Y148254D01*
X32555D01*
Y148823D01*
X29193D01*
X25831D01*
Y147839D01*
X26031D01*
Y145508D01*
X25831D01*
Y144524D01*
X29193D01*
X32555D01*
Y145093D01*
X33151D01*
X77861Y100382D01*
X78374Y100040D01*
X78978Y99920D01*
X80391D01*
X80561Y99420D01*
X80006Y98994D01*
X79445Y98264D01*
X79093Y97413D01*
X78973Y96500D01*
X79093Y95587D01*
X79445Y94736D01*
X80006Y94006D01*
X80737Y93445D01*
X81587Y93093D01*
X81684Y93080D01*
X81652Y92580D01*
X80155D01*
X48080Y124655D01*
Y127265D01*
X47960Y127870D01*
X47618Y128383D01*
X34743Y141257D01*
X34230Y141600D01*
X33625Y141720D01*
X32555D01*
Y142524D01*
X29193D01*
X25831D01*
Y141539D01*
X26031D01*
Y139209D01*
X25831D01*
Y138224D01*
X29193D01*
X32555D01*
Y138356D01*
X33055Y138475D01*
X44920Y126610D01*
Y124000D01*
X45040Y123395D01*
X45382Y122882D01*
X78382Y89882D01*
X78435Y89847D01*
X78532Y89181D01*
X78449Y89080D01*
X70655D01*
X32386Y127349D01*
Y133841D01*
X32355Y133993D01*
Y135240D01*
X32555D01*
Y136224D01*
X29193D01*
X25831D01*
Y135240D01*
X26031D01*
Y132291D01*
X29225D01*
Y126695D01*
X29345Y126090D01*
X29688Y125577D01*
X68685Y86580D01*
X68477Y86080D01*
X67155D01*
X36940Y116295D01*
X36428Y116637D01*
X35823Y116758D01*
X32555D01*
Y117327D01*
X29193D01*
X25831D01*
Y116342D01*
X26031D01*
Y114012D01*
X25831D01*
Y113028D01*
X29193D01*
X32555D01*
Y113597D01*
X35168D01*
X65382Y83382D01*
X65435Y83347D01*
X65532Y82681D01*
X65449Y82580D01*
X64655D01*
X37240Y109995D01*
X36727Y110338D01*
X36122Y110458D01*
X32555D01*
Y111028D01*
X29193D01*
X25831D01*
Y110043D01*
X26031D01*
Y107713D01*
X25831D01*
Y106728D01*
X29193D01*
X32555D01*
Y107298D01*
X35467D01*
X62685Y80080D01*
X62477Y79580D01*
X60155D01*
X36039Y103696D01*
X35526Y104039D01*
X34921Y104159D01*
X32555D01*
Y104728D01*
X29193D01*
X25831D01*
Y103744D01*
X26031D01*
Y101413D01*
X25831D01*
Y100429D01*
X29193D01*
X32555D01*
Y100998D01*
X34267D01*
X58382Y76882D01*
X58435Y76847D01*
X58523Y76244D01*
X58010Y76225D01*
X36838Y97397D01*
X36325Y97740D01*
X35721Y97860D01*
X32555D01*
Y98429D01*
X29193D01*
X25831D01*
Y97445D01*
X26031D01*
Y95114D01*
X25831D01*
Y94130D01*
X29193D01*
Y92130D01*
X25831D01*
Y91146D01*
X26031D01*
Y88815D01*
X25831D01*
Y87831D01*
X29193D01*
X32555D01*
Y88400D01*
X36365D01*
X54382Y70382D01*
X54895Y70040D01*
X55500Y69920D01*
X91845D01*
X93874Y67891D01*
X93591Y67467D01*
X92995Y67714D01*
X92000Y67845D01*
X91005Y67714D01*
X90078Y67330D01*
X89281Y66719D01*
X88670Y65922D01*
X88286Y64995D01*
X88155Y64000D01*
X88286Y63005D01*
X88670Y62078D01*
X89281Y61281D01*
X90078Y60670D01*
X91005Y60286D01*
X92000Y60155D01*
X92995Y60286D01*
X93922Y60670D01*
X94719Y61281D01*
X94920Y61543D01*
X95420Y61374D01*
Y60934D01*
X95540Y60329D01*
X95882Y59816D01*
X99151Y56548D01*
X98670Y55922D01*
X98286Y54995D01*
X98155Y54000D01*
X98286Y53005D01*
X98670Y52078D01*
X99281Y51281D01*
X100078Y50670D01*
X101005Y50286D01*
X102000Y50155D01*
X102995Y50286D01*
X103922Y50670D01*
X104719Y51281D01*
X105330Y52078D01*
X105714Y53005D01*
X105845Y54000D01*
X105714Y54995D01*
X105330Y55922D01*
X104719Y56719D01*
X103922Y57330D01*
X102995Y57714D01*
X102329Y57801D01*
X102252Y57917D01*
X100012Y60156D01*
X100295Y60580D01*
X101005Y60286D01*
X102000Y60155D01*
X102995Y60286D01*
X103922Y60670D01*
X104719Y61281D01*
X105330Y62078D01*
X105714Y63005D01*
X105845Y64000D01*
X105714Y64995D01*
X105330Y65922D01*
X104719Y66719D01*
X103922Y67330D01*
X102995Y67714D01*
X102000Y67845D01*
X101005Y67714D01*
X100078Y67330D01*
X99281Y66719D01*
X99080Y66457D01*
X98580Y66626D01*
Y67000D01*
X98460Y67605D01*
X98118Y68117D01*
X93815Y72420D01*
X94023Y72920D01*
X112467D01*
X115858Y69529D01*
Y65954D01*
X115358Y65854D01*
X115330Y65922D01*
X114719Y66719D01*
X113922Y67330D01*
X112995Y67714D01*
X112000Y67845D01*
X111005Y67714D01*
X110078Y67330D01*
X109281Y66719D01*
X108670Y65922D01*
X108286Y64995D01*
X108155Y64000D01*
X108286Y63005D01*
X108670Y62078D01*
X109281Y61281D01*
X110078Y60670D01*
X111005Y60286D01*
X112000Y60155D01*
X112995Y60286D01*
X113922Y60670D01*
X114719Y61281D01*
X115330Y62078D01*
X115358Y62146D01*
X115858Y62046D01*
Y58562D01*
X115978Y57957D01*
X116321Y57444D01*
X118428Y55337D01*
X118286Y54995D01*
X118155Y54000D01*
X118286Y53005D01*
X118670Y52078D01*
X119281Y51281D01*
X120078Y50670D01*
X121005Y50286D01*
X122000Y50155D01*
X122995Y50286D01*
X123922Y50670D01*
X124719Y51281D01*
X125330Y52078D01*
X125714Y53005D01*
X125845Y54000D01*
X125714Y54995D01*
X125330Y55922D01*
X124719Y56719D01*
X123922Y57330D01*
X122995Y57714D01*
X122000Y57845D01*
X121005Y57714D01*
X120663Y57572D01*
X119019Y59216D01*
Y60853D01*
X119519Y61099D01*
X120078Y60670D01*
X121005Y60286D01*
X122000Y60155D01*
X122995Y60286D01*
X123922Y60670D01*
X124719Y61281D01*
X125330Y62078D01*
X125714Y63005D01*
X125845Y64000D01*
X125714Y64995D01*
X125330Y65922D01*
X124719Y66719D01*
X123922Y67330D01*
X122995Y67714D01*
X122000Y67845D01*
X121005Y67714D01*
X120078Y67330D01*
X119519Y66901D01*
X119019Y67147D01*
Y70183D01*
X118898Y70788D01*
X118556Y71301D01*
X114239Y75617D01*
X114186Y75653D01*
X114089Y76319D01*
X114172Y76420D01*
X129845D01*
X135420Y70845D01*
Y66626D01*
X134920Y66457D01*
X134719Y66719D01*
X133922Y67330D01*
X132995Y67714D01*
X132000Y67845D01*
X131005Y67714D01*
X130078Y67330D01*
X129281Y66719D01*
X128670Y65922D01*
X128286Y64995D01*
X128155Y64000D01*
X128286Y63005D01*
X128670Y62078D01*
X129281Y61281D01*
X130078Y60670D01*
X131005Y60286D01*
X132000Y60155D01*
X132995Y60286D01*
X133922Y60670D01*
X134719Y61281D01*
X134920Y61543D01*
X135420Y61374D01*
Y59000D01*
X135540Y58395D01*
X135882Y57882D01*
X138428Y55337D01*
X138286Y54995D01*
X138155Y54000D01*
X138286Y53005D01*
X138670Y52078D01*
X139281Y51281D01*
X140078Y50670D01*
X141005Y50286D01*
X142000Y50155D01*
X142995Y50286D01*
X143922Y50670D01*
X144719Y51281D01*
X145330Y52078D01*
X145714Y53005D01*
X145845Y54000D01*
X145714Y54995D01*
X145330Y55922D01*
X144719Y56719D01*
X143922Y57330D01*
X142995Y57714D01*
X142000Y57845D01*
X141005Y57714D01*
X140663Y57572D01*
X138580Y59655D01*
Y61374D01*
X139080Y61543D01*
X139281Y61281D01*
X140078Y60670D01*
X141005Y60286D01*
X142000Y60155D01*
X142995Y60286D01*
X143922Y60670D01*
X144719Y61281D01*
X145330Y62078D01*
X145714Y63005D01*
X145845Y64000D01*
X145714Y64995D01*
X145330Y65922D01*
X144719Y66719D01*
X143922Y67330D01*
X142995Y67714D01*
X142000Y67845D01*
X141005Y67714D01*
X140078Y67330D01*
X139281Y66719D01*
X139080Y66457D01*
X138580Y66626D01*
Y71500D01*
X138460Y72105D01*
X138118Y72618D01*
X131815Y78920D01*
X132023Y79420D01*
X147845D01*
X155858Y71407D01*
Y65954D01*
X155358Y65854D01*
X155330Y65922D01*
X154719Y66719D01*
X153922Y67330D01*
X152995Y67714D01*
X152000Y67845D01*
X151005Y67714D01*
X150078Y67330D01*
X149281Y66719D01*
X148670Y65922D01*
X148286Y64995D01*
X148155Y64000D01*
X148286Y63005D01*
X148670Y62078D01*
X149281Y61281D01*
X150078Y60670D01*
X151005Y60286D01*
X152000Y60155D01*
X152995Y60286D01*
X153922Y60670D01*
X154719Y61281D01*
X155330Y62078D01*
X155358Y62146D01*
X155858Y62046D01*
Y58562D01*
X155978Y57957D01*
X156321Y57444D01*
X158428Y55337D01*
X158286Y54995D01*
X158155Y54000D01*
X158286Y53005D01*
X158670Y52078D01*
X159281Y51281D01*
X160078Y50670D01*
X161005Y50286D01*
X162000Y50155D01*
X162995Y50286D01*
X163922Y50670D01*
X164719Y51281D01*
X165330Y52078D01*
X165714Y53005D01*
X165845Y54000D01*
X165714Y54995D01*
X165330Y55922D01*
X164719Y56719D01*
X163922Y57330D01*
X162995Y57714D01*
X162000Y57845D01*
X161005Y57714D01*
X160663Y57572D01*
X159019Y59216D01*
Y60853D01*
X159519Y61099D01*
X160078Y60670D01*
X161005Y60286D01*
X162000Y60155D01*
X162995Y60286D01*
X163922Y60670D01*
X164719Y61281D01*
X165330Y62078D01*
X165714Y63005D01*
X165845Y64000D01*
X165714Y64995D01*
X165330Y65922D01*
X164719Y66719D01*
X163922Y67330D01*
X162995Y67714D01*
X162000Y67845D01*
X161005Y67714D01*
X160078Y67330D01*
X159519Y66901D01*
X159019Y67147D01*
Y72062D01*
X158898Y72667D01*
X158556Y73179D01*
X149618Y82117D01*
X149565Y82153D01*
X149468Y82819D01*
X149551Y82920D01*
X173345D01*
X184981Y71284D01*
Y67399D01*
X184481Y67153D01*
X184023Y67504D01*
X183047Y67909D01*
X183000Y67915D01*
Y64000D01*
Y60085D01*
X183047Y60091D01*
X184023Y60496D01*
X184388Y60776D01*
X184494Y60775D01*
X184792Y60663D01*
X184920Y60553D01*
Y59500D01*
X185040Y58895D01*
X185382Y58382D01*
X188428Y55337D01*
X188286Y54995D01*
X188155Y54000D01*
X188286Y53005D01*
X188670Y52078D01*
X189281Y51281D01*
X190078Y50670D01*
X191005Y50286D01*
X192000Y50155D01*
X192995Y50286D01*
X193922Y50670D01*
X194719Y51281D01*
X195330Y52078D01*
X195714Y53005D01*
X195845Y54000D01*
X195714Y54995D01*
X195330Y55922D01*
X194719Y56719D01*
X193922Y57330D01*
X192995Y57714D01*
X192000Y57845D01*
X191005Y57714D01*
X190663Y57572D01*
X188080Y60155D01*
Y60743D01*
X188049Y60902D01*
Y61640D01*
X188134Y62067D01*
X188180Y62093D01*
X188670Y62078D01*
X189281Y61281D01*
X190078Y60670D01*
X191005Y60286D01*
X192000Y60155D01*
X192995Y60286D01*
X193922Y60670D01*
X194719Y61281D01*
X195330Y62078D01*
X195714Y63005D01*
X195845Y64000D01*
X195714Y64995D01*
X195330Y65922D01*
X194719Y66719D01*
X193922Y67330D01*
X192995Y67714D01*
X192000Y67845D01*
X191005Y67714D01*
X190078Y67330D01*
X189281Y66719D01*
X188670Y65922D01*
X188642Y65854D01*
X188142Y65954D01*
Y71938D01*
X188022Y72543D01*
X187679Y73056D01*
X175315Y85420D01*
X175522Y85920D01*
X189845D01*
X205858Y69907D01*
Y65954D01*
X205358Y65854D01*
X205330Y65922D01*
X204719Y66719D01*
X203922Y67330D01*
X202995Y67714D01*
X202000Y67845D01*
X201005Y67714D01*
X200078Y67330D01*
X199281Y66719D01*
X198670Y65922D01*
X198286Y64995D01*
X198155Y64000D01*
X198286Y63005D01*
X198670Y62078D01*
X199281Y61281D01*
X200078Y60670D01*
X201005Y60286D01*
X202000Y60155D01*
X202995Y60286D01*
X203922Y60670D01*
X204719Y61281D01*
X205330Y62078D01*
X205358Y62146D01*
X205858Y62046D01*
Y58562D01*
X205978Y57957D01*
X206321Y57444D01*
X208428Y55337D01*
X208286Y54995D01*
X208155Y54000D01*
X208286Y53005D01*
X208670Y52078D01*
X209281Y51281D01*
X210078Y50670D01*
X211005Y50286D01*
X212000Y50155D01*
X212995Y50286D01*
X213922Y50670D01*
X214719Y51281D01*
X215330Y52078D01*
X215714Y53005D01*
X215845Y54000D01*
X215714Y54995D01*
X215330Y55922D01*
X214719Y56719D01*
X213922Y57330D01*
X212995Y57714D01*
X212000Y57845D01*
X211005Y57714D01*
X210663Y57572D01*
X209019Y59216D01*
Y60853D01*
X209519Y61099D01*
X210078Y60670D01*
X211005Y60286D01*
X212000Y60155D01*
X212995Y60286D01*
X213922Y60670D01*
X214719Y61281D01*
X215330Y62078D01*
X215714Y63005D01*
X215845Y64000D01*
X215714Y64995D01*
X215330Y65922D01*
X214719Y66719D01*
X213922Y67330D01*
X212995Y67714D01*
X212000Y67845D01*
X211005Y67714D01*
X210078Y67330D01*
X209519Y66901D01*
X209019Y67147D01*
Y70562D01*
X208898Y71167D01*
X208556Y71679D01*
X191618Y88617D01*
X191565Y88653D01*
X191468Y89319D01*
X191551Y89420D01*
X215845D01*
X225420Y79845D01*
Y66626D01*
X224920Y66457D01*
X224719Y66719D01*
X223922Y67330D01*
X222995Y67714D01*
X222000Y67845D01*
X221005Y67714D01*
X220078Y67330D01*
X219281Y66719D01*
X218670Y65922D01*
X218286Y64995D01*
X218155Y64000D01*
X218286Y63005D01*
X218670Y62078D01*
X219281Y61281D01*
X220078Y60670D01*
X221005Y60286D01*
X222000Y60155D01*
X222995Y60286D01*
X223922Y60670D01*
X224719Y61281D01*
X224920Y61543D01*
X225420Y61374D01*
Y59000D01*
X225540Y58395D01*
X225883Y57882D01*
X228428Y55337D01*
X228286Y54995D01*
X228155Y54000D01*
X228286Y53005D01*
X228670Y52078D01*
X229281Y51281D01*
X230078Y50670D01*
X231005Y50286D01*
X232000Y50155D01*
X232995Y50286D01*
X233922Y50670D01*
X234719Y51281D01*
X235330Y52078D01*
X235714Y53005D01*
X235845Y54000D01*
X235714Y54995D01*
X235330Y55922D01*
X234719Y56719D01*
X233922Y57330D01*
X232995Y57714D01*
X232000Y57845D01*
X231005Y57714D01*
X230663Y57572D01*
X228580Y59655D01*
Y61374D01*
X229080Y61543D01*
X229281Y61281D01*
X230078Y60670D01*
X231005Y60286D01*
X232000Y60155D01*
X232995Y60286D01*
X233922Y60670D01*
X234719Y61281D01*
X235330Y62078D01*
X235714Y63005D01*
X235845Y64000D01*
X235714Y64995D01*
X235330Y65922D01*
X234719Y66719D01*
X233922Y67330D01*
X232995Y67714D01*
X232000Y67845D01*
X231005Y67714D01*
X230078Y67330D01*
X229281Y66719D01*
X229080Y66457D01*
X228580Y66626D01*
Y80500D01*
X228460Y81105D01*
X228117Y81617D01*
X217618Y92118D01*
X217105Y92460D01*
X216500Y92580D01*
X213349D01*
X213316Y93080D01*
X213413Y93093D01*
X214264Y93445D01*
X214994Y94006D01*
X215554Y94736D01*
X215907Y95587D01*
X216027Y96500D01*
X215907Y97413D01*
X215554Y98264D01*
X214994Y98994D01*
X214439Y99420D01*
X214609Y99920D01*
X220391D01*
X220561Y99420D01*
X220006Y98994D01*
X219445Y98264D01*
X219093Y97413D01*
X218973Y96500D01*
X219093Y95587D01*
X219445Y94736D01*
X220006Y94006D01*
X220737Y93445D01*
X221587Y93093D01*
X222500Y92973D01*
X223413Y93093D01*
X224264Y93445D01*
X224994Y94006D01*
X225554Y94736D01*
X225907Y95587D01*
X226027Y96500D01*
X225907Y97413D01*
X225554Y98264D01*
X224994Y98994D01*
X224439Y99420D01*
X224609Y99920D01*
X226845D01*
X229169Y97596D01*
X229093Y97413D01*
X228973Y96500D01*
X229093Y95587D01*
X229446Y94736D01*
X230006Y94006D01*
X230736Y93445D01*
X231587Y93093D01*
X232500Y92973D01*
X233413Y93093D01*
X234263Y93445D01*
X234994Y94006D01*
X235555Y94736D01*
X235907Y95587D01*
X236027Y96500D01*
X235907Y97413D01*
X235555Y98264D01*
X234994Y98994D01*
X234263Y99555D01*
X233413Y99907D01*
X232500Y100027D01*
X231587Y99907D01*
X231404Y99831D01*
X228618Y102618D01*
X228105Y102960D01*
X227500Y103080D01*
X224609D01*
X224439Y103580D01*
X224994Y104006D01*
X225554Y104736D01*
X225907Y105587D01*
X226027Y106500D01*
X225907Y107413D01*
X225554Y108264D01*
X224994Y108994D01*
X224264Y109555D01*
X223413Y109907D01*
X222500Y110027D01*
X221587Y109907D01*
X220737Y109555D01*
X220006Y108994D01*
X219445Y108264D01*
X219093Y107413D01*
X218973Y106500D01*
X219093Y105587D01*
X219445Y104736D01*
X220006Y104006D01*
X220561Y103580D01*
X220391Y103080D01*
X214609D01*
X214439Y103580D01*
X214994Y104006D01*
X215554Y104736D01*
X215907Y105587D01*
X216027Y106500D01*
X215907Y107413D01*
X215554Y108264D01*
X214994Y108994D01*
X214264Y109555D01*
X213413Y109907D01*
X212500Y110027D01*
X211587Y109907D01*
X210736Y109555D01*
X210006Y108994D01*
X209446Y108264D01*
X209093Y107413D01*
X208973Y106500D01*
X209093Y105587D01*
X209446Y104736D01*
X210006Y104006D01*
X210561Y103580D01*
X210391Y103080D01*
X204609D01*
X204439Y103580D01*
X204994Y104006D01*
X205555Y104736D01*
X205907Y105587D01*
X206027Y106500D01*
X205907Y107413D01*
X205831Y107596D01*
X232118Y133882D01*
X232460Y134395D01*
X232580Y135000D01*
Y139986D01*
X232942Y140136D01*
X233747Y140753D01*
X234364Y141558D01*
X234752Y142495D01*
X234884Y143500D01*
X234752Y144505D01*
X234364Y145442D01*
X233747Y146247D01*
X232942Y146864D01*
X232005Y147252D01*
X231000Y147384D01*
X229995Y147252D01*
X229633Y147102D01*
X227979Y148756D01*
Y150333D01*
X228479Y150580D01*
X229058Y150136D01*
X229995Y149748D01*
X231000Y149616D01*
X232005Y149748D01*
X232942Y150136D01*
X233747Y150753D01*
X234364Y151558D01*
X234752Y152495D01*
X234884Y153500D01*
X234752Y154505D01*
X234364Y155442D01*
X233747Y156247D01*
X232942Y156864D01*
X232005Y157252D01*
X231000Y157384D01*
X229995Y157252D01*
X229058Y156864D01*
X228479Y156420D01*
X227979Y156667D01*
Y163101D01*
X227859Y163706D01*
X227516Y164219D01*
X199850Y191885D01*
X199337Y192228D01*
X198732Y192348D01*
X32555D01*
Y192917D01*
D02*
G37*
G36*
X19169Y155122D02*
X15807D01*
X12445D01*
Y154597D01*
X10426D01*
X10209Y154743D01*
X9513Y154881D01*
X8817Y154743D01*
X8226Y154348D01*
X7832Y153758D01*
X7694Y153062D01*
X7832Y152366D01*
X8226Y151775D01*
X8817Y151381D01*
X9513Y151243D01*
X10209Y151381D01*
X10292Y151437D01*
X12445D01*
Y150823D01*
X15807D01*
X19169D01*
Y151807D01*
X18969D01*
Y154138D01*
X19169D01*
Y155122D01*
D02*
G37*
G36*
X242000Y157455D02*
Y154500D01*
X244954D01*
X244947Y154558D01*
X244539Y155543D01*
X243889Y156389D01*
X243043Y157039D01*
X242058Y157447D01*
X242000Y157455D01*
D02*
G37*
G36*
X152000D02*
Y154500D01*
X154955D01*
X154947Y154558D01*
X154539Y155543D01*
X153889Y156389D01*
X153043Y157039D01*
X152058Y157447D01*
X152000Y157455D01*
D02*
G37*
G36*
X240000D02*
X239942Y157447D01*
X238957Y157039D01*
X238111Y156389D01*
X237461Y155543D01*
X237053Y154558D01*
X237046Y154500D01*
X240000D01*
Y157455D01*
D02*
G37*
G36*
X150000D02*
X149942Y157447D01*
X148957Y157039D01*
X148111Y156389D01*
X147461Y155543D01*
X147053Y154558D01*
X147046Y154500D01*
X150000D01*
Y157455D01*
D02*
G37*
G36*
X244954Y152500D02*
X242000D01*
Y149546D01*
X242058Y149553D01*
X243043Y149961D01*
X243889Y150611D01*
X244539Y151457D01*
X244947Y152442D01*
X244954Y152500D01*
D02*
G37*
G36*
X154955D02*
X152000D01*
Y149546D01*
X152058Y149553D01*
X153043Y149961D01*
X153889Y150611D01*
X154539Y151457D01*
X154947Y152442D01*
X154955Y152500D01*
D02*
G37*
G36*
X240000D02*
X237046D01*
X237053Y152442D01*
X237461Y151457D01*
X238111Y150611D01*
X238957Y149961D01*
X239942Y149553D01*
X240000Y149546D01*
Y152500D01*
D02*
G37*
G36*
X150000D02*
X147046D01*
X147053Y152442D01*
X147461Y151457D01*
X148111Y150611D01*
X148957Y149961D01*
X149942Y149553D01*
X150000Y149546D01*
Y152500D01*
D02*
G37*
G36*
X19169Y148823D02*
X15807D01*
X12445D01*
Y148323D01*
X10463D01*
X10209Y148493D01*
X9513Y148631D01*
X8817Y148493D01*
X8226Y148098D01*
X7832Y147508D01*
X7694Y146812D01*
X7832Y146116D01*
X8226Y145525D01*
X8817Y145131D01*
X9513Y144993D01*
X10209Y145131D01*
X10255Y145162D01*
X12445D01*
Y144524D01*
X15807D01*
X19169D01*
Y145508D01*
X18969D01*
Y147839D01*
X19169D01*
Y148823D01*
D02*
G37*
G36*
Y142524D02*
X15807D01*
X12445D01*
Y142017D01*
X10441D01*
X10196Y142181D01*
X9500Y142319D01*
X8804Y142181D01*
X8214Y141786D01*
X7819Y141196D01*
X7681Y140500D01*
X7819Y139804D01*
X8214Y139214D01*
X8804Y138819D01*
X9500Y138681D01*
X10196Y138819D01*
X10252Y138857D01*
X12445D01*
Y138224D01*
X15807D01*
X19169D01*
Y139209D01*
X18969D01*
Y141539D01*
X19169D01*
Y142524D01*
D02*
G37*
G36*
X241000Y147384D02*
X239995Y147252D01*
X239058Y146864D01*
X238253Y146247D01*
X237636Y145442D01*
X237248Y144505D01*
X237116Y143500D01*
X237248Y142495D01*
X237636Y141558D01*
X238253Y140753D01*
X239058Y140136D01*
X239995Y139748D01*
X241000Y139616D01*
X242005Y139748D01*
X242942Y140136D01*
X243747Y140753D01*
X244364Y141558D01*
X244752Y142495D01*
X244884Y143500D01*
X244752Y144505D01*
X244364Y145442D01*
X243747Y146247D01*
X242942Y146864D01*
X242005Y147252D01*
X241000Y147384D01*
D02*
G37*
G36*
X151000D02*
X149995Y147252D01*
X149058Y146864D01*
X148253Y146247D01*
X147636Y145442D01*
X147248Y144505D01*
X147116Y143500D01*
X147248Y142495D01*
X147636Y141558D01*
X148253Y140753D01*
X149058Y140136D01*
X149995Y139748D01*
X151000Y139616D01*
X152005Y139748D01*
X152942Y140136D01*
X153747Y140753D01*
X154364Y141558D01*
X154752Y142495D01*
X154884Y143500D01*
X154752Y144505D01*
X154364Y145442D01*
X153747Y146247D01*
X152942Y146864D01*
X152005Y147252D01*
X151000Y147384D01*
D02*
G37*
G36*
X19169Y136224D02*
X15807D01*
X12445D01*
Y135618D01*
X10290D01*
X10196Y135681D01*
X9500Y135819D01*
X8804Y135681D01*
X8214Y135286D01*
X7819Y134696D01*
X7681Y134000D01*
X7819Y133304D01*
X8214Y132714D01*
X8804Y132319D01*
X9500Y132181D01*
X10196Y132319D01*
X10402Y132457D01*
X12645D01*
Y132291D01*
X18969D01*
Y135240D01*
X19169D01*
Y136224D01*
D02*
G37*
G36*
X32555Y120311D02*
X30193D01*
Y119327D01*
X32555D01*
Y120311D01*
D02*
G37*
G36*
X19169D02*
X16807D01*
Y119327D01*
X19169D01*
Y120311D01*
D02*
G37*
G36*
X28193D02*
X25831D01*
Y119327D01*
X28193D01*
Y120311D01*
D02*
G37*
G36*
X14807D02*
X12445D01*
Y119327D01*
X14807D01*
Y120311D01*
D02*
G37*
G36*
X19169Y117327D02*
X15807D01*
X12445D01*
Y116755D01*
X9909D01*
X9763Y116852D01*
X9066Y116991D01*
X8370Y116852D01*
X7780Y116458D01*
X7386Y115868D01*
X7247Y115172D01*
X7386Y114476D01*
X7780Y113885D01*
X8370Y113491D01*
X9066Y113353D01*
X9763Y113491D01*
X9917Y113594D01*
X12445D01*
Y113028D01*
X15807D01*
X19169D01*
Y114012D01*
X18969D01*
Y116342D01*
X19169D01*
Y117327D01*
D02*
G37*
G36*
Y111028D02*
X15807D01*
X12445D01*
Y110480D01*
X9946D01*
X9763Y110602D01*
X9066Y110741D01*
X8370Y110602D01*
X7780Y110208D01*
X7386Y109618D01*
X7247Y108922D01*
X7386Y108226D01*
X7780Y107635D01*
X8370Y107241D01*
X9066Y107103D01*
X9763Y107241D01*
X9880Y107319D01*
X12445D01*
Y106728D01*
X15807D01*
X19169D01*
Y107713D01*
X18969D01*
Y110043D01*
X19169D01*
Y111028D01*
D02*
G37*
G36*
X261500Y110087D02*
X260636Y109729D01*
X259863Y109137D01*
X259271Y108364D01*
X258913Y107500D01*
X261500D01*
Y110087D01*
D02*
G37*
G36*
X253500D02*
Y107500D01*
X256087D01*
X255729Y108364D01*
X255137Y109137D01*
X254364Y109729D01*
X253500Y110087D01*
D02*
G37*
G36*
X251500D02*
X250636Y109729D01*
X249863Y109137D01*
X249271Y108364D01*
X248913Y107500D01*
X251500D01*
Y110087D01*
D02*
G37*
G36*
X243500D02*
Y107500D01*
X246087D01*
X245729Y108364D01*
X245137Y109137D01*
X244364Y109729D01*
X243500Y110087D01*
D02*
G37*
G36*
X241500D02*
X240636Y109729D01*
X239863Y109137D01*
X239271Y108364D01*
X238913Y107500D01*
X241500D01*
Y110087D01*
D02*
G37*
G36*
X233500D02*
Y107500D01*
X236087D01*
X235729Y108364D01*
X235137Y109137D01*
X234364Y109729D01*
X233500Y110087D01*
D02*
G37*
G36*
X231500D02*
X230636Y109729D01*
X229863Y109137D01*
X229271Y108364D01*
X228913Y107500D01*
X231500D01*
Y110087D01*
D02*
G37*
G36*
X19169Y104728D02*
X15807D01*
X12445D01*
Y104206D01*
X9983D01*
X9763Y104352D01*
X9066Y104491D01*
X8370Y104352D01*
X7780Y103958D01*
X7386Y103368D01*
X7247Y102672D01*
X7386Y101976D01*
X7780Y101385D01*
X8370Y100991D01*
X9066Y100853D01*
X9763Y100991D01*
X9843Y101045D01*
X12445D01*
Y100429D01*
X15807D01*
X19169D01*
Y101413D01*
X18969D01*
Y103744D01*
X19169D01*
Y104728D01*
D02*
G37*
G36*
X261500Y105500D02*
X258913D01*
X259271Y104636D01*
X259863Y103863D01*
X260636Y103271D01*
X261500Y102913D01*
Y105500D01*
D02*
G37*
G36*
X256087D02*
X253500D01*
Y102913D01*
X254364Y103271D01*
X255137Y103863D01*
X255729Y104636D01*
X256087Y105500D01*
D02*
G37*
G36*
X251500D02*
X248913D01*
X249271Y104636D01*
X249863Y103863D01*
X250636Y103271D01*
X251500Y102913D01*
Y105500D01*
D02*
G37*
G36*
X246087D02*
X243500D01*
Y102913D01*
X244364Y103271D01*
X245137Y103863D01*
X245729Y104636D01*
X246087Y105500D01*
D02*
G37*
G36*
X241500D02*
X238913D01*
X239271Y104636D01*
X239863Y103863D01*
X240636Y103271D01*
X241500Y102913D01*
Y105500D01*
D02*
G37*
G36*
X236087D02*
X233500D01*
Y102913D01*
X234364Y103271D01*
X235137Y103863D01*
X235729Y104636D01*
X236087Y105500D01*
D02*
G37*
G36*
X231500D02*
X228913D01*
X229271Y104636D01*
X229863Y103863D01*
X230636Y103271D01*
X231500Y102913D01*
Y105500D01*
D02*
G37*
G36*
X19169Y98429D02*
X15807D01*
X12445D01*
Y97931D01*
X10019D01*
X9763Y98102D01*
X9066Y98241D01*
X8370Y98102D01*
X7780Y97708D01*
X7386Y97118D01*
X7247Y96422D01*
X7386Y95726D01*
X7780Y95135D01*
X8370Y94741D01*
X9066Y94603D01*
X9763Y94741D01*
X9807Y94770D01*
X12445D01*
Y94130D01*
X15807D01*
X19169D01*
Y95114D01*
X18969D01*
Y97445D01*
X19169D01*
Y98429D01*
D02*
G37*
G36*
X272500Y100027D02*
X271587Y99907D01*
X270737Y99555D01*
X270006Y98994D01*
X269445Y98264D01*
X269093Y97413D01*
X268973Y96500D01*
X269093Y95587D01*
X269445Y94736D01*
X270006Y94006D01*
X270737Y93445D01*
X271587Y93093D01*
X272500Y92973D01*
X273413Y93093D01*
X274264Y93445D01*
X274994Y94006D01*
X275554Y94736D01*
X275907Y95587D01*
X276027Y96500D01*
X275907Y97413D01*
X275554Y98264D01*
X274994Y98994D01*
X274264Y99555D01*
X273413Y99907D01*
X272500Y100027D01*
D02*
G37*
G36*
X252500D02*
X251587Y99907D01*
X250736Y99555D01*
X250006Y98994D01*
X249446Y98264D01*
X249093Y97413D01*
X248973Y96500D01*
X249093Y95587D01*
X249446Y94736D01*
X250006Y94006D01*
X250736Y93445D01*
X251587Y93093D01*
X252500Y92973D01*
X253413Y93093D01*
X254263Y93445D01*
X254994Y94006D01*
X255555Y94736D01*
X255907Y95587D01*
X256027Y96500D01*
X255907Y97413D01*
X255555Y98264D01*
X254994Y98994D01*
X254263Y99555D01*
X253413Y99907D01*
X252500Y100027D01*
D02*
G37*
G36*
X242500D02*
X241587Y99907D01*
X240737Y99555D01*
X240006Y98994D01*
X239445Y98264D01*
X239093Y97413D01*
X238973Y96500D01*
X239093Y95587D01*
X239445Y94736D01*
X240006Y94006D01*
X240737Y93445D01*
X241587Y93093D01*
X242500Y92973D01*
X243413Y93093D01*
X244264Y93445D01*
X244994Y94006D01*
X245554Y94736D01*
X245907Y95587D01*
X246027Y96500D01*
X245907Y97413D01*
X245554Y98264D01*
X244994Y98994D01*
X244264Y99555D01*
X243413Y99907D01*
X242500Y100027D01*
D02*
G37*
G36*
X19169Y92130D02*
X15807D01*
X12445D01*
Y91564D01*
X10038D01*
X9883Y91667D01*
X9187Y91806D01*
X8491Y91667D01*
X7901Y91273D01*
X7507Y90683D01*
X7368Y89986D01*
X7507Y89290D01*
X7901Y88700D01*
X8491Y88306D01*
X9187Y88167D01*
X9883Y88306D01*
X10029Y88403D01*
X12445D01*
Y87831D01*
X15807D01*
X19169D01*
Y88815D01*
X18969D01*
Y91146D01*
X19169D01*
Y92130D01*
D02*
G37*
G36*
X32555Y85831D02*
X29193D01*
X25831D01*
Y84847D01*
X26031D01*
Y81897D01*
Y79366D01*
X25831D01*
Y78382D01*
X29193D01*
X32555D01*
Y79366D01*
X32355D01*
Y81897D01*
Y84847D01*
X32555D01*
Y85831D01*
D02*
G37*
G36*
X19169D02*
X15807D01*
X12445D01*
Y84847D01*
X12645D01*
Y81897D01*
Y79366D01*
X12445D01*
Y78382D01*
X15807D01*
X19169D01*
Y79366D01*
X18969D01*
Y81897D01*
Y84847D01*
X19169D01*
Y85831D01*
D02*
G37*
G36*
X32555Y76382D02*
X29193D01*
X25831D01*
Y75398D01*
X26031D01*
Y72448D01*
Y69917D01*
X25831D01*
Y68933D01*
X29193D01*
X32555D01*
Y69917D01*
X32355D01*
Y72448D01*
Y75398D01*
X32555D01*
Y76382D01*
D02*
G37*
G36*
X19169D02*
X15807D01*
X12445D01*
Y75398D01*
X12645D01*
Y72448D01*
Y69917D01*
X12445D01*
Y68933D01*
X15807D01*
X19169D01*
Y69917D01*
X18969D01*
Y72448D01*
Y75398D01*
X19169D01*
Y76382D01*
D02*
G37*
G36*
X273000Y67915D02*
Y65000D01*
X275915D01*
X275909Y65047D01*
X275504Y66023D01*
X274861Y66861D01*
X274023Y67504D01*
X273047Y67909D01*
X273000Y67915D01*
D02*
G37*
G36*
X83000D02*
Y65000D01*
X85915D01*
X85909Y65047D01*
X85504Y66023D01*
X84861Y66861D01*
X84023Y67504D01*
X83047Y67909D01*
X83000Y67915D01*
D02*
G37*
G36*
X271000D02*
X270953Y67909D01*
X269977Y67504D01*
X269139Y66861D01*
X268496Y66023D01*
X268091Y65047D01*
X268085Y65000D01*
X271000D01*
Y67915D01*
D02*
G37*
G36*
X181000D02*
X180953Y67909D01*
X179977Y67504D01*
X179139Y66861D01*
X178496Y66023D01*
X178092Y65047D01*
X178085Y65000D01*
X181000D01*
Y67915D01*
D02*
G37*
G36*
X81000D02*
X80953Y67909D01*
X79977Y67504D01*
X79139Y66861D01*
X78496Y66023D01*
X78091Y65047D01*
X78085Y65000D01*
X81000D01*
Y67915D01*
D02*
G37*
G36*
X262000Y67845D02*
X261005Y67714D01*
X260078Y67330D01*
X259281Y66719D01*
X258670Y65922D01*
X258286Y64995D01*
X258155Y64000D01*
X258286Y63005D01*
X258670Y62078D01*
X259281Y61281D01*
X260078Y60670D01*
X261005Y60286D01*
X262000Y60155D01*
X262995Y60286D01*
X263922Y60670D01*
X264719Y61281D01*
X265330Y62078D01*
X265714Y63005D01*
X265845Y64000D01*
X265714Y64995D01*
X265330Y65922D01*
X264719Y66719D01*
X263922Y67330D01*
X262995Y67714D01*
X262000Y67845D01*
D02*
G37*
G36*
X252000D02*
X251005Y67714D01*
X250078Y67330D01*
X249281Y66719D01*
X248670Y65922D01*
X248286Y64995D01*
X248155Y64000D01*
X248286Y63005D01*
X248670Y62078D01*
X249281Y61281D01*
X250078Y60670D01*
X251005Y60286D01*
X252000Y60155D01*
X252995Y60286D01*
X253922Y60670D01*
X254719Y61281D01*
X255330Y62078D01*
X255714Y63005D01*
X255845Y64000D01*
X255714Y64995D01*
X255330Y65922D01*
X254719Y66719D01*
X253922Y67330D01*
X252995Y67714D01*
X252000Y67845D01*
D02*
G37*
G36*
X242000D02*
X241005Y67714D01*
X240078Y67330D01*
X239281Y66719D01*
X238670Y65922D01*
X238286Y64995D01*
X238155Y64000D01*
X238286Y63005D01*
X238670Y62078D01*
X239281Y61281D01*
X240078Y60670D01*
X241005Y60286D01*
X242000Y60155D01*
X242995Y60286D01*
X243922Y60670D01*
X244719Y61281D01*
X245330Y62078D01*
X245714Y63005D01*
X245845Y64000D01*
X245714Y64995D01*
X245330Y65922D01*
X244719Y66719D01*
X243922Y67330D01*
X242995Y67714D01*
X242000Y67845D01*
D02*
G37*
G36*
X172000D02*
X171005Y67714D01*
X170078Y67330D01*
X169281Y66719D01*
X168670Y65922D01*
X168286Y64995D01*
X168155Y64000D01*
X168286Y63005D01*
X168670Y62078D01*
X169281Y61281D01*
X170078Y60670D01*
X171005Y60286D01*
X172000Y60155D01*
X172995Y60286D01*
X173922Y60670D01*
X174719Y61281D01*
X175330Y62078D01*
X175714Y63005D01*
X175845Y64000D01*
X175714Y64995D01*
X175330Y65922D01*
X174719Y66719D01*
X173922Y67330D01*
X172995Y67714D01*
X172000Y67845D01*
D02*
G37*
G36*
X275915Y63000D02*
X273000D01*
Y60085D01*
X273047Y60091D01*
X274023Y60496D01*
X274861Y61139D01*
X275504Y61977D01*
X275909Y62953D01*
X275915Y63000D01*
D02*
G37*
G36*
X85915D02*
X83000D01*
Y60085D01*
X83047Y60091D01*
X84023Y60496D01*
X84861Y61139D01*
X85504Y61977D01*
X85909Y62953D01*
X85915Y63000D01*
D02*
G37*
G36*
X271000D02*
X268085D01*
X268091Y62953D01*
X268496Y61977D01*
X269139Y61139D01*
X269977Y60496D01*
X270953Y60091D01*
X271000Y60085D01*
Y63000D01*
D02*
G37*
G36*
X181000D02*
X178085D01*
X178092Y62953D01*
X178496Y61977D01*
X179139Y61139D01*
X179977Y60496D01*
X180953Y60091D01*
X181000Y60085D01*
Y63000D01*
D02*
G37*
G36*
X81000D02*
X78085D01*
X78091Y62953D01*
X78496Y61977D01*
X79139Y61139D01*
X79977Y60496D01*
X80953Y60091D01*
X81000Y60085D01*
Y63000D01*
D02*
G37*
G36*
X32555Y66933D02*
X29193D01*
X25831D01*
Y65949D01*
X26031D01*
Y62999D01*
Y59850D01*
Y56700D01*
Y54169D01*
X25831D01*
Y53185D01*
X29193D01*
X32555D01*
Y54169D01*
X32355D01*
Y56700D01*
Y59850D01*
Y62999D01*
Y65949D01*
X32555D01*
Y66933D01*
D02*
G37*
G36*
X19169D02*
X15807D01*
X12445D01*
Y65949D01*
X12645D01*
Y62999D01*
Y59850D01*
Y56700D01*
Y54169D01*
X12445D01*
Y53185D01*
X15807D01*
X19169D01*
Y54169D01*
X18969D01*
Y56700D01*
Y59850D01*
Y62999D01*
Y65949D01*
X19169D01*
Y66933D01*
D02*
G37*
G36*
X275812Y57812D02*
X268188D01*
Y50188D01*
X275812D01*
Y57812D01*
D02*
G37*
G36*
X262000Y57845D02*
X261005Y57714D01*
X260078Y57330D01*
X259281Y56719D01*
X258670Y55922D01*
X258286Y54995D01*
X258155Y54000D01*
X258286Y53005D01*
X258670Y52078D01*
X259281Y51281D01*
X260078Y50670D01*
X261005Y50286D01*
X262000Y50155D01*
X262995Y50286D01*
X263922Y50670D01*
X264719Y51281D01*
X265330Y52078D01*
X265714Y53005D01*
X265845Y54000D01*
X265714Y54995D01*
X265330Y55922D01*
X264719Y56719D01*
X263922Y57330D01*
X262995Y57714D01*
X262000Y57845D01*
D02*
G37*
G36*
X252000D02*
X251005Y57714D01*
X250078Y57330D01*
X249281Y56719D01*
X248670Y55922D01*
X248286Y54995D01*
X248155Y54000D01*
X248286Y53005D01*
X248670Y52078D01*
X249281Y51281D01*
X250078Y50670D01*
X251005Y50286D01*
X252000Y50155D01*
X252995Y50286D01*
X253922Y50670D01*
X254719Y51281D01*
X255330Y52078D01*
X255714Y53005D01*
X255845Y54000D01*
X255714Y54995D01*
X255330Y55922D01*
X254719Y56719D01*
X253922Y57330D01*
X252995Y57714D01*
X252000Y57845D01*
D02*
G37*
G36*
X242000D02*
X241005Y57714D01*
X240078Y57330D01*
X239281Y56719D01*
X238670Y55922D01*
X238286Y54995D01*
X238155Y54000D01*
X238286Y53005D01*
X238670Y52078D01*
X239281Y51281D01*
X240078Y50670D01*
X241005Y50286D01*
X242000Y50155D01*
X242995Y50286D01*
X243922Y50670D01*
X244719Y51281D01*
X245330Y52078D01*
X245714Y53005D01*
X245845Y54000D01*
X245714Y54995D01*
X245330Y55922D01*
X244719Y56719D01*
X243922Y57330D01*
X242995Y57714D01*
X242000Y57845D01*
D02*
G37*
G36*
X222000D02*
X221005Y57714D01*
X220078Y57330D01*
X219281Y56719D01*
X218670Y55922D01*
X218286Y54995D01*
X218155Y54000D01*
X218286Y53005D01*
X218670Y52078D01*
X219281Y51281D01*
X220078Y50670D01*
X221005Y50286D01*
X222000Y50155D01*
X222995Y50286D01*
X223922Y50670D01*
X224719Y51281D01*
X225330Y52078D01*
X225714Y53005D01*
X225845Y54000D01*
X225714Y54995D01*
X225330Y55922D01*
X224719Y56719D01*
X223922Y57330D01*
X222995Y57714D01*
X222000Y57845D01*
D02*
G37*
G36*
X202000D02*
X201005Y57714D01*
X200078Y57330D01*
X199281Y56719D01*
X198670Y55922D01*
X198286Y54995D01*
X198155Y54000D01*
X198286Y53005D01*
X198670Y52078D01*
X199281Y51281D01*
X200078Y50670D01*
X201005Y50286D01*
X202000Y50155D01*
X202995Y50286D01*
X203922Y50670D01*
X204719Y51281D01*
X205330Y52078D01*
X205714Y53005D01*
X205845Y54000D01*
X205714Y54995D01*
X205330Y55922D01*
X204719Y56719D01*
X203922Y57330D01*
X202995Y57714D01*
X202000Y57845D01*
D02*
G37*
G36*
X182000D02*
X181005Y57714D01*
X180078Y57330D01*
X179281Y56719D01*
X178670Y55922D01*
X178286Y54995D01*
X178155Y54000D01*
X178286Y53005D01*
X178670Y52078D01*
X179281Y51281D01*
X180078Y50670D01*
X181005Y50286D01*
X182000Y50155D01*
X182995Y50286D01*
X183922Y50670D01*
X184719Y51281D01*
X185330Y52078D01*
X185714Y53005D01*
X185845Y54000D01*
X185714Y54995D01*
X185330Y55922D01*
X184719Y56719D01*
X183922Y57330D01*
X182995Y57714D01*
X182000Y57845D01*
D02*
G37*
G36*
X172000D02*
X171005Y57714D01*
X170078Y57330D01*
X169281Y56719D01*
X168670Y55922D01*
X168286Y54995D01*
X168155Y54000D01*
X168286Y53005D01*
X168670Y52078D01*
X169281Y51281D01*
X170078Y50670D01*
X171005Y50286D01*
X172000Y50155D01*
X172995Y50286D01*
X173922Y50670D01*
X174719Y51281D01*
X175330Y52078D01*
X175714Y53005D01*
X175845Y54000D01*
X175714Y54995D01*
X175330Y55922D01*
X174719Y56719D01*
X173922Y57330D01*
X172995Y57714D01*
X172000Y57845D01*
D02*
G37*
G36*
X152000D02*
X151005Y57714D01*
X150078Y57330D01*
X149281Y56719D01*
X148670Y55922D01*
X148286Y54995D01*
X148155Y54000D01*
X148286Y53005D01*
X148670Y52078D01*
X149281Y51281D01*
X150078Y50670D01*
X151005Y50286D01*
X152000Y50155D01*
X152995Y50286D01*
X153922Y50670D01*
X154719Y51281D01*
X155330Y52078D01*
X155714Y53005D01*
X155845Y54000D01*
X155714Y54995D01*
X155330Y55922D01*
X154719Y56719D01*
X153922Y57330D01*
X152995Y57714D01*
X152000Y57845D01*
D02*
G37*
G36*
X132000D02*
X131005Y57714D01*
X130078Y57330D01*
X129281Y56719D01*
X128670Y55922D01*
X128286Y54995D01*
X128155Y54000D01*
X128286Y53005D01*
X128670Y52078D01*
X129281Y51281D01*
X130078Y50670D01*
X131005Y50286D01*
X132000Y50155D01*
X132995Y50286D01*
X133922Y50670D01*
X134719Y51281D01*
X135330Y52078D01*
X135714Y53005D01*
X135845Y54000D01*
X135714Y54995D01*
X135330Y55922D01*
X134719Y56719D01*
X133922Y57330D01*
X132995Y57714D01*
X132000Y57845D01*
D02*
G37*
G36*
X112000D02*
X111005Y57714D01*
X110078Y57330D01*
X109281Y56719D01*
X108670Y55922D01*
X108286Y54995D01*
X108155Y54000D01*
X108286Y53005D01*
X108670Y52078D01*
X109281Y51281D01*
X110078Y50670D01*
X111005Y50286D01*
X112000Y50155D01*
X112995Y50286D01*
X113922Y50670D01*
X114719Y51281D01*
X115330Y52078D01*
X115714Y53005D01*
X115845Y54000D01*
X115714Y54995D01*
X115330Y55922D01*
X114719Y56719D01*
X113922Y57330D01*
X112995Y57714D01*
X112000Y57845D01*
D02*
G37*
G36*
X92000D02*
X91005Y57714D01*
X90078Y57330D01*
X89281Y56719D01*
X88670Y55922D01*
X88286Y54995D01*
X88155Y54000D01*
X88286Y53005D01*
X88670Y52078D01*
X89281Y51281D01*
X90078Y50670D01*
X91005Y50286D01*
X92000Y50155D01*
X92995Y50286D01*
X93922Y50670D01*
X94719Y51281D01*
X95330Y52078D01*
X95714Y53005D01*
X95845Y54000D01*
X95714Y54995D01*
X95330Y55922D01*
X94719Y56719D01*
X93922Y57330D01*
X92995Y57714D01*
X92000Y57845D01*
D02*
G37*
G36*
X82000D02*
X81005Y57714D01*
X80078Y57330D01*
X79281Y56719D01*
X78670Y55922D01*
X78286Y54995D01*
X78155Y54000D01*
X78286Y53005D01*
X78670Y52078D01*
X79281Y51281D01*
X80078Y50670D01*
X81005Y50286D01*
X82000Y50155D01*
X82995Y50286D01*
X83922Y50670D01*
X84719Y51281D01*
X85330Y52078D01*
X85714Y53005D01*
X85845Y54000D01*
X85714Y54995D01*
X85330Y55922D01*
X84719Y56719D01*
X83922Y57330D01*
X82995Y57714D01*
X82000Y57845D01*
D02*
G37*
G36*
X32555Y51185D02*
X29193D01*
X25831D01*
Y50201D01*
X26031D01*
Y47251D01*
X32355D01*
Y50201D01*
X32555D01*
Y51185D01*
D02*
G37*
G36*
X19169D02*
X15807D01*
X12445D01*
Y50201D01*
X12645D01*
Y47251D01*
X18969D01*
Y50201D01*
X19169D01*
Y51185D01*
D02*
G37*
G36*
X22500Y46458D02*
X21639Y46345D01*
X20836Y46012D01*
X20146Y45483D01*
X19617Y44794D01*
X19285Y43991D01*
X19172Y43130D01*
X19285Y42268D01*
X19617Y41466D01*
X20146Y40776D01*
X20836Y40247D01*
X21639Y39915D01*
X22500Y39801D01*
X23361Y39915D01*
X24164Y40247D01*
X24854Y40776D01*
X25383Y41466D01*
X25715Y42268D01*
X25828Y43130D01*
X25715Y43991D01*
X25383Y44794D01*
X24854Y45483D01*
X24164Y46012D01*
X23361Y46345D01*
X22500Y46458D01*
D02*
G37*
G36*
X276385Y28572D02*
X274796D01*
X274717Y28556D01*
X274637D01*
X273077Y28246D01*
X273003Y28215D01*
X272924Y28199D01*
X271455Y27591D01*
X271389Y27546D01*
X271314Y27516D01*
X269992Y26632D01*
X269936Y26575D01*
X269869Y26531D01*
X268745Y25407D01*
X268700Y25340D01*
X268643Y25283D01*
X267760Y23961D01*
X267729Y23887D01*
X267685Y23820D01*
X267076Y22351D01*
X267061Y22273D01*
X267030Y22198D01*
X266720Y20639D01*
Y20559D01*
X266704Y20480D01*
Y18890D01*
X266720Y18811D01*
Y18731D01*
X267030Y17172D01*
X267061Y17097D01*
X267076Y17019D01*
X267685Y15550D01*
X267729Y15483D01*
X267760Y15409D01*
X268643Y14087D01*
X268700Y14030D01*
X268745Y13963D01*
X269869Y12839D01*
X269936Y12795D01*
X269992Y12738D01*
X271314Y11855D01*
X271389Y11824D01*
X271455Y11779D01*
X272924Y11171D01*
X273003Y11155D01*
X273077Y11124D01*
X274637Y10814D01*
X274717D01*
X274796Y10798D01*
X276385D01*
X276464Y10814D01*
X276545D01*
X278104Y11124D01*
X278178Y11155D01*
X278257Y11171D01*
X279726Y11779D01*
X279792Y11824D01*
X279867Y11855D01*
X281189Y12738D01*
X281245Y12795D01*
X281312Y12839D01*
X282436Y13963D01*
X282481Y14030D01*
X282538Y14087D01*
X283421Y15409D01*
X283452Y15483D01*
X283496Y15550D01*
X284105Y17019D01*
X284120Y17097D01*
X284151Y17172D01*
X284461Y18731D01*
Y18811D01*
X284477Y18890D01*
Y20480D01*
X284461Y20559D01*
Y20639D01*
X284151Y22198D01*
X284120Y22273D01*
X284105Y22351D01*
X283496Y23820D01*
X283452Y23887D01*
X283421Y23961D01*
X282538Y25283D01*
X282481Y25340D01*
X282436Y25407D01*
X281312Y26531D01*
X281245Y26575D01*
X281189Y26632D01*
X279867Y27516D01*
X279792Y27546D01*
X279726Y27591D01*
X278257Y28199D01*
X278178Y28215D01*
X278104Y28246D01*
X276545Y28556D01*
X276464D01*
X276385Y28572D01*
D02*
G37*
G36*
X20480D02*
X18890D01*
X18811Y28556D01*
X18731D01*
X17172Y28246D01*
X17097Y28215D01*
X17019Y28199D01*
X15550Y27591D01*
X15483Y27546D01*
X15409Y27516D01*
X14087Y26632D01*
X14030Y26575D01*
X13963Y26531D01*
X12839Y25407D01*
X12795Y25340D01*
X12738Y25283D01*
X11855Y23961D01*
X11824Y23887D01*
X11779Y23820D01*
X11171Y22351D01*
X11155Y22273D01*
X11124Y22198D01*
X10814Y20639D01*
Y20559D01*
X10798Y20480D01*
Y18890D01*
X10814Y18811D01*
Y18731D01*
X11124Y17172D01*
X11155Y17097D01*
X11171Y17019D01*
X11779Y15550D01*
X11824Y15483D01*
X11855Y15409D01*
X12738Y14087D01*
X12795Y14030D01*
X12839Y13963D01*
X13963Y12839D01*
X14030Y12795D01*
X14087Y12738D01*
X15409Y11855D01*
X15483Y11824D01*
X15550Y11779D01*
X17019Y11171D01*
X17097Y11155D01*
X17172Y11124D01*
X18731Y10814D01*
X18811D01*
X18890Y10798D01*
X20480D01*
X20559Y10814D01*
X20639D01*
X22198Y11124D01*
X22273Y11155D01*
X22351Y11171D01*
X23820Y11779D01*
X23887Y11824D01*
X23961Y11855D01*
X25283Y12738D01*
X25340Y12795D01*
X25407Y12839D01*
X26531Y13963D01*
X26575Y14030D01*
X26632Y14087D01*
X27516Y15409D01*
X27546Y15483D01*
X27591Y15550D01*
X28199Y17019D01*
X28215Y17097D01*
X28246Y17172D01*
X28556Y18731D01*
Y18811D01*
X28572Y18890D01*
Y20480D01*
X28556Y20559D01*
Y20639D01*
X28246Y22198D01*
X28215Y22273D01*
X28199Y22351D01*
X27591Y23820D01*
X27546Y23887D01*
X27516Y23961D01*
X26632Y25283D01*
X26575Y25340D01*
X26531Y25407D01*
X25407Y26531D01*
X25340Y26575D01*
X25283Y26632D01*
X23961Y27516D01*
X23887Y27546D01*
X23820Y27591D01*
X22351Y28199D01*
X22273Y28215D01*
X22198Y28246D01*
X20639Y28556D01*
X20559D01*
X20480Y28572D01*
D02*
G37*
%LPD*%
G36*
X210561Y99420D02*
X210006Y98994D01*
X209446Y98264D01*
X209093Y97413D01*
X208973Y96500D01*
X209093Y95587D01*
X209446Y94736D01*
X210006Y94006D01*
X210736Y93445D01*
X211587Y93093D01*
X211684Y93080D01*
X211651Y92580D01*
X203348D01*
X203316Y93080D01*
X203413Y93093D01*
X204263Y93445D01*
X204994Y94006D01*
X205555Y94736D01*
X205907Y95587D01*
X206027Y96500D01*
X205907Y97413D01*
X205555Y98264D01*
X204994Y98994D01*
X204439Y99420D01*
X204609Y99920D01*
X210391D01*
X210561Y99420D01*
D02*
G37*
G36*
X200561D02*
X200006Y98994D01*
X199445Y98264D01*
X199093Y97413D01*
X198973Y96500D01*
X199093Y95587D01*
X199445Y94736D01*
X200006Y94006D01*
X200736Y93445D01*
X201587Y93093D01*
X201684Y93080D01*
X201652Y92580D01*
X193349D01*
X193316Y93080D01*
X193413Y93093D01*
X194264Y93445D01*
X194994Y94006D01*
X195554Y94736D01*
X195907Y95587D01*
X196027Y96500D01*
X195907Y97413D01*
X195554Y98264D01*
X194994Y98994D01*
X194439Y99420D01*
X194609Y99920D01*
X200391D01*
X200561Y99420D01*
D02*
G37*
G36*
X190561D02*
X190006Y98994D01*
X189445Y98264D01*
X189093Y97413D01*
X188973Y96500D01*
X189093Y95587D01*
X189445Y94736D01*
X190006Y94006D01*
X190736Y93445D01*
X191587Y93093D01*
X191684Y93080D01*
X191651Y92580D01*
X183349D01*
X183316Y93080D01*
X183413Y93093D01*
X184264Y93445D01*
X184994Y94006D01*
X185555Y94736D01*
X185907Y95587D01*
X186027Y96500D01*
X185907Y97413D01*
X185555Y98264D01*
X184994Y98994D01*
X184439Y99420D01*
X184609Y99920D01*
X190391D01*
X190561Y99420D01*
D02*
G37*
G36*
X180561D02*
X180006Y98994D01*
X179446Y98264D01*
X179093Y97413D01*
X178973Y96500D01*
X179093Y95587D01*
X179446Y94736D01*
X180006Y94006D01*
X180736Y93445D01*
X181587Y93093D01*
X181684Y93080D01*
X181651Y92580D01*
X173348D01*
X173316Y93080D01*
X173413Y93093D01*
X174264Y93445D01*
X174994Y94006D01*
X175555Y94736D01*
X175907Y95587D01*
X176027Y96500D01*
X175907Y97413D01*
X175555Y98264D01*
X174994Y98994D01*
X174439Y99420D01*
X174609Y99920D01*
X180391D01*
X180561Y99420D01*
D02*
G37*
G36*
X170561D02*
X170006Y98994D01*
X169446Y98264D01*
X169093Y97413D01*
X168973Y96500D01*
X169093Y95587D01*
X169446Y94736D01*
X170006Y94006D01*
X170737Y93445D01*
X171587Y93093D01*
X171684Y93080D01*
X171651Y92580D01*
X163348D01*
X163316Y93080D01*
X163413Y93093D01*
X164263Y93445D01*
X164994Y94006D01*
X165554Y94736D01*
X165907Y95587D01*
X166027Y96500D01*
X165907Y97413D01*
X165554Y98264D01*
X164994Y98994D01*
X164439Y99420D01*
X164609Y99920D01*
X170391D01*
X170561Y99420D01*
D02*
G37*
G36*
X160561D02*
X160006Y98994D01*
X159446Y98264D01*
X159093Y97413D01*
X158973Y96500D01*
X159093Y95587D01*
X159446Y94736D01*
X160006Y94006D01*
X160737Y93445D01*
X161587Y93093D01*
X161684Y93080D01*
X161652Y92580D01*
X153349D01*
X153316Y93080D01*
X153413Y93093D01*
X154263Y93445D01*
X154994Y94006D01*
X155554Y94736D01*
X155907Y95587D01*
X156027Y96500D01*
X155907Y97413D01*
X155554Y98264D01*
X154994Y98994D01*
X154439Y99420D01*
X154609Y99920D01*
X160391D01*
X160561Y99420D01*
D02*
G37*
G36*
X150561D02*
X150006Y98994D01*
X149445Y98264D01*
X149093Y97413D01*
X148973Y96500D01*
X149093Y95587D01*
X149445Y94736D01*
X150006Y94006D01*
X150736Y93445D01*
X151587Y93093D01*
X151684Y93080D01*
X151652Y92580D01*
X143349D01*
X143316Y93080D01*
X143413Y93093D01*
X144264Y93445D01*
X144994Y94006D01*
X145554Y94736D01*
X145907Y95587D01*
X146027Y96500D01*
X145907Y97413D01*
X145554Y98264D01*
X144994Y98994D01*
X144439Y99420D01*
X144609Y99920D01*
X150391D01*
X150561Y99420D01*
D02*
G37*
G36*
X140561D02*
X140006Y98994D01*
X139445Y98264D01*
X139093Y97413D01*
X138973Y96500D01*
X139093Y95587D01*
X139445Y94736D01*
X140006Y94006D01*
X140736Y93445D01*
X141587Y93093D01*
X141684Y93080D01*
X141651Y92580D01*
X133349D01*
X133316Y93080D01*
X133413Y93093D01*
X134264Y93445D01*
X134994Y94006D01*
X135555Y94736D01*
X135907Y95587D01*
X136027Y96500D01*
X135907Y97413D01*
X135555Y98264D01*
X134994Y98994D01*
X134439Y99420D01*
X134609Y99920D01*
X140391D01*
X140561Y99420D01*
D02*
G37*
G36*
X130561D02*
X130006Y98994D01*
X129446Y98264D01*
X129093Y97413D01*
X128973Y96500D01*
X129093Y95587D01*
X129446Y94736D01*
X130006Y94006D01*
X130736Y93445D01*
X131587Y93093D01*
X131684Y93080D01*
X131651Y92580D01*
X123348D01*
X123316Y93080D01*
X123413Y93093D01*
X124264Y93445D01*
X124994Y94006D01*
X125555Y94736D01*
X125907Y95587D01*
X126027Y96500D01*
X125907Y97413D01*
X125555Y98264D01*
X124994Y98994D01*
X124439Y99420D01*
X124609Y99920D01*
X130391D01*
X130561Y99420D01*
D02*
G37*
G36*
X120561D02*
X120006Y98994D01*
X119446Y98264D01*
X119093Y97413D01*
X118973Y96500D01*
X119093Y95587D01*
X119446Y94736D01*
X120006Y94006D01*
X120737Y93445D01*
X121587Y93093D01*
X121684Y93080D01*
X121651Y92580D01*
X113348D01*
X113316Y93080D01*
X113413Y93093D01*
X114263Y93445D01*
X114994Y94006D01*
X115554Y94736D01*
X115907Y95587D01*
X116027Y96500D01*
X115907Y97413D01*
X115554Y98264D01*
X114994Y98994D01*
X114439Y99420D01*
X114609Y99920D01*
X120391D01*
X120561Y99420D01*
D02*
G37*
G36*
X110561D02*
X110006Y98994D01*
X109446Y98264D01*
X109093Y97413D01*
X108973Y96500D01*
X109093Y95587D01*
X109446Y94736D01*
X110006Y94006D01*
X110737Y93445D01*
X111587Y93093D01*
X111684Y93080D01*
X111652Y92580D01*
X103349D01*
X103316Y93080D01*
X103413Y93093D01*
X104263Y93445D01*
X104994Y94006D01*
X105554Y94736D01*
X105907Y95587D01*
X106027Y96500D01*
X105907Y97413D01*
X105554Y98264D01*
X104994Y98994D01*
X104439Y99420D01*
X104609Y99920D01*
X110391D01*
X110561Y99420D01*
D02*
G37*
G36*
X100561D02*
X100006Y98994D01*
X99445Y98264D01*
X99093Y97413D01*
X98973Y96500D01*
X99093Y95587D01*
X99445Y94736D01*
X100006Y94006D01*
X100736Y93445D01*
X101587Y93093D01*
X101684Y93080D01*
X101652Y92580D01*
X93348D01*
X93316Y93080D01*
X93413Y93093D01*
X94263Y93445D01*
X94994Y94006D01*
X95555Y94736D01*
X95907Y95587D01*
X96027Y96500D01*
X95907Y97413D01*
X95555Y98264D01*
X94994Y98994D01*
X94439Y99420D01*
X94609Y99920D01*
X100391D01*
X100561Y99420D01*
D02*
G37*
G36*
X90561D02*
X90006Y98994D01*
X89446Y98264D01*
X89093Y97413D01*
X88973Y96500D01*
X89093Y95587D01*
X89446Y94736D01*
X90006Y94006D01*
X90737Y93445D01*
X91587Y93093D01*
X91684Y93080D01*
X91651Y92580D01*
X83349D01*
X83316Y93080D01*
X83413Y93093D01*
X84263Y93445D01*
X84994Y94006D01*
X85554Y94736D01*
X85907Y95587D01*
X86027Y96500D01*
X85907Y97413D01*
X85554Y98264D01*
X84994Y98994D01*
X84439Y99420D01*
X84609Y99920D01*
X90391D01*
X90561Y99420D01*
D02*
G37*
D10*
X267500Y101500D02*
Y139500D01*
X262500Y96500D02*
X267500Y101500D01*
X210000Y197000D02*
X267500Y139500D01*
X123500Y220000D02*
X146500Y197000D01*
X210000D01*
X100567Y197067D02*
X123500Y220000D01*
X29193Y197067D02*
X100567D01*
X123500Y220000D02*
Y240278D01*
X15807Y197067D02*
X29193D01*
X53866Y203366D02*
X70866Y220366D01*
Y240242D01*
X29193Y203366D02*
X53866D01*
X15807D02*
X29193D01*
X41500Y219252D02*
Y239500D01*
X31913Y209665D02*
X41500Y219252D01*
X29911Y209665D02*
X31913D01*
X15807D02*
X29896D01*
X41500Y239500D02*
X55500Y253500D01*
X164778D01*
X178000Y240278D01*
D24*
X37020Y89980D02*
X55500Y71500D01*
X92500D01*
X97000Y67000D01*
X113121Y74500D02*
X117438Y70183D01*
X57500Y74500D02*
X113121D01*
X35721Y96280D02*
X57500Y74500D01*
X130500Y78000D02*
X137000Y71500D01*
X34921Y102579D02*
X59500Y78000D01*
X130500D01*
X64000Y81000D02*
X148500D01*
X157438Y72062D01*
X36122Y108878D02*
X64000Y81000D01*
X35823Y115177D02*
X66500Y84500D01*
X174000D02*
X186562Y71938D01*
X66500Y84500D02*
X174000D01*
X30805Y126695D02*
X70000Y87500D01*
X190500D02*
X207438Y70562D01*
X70000Y87500D02*
X190500D01*
X216500Y91000D02*
X227000Y80500D01*
X46500Y124000D02*
X79500Y91000D01*
X216500D01*
X33625Y140140D02*
X46500Y127265D01*
X29193Y140374D02*
X29427Y140140D01*
X33625D01*
X46500Y124000D02*
Y127265D01*
X112500Y106500D02*
X130425Y120550D01*
X131000Y121124D02*
Y143500D01*
X130425Y120550D02*
X131000Y121124D01*
X78978Y101500D02*
X227500D01*
X33805Y146673D02*
X78978Y101500D01*
X227500D02*
X232500Y96500D01*
X29193Y146673D02*
X33805D01*
X30805Y126695D02*
Y133841D01*
X29193Y115177D02*
X35823D01*
X29193Y108878D02*
X36122D01*
X29193Y102579D02*
X34921D01*
X29193Y96280D02*
X35721D01*
X137000Y59000D02*
X142000Y54000D01*
X137000Y59000D02*
Y71500D01*
X161000Y135000D02*
Y143500D01*
X132500Y106500D02*
X161000Y135000D01*
X171000D02*
Y143500D01*
X142500Y106500D02*
X171000Y135000D01*
X162500Y106500D02*
X191000Y135000D01*
Y143500D01*
X152500Y106500D02*
X181000Y135000D01*
Y143500D01*
X231000Y135000D02*
Y143500D01*
X202500Y106500D02*
X231000Y135000D01*
X221000D02*
Y143500D01*
X192500Y106500D02*
X221000Y135000D01*
X182500Y106500D02*
X211000Y135000D01*
Y143500D01*
X201000Y135000D02*
Y143500D01*
X172500Y106500D02*
X201000Y135000D01*
X178000Y237088D02*
Y240278D01*
X186562Y62110D02*
Y71938D01*
X186468Y60774D02*
X186500Y60743D01*
X186468Y60774D02*
Y62017D01*
X186500Y59500D02*
X192000Y54000D01*
X186500Y59500D02*
Y60743D01*
X186468Y62017D02*
X186562Y62110D01*
X227000Y59000D02*
X232000Y54000D01*
X227000Y59000D02*
Y80500D01*
X207438Y58562D02*
Y70562D01*
Y58562D02*
X212000Y54000D01*
X29193Y134075D02*
X30571D01*
X30805Y133841D01*
X97000Y60934D02*
Y67000D01*
Y60934D02*
X101135Y56799D01*
Y54865D02*
Y56799D01*
Y54865D02*
X102000Y54000D01*
X29193Y89980D02*
X37020D01*
X117438Y58562D02*
Y70183D01*
Y58562D02*
X122000Y54000D01*
X157438Y58562D02*
X162000Y54000D01*
X157438Y58562D02*
Y72062D01*
X116000Y148500D02*
X121000Y143500D01*
X116000Y148500D02*
Y157000D01*
X113728Y159272D02*
X116000Y157000D01*
X29193Y159272D02*
X113728D01*
X128429Y165571D02*
X136399Y157601D01*
X29193Y165571D02*
X128429D01*
X136399Y148101D02*
Y157601D01*
Y148101D02*
X141000Y143500D01*
X166000Y148500D02*
X171000Y143500D01*
X166000Y148500D02*
Y159000D01*
X29193Y171870D02*
X153130D01*
X166000Y159000D01*
X186399Y148101D02*
Y162101D01*
Y148101D02*
X191000Y143500D01*
X170331Y178169D02*
X186399Y162101D01*
X29193Y178169D02*
X170331D01*
X210500Y143500D02*
X211000D01*
X206000Y148000D02*
X210500Y143500D01*
X206000Y148000D02*
Y163500D01*
X185031Y184468D02*
X206000Y163500D01*
X29193Y184468D02*
X185031D01*
X226399Y148101D02*
X231000Y143500D01*
X226399Y148101D02*
Y163101D01*
X198732Y190768D02*
X226399Y163101D01*
X29193Y190768D02*
X198732D01*
X80528Y152972D02*
X101000Y143500D01*
Y121000D02*
Y143500D01*
X111000Y121000D02*
Y143500D01*
X121000Y121000D02*
Y143500D01*
X141000Y121000D02*
Y143500D01*
X9138Y96351D02*
X15736D01*
X9066Y96422D02*
X9138Y96351D01*
X15736D02*
X15807Y96280D01*
X82500Y106500D02*
X101000Y121000D01*
X92500Y106500D02*
X111000Y121000D01*
X102500Y106500D02*
X121000Y121000D01*
X122500Y106500D02*
X141000Y121000D01*
X9190Y89983D02*
X15804D01*
X15807Y89980D01*
X9187Y89986D02*
X9190Y89983D01*
X9066Y102672D02*
X9113Y102625D01*
X15761D02*
X15807Y102579D01*
X9113Y102625D02*
X15761D01*
X9088Y108900D02*
X15785D01*
X15807Y108878D01*
X9066Y108922D02*
X9088Y108900D01*
X9069Y115174D02*
X15804D01*
X15807Y115177D01*
X9066Y115172D02*
X9069Y115174D01*
X15744Y140437D02*
X15807Y140374D01*
X9563Y140437D02*
X15744D01*
X9500Y140500D02*
X9563Y140437D01*
X15770Y134037D02*
X15807Y134075D01*
X9537Y134037D02*
X15770D01*
X9500Y134000D02*
X9537Y134037D01*
X15738Y146742D02*
X15807Y146673D01*
X9582Y146742D02*
X15738D01*
X9513Y146812D02*
X9582Y146742D01*
X9557Y153017D02*
X15762D01*
X15807Y152972D01*
X9513Y153062D02*
X9557Y153017D01*
X15787Y159292D02*
X15807Y159272D01*
X9533Y159292D02*
X15787D01*
X9513Y159312D02*
X9533Y159292D01*
X12754Y165805D02*
X15573D01*
X9513Y165812D02*
X12747D01*
X15573Y165805D02*
X15807Y165571D01*
X12747Y165812D02*
X12754Y165805D01*
X15705Y171972D02*
X15807Y171870D01*
X9602Y171972D02*
X15705D01*
X9513Y172062D02*
X9602Y171972D01*
X9513Y178312D02*
X9584Y178241D01*
X15736D02*
X15807Y178169D01*
X9584Y178241D02*
X15736D01*
X9560Y184515D02*
X15760D01*
X15807Y184468D01*
X9513Y184562D02*
X9560Y184515D01*
X9535Y190790D02*
X15785D01*
X9513Y190812D02*
X9535Y190790D01*
X15785D02*
X15807Y190768D01*
X29193Y152972D02*
X80528D01*
D25*
X28405Y221870D02*
D03*
X22500Y43130D02*
D03*
D26*
X241000Y143500D02*
D03*
X231000D02*
D03*
X221000D02*
D03*
X211000D02*
D03*
X201000D02*
D03*
X191000D02*
D03*
X181000D02*
D03*
X171000D02*
D03*
X161000D02*
D03*
X151000D02*
D03*
X141000D02*
D03*
X131000D02*
D03*
X121000D02*
D03*
X111000D02*
D03*
X101000D02*
D03*
X241000Y153500D02*
D03*
X231000D02*
D03*
X221000D02*
D03*
X211000D02*
D03*
X201000D02*
D03*
X191000D02*
D03*
X181000D02*
D03*
X171000D02*
D03*
X161000D02*
D03*
X151000D02*
D03*
X141000D02*
D03*
X131000D02*
D03*
X121000D02*
D03*
X111000D02*
D03*
X101000D02*
D03*
D27*
X82500Y106500D02*
D03*
D28*
Y96500D02*
D03*
X92500Y106500D02*
D03*
Y96500D02*
D03*
X102500Y106500D02*
D03*
Y96500D02*
D03*
X112500Y106500D02*
D03*
Y96500D02*
D03*
X122500Y106500D02*
D03*
Y96500D02*
D03*
X132500Y106500D02*
D03*
Y96500D02*
D03*
X142500Y106500D02*
D03*
Y96500D02*
D03*
X152500Y106500D02*
D03*
Y96500D02*
D03*
X162500Y106500D02*
D03*
Y96500D02*
D03*
X172500Y106500D02*
D03*
Y96500D02*
D03*
X182500Y106500D02*
D03*
Y96500D02*
D03*
X192500Y106500D02*
D03*
Y96500D02*
D03*
X202500Y106500D02*
D03*
Y96500D02*
D03*
X212500Y106500D02*
D03*
Y96500D02*
D03*
X222500Y106500D02*
D03*
Y96500D02*
D03*
X232500Y106500D02*
D03*
Y96500D02*
D03*
X242500Y106500D02*
D03*
Y96500D02*
D03*
X252500Y106500D02*
D03*
Y96500D02*
D03*
X262500Y106500D02*
D03*
Y96500D02*
D03*
X272500Y106500D02*
D03*
Y96500D02*
D03*
D29*
X158000Y265317D02*
D03*
Y225317D02*
D03*
X198000D02*
D03*
Y265317D02*
D03*
X50866Y265282D02*
D03*
Y225282D02*
D03*
X90866D02*
D03*
Y265282D02*
D03*
X250500Y265317D02*
D03*
Y225317D02*
D03*
X210500D02*
D03*
Y265317D02*
D03*
X143500D02*
D03*
Y225317D02*
D03*
X103500D02*
D03*
Y265317D02*
D03*
D30*
X178000Y240278D02*
D03*
X70866Y240242D02*
D03*
X230500Y240278D02*
D03*
X123500D02*
D03*
D31*
X82000Y64000D02*
D03*
X92000D02*
D03*
X102000D02*
D03*
X112000D02*
D03*
X122000D02*
D03*
X132000D02*
D03*
X142000D02*
D03*
X152000D02*
D03*
X162000D02*
D03*
X172000D02*
D03*
X182000D02*
D03*
X192000D02*
D03*
X202000D02*
D03*
X212000D02*
D03*
X222000D02*
D03*
X232000D02*
D03*
X242000D02*
D03*
X252000D02*
D03*
X262000D02*
D03*
X272000D02*
D03*
X82000Y54000D02*
D03*
X92000D02*
D03*
X102000D02*
D03*
X112000D02*
D03*
X122000D02*
D03*
X132000D02*
D03*
X142000D02*
D03*
X152000D02*
D03*
X162000D02*
D03*
X172000D02*
D03*
X182000D02*
D03*
X192000D02*
D03*
X202000D02*
D03*
X212000D02*
D03*
X222000D02*
D03*
X232000D02*
D03*
X242000D02*
D03*
X252000D02*
D03*
X262000D02*
D03*
D32*
X272000D02*
D03*
D33*
X246500Y115500D02*
D03*
X257500Y115000D02*
D03*
X231000Y192500D02*
D03*
X235500Y161500D02*
D03*
X236000Y192500D02*
D03*
X229000Y114000D02*
D03*
X73000Y64000D02*
D03*
X177000Y73500D02*
D03*
X286500Y140500D02*
D03*
X269091Y247532D02*
D03*
Y82177D02*
D03*
X282870Y54618D02*
D03*
X255311Y275091D02*
D03*
X241531Y247532D02*
D03*
Y192413D02*
D03*
X255311Y164854D02*
D03*
X213972Y247532D02*
D03*
X227752Y219972D02*
D03*
X213972Y27059D02*
D03*
X200193Y275091D02*
D03*
X158854Y247532D02*
D03*
X172634Y219972D02*
D03*
X158854Y27059D02*
D03*
X145075Y275091D02*
D03*
Y164854D02*
D03*
X103736Y247532D02*
D03*
Y27059D02*
D03*
X89957Y275091D02*
D03*
X34839D02*
D03*
X48618Y27059D02*
D03*
X34839Y219972D02*
D03*
X21059Y247532D02*
D03*
D34*
X9066Y96422D02*
D03*
X9500Y140500D02*
D03*
Y134000D02*
D03*
X9066Y102672D02*
D03*
Y115172D02*
D03*
Y108922D02*
D03*
X9187Y89986D02*
D03*
X9513Y165812D02*
D03*
Y146812D02*
D03*
Y159312D02*
D03*
Y153062D02*
D03*
Y172062D02*
D03*
Y178312D02*
D03*
Y190812D02*
D03*
Y184562D02*
D03*
D35*
X15807Y49035D02*
D03*
X29193D02*
D03*
X15807Y52185D02*
D03*
X29193D02*
D03*
X15807Y55335D02*
D03*
X29193D02*
D03*
X15807Y58484D02*
D03*
X29193D02*
D03*
X15807Y61634D02*
D03*
X29193D02*
D03*
X15807Y64784D02*
D03*
X29193D02*
D03*
X15807Y67933D02*
D03*
X29193D02*
D03*
X15807Y71083D02*
D03*
X29193D02*
D03*
X15807Y74232D02*
D03*
X29193D02*
D03*
X15807Y77382D02*
D03*
X29193D02*
D03*
X15807Y80532D02*
D03*
X29193D02*
D03*
X15807Y83681D02*
D03*
X29193D02*
D03*
X15807Y86831D02*
D03*
X29193D02*
D03*
X15807Y89980D02*
D03*
X29193D02*
D03*
X15807Y93130D02*
D03*
X29193D02*
D03*
X15807Y96280D02*
D03*
X29193D02*
D03*
X15807Y99429D02*
D03*
X29193D02*
D03*
X15807Y102579D02*
D03*
X29193D02*
D03*
X15807Y105728D02*
D03*
X29193D02*
D03*
X15807Y108878D02*
D03*
X29193D02*
D03*
X15807Y112028D02*
D03*
X29193D02*
D03*
X15807Y115177D02*
D03*
X29193D02*
D03*
X15807Y118327D02*
D03*
X29193D02*
D03*
X15807Y134075D02*
D03*
X29193D02*
D03*
X15807Y137224D02*
D03*
X29193D02*
D03*
X15807Y140374D02*
D03*
X29193D02*
D03*
X15807Y143524D02*
D03*
X29193D02*
D03*
X15807Y146673D02*
D03*
X29193D02*
D03*
X15807Y149823D02*
D03*
X29193D02*
D03*
X15807Y152972D02*
D03*
X29193D02*
D03*
X15807Y156122D02*
D03*
X29193D02*
D03*
X15807Y159272D02*
D03*
X29193D02*
D03*
X15807Y162421D02*
D03*
X29193D02*
D03*
X15807Y165571D02*
D03*
X29193D02*
D03*
X15807Y168720D02*
D03*
X29193D02*
D03*
X15807Y171870D02*
D03*
X29193D02*
D03*
X15807Y175020D02*
D03*
X29193D02*
D03*
X15807Y178169D02*
D03*
X29193D02*
D03*
X15807Y181319D02*
D03*
X29193D02*
D03*
X15807Y184468D02*
D03*
X29193D02*
D03*
X15807Y187618D02*
D03*
X29193D02*
D03*
X15807Y190768D02*
D03*
X29193D02*
D03*
X15807Y193917D02*
D03*
X29193D02*
D03*
X15807Y197067D02*
D03*
X29193D02*
D03*
X15807Y200217D02*
D03*
X29193D02*
D03*
X15807Y203366D02*
D03*
X29193D02*
D03*
X15807Y206516D02*
D03*
X29193D02*
D03*
X15807Y209665D02*
D03*
X29193D02*
D03*
X15807Y212815D02*
D03*
X29193D02*
D03*
X15807Y215965D02*
D03*
X29193D02*
D03*
M02*
