G04*
G04 #@! TF.GenerationSoftware,Altium Limited,Altium Designer,23.0.1 (38)*
G04*
G04 Layer_Color=2752767*
%FSLAX25Y25*%
%MOIN*%
G70*
G04*
G04 #@! TF.SameCoordinates,0F18841D-DA8F-46EF-A0D6-61A62281B5C3*
G04*
G04*
G04 #@! TF.FilePolarity,Positive*
G04*
G01*
G75*
%ADD37C,0.00200*%
%ADD38C,0.00267*%
D37*
X28405Y221070D02*
X28806Y221470D01*
X29206D01*
X28806Y221870D01*
X29206Y222270D01*
X28806D01*
X28405Y222670D01*
X28005Y222270D01*
X27606D01*
X28005Y221870D01*
X27606Y221470D01*
X28005D01*
X28405Y221070D01*
X22500Y42330D02*
X22900Y42730D01*
X23300D01*
X22900Y43130D01*
X23300Y43530D01*
X22900D01*
X22500Y43930D01*
X22100Y43530D01*
X21700D01*
X22100Y43130D01*
X21700Y42730D01*
X22100D01*
X22500Y42330D01*
X241000Y142700D02*
X240200Y144300D01*
X241800D01*
X241000Y142700D01*
X231000D02*
X230200Y144300D01*
X231800D01*
X231000Y142700D01*
X221000D02*
X220200Y144300D01*
X221800D01*
X221000Y142700D01*
X211000D02*
X210200Y144300D01*
X211800D01*
X211000Y142700D01*
X201000D02*
X200200Y144300D01*
X201800D01*
X201000Y142700D01*
X191000D02*
X190200Y144300D01*
X191800D01*
X191000Y142700D01*
X181000D02*
X180200Y144300D01*
X181800D01*
X181000Y142700D01*
X171000D02*
X170200Y144300D01*
X171800D01*
X171000Y142700D01*
X161000D02*
X160200Y144300D01*
X161800D01*
X161000Y142700D01*
X151000D02*
X150200Y144300D01*
X151800D01*
X151000Y142700D01*
X141000D02*
X140200Y144300D01*
X141800D01*
X141000Y142700D01*
X131000D02*
X130200Y144300D01*
X131800D01*
X131000Y142700D01*
X121000D02*
X120200Y144300D01*
X121800D01*
X121000Y142700D01*
X111000D02*
X110200Y144300D01*
X111800D01*
X111000Y142700D01*
X101000D02*
X100200Y144300D01*
X101800D01*
X101000Y142700D01*
X241000Y152700D02*
X240200Y154300D01*
X241800D01*
X241000Y152700D01*
X231000D02*
X230200Y154300D01*
X231800D01*
X231000Y152700D01*
X221000D02*
X220200Y154300D01*
X221800D01*
X221000Y152700D01*
X211000D02*
X210200Y154300D01*
X211800D01*
X211000Y152700D01*
X201000D02*
X200200Y154300D01*
X201800D01*
X201000Y152700D01*
X191000D02*
X190200Y154300D01*
X191800D01*
X191000Y152700D01*
X181000D02*
X180200Y154300D01*
X181800D01*
X181000Y152700D01*
X171000D02*
X170200Y154300D01*
X171800D01*
X171000Y152700D01*
X161000D02*
X160200Y154300D01*
X161800D01*
X161000Y152700D01*
X151000D02*
X150200Y154300D01*
X151800D01*
X151000Y152700D01*
X141000D02*
X140200Y154300D01*
X141800D01*
X141000Y152700D01*
X131000D02*
X130200Y154300D01*
X131800D01*
X131000Y152700D01*
X121000D02*
X120200Y154300D01*
X121800D01*
X121000Y152700D01*
X111000D02*
X110200Y154300D01*
X111800D01*
X111000Y152700D01*
X101000D02*
X100200Y154300D01*
X101800D01*
X101000Y152700D01*
X82500Y105700D02*
X81700Y107300D01*
X83300D01*
X82500Y105700D01*
Y95700D02*
X81700Y97300D01*
X83300D01*
X82500Y95700D01*
X92500Y105700D02*
X91700Y107300D01*
X93300D01*
X92500Y105700D01*
Y95700D02*
X91700Y97300D01*
X93300D01*
X92500Y95700D01*
X102500Y105700D02*
X101700Y107300D01*
X103300D01*
X102500Y105700D01*
Y95700D02*
X101700Y97300D01*
X103300D01*
X102500Y95700D01*
X112500Y105700D02*
X111700Y107300D01*
X113300D01*
X112500Y105700D01*
Y95700D02*
X111700Y97300D01*
X113300D01*
X112500Y95700D01*
X122500Y105700D02*
X121700Y107300D01*
X123300D01*
X122500Y105700D01*
Y95700D02*
X121700Y97300D01*
X123300D01*
X122500Y95700D01*
X132500Y105700D02*
X131700Y107300D01*
X133300D01*
X132500Y105700D01*
Y95700D02*
X131700Y97300D01*
X133300D01*
X132500Y95700D01*
X142500Y105700D02*
X141700Y107300D01*
X143300D01*
X142500Y105700D01*
Y95700D02*
X141700Y97300D01*
X143300D01*
X142500Y95700D01*
X152500Y105700D02*
X151700Y107300D01*
X153300D01*
X152500Y105700D01*
Y95700D02*
X151700Y97300D01*
X153300D01*
X152500Y95700D01*
X162500Y105700D02*
X161700Y107300D01*
X163300D01*
X162500Y105700D01*
Y95700D02*
X161700Y97300D01*
X163300D01*
X162500Y95700D01*
X172500Y105700D02*
X171700Y107300D01*
X173300D01*
X172500Y105700D01*
Y95700D02*
X171700Y97300D01*
X173300D01*
X172500Y95700D01*
X182500Y105700D02*
X181700Y107300D01*
X183300D01*
X182500Y105700D01*
Y95700D02*
X181700Y97300D01*
X183300D01*
X182500Y95700D01*
X192500Y105700D02*
X191700Y107300D01*
X193300D01*
X192500Y105700D01*
Y95700D02*
X191700Y97300D01*
X193300D01*
X192500Y95700D01*
X202500Y105700D02*
X201700Y107300D01*
X203300D01*
X202500Y105700D01*
Y95700D02*
X201700Y97300D01*
X203300D01*
X202500Y95700D01*
X212500Y105700D02*
X211700Y107300D01*
X213300D01*
X212500Y105700D01*
Y95700D02*
X211700Y97300D01*
X213300D01*
X212500Y95700D01*
X222500Y105700D02*
X221700Y107300D01*
X223300D01*
X222500Y105700D01*
Y95700D02*
X221700Y97300D01*
X223300D01*
X222500Y95700D01*
X232500Y105700D02*
X231700Y107300D01*
X233300D01*
X232500Y105700D01*
Y95700D02*
X231700Y97300D01*
X233300D01*
X232500Y95700D01*
X242500Y105700D02*
X241700Y107300D01*
X243300D01*
X242500Y105700D01*
Y95700D02*
X241700Y97300D01*
X243300D01*
X242500Y95700D01*
X252500Y105700D02*
X251700Y107300D01*
X253300D01*
X252500Y105700D01*
Y95700D02*
X251700Y97300D01*
X253300D01*
X252500Y95700D01*
X262500Y105700D02*
X261700Y107300D01*
X263300D01*
X262500Y105700D01*
Y95700D02*
X261700Y97300D01*
X263300D01*
X262500Y95700D01*
X272500Y105700D02*
X271700Y107300D01*
X273300D01*
X272500Y105700D01*
Y95700D02*
X271700Y97300D01*
X273300D01*
X272500Y95700D01*
X177200Y239478D02*
Y241078D01*
X178800D01*
Y239478D01*
X177200D01*
X70066Y239442D02*
Y241042D01*
X71666D01*
Y239442D01*
X70066D01*
X229700Y239478D02*
Y241078D01*
X231300D01*
Y239478D01*
X229700D01*
X122700D02*
Y241078D01*
X124300D01*
Y239478D01*
X122700D01*
X82000Y63200D02*
X81200Y64800D01*
X82800D01*
X82000Y63200D01*
X92000D02*
X91200Y64800D01*
X92800D01*
X92000Y63200D01*
X102000D02*
X101200Y64800D01*
X102800D01*
X102000Y63200D01*
X112000D02*
X111200Y64800D01*
X112800D01*
X112000Y63200D01*
X122000D02*
X121200Y64800D01*
X122800D01*
X122000Y63200D01*
X132000D02*
X131200Y64800D01*
X132800D01*
X132000Y63200D01*
X142000D02*
X141200Y64800D01*
X142800D01*
X142000Y63200D01*
X152000D02*
X151200Y64800D01*
X152800D01*
X152000Y63200D01*
X162000D02*
X161200Y64800D01*
X162800D01*
X162000Y63200D01*
X172000D02*
X171200Y64800D01*
X172800D01*
X172000Y63200D01*
X182000D02*
X181200Y64800D01*
X182800D01*
X182000Y63200D01*
X192000D02*
X191200Y64800D01*
X192800D01*
X192000Y63200D01*
X202000D02*
X201200Y64800D01*
X202800D01*
X202000Y63200D01*
X212000D02*
X211200Y64800D01*
X212800D01*
X212000Y63200D01*
X222000D02*
X221200Y64800D01*
X222800D01*
X222000Y63200D01*
X232000D02*
X231200Y64800D01*
X232800D01*
X232000Y63200D01*
X242000D02*
X241200Y64800D01*
X242800D01*
X242000Y63200D01*
X252000D02*
X251200Y64800D01*
X252800D01*
X252000Y63200D01*
X262000D02*
X261200Y64800D01*
X262800D01*
X262000Y63200D01*
X272000D02*
X271200Y64800D01*
X272800D01*
X272000Y63200D01*
X82000Y53200D02*
X81200Y54800D01*
X82800D01*
X82000Y53200D01*
X92000D02*
X91200Y54800D01*
X92800D01*
X92000Y53200D01*
X102000D02*
X101200Y54800D01*
X102800D01*
X102000Y53200D01*
X112000D02*
X111200Y54800D01*
X112800D01*
X112000Y53200D01*
X122000D02*
X121200Y54800D01*
X122800D01*
X122000Y53200D01*
X132000D02*
X131200Y54800D01*
X132800D01*
X132000Y53200D01*
X142000D02*
X141200Y54800D01*
X142800D01*
X142000Y53200D01*
X152000D02*
X151200Y54800D01*
X152800D01*
X152000Y53200D01*
X162000D02*
X161200Y54800D01*
X162800D01*
X162000Y53200D01*
X172000D02*
X171200Y54800D01*
X172800D01*
X172000Y53200D01*
X182000D02*
X181200Y54800D01*
X182800D01*
X182000Y53200D01*
X192000D02*
X191200Y54800D01*
X192800D01*
X192000Y53200D01*
X202000D02*
X201200Y54800D01*
X202800D01*
X202000Y53200D01*
X212000D02*
X211200Y54800D01*
X212800D01*
X212000Y53200D01*
X222000D02*
X221200Y54800D01*
X222800D01*
X222000Y53200D01*
X232000D02*
X231200Y54800D01*
X232800D01*
X232000Y53200D01*
X242000D02*
X241200Y54800D01*
X242800D01*
X242000Y53200D01*
X252000D02*
X251200Y54800D01*
X252800D01*
X252000Y53200D01*
X262000D02*
X261200Y54800D01*
X262800D01*
X262000Y53200D01*
X272000D02*
X271200Y54800D01*
X272800D01*
X272000Y53200D01*
X245700Y114700D02*
X246100D01*
X246500Y115100D01*
X246900Y114700D01*
X247300D01*
Y115100D01*
X246900Y115500D01*
X247300Y115900D01*
Y116300D01*
X246900D01*
X246500Y115900D01*
X246100Y116300D01*
X245700D01*
Y115900D01*
X246100Y115500D01*
X245700Y115100D01*
Y114700D01*
X256700Y114200D02*
X257100D01*
X257500Y114600D01*
X257900Y114200D01*
X258300D01*
Y114600D01*
X257900Y115000D01*
X258300Y115400D01*
Y115800D01*
X257900D01*
X257500Y115400D01*
X257100Y115800D01*
X256700D01*
Y115400D01*
X257100Y115000D01*
X256700Y114600D01*
Y114200D01*
X230200Y191700D02*
X230600D01*
X231000Y192100D01*
X231400Y191700D01*
X231800D01*
Y192100D01*
X231400Y192500D01*
X231800Y192900D01*
Y193300D01*
X231400D01*
X231000Y192900D01*
X230600Y193300D01*
X230200D01*
Y192900D01*
X230600Y192500D01*
X230200Y192100D01*
Y191700D01*
X234700Y160700D02*
X235100D01*
X235500Y161100D01*
X235900Y160700D01*
X236300D01*
Y161100D01*
X235900Y161500D01*
X236300Y161900D01*
Y162300D01*
X235900D01*
X235500Y161900D01*
X235100Y162300D01*
X234700D01*
Y161900D01*
X235100Y161500D01*
X234700Y161100D01*
Y160700D01*
X235200Y191700D02*
X235600D01*
X236000Y192100D01*
X236400Y191700D01*
X236800D01*
Y192100D01*
X236400Y192500D01*
X236800Y192900D01*
Y193300D01*
X236400D01*
X236000Y192900D01*
X235600Y193300D01*
X235200D01*
Y192900D01*
X235600Y192500D01*
X235200Y192100D01*
Y191700D01*
X228200Y113200D02*
X228600D01*
X229000Y113600D01*
X229400Y113200D01*
X229800D01*
Y113600D01*
X229400Y114000D01*
X229800Y114400D01*
Y114800D01*
X229400D01*
X229000Y114400D01*
X228600Y114800D01*
X228200D01*
Y114400D01*
X228600Y114000D01*
X228200Y113600D01*
Y113200D01*
X72200Y63200D02*
X72600D01*
X73000Y63600D01*
X73400Y63200D01*
X73800D01*
Y63600D01*
X73400Y64000D01*
X73800Y64400D01*
Y64800D01*
X73400D01*
X73000Y64400D01*
X72600Y64800D01*
X72200D01*
Y64400D01*
X72600Y64000D01*
X72200Y63600D01*
Y63200D01*
X176200Y72700D02*
X176600D01*
X177000Y73100D01*
X177400Y72700D01*
X177800D01*
Y73100D01*
X177400Y73500D01*
X177800Y73900D01*
Y74300D01*
X177400D01*
X177000Y73900D01*
X176600Y74300D01*
X176200D01*
Y73900D01*
X176600Y73500D01*
X176200Y73100D01*
Y72700D01*
X285700Y139700D02*
X286100D01*
X286500Y140100D01*
X286900Y139700D01*
X287300D01*
Y140100D01*
X286900Y140500D01*
X287300Y140900D01*
Y141300D01*
X286900D01*
X286500Y140900D01*
X286100Y141300D01*
X285700D01*
Y140900D01*
X286100Y140500D01*
X285700Y140100D01*
Y139700D01*
X268291Y246731D02*
X268691D01*
X269091Y247131D01*
X269491Y246731D01*
X269891D01*
Y247131D01*
X269491Y247532D01*
X269891Y247932D01*
Y248331D01*
X269491D01*
X269091Y247932D01*
X268691Y248331D01*
X268291D01*
Y247932D01*
X268691Y247532D01*
X268291Y247131D01*
Y246731D01*
Y81377D02*
X268691D01*
X269091Y81777D01*
X269491Y81377D01*
X269891D01*
Y81777D01*
X269491Y82177D01*
X269891Y82577D01*
Y82977D01*
X269491D01*
X269091Y82577D01*
X268691Y82977D01*
X268291D01*
Y82577D01*
X268691Y82177D01*
X268291Y81777D01*
Y81377D01*
X282070Y53818D02*
X282470D01*
X282870Y54218D01*
X283270Y53818D01*
X283670D01*
Y54218D01*
X283270Y54618D01*
X283670Y55018D01*
Y55418D01*
X283270D01*
X282870Y55018D01*
X282470Y55418D01*
X282070D01*
Y55018D01*
X282470Y54618D01*
X282070Y54218D01*
Y53818D01*
X254511Y274291D02*
X254911D01*
X255311Y274691D01*
X255711Y274291D01*
X256111D01*
Y274691D01*
X255711Y275091D01*
X256111Y275491D01*
Y275891D01*
X255711D01*
X255311Y275491D01*
X254911Y275891D01*
X254511D01*
Y275491D01*
X254911Y275091D01*
X254511Y274691D01*
Y274291D01*
X240732Y246731D02*
X241131D01*
X241531Y247131D01*
X241932Y246731D01*
X242332D01*
Y247131D01*
X241932Y247532D01*
X242332Y247932D01*
Y248331D01*
X241932D01*
X241531Y247932D01*
X241131Y248331D01*
X240732D01*
Y247932D01*
X241131Y247532D01*
X240732Y247131D01*
Y246731D01*
Y191613D02*
X241131D01*
X241531Y192013D01*
X241932Y191613D01*
X242332D01*
Y192013D01*
X241932Y192413D01*
X242332Y192813D01*
Y193213D01*
X241932D01*
X241531Y192813D01*
X241131Y193213D01*
X240732D01*
Y192813D01*
X241131Y192413D01*
X240732Y192013D01*
Y191613D01*
X254511Y164054D02*
X254911D01*
X255311Y164454D01*
X255711Y164054D01*
X256111D01*
Y164454D01*
X255711Y164854D01*
X256111Y165254D01*
Y165654D01*
X255711D01*
X255311Y165254D01*
X254911Y165654D01*
X254511D01*
Y165254D01*
X254911Y164854D01*
X254511Y164454D01*
Y164054D01*
X213173Y246731D02*
X213573D01*
X213972Y247131D01*
X214372Y246731D01*
X214773D01*
Y247131D01*
X214372Y247532D01*
X214773Y247932D01*
Y248331D01*
X214372D01*
X213972Y247932D01*
X213573Y248331D01*
X213173D01*
Y247932D01*
X213573Y247532D01*
X213173Y247131D01*
Y246731D01*
X226952Y219173D02*
X227352D01*
X227752Y219572D01*
X228152Y219173D01*
X228552D01*
Y219572D01*
X228152Y219972D01*
X228552Y220373D01*
Y220773D01*
X228152D01*
X227752Y220373D01*
X227352Y220773D01*
X226952D01*
Y220373D01*
X227352Y219972D01*
X226952Y219572D01*
Y219173D01*
X213173Y26259D02*
X213573D01*
X213972Y26659D01*
X214372Y26259D01*
X214773D01*
Y26659D01*
X214372Y27059D01*
X214773Y27459D01*
Y27859D01*
X214372D01*
X213972Y27459D01*
X213573Y27859D01*
X213173D01*
Y27459D01*
X213573Y27059D01*
X213173Y26659D01*
Y26259D01*
X199393Y274291D02*
X199793D01*
X200193Y274691D01*
X200593Y274291D01*
X200993D01*
Y274691D01*
X200593Y275091D01*
X200993Y275491D01*
Y275891D01*
X200593D01*
X200193Y275491D01*
X199793Y275891D01*
X199393D01*
Y275491D01*
X199793Y275091D01*
X199393Y274691D01*
Y274291D01*
X158054Y246731D02*
X158454D01*
X158854Y247131D01*
X159254Y246731D01*
X159654D01*
Y247131D01*
X159254Y247532D01*
X159654Y247932D01*
Y248331D01*
X159254D01*
X158854Y247932D01*
X158454Y248331D01*
X158054D01*
Y247932D01*
X158454Y247532D01*
X158054Y247131D01*
Y246731D01*
X171834Y219173D02*
X172234D01*
X172634Y219572D01*
X173034Y219173D01*
X173434D01*
Y219572D01*
X173034Y219972D01*
X173434Y220373D01*
Y220773D01*
X173034D01*
X172634Y220373D01*
X172234Y220773D01*
X171834D01*
Y220373D01*
X172234Y219972D01*
X171834Y219572D01*
Y219173D01*
X158054Y26259D02*
X158454D01*
X158854Y26659D01*
X159254Y26259D01*
X159654D01*
Y26659D01*
X159254Y27059D01*
X159654Y27459D01*
Y27859D01*
X159254D01*
X158854Y27459D01*
X158454Y27859D01*
X158054D01*
Y27459D01*
X158454Y27059D01*
X158054Y26659D01*
Y26259D01*
X144275Y274291D02*
X144675D01*
X145075Y274691D01*
X145475Y274291D01*
X145875D01*
Y274691D01*
X145475Y275091D01*
X145875Y275491D01*
Y275891D01*
X145475D01*
X145075Y275491D01*
X144675Y275891D01*
X144275D01*
Y275491D01*
X144675Y275091D01*
X144275Y274691D01*
Y274291D01*
Y164054D02*
X144675D01*
X145075Y164454D01*
X145475Y164054D01*
X145875D01*
Y164454D01*
X145475Y164854D01*
X145875Y165254D01*
Y165654D01*
X145475D01*
X145075Y165254D01*
X144675Y165654D01*
X144275D01*
Y165254D01*
X144675Y164854D01*
X144275Y164454D01*
Y164054D01*
X102936Y246731D02*
X103336D01*
X103736Y247131D01*
X104136Y246731D01*
X104536D01*
Y247131D01*
X104136Y247532D01*
X104536Y247932D01*
Y248331D01*
X104136D01*
X103736Y247932D01*
X103336Y248331D01*
X102936D01*
Y247932D01*
X103336Y247532D01*
X102936Y247131D01*
Y246731D01*
Y26259D02*
X103336D01*
X103736Y26659D01*
X104136Y26259D01*
X104536D01*
Y26659D01*
X104136Y27059D01*
X104536Y27459D01*
Y27859D01*
X104136D01*
X103736Y27459D01*
X103336Y27859D01*
X102936D01*
Y27459D01*
X103336Y27059D01*
X102936Y26659D01*
Y26259D01*
X89157Y274291D02*
X89557D01*
X89957Y274691D01*
X90357Y274291D01*
X90757D01*
Y274691D01*
X90357Y275091D01*
X90757Y275491D01*
Y275891D01*
X90357D01*
X89957Y275491D01*
X89557Y275891D01*
X89157D01*
Y275491D01*
X89557Y275091D01*
X89157Y274691D01*
Y274291D01*
X34039D02*
X34439D01*
X34839Y274691D01*
X35239Y274291D01*
X35639D01*
Y274691D01*
X35239Y275091D01*
X35639Y275491D01*
Y275891D01*
X35239D01*
X34839Y275491D01*
X34439Y275891D01*
X34039D01*
Y275491D01*
X34439Y275091D01*
X34039Y274691D01*
Y274291D01*
X47818Y26259D02*
X48218D01*
X48618Y26659D01*
X49018Y26259D01*
X49418D01*
Y26659D01*
X49018Y27059D01*
X49418Y27459D01*
Y27859D01*
X49018D01*
X48618Y27459D01*
X48218Y27859D01*
X47818D01*
Y27459D01*
X48218Y27059D01*
X47818Y26659D01*
Y26259D01*
X34039Y219173D02*
X34439D01*
X34839Y219572D01*
X35239Y219173D01*
X35639D01*
Y219572D01*
X35239Y219972D01*
X35639Y220373D01*
Y220773D01*
X35239D01*
X34839Y220373D01*
X34439Y220773D01*
X34039D01*
Y220373D01*
X34439Y219972D01*
X34039Y219572D01*
Y219173D01*
X20259Y246731D02*
X20659D01*
X21059Y247131D01*
X21459Y246731D01*
X21859D01*
Y247131D01*
X21459Y247532D01*
X21859Y247932D01*
Y248331D01*
X21459D01*
X21059Y247932D01*
X20659Y248331D01*
X20259D01*
Y247932D01*
X20659Y247532D01*
X20259Y247131D01*
Y246731D01*
X8266Y95622D02*
X8666Y96422D01*
X8266Y97222D01*
X9066Y96822D01*
X9866Y97222D01*
X9466Y96422D01*
X9866Y95622D01*
X9066Y96022D01*
X8266Y95622D01*
X8700Y139700D02*
X9100Y140500D01*
X8700Y141300D01*
X9500Y140900D01*
X10300Y141300D01*
X9900Y140500D01*
X10300Y139700D01*
X9500Y140100D01*
X8700Y139700D01*
Y133200D02*
X9100Y134000D01*
X8700Y134800D01*
X9500Y134400D01*
X10300Y134800D01*
X9900Y134000D01*
X10300Y133200D01*
X9500Y133600D01*
X8700Y133200D01*
X8266Y101872D02*
X8666Y102672D01*
X8266Y103472D01*
X9066Y103072D01*
X9866Y103472D01*
X9466Y102672D01*
X9866Y101872D01*
X9066Y102272D01*
X8266Y101872D01*
Y114372D02*
X8666Y115172D01*
X8266Y115972D01*
X9066Y115572D01*
X9866Y115972D01*
X9466Y115172D01*
X9866Y114372D01*
X9066Y114772D01*
X8266Y114372D01*
Y108122D02*
X8666Y108922D01*
X8266Y109722D01*
X9066Y109322D01*
X9866Y109722D01*
X9466Y108922D01*
X9866Y108122D01*
X9066Y108522D01*
X8266Y108122D01*
X8387Y89186D02*
X8787Y89986D01*
X8387Y90786D01*
X9187Y90386D01*
X9987Y90786D01*
X9587Y89986D01*
X9987Y89186D01*
X9187Y89586D01*
X8387Y89186D01*
X8713Y165012D02*
X9113Y165812D01*
X8713Y166612D01*
X9513Y166212D01*
X10313Y166612D01*
X9913Y165812D01*
X10313Y165012D01*
X9513Y165412D01*
X8713Y165012D01*
Y146012D02*
X9113Y146812D01*
X8713Y147612D01*
X9513Y147212D01*
X10313Y147612D01*
X9913Y146812D01*
X10313Y146012D01*
X9513Y146412D01*
X8713Y146012D01*
Y158512D02*
X9113Y159312D01*
X8713Y160112D01*
X9513Y159712D01*
X10313Y160112D01*
X9913Y159312D01*
X10313Y158512D01*
X9513Y158912D01*
X8713Y158512D01*
Y152262D02*
X9113Y153062D01*
X8713Y153862D01*
X9513Y153462D01*
X10313Y153862D01*
X9913Y153062D01*
X10313Y152262D01*
X9513Y152662D01*
X8713Y152262D01*
Y171262D02*
X9113Y172062D01*
X8713Y172862D01*
X9513Y172462D01*
X10313Y172862D01*
X9913Y172062D01*
X10313Y171262D01*
X9513Y171662D01*
X8713Y171262D01*
Y177512D02*
X9113Y178312D01*
X8713Y179112D01*
X9513Y178712D01*
X10313Y179112D01*
X9913Y178312D01*
X10313Y177512D01*
X9513Y177912D01*
X8713Y177512D01*
Y190012D02*
X9113Y190812D01*
X8713Y191612D01*
X9513Y191212D01*
X10313Y191612D01*
X9913Y190812D01*
X10313Y190012D01*
X9513Y190412D01*
X8713Y190012D01*
Y183762D02*
X9113Y184562D01*
X8713Y185362D01*
X9513Y184962D01*
X10313Y185362D01*
X9913Y184562D01*
X10313Y183762D01*
X9513Y184162D01*
X8713Y183762D01*
D38*
X158800Y265317D02*
X158247Y266078D01*
X157353Y265787D01*
Y264847D01*
X158247Y264556D01*
X158800Y265317D01*
Y225317D02*
X158247Y226078D01*
X157353Y225787D01*
Y224847D01*
X158247Y224556D01*
X158800Y225317D01*
X198800D02*
X198247Y226078D01*
X197353Y225787D01*
Y224847D01*
X198247Y224556D01*
X198800Y225317D01*
Y265317D02*
X198247Y266078D01*
X197353Y265787D01*
Y264847D01*
X198247Y264556D01*
X198800Y265317D01*
X51666Y265282D02*
X51113Y266042D01*
X50219Y265752D01*
Y264811D01*
X51113Y264521D01*
X51666Y265282D01*
Y225282D02*
X51113Y226042D01*
X50219Y225752D01*
Y224811D01*
X51113Y224521D01*
X51666Y225282D01*
X91666D02*
X91113Y226042D01*
X90219Y225752D01*
Y224811D01*
X91113Y224521D01*
X91666Y225282D01*
Y265282D02*
X91113Y266042D01*
X90219Y265752D01*
Y264811D01*
X91113Y264521D01*
X91666Y265282D01*
X251300Y265317D02*
X250747Y266078D01*
X249853Y265787D01*
Y264847D01*
X250747Y264556D01*
X251300Y265317D01*
Y225317D02*
X250747Y226078D01*
X249853Y225787D01*
Y224847D01*
X250747Y224556D01*
X251300Y225317D01*
X211300D02*
X210747Y226078D01*
X209853Y225787D01*
Y224847D01*
X210747Y224556D01*
X211300Y225317D01*
Y265317D02*
X210747Y266078D01*
X209853Y265787D01*
Y264847D01*
X210747Y264556D01*
X211300Y265317D01*
X144300D02*
X143747Y266078D01*
X142853Y265787D01*
Y264847D01*
X143747Y264556D01*
X144300Y265317D01*
Y225317D02*
X143747Y226078D01*
X142853Y225787D01*
Y224847D01*
X143747Y224556D01*
X144300Y225317D01*
X104300D02*
X103747Y226078D01*
X102853Y225787D01*
Y224847D01*
X103747Y224556D01*
X104300Y225317D01*
Y265317D02*
X103747Y266078D01*
X102853Y265787D01*
Y264847D01*
X103747Y264556D01*
X104300Y265317D01*
M02*
