G04*
G04 #@! TF.GenerationSoftware,Altium Limited,Altium Designer,23.0.1 (38)*
G04*
G04 Layer_Color=65535*
%FSLAX25Y25*%
%MOIN*%
G70*
G04*
G04 #@! TF.SameCoordinates,6CF20236-6BE3-4E0F-A595-27D61DE2D083*
G04*
G04*
G04 #@! TF.FilePolarity,Positive*
G04*
G01*
G75*
%ADD10C,0.01968*%
%ADD11C,0.00013*%
%ADD12C,0.00787*%
%ADD13C,0.00197*%
%ADD14C,0.00394*%
%ADD15C,0.01000*%
G36*
X47903Y153787D02*
Y152502D01*
X39345D01*
X39216Y152513D01*
X39196Y152514D01*
X39084Y152509D01*
X38495Y152480D01*
X38362Y152471D01*
X38166Y152460D01*
X38037Y152437D01*
X37992Y152429D01*
X37859Y152410D01*
Y152410D01*
X37574Y152353D01*
X37444Y152327D01*
X37362Y152311D01*
X37308Y152293D01*
X37189Y152261D01*
X37180Y152258D01*
X37180Y152258D01*
X37168Y152256D01*
X37066Y152213D01*
X37066Y152212D01*
X36845Y152121D01*
X36843Y152124D01*
X36645Y152018D01*
Y152018D01*
X36644Y152018D01*
X36507Y151945D01*
X36463Y151908D01*
X36463Y151908D01*
X36464Y151907D01*
X36248Y151730D01*
X36115Y151567D01*
X36112Y151564D01*
X36109Y151560D01*
X36036Y151471D01*
X36030Y151464D01*
X36030D01*
X35991Y151391D01*
X35929Y151276D01*
X35929Y151276D01*
X35928Y151274D01*
Y151274D01*
X35840Y151110D01*
X35828Y151073D01*
X35798Y150975D01*
X35760Y150849D01*
X35757Y150850D01*
X35700Y150611D01*
X35700Y150611D01*
X35670Y150488D01*
X35665Y150466D01*
X35656Y150356D01*
X35656D01*
X35634Y150083D01*
X35626Y149949D01*
X35616Y149797D01*
X35616Y149793D01*
X35616D01*
X35628Y149667D01*
X35663Y149224D01*
X35807Y148621D01*
X36044Y148049D01*
X36302Y147629D01*
X36298Y147627D01*
X36782Y146975D01*
X37359Y146338D01*
X37996Y145761D01*
X38221Y145594D01*
X38222Y145594D01*
X38226Y145593D01*
X47908D01*
Y144213D01*
X39349D01*
X39216Y144218D01*
X39098Y144224D01*
X39084Y144223D01*
X38220Y144181D01*
X37584Y144086D01*
X37583Y144089D01*
X37480Y144079D01*
X37451Y144070D01*
X36959Y143921D01*
X36576Y143716D01*
X36478Y143664D01*
X36460Y143649D01*
X36460Y143649D01*
X36464Y143642D01*
X36242Y143460D01*
X36013Y143181D01*
X35876Y142924D01*
X35842Y142862D01*
X35824Y142801D01*
X35775Y142678D01*
X35772Y142673D01*
X35650Y142164D01*
X35612Y141676D01*
X35609Y141641D01*
X35612Y141543D01*
X35612D01*
X35654Y141003D01*
X35788Y140447D01*
X36007Y139919D01*
X36292Y139453D01*
X36299Y139458D01*
X36668Y138961D01*
X37310Y138252D01*
X38019Y137610D01*
X38215Y137464D01*
X38216Y137467D01*
X38221Y137465D01*
X47903D01*
Y136085D01*
X34603D01*
Y137465D01*
X36285D01*
X36408Y137465D01*
X36573D01*
X36578Y137467D01*
X36578Y137467D01*
X36580Y137472D01*
X36580Y137472D01*
X36580Y137472D01*
X36585Y137486D01*
X36460Y137599D01*
Y137599D01*
X36368Y137682D01*
X36123Y137904D01*
X35535Y138552D01*
X35358Y138791D01*
X35358D01*
X35344Y138794D01*
X34914Y139437D01*
X34663Y139947D01*
X34663Y139947D01*
Y139947D01*
X34484Y140379D01*
X34341Y140973D01*
X34348Y140983D01*
D01*
X34348Y140983D01*
X34348Y140983D01*
X34302Y141248D01*
X34272Y141789D01*
X34269Y141923D01*
X34269D01*
X34259Y142052D01*
X34307Y142672D01*
X34453Y143276D01*
X34690Y143850D01*
X34800Y144028D01*
X34869Y144142D01*
X34941Y144255D01*
X35258Y144625D01*
X35662Y144970D01*
X36114Y145248D01*
X36565Y145435D01*
X36576Y145439D01*
X36608Y145452D01*
X36697Y145473D01*
X36703Y145503D01*
X36483Y145651D01*
X35873Y146186D01*
X35511Y146599D01*
X35510Y146598D01*
X35386Y146739D01*
X34972Y147358D01*
X34767Y147775D01*
X34766Y147774D01*
X34678Y147952D01*
X34459Y148596D01*
X34384Y148975D01*
X34383Y148975D01*
X34303Y149445D01*
X34271Y150016D01*
X34264Y150148D01*
X34264D01*
X34264Y150150D01*
X34265Y150281D01*
X34312Y150884D01*
X34427Y151362D01*
X34457Y151486D01*
X34506Y151607D01*
X34637Y151924D01*
X34705Y152039D01*
Y152039D01*
X34882Y152329D01*
X35190Y152690D01*
X35550Y152997D01*
X35885Y153202D01*
X36005Y153260D01*
X36309Y153410D01*
X36632Y153520D01*
X36632Y153520D01*
X36632Y153520D01*
X36925Y153619D01*
X37226Y153679D01*
X37356Y153705D01*
X37488Y153728D01*
X37939Y153805D01*
X38177Y153819D01*
X38310Y153828D01*
X39067Y153866D01*
X39096Y153864D01*
X39096Y153865D01*
X47808Y153882D01*
X47903Y153787D01*
D02*
G37*
G36*
Y130868D02*
X39348D01*
X39216Y130874D01*
X39118Y130879D01*
X39083Y130877D01*
X38336Y130835D01*
X37607Y130711D01*
X37607Y130711D01*
X37148Y130572D01*
X36680Y130322D01*
X36593Y130251D01*
X36490Y130167D01*
X36490Y130167D01*
X36368Y130067D01*
X36086Y129723D01*
X35877Y129331D01*
X35873Y129321D01*
X35824Y129197D01*
X35818Y129181D01*
X35791Y129067D01*
X35659Y128520D01*
X35607Y127860D01*
X35606Y127842D01*
X35610Y127727D01*
X35610D01*
X35658Y127122D01*
X35805Y126508D01*
X36047Y125925D01*
X36289Y125530D01*
X36282Y125525D01*
X36291Y125510D01*
X36360Y125417D01*
X36885Y124709D01*
X37555Y123970D01*
X38179Y123404D01*
X38183Y123408D01*
X38187Y123406D01*
X47903D01*
Y122027D01*
X29105D01*
Y123406D01*
X36285Y123414D01*
X36409Y123414D01*
X36409D01*
X36573Y123415D01*
X36578Y123417D01*
X36580Y123422D01*
X36580Y123422D01*
X36585Y123436D01*
X36460Y123548D01*
X36368Y123631D01*
X36138Y123836D01*
X35509Y124540D01*
X35381Y124720D01*
X35375Y124721D01*
X35001Y125282D01*
X34731Y125827D01*
X34675Y125946D01*
X34631Y126071D01*
X34456Y126586D01*
X34382Y126957D01*
X34359Y127089D01*
X34303Y127417D01*
X34272Y127983D01*
X34266Y128115D01*
X34266D01*
X34264Y128135D01*
X34266Y128248D01*
X34306Y128874D01*
X34426Y129472D01*
X34462Y129601D01*
X34495Y129729D01*
X34699Y130221D01*
X34699D01*
X34699Y130221D01*
X34699Y130222D01*
X34969Y130663D01*
X35309Y131062D01*
X35707Y131402D01*
X36154Y131676D01*
X36506Y131821D01*
X36632Y131865D01*
X37070Y132013D01*
X37357Y132070D01*
X37488Y132098D01*
X38031Y132190D01*
X38177Y132198D01*
Y132198D01*
X38310Y132209D01*
X39074Y132247D01*
X39096Y132246D01*
X39096Y132248D01*
X39096Y132248D01*
X47903D01*
Y130868D01*
D02*
G37*
G36*
X26729Y130654D02*
X26836Y130632D01*
X27018Y130511D01*
X27090Y130408D01*
X27149Y130321D01*
X27192Y130103D01*
Y130103D01*
X27194Y130100D01*
Y123846D01*
X27194D01*
X27142Y123452D01*
X26989Y123082D01*
X26746Y122765D01*
X26428Y122522D01*
X26059Y122369D01*
X25792Y122333D01*
X25662Y122317D01*
X25529Y122317D01*
X4552D01*
X4552Y122328D01*
X4321Y122282D01*
X4125Y122151D01*
X3994Y121955D01*
X3949Y121727D01*
X3959Y121727D01*
X3960Y121727D01*
Y104478D01*
X3959Y104478D01*
X3949Y104478D01*
X3994Y104250D01*
X4125Y104054D01*
X4321Y103923D01*
X4552Y103877D01*
X4552Y103877D01*
X4682Y103888D01*
X25648D01*
X25648Y103888D01*
X25648Y103887D01*
X25662Y103889D01*
X26059Y103837D01*
X26428Y103683D01*
X26738Y103446D01*
X26818Y103346D01*
X26989Y103123D01*
X27142Y102753D01*
X27194Y102362D01*
X27194Y102362D01*
Y87481D01*
X27192D01*
X27149Y87260D01*
X27094Y87178D01*
X27024Y87073D01*
X26836Y86948D01*
X26616Y86905D01*
X26395Y86948D01*
X26313Y87003D01*
X26208Y87073D01*
X26083Y87260D01*
X26039Y87481D01*
X26037D01*
Y102012D01*
X26048Y102142D01*
X26049Y102145D01*
X26003Y102374D01*
X25872Y102569D01*
X25677Y102700D01*
X25448Y102745D01*
Y102734D01*
X4471D01*
X4338Y102735D01*
X4210Y102751D01*
X3942Y102786D01*
X3573Y102939D01*
X3257Y103182D01*
X3256Y103182D01*
X3256Y103183D01*
X3013Y103499D01*
X2860Y103868D01*
X2808Y104263D01*
X2808Y104264D01*
Y121941D01*
X2808Y121942D01*
X2860Y122337D01*
X3013Y122706D01*
X3256Y123022D01*
X3256Y123022D01*
X3257Y123023D01*
X3573Y123266D01*
X3942Y123418D01*
X4208Y123454D01*
X4338Y123470D01*
X25307D01*
X25436Y123459D01*
X25436Y123459D01*
X25666Y123505D01*
X25861Y123635D01*
X25862Y123637D01*
X25992Y123830D01*
X26037Y124060D01*
X26037Y124063D01*
X26026Y124193D01*
Y130100D01*
X26029Y130103D01*
X26029D01*
X26029Y130103D01*
X26072Y130320D01*
X26197Y130507D01*
X26384Y130632D01*
X26480Y130651D01*
X26605Y130674D01*
X26610Y130675D01*
X26729Y130654D01*
D02*
G37*
G36*
X42278Y118620D02*
X43298Y118468D01*
X44188Y118245D01*
X44193Y118237D01*
Y118237D01*
X44426Y118170D01*
X45080Y117899D01*
X45700Y117557D01*
X46277Y117147D01*
X46396Y117041D01*
X46394Y117038D01*
X46672Y116794D01*
X47116Y116288D01*
X47490Y115728D01*
X47768Y115166D01*
X47764Y115156D01*
D01*
Y115156D01*
Y115156D01*
X47864Y114915D01*
X48071Y114195D01*
X48197Y113456D01*
X48239Y112708D01*
X48197Y111960D01*
X48071Y111221D01*
X47864Y110501D01*
X47764Y110260D01*
X47768Y110248D01*
X47488Y109679D01*
X47124Y109135D01*
X46692Y108642D01*
X46402Y108389D01*
X46404Y108387D01*
X46273Y108270D01*
X45690Y107856D01*
X45064Y107510D01*
X44403Y107236D01*
X44202Y107178D01*
X44197Y107170D01*
X43286Y106942D01*
X42268Y106791D01*
X41240Y106740D01*
X40212Y106791D01*
X39194Y106942D01*
X38283Y107170D01*
X38279Y107178D01*
X38279D01*
X37733Y107363D01*
X37006Y107721D01*
X36332Y108172D01*
X36095Y108380D01*
X36095Y108380D01*
X35825Y108617D01*
X35383Y109121D01*
X35011Y109678D01*
X34726Y110257D01*
X34726Y110257D01*
X34726D01*
X34723Y110258D01*
X34470Y111001D01*
X34312Y111796D01*
X34263Y112545D01*
X34267Y112679D01*
X34266Y112812D01*
X34302Y113461D01*
X34420Y114154D01*
X34614Y114829D01*
X34748Y115153D01*
X34744Y115164D01*
X35021Y115726D01*
X35392Y116281D01*
X35832Y116783D01*
X36117Y117033D01*
X36117Y117033D01*
X36355Y117242D01*
X37032Y117694D01*
X37762Y118054D01*
X38304Y118238D01*
X38304Y118238D01*
Y118238D01*
X38308Y118245D01*
X39199Y118468D01*
X40219Y118620D01*
X41249Y118670D01*
X42278Y118620D01*
D02*
G37*
G36*
X47903Y89984D02*
X46092D01*
X30697Y102607D01*
X30601Y102686D01*
X30479Y102786D01*
X30477Y102787D01*
X30475Y102787D01*
X30474Y102787D01*
X30474Y102787D01*
X30472Y102786D01*
X30470Y102785D01*
X30470Y102785D01*
X30469Y102785D01*
X30469Y102785D01*
X30468Y102783D01*
X30468Y102780D01*
Y102641D01*
Y102499D01*
Y91110D01*
X29105D01*
Y104201D01*
X30935D01*
X46313Y91555D01*
X46409Y91477D01*
X46409D01*
X46531Y91376D01*
X46533Y91375D01*
X46535Y91375D01*
X46536Y91375D01*
X46536Y91375D01*
X46536Y91375D01*
X46538Y91376D01*
X46540Y91377D01*
X46540Y91377D01*
X46541Y91377D01*
X46541Y91377D01*
X46542Y91380D01*
X46543Y91382D01*
Y91540D01*
X46543Y91664D01*
Y104558D01*
X47903D01*
Y89984D01*
D02*
G37*
G36*
Y86002D02*
X46340D01*
X46192Y86002D01*
X46187Y86000D01*
X46178Y85982D01*
X46281Y85868D01*
X46364Y85777D01*
X46410Y85726D01*
X46958Y84987D01*
X47196Y84590D01*
Y84590D01*
X47266Y84477D01*
X47552Y83959D01*
X47786Y83396D01*
X47831Y83270D01*
X47873Y83147D01*
X48005Y82759D01*
X48133Y82116D01*
X48147Y81983D01*
X48198Y81638D01*
X48239Y80819D01*
X48241Y80686D01*
X48237Y80554D01*
X48201Y79996D01*
X48074Y79356D01*
X47969Y79047D01*
X47926Y78921D01*
X47760Y78522D01*
X47440Y77998D01*
X47217Y77738D01*
X47218Y77738D01*
X47079Y77575D01*
X46660Y77217D01*
X46190Y76929D01*
X46037Y76866D01*
Y76866D01*
X45915Y76815D01*
X45669Y76714D01*
X45120Y76582D01*
X44642Y76544D01*
X44508Y76543D01*
Y76543D01*
X44465Y76540D01*
X44375Y76537D01*
X43777Y76584D01*
X43167Y76731D01*
X42587Y76971D01*
X42051Y77299D01*
X41574Y77707D01*
X41166Y78185D01*
X40970Y78504D01*
X40897Y78613D01*
X40817Y78732D01*
X40565Y79244D01*
X40513Y79367D01*
X40363Y79730D01*
X40323Y79857D01*
X40209Y80178D01*
X40156Y80387D01*
X40156D01*
X40156Y80387D01*
X40046Y80825D01*
X40019Y80957D01*
X40019D01*
X39924Y81387D01*
X39900Y81564D01*
X39899Y81565D01*
X39831Y82081D01*
X39816Y82213D01*
X39800Y82346D01*
X39750Y82767D01*
X39750Y82768D01*
X39744Y82900D01*
X39736Y83034D01*
X39719Y83494D01*
X39715Y83628D01*
X39710Y83762D01*
X39690Y84385D01*
X39690Y84394D01*
X39689D01*
X39689Y85987D01*
Y85987D01*
X39689Y85987D01*
X39687Y85992D01*
X39686Y85992D01*
X39682Y86001D01*
X39608Y86004D01*
X39608D01*
X39562Y86002D01*
X38601Y85961D01*
X38199Y85908D01*
X38066Y85893D01*
X37967Y85885D01*
X37933Y85877D01*
X37524Y85779D01*
X37104Y85605D01*
X36781Y85407D01*
X36681Y85325D01*
X36487Y85165D01*
X36176Y84787D01*
X35976Y84411D01*
X35946Y84355D01*
X35925Y84287D01*
X35925Y84287D01*
X35930Y84285D01*
X35790Y83872D01*
X35651Y83176D01*
X35605Y82469D01*
X35610Y82389D01*
X35609Y82256D01*
X35608Y82238D01*
X35614Y82124D01*
X35642Y81539D01*
X35651Y81405D01*
X35662Y81208D01*
X35662D01*
X35666Y81178D01*
X35683Y81078D01*
X35713Y80902D01*
X35708Y80896D01*
X35742Y80728D01*
X35766Y80606D01*
X35766Y80606D01*
X35767Y80604D01*
X35791Y80481D01*
X35822Y80328D01*
X35832Y80322D01*
X35861Y80199D01*
X35886Y80095D01*
X35896Y80072D01*
X35898Y80072D01*
X35994Y79839D01*
X35994D01*
X36086Y79617D01*
X36093Y79621D01*
X36200Y79420D01*
X36200D01*
X36244Y79339D01*
X36270Y79308D01*
X36541Y78978D01*
X36902Y78681D01*
X37315Y78461D01*
X37762Y78325D01*
X37974Y78304D01*
Y77055D01*
X37896Y76983D01*
X37840Y76968D01*
X37394Y77057D01*
X37267Y77082D01*
X37137Y77115D01*
X36940Y77182D01*
D01*
X36940D01*
X36940D01*
X36927Y77176D01*
X36755Y77247D01*
X36632Y77298D01*
Y77298D01*
X36391Y77398D01*
X35925Y77684D01*
X35530Y78021D01*
X35262Y78335D01*
X35180Y78437D01*
X35112Y78546D01*
X34909Y78877D01*
X34857Y79001D01*
X34763Y79191D01*
X34722Y79300D01*
X34716Y79317D01*
X34673Y79441D01*
X34599Y79660D01*
X34599Y79660D01*
X34527Y79872D01*
X34496Y80027D01*
X34463Y80156D01*
X34418Y80420D01*
X34418D01*
X34418Y80420D01*
X34369Y80705D01*
X34352Y80838D01*
X34313Y81098D01*
X34304Y81280D01*
X34304Y81281D01*
X34287Y81616D01*
X34281Y81749D01*
X34266Y82108D01*
X34269Y82242D01*
X34260Y82413D01*
X34305Y83224D01*
X34441Y84025D01*
X34612Y84618D01*
X34607Y84628D01*
X34839Y85188D01*
X35165Y85720D01*
X35501Y86113D01*
X35594Y86207D01*
X35964Y86524D01*
X36474Y86836D01*
X37025Y87064D01*
X37152Y87094D01*
X37153Y87091D01*
X37534Y87201D01*
X38328Y87336D01*
X39132Y87381D01*
X39216Y87376D01*
X39216Y87382D01*
X39216Y87382D01*
X47903D01*
Y86002D01*
D02*
G37*
G36*
X35638Y74456D02*
X35621Y74281D01*
X35609Y74162D01*
X35611Y74147D01*
X35620Y74017D01*
Y73773D01*
X35612Y73643D01*
X35612Y73638D01*
X35622Y73513D01*
X35647Y73192D01*
X35752Y72757D01*
X35861Y72494D01*
X35856Y72492D01*
X36103Y71992D01*
X36405Y71539D01*
X36464Y71451D01*
X36482Y71430D01*
X36553Y71338D01*
X37045Y70787D01*
X37266Y70590D01*
X37365Y70501D01*
X37365Y70501D01*
X37366Y70501D01*
X37466Y70412D01*
X37656Y70241D01*
X38253Y69818D01*
X38276Y69802D01*
X38368Y69751D01*
X38370Y69756D01*
X38374Y69754D01*
X47903D01*
Y68375D01*
X34603D01*
Y69754D01*
X36141D01*
X36265Y69754D01*
X36425D01*
X36426Y69753D01*
X36430Y69754D01*
X36433D01*
X36439Y69756D01*
X36441Y69762D01*
X36441Y69762D01*
X36444Y69774D01*
X36316Y69888D01*
X36224Y69971D01*
X35965Y70201D01*
X35430Y70801D01*
X35331Y70940D01*
X35251Y71047D01*
X34901Y71570D01*
X34663Y72053D01*
X34663Y72053D01*
X34486Y72479D01*
X34339Y73090D01*
X34343Y73096D01*
X34313Y73248D01*
X34263Y74011D01*
Y74011D01*
X34260Y74014D01*
Y74270D01*
X34285Y74542D01*
X35548Y74555D01*
X35638Y74456D01*
D02*
G37*
G36*
X48023Y65391D02*
X48041Y65221D01*
X48052Y65103D01*
X48062Y64985D01*
X48066Y64943D01*
X48063Y64808D01*
X48074Y64633D01*
X48074Y64633D01*
X48090Y64499D01*
X48090Y64456D01*
Y64456D01*
X48091Y64397D01*
X48092Y64349D01*
X48082Y64220D01*
X48093Y64081D01*
X48050Y63536D01*
X47922Y63005D01*
X47830Y62782D01*
X47833Y62773D01*
X47684Y62495D01*
X47468Y62231D01*
X47204Y62015D01*
X47092Y61955D01*
Y61955D01*
X46975Y61889D01*
X46564Y61719D01*
X46074Y61601D01*
X45856Y61584D01*
X45856Y61583D01*
X45426Y61532D01*
X44235Y61485D01*
X44112Y61490D01*
X44112Y61485D01*
X44112Y61485D01*
X35971D01*
X35965Y61483D01*
X35963Y61478D01*
Y59770D01*
X34603D01*
Y61478D01*
X34601Y61483D01*
X34596Y61485D01*
X31112D01*
Y62865D01*
X34593D01*
X34598Y62867D01*
X34600Y62872D01*
Y65064D01*
X35960D01*
Y62872D01*
X35963Y62867D01*
X35968Y62865D01*
X44225D01*
X44229Y62860D01*
Y62860D01*
X44229Y62860D01*
X44365Y62851D01*
X45107Y62900D01*
X45547Y62987D01*
X45548Y62980D01*
X45867Y63077D01*
X46163Y63235D01*
X46305Y63351D01*
X46306Y63352D01*
X46306Y63352D01*
X46306Y63352D01*
X46308Y63350D01*
X46358Y63388D01*
X46400Y63443D01*
X46534Y63618D01*
X46620Y63825D01*
X46644Y63884D01*
X46653Y63952D01*
X46683Y64081D01*
X46694Y64128D01*
X46734Y64626D01*
X46741Y64714D01*
X46737Y64760D01*
X46729Y64891D01*
Y65088D01*
Y65088D01*
X46729Y65145D01*
X46729Y65175D01*
X46729Y65175D01*
X46728Y65205D01*
X46728Y65206D01*
X46727Y65265D01*
X46727Y65269D01*
X46778Y65342D01*
X46844Y65393D01*
X48023Y65391D01*
D02*
G37*
G36*
X3737Y98405D02*
X3914Y98332D01*
X4016Y98254D01*
X4023Y98263D01*
X4024Y98263D01*
X26629Y81560D01*
X26632Y81543D01*
Y81543D01*
X26788Y81423D01*
X27009Y81135D01*
X27147Y80801D01*
X27187Y80501D01*
Y80501D01*
X27194Y80494D01*
Y63435D01*
X27194D01*
X27142Y63041D01*
X26989Y62672D01*
X26746Y62354D01*
X26428Y62111D01*
X26059Y61958D01*
X25792Y61923D01*
X25662Y61906D01*
Y61906D01*
X3501D01*
Y61908D01*
X3280Y61952D01*
X3093Y62076D01*
X3023Y62181D01*
X2968Y62264D01*
X2950Y62355D01*
X2925Y62484D01*
X2925D01*
X2968Y62702D01*
X3093Y62889D01*
X3280Y63014D01*
X3501Y63058D01*
X3501Y63060D01*
X25304D01*
X25434Y63049D01*
X25434D01*
X25664Y63094D01*
X25859Y63225D01*
X25859Y63226D01*
Y63226D01*
X25989Y63420D01*
X26035Y63650D01*
X26034Y63652D01*
X26024Y63782D01*
Y80502D01*
X26023Y80504D01*
X26015Y80547D01*
X25959Y80630D01*
X25959Y80630D01*
X25956Y80630D01*
X4315Y96601D01*
X4211Y96684D01*
X4113Y96724D01*
X4112Y96724D01*
X3989Y96674D01*
X3938Y96551D01*
X3939Y96550D01*
X3940Y96548D01*
X3951Y96418D01*
Y81416D01*
X3940D01*
X3986Y81186D01*
X4117Y80990D01*
X4313Y80859D01*
X4544Y80813D01*
X4555Y80824D01*
X19567D01*
X19567Y80824D01*
X19567Y80821D01*
X19570Y80822D01*
X19789Y80778D01*
X19975Y80654D01*
X20100Y80468D01*
X20144Y80248D01*
X20144D01*
X20119Y80122D01*
X20100Y80028D01*
X19975Y79841D01*
X19870Y79770D01*
X19788Y79716D01*
X19567Y79672D01*
Y79670D01*
X4338D01*
X4337Y79670D01*
X3942Y79722D01*
X3573Y79875D01*
X3257Y80117D01*
X3256Y80118D01*
X3256Y80118D01*
X3013Y80434D01*
X2860Y80803D01*
X2808Y81199D01*
X2808Y81199D01*
Y97650D01*
X2820Y97651D01*
X2813Y97697D01*
X2839Y97887D01*
X2912Y98064D01*
X3028Y98216D01*
X3180Y98332D01*
X3357Y98405D01*
X3547Y98431D01*
X3737Y98405D01*
D02*
G37*
G36*
X47903Y55142D02*
X29105D01*
Y56521D01*
X47903D01*
Y55142D01*
D02*
G37*
G36*
X41506Y50237D02*
X42792Y50085D01*
X43492Y49945D01*
X43492Y49947D01*
X43702Y49911D01*
X44383Y49715D01*
X45039Y49443D01*
X45659Y49100D01*
X46073Y48807D01*
Y48807D01*
X46073Y48807D01*
X46079Y48808D01*
X46513Y48427D01*
X46951Y47927D01*
X47320Y47375D01*
X47614Y46779D01*
X47678Y46590D01*
X47676Y46590D01*
X47831Y46158D01*
X48062Y45234D01*
X48202Y44291D01*
X48249Y43340D01*
X48235Y43051D01*
X48237Y43050D01*
X48247Y42843D01*
X48197Y41821D01*
X48047Y40808D01*
X47883Y40155D01*
X47891Y40141D01*
X47639Y39400D01*
X47283Y38678D01*
X47008Y38267D01*
X46935Y38157D01*
Y38157D01*
X46856Y38050D01*
X46487Y37628D01*
X46023Y37222D01*
X45540Y36899D01*
X45531Y36901D01*
X45531D01*
Y36901D01*
X45062Y36642D01*
X44335Y36341D01*
X43818Y36192D01*
X43817Y36193D01*
Y36193D01*
X43817Y36193D01*
X43238Y36048D01*
X42291Y35907D01*
X41931Y35889D01*
X41919Y35877D01*
X41357Y35847D01*
X41348Y35855D01*
Y35855D01*
X41348Y35855D01*
X40909Y35843D01*
X40775Y35839D01*
Y35839D01*
X40211Y35822D01*
X40205Y35817D01*
X40025Y35816D01*
X29105D01*
Y37196D01*
X39970D01*
X39971Y37194D01*
Y37194D01*
X39971Y37194D01*
X40299Y37180D01*
X41427Y37229D01*
X42547Y37376D01*
X43471Y37581D01*
X43471Y37581D01*
X43548Y37596D01*
X43601Y37614D01*
X44145Y37799D01*
X44711Y38078D01*
X45236Y38429D01*
X45579Y38730D01*
X45586Y38723D01*
X45985Y39190D01*
X46307Y39715D01*
X46542Y40283D01*
X46580Y40442D01*
X46612Y40572D01*
X46706Y40948D01*
X46854Y41944D01*
X46903Y42950D01*
X46899Y43058D01*
X46904Y43157D01*
X46902Y43191D01*
X46853Y44192D01*
X46701Y45218D01*
X46613Y45570D01*
X46612Y45569D01*
X46611Y45570D01*
X46538Y45877D01*
X46311Y46424D01*
X46001Y46930D01*
X45668Y47319D01*
X45616Y47380D01*
X45575Y47416D01*
X45570Y47410D01*
X45570Y47410D01*
X45570Y47410D01*
X45472Y47497D01*
X45282Y47663D01*
X44746Y48021D01*
X44168Y48306D01*
X43592Y48501D01*
X43558Y48513D01*
X43463Y48532D01*
X43462Y48531D01*
X42591Y48724D01*
X41456Y48873D01*
X40312Y48923D01*
X39971Y48908D01*
X39971D01*
X39970Y48907D01*
X29105D01*
Y50287D01*
X40027D01*
X40027Y50287D01*
X40028Y50280D01*
X40213Y50287D01*
X41506Y50237D01*
D02*
G37*
G36*
X66937Y201339D02*
Y118661D01*
X59063D01*
Y201339D01*
X66937D01*
D02*
G37*
G36*
X44302Y27542D02*
X45768Y27250D01*
Y26733D01*
X44302Y27032D01*
Y25953D01*
X45768Y25654D01*
Y25144D01*
X44302Y25435D01*
Y24859D01*
X43792D01*
Y25545D01*
X42538Y25800D01*
Y24859D01*
X42028D01*
Y25902D01*
X40548Y26208D01*
Y26718D01*
X42028Y26419D01*
Y27491D01*
X40548Y27797D01*
Y28315D01*
X42028Y28009D01*
Y28614D01*
X42538D01*
Y27907D01*
X43792Y27652D01*
Y28614D01*
X44302D01*
Y27542D01*
D02*
G37*
G36*
X45680Y21710D02*
X40636D01*
Y22330D01*
X45680D01*
Y21710D01*
D02*
G37*
G36*
Y20311D02*
X45673Y20303D01*
X45644Y20296D01*
X45607Y20281D01*
X45549Y20259D01*
X45483Y20238D01*
X45403Y20223D01*
X45316Y20208D01*
X45221Y20194D01*
Y20187D01*
X45236Y20179D01*
X45272Y20135D01*
X45323Y20070D01*
X45389Y19982D01*
X45454Y19873D01*
X45527Y19764D01*
X45593Y19647D01*
X45644Y19523D01*
X45651Y19509D01*
X45658Y19465D01*
X45680Y19399D01*
X45702Y19319D01*
X45724Y19217D01*
X45739Y19100D01*
X45753Y18969D01*
X45760Y18838D01*
Y18780D01*
X45753Y18736D01*
Y18685D01*
X45746Y18627D01*
X45724Y18495D01*
X45687Y18350D01*
X45636Y18189D01*
X45564Y18043D01*
X45469Y17912D01*
X45454Y17898D01*
X45418Y17861D01*
X45352Y17810D01*
X45265Y17752D01*
X45155Y17693D01*
X45031Y17642D01*
X44878Y17606D01*
X44805Y17599D01*
X44718Y17591D01*
X44703D01*
X44674D01*
X44623Y17599D01*
X44558Y17606D01*
X44477Y17620D01*
X44397Y17642D01*
X44310Y17672D01*
X44230Y17708D01*
X44222Y17715D01*
X44193Y17730D01*
X44149Y17759D01*
X44098Y17795D01*
X44040Y17839D01*
X43982Y17898D01*
X43923Y17956D01*
X43872Y18029D01*
X43865Y18036D01*
X43850Y18065D01*
X43821Y18102D01*
X43792Y18160D01*
X43763Y18225D01*
X43727Y18306D01*
X43697Y18386D01*
X43668Y18481D01*
Y18488D01*
X43661Y18517D01*
X43646Y18561D01*
X43639Y18619D01*
X43624Y18692D01*
X43610Y18787D01*
X43588Y18896D01*
X43573Y19027D01*
Y19035D01*
X43566Y19064D01*
Y19100D01*
X43559Y19151D01*
X43552Y19210D01*
X43537Y19283D01*
X43530Y19363D01*
X43515Y19450D01*
X43479Y19625D01*
X43442Y19815D01*
X43398Y19982D01*
X43377Y20063D01*
X43355Y20135D01*
X43347D01*
X43333D01*
X43289Y20143D01*
X43238D01*
X43209D01*
X43194D01*
X43187D01*
X43180D01*
X43136D01*
X43063Y20135D01*
X42983Y20121D01*
X42895Y20099D01*
X42808Y20063D01*
X42728Y20019D01*
X42662Y19961D01*
X42655Y19953D01*
X42626Y19917D01*
X42597Y19859D01*
X42553Y19786D01*
X42516Y19683D01*
X42480Y19567D01*
X42458Y19421D01*
X42451Y19253D01*
Y19181D01*
X42458Y19108D01*
X42473Y19006D01*
X42487Y18903D01*
X42516Y18794D01*
X42553Y18692D01*
X42604Y18605D01*
X42611Y18597D01*
X42633Y18568D01*
X42669Y18532D01*
X42728Y18488D01*
X42801Y18444D01*
X42895Y18393D01*
X43012Y18350D01*
X43143Y18306D01*
X43063Y17701D01*
X43056D01*
X43049Y17708D01*
X43027D01*
X42998Y17715D01*
X42932Y17737D01*
X42837Y17766D01*
X42742Y17803D01*
X42640Y17846D01*
X42538Y17905D01*
X42443Y17970D01*
X42436Y17978D01*
X42407Y18007D01*
X42363Y18051D01*
X42305Y18109D01*
X42247Y18189D01*
X42188Y18284D01*
X42123Y18393D01*
X42072Y18517D01*
Y18524D01*
X42064Y18532D01*
X42057Y18554D01*
X42050Y18583D01*
X42028Y18656D01*
X42006Y18758D01*
X41984Y18874D01*
X41962Y19020D01*
X41948Y19173D01*
X41941Y19348D01*
Y19428D01*
X41948Y19509D01*
X41955Y19618D01*
X41970Y19742D01*
X41991Y19866D01*
X42021Y19990D01*
X42057Y20106D01*
X42064Y20121D01*
X42079Y20157D01*
X42101Y20208D01*
X42130Y20274D01*
X42174Y20347D01*
X42217Y20420D01*
X42276Y20485D01*
X42334Y20544D01*
X42341Y20551D01*
X42363Y20566D01*
X42400Y20587D01*
X42443Y20617D01*
X42509Y20653D01*
X42575Y20682D01*
X42655Y20711D01*
X42750Y20733D01*
X42757D01*
X42779Y20741D01*
X42823Y20748D01*
X42881Y20755D01*
X42961D01*
X43056Y20763D01*
X43180Y20770D01*
X43318D01*
X44149D01*
X44157D01*
X44186D01*
X44230D01*
X44288D01*
X44354D01*
X44434D01*
X44609Y20777D01*
X44791D01*
X44973Y20784D01*
X45053Y20792D01*
X45126D01*
X45192Y20799D01*
X45243Y20806D01*
X45250D01*
X45279Y20813D01*
X45323Y20821D01*
X45381Y20843D01*
X45447Y20857D01*
X45520Y20886D01*
X45600Y20923D01*
X45680Y20959D01*
Y20311D01*
D02*
G37*
G36*
Y16235D02*
X42021D01*
Y16855D01*
X45680D01*
Y16235D01*
D02*
G37*
G36*
X41343D02*
X40636D01*
Y16855D01*
X41343D01*
Y16235D01*
D02*
G37*
G36*
X42713Y15638D02*
X42706Y15630D01*
X42691Y15601D01*
X42669Y15557D01*
X42648Y15499D01*
X42626Y15434D01*
X42604Y15353D01*
X42589Y15273D01*
X42582Y15193D01*
Y15156D01*
X42589Y15120D01*
X42597Y15069D01*
X42611Y15018D01*
X42633Y14952D01*
X42662Y14887D01*
X42706Y14828D01*
X42713Y14821D01*
X42728Y14799D01*
X42757Y14777D01*
X42793Y14741D01*
X42844Y14705D01*
X42903Y14668D01*
X42968Y14632D01*
X43049Y14602D01*
X43063Y14595D01*
X43107Y14588D01*
X43172Y14573D01*
X43260Y14551D01*
X43369Y14529D01*
X43493Y14515D01*
X43624Y14508D01*
X43770Y14500D01*
X45680D01*
Y13881D01*
X42021D01*
Y14442D01*
X42575D01*
X42567Y14449D01*
X42516Y14479D01*
X42451Y14515D01*
X42371Y14573D01*
X42290Y14632D01*
X42203Y14697D01*
X42130Y14763D01*
X42072Y14828D01*
X42064Y14836D01*
X42050Y14858D01*
X42028Y14901D01*
X42006Y14945D01*
X41984Y15003D01*
X41962Y15076D01*
X41948Y15149D01*
X41941Y15229D01*
Y15280D01*
X41948Y15346D01*
X41962Y15426D01*
X41991Y15521D01*
X42028Y15623D01*
X42079Y15740D01*
X42145Y15864D01*
X42713Y15638D01*
D02*
G37*
G36*
X44011Y13123D02*
Y10389D01*
X44018D01*
X44040D01*
X44069Y10396D01*
X44113D01*
X44164Y10403D01*
X44222Y10418D01*
X44354Y10440D01*
X44499Y10484D01*
X44660Y10542D01*
X44805Y10622D01*
X44937Y10724D01*
Y10731D01*
X44951Y10739D01*
X44988Y10782D01*
X45039Y10848D01*
X45090Y10936D01*
X45148Y11052D01*
X45199Y11183D01*
X45236Y11329D01*
X45243Y11409D01*
X45250Y11497D01*
Y11555D01*
X45243Y11621D01*
X45228Y11701D01*
X45206Y11789D01*
X45177Y11891D01*
X45134Y11985D01*
X45075Y12080D01*
X45068Y12087D01*
X45039Y12124D01*
X44995Y12167D01*
X44937Y12219D01*
X44857Y12277D01*
X44754Y12342D01*
X44638Y12408D01*
X44499Y12466D01*
X44579Y13108D01*
X44587D01*
X44601Y13101D01*
X44631Y13093D01*
X44674Y13079D01*
X44718Y13057D01*
X44776Y13035D01*
X44900Y12977D01*
X45039Y12904D01*
X45184Y12802D01*
X45323Y12685D01*
X45454Y12539D01*
Y12532D01*
X45469Y12517D01*
X45483Y12496D01*
X45505Y12466D01*
X45527Y12423D01*
X45549Y12379D01*
X45578Y12321D01*
X45607Y12255D01*
X45636Y12182D01*
X45666Y12109D01*
X45709Y11927D01*
X45746Y11723D01*
X45760Y11497D01*
Y11417D01*
X45753Y11366D01*
X45746Y11300D01*
X45731Y11220D01*
X45717Y11132D01*
X45702Y11038D01*
X45644Y10834D01*
X45600Y10724D01*
X45556Y10622D01*
X45498Y10513D01*
X45432Y10411D01*
X45360Y10316D01*
X45272Y10221D01*
X45265Y10214D01*
X45250Y10199D01*
X45221Y10177D01*
X45177Y10148D01*
X45126Y10112D01*
X45068Y10075D01*
X44995Y10032D01*
X44915Y9988D01*
X44820Y9944D01*
X44718Y9900D01*
X44601Y9864D01*
X44477Y9827D01*
X44346Y9798D01*
X44200Y9776D01*
X44047Y9762D01*
X43887Y9755D01*
X43880D01*
X43843D01*
X43799D01*
X43734Y9762D01*
X43654Y9769D01*
X43566Y9776D01*
X43464Y9791D01*
X43362Y9813D01*
X43129Y9871D01*
X43012Y9908D01*
X42888Y9951D01*
X42772Y10010D01*
X42662Y10075D01*
X42553Y10148D01*
X42451Y10228D01*
X42443Y10236D01*
X42429Y10250D01*
X42407Y10279D01*
X42371Y10316D01*
X42334Y10360D01*
X42290Y10418D01*
X42239Y10484D01*
X42196Y10564D01*
X42145Y10644D01*
X42101Y10739D01*
X42057Y10841D01*
X42021Y10950D01*
X41984Y11067D01*
X41962Y11191D01*
X41948Y11322D01*
X41941Y11460D01*
Y11533D01*
X41948Y11584D01*
X41955Y11643D01*
X41970Y11716D01*
X41984Y11796D01*
X42006Y11891D01*
X42028Y11978D01*
X42064Y12080D01*
X42101Y12175D01*
X42152Y12277D01*
X42210Y12379D01*
X42276Y12481D01*
X42356Y12576D01*
X42443Y12663D01*
X42451Y12671D01*
X42465Y12685D01*
X42494Y12707D01*
X42538Y12736D01*
X42589Y12773D01*
X42648Y12809D01*
X42720Y12853D01*
X42808Y12897D01*
X42903Y12940D01*
X43005Y12984D01*
X43121Y13021D01*
X43245Y13057D01*
X43384Y13086D01*
X43530Y13108D01*
X43683Y13123D01*
X43850Y13130D01*
X43858D01*
X43887D01*
X43938D01*
X44011Y13123D01*
D02*
G37*
G36*
X44412Y9113D02*
X44514Y9098D01*
X44631Y9069D01*
X44754Y9033D01*
X44886Y8975D01*
X45024Y8894D01*
X45031D01*
X45039Y8887D01*
X45083Y8851D01*
X45148Y8800D01*
X45221Y8727D01*
X45308Y8632D01*
X45403Y8515D01*
X45491Y8384D01*
X45571Y8231D01*
Y8224D01*
X45578Y8209D01*
X45586Y8187D01*
X45600Y8158D01*
X45615Y8114D01*
X45636Y8063D01*
X45666Y7947D01*
X45702Y7808D01*
X45739Y7640D01*
X45760Y7458D01*
X45768Y7261D01*
Y7145D01*
X45760Y7086D01*
Y7021D01*
X45753Y6948D01*
X45746Y6860D01*
X45717Y6678D01*
X45687Y6489D01*
X45636Y6299D01*
X45571Y6117D01*
Y6110D01*
X45564Y6095D01*
X45549Y6073D01*
X45534Y6044D01*
X45491Y5957D01*
X45425Y5854D01*
X45338Y5738D01*
X45236Y5614D01*
X45112Y5497D01*
X44973Y5388D01*
X44966D01*
X44951Y5373D01*
X44929Y5366D01*
X44900Y5344D01*
X44864Y5330D01*
X44820Y5308D01*
X44711Y5257D01*
X44572Y5206D01*
X44419Y5162D01*
X44244Y5133D01*
X44062Y5118D01*
X44003Y5745D01*
X44011D01*
X44018D01*
X44040Y5752D01*
X44069D01*
X44135Y5767D01*
X44230Y5789D01*
X44324Y5818D01*
X44434Y5847D01*
X44536Y5898D01*
X44631Y5949D01*
X44638Y5957D01*
X44667Y5978D01*
X44718Y6015D01*
X44769Y6073D01*
X44835Y6146D01*
X44900Y6226D01*
X44966Y6335D01*
X45024Y6452D01*
Y6459D01*
X45031Y6467D01*
X45039Y6489D01*
X45046Y6510D01*
X45068Y6583D01*
X45097Y6678D01*
X45126Y6795D01*
X45148Y6926D01*
X45163Y7072D01*
X45170Y7232D01*
Y7298D01*
X45163Y7371D01*
X45155Y7458D01*
X45141Y7560D01*
X45126Y7677D01*
X45097Y7794D01*
X45061Y7903D01*
X45053Y7918D01*
X45039Y7954D01*
X45010Y8005D01*
X44980Y8071D01*
X44929Y8136D01*
X44878Y8209D01*
X44820Y8282D01*
X44747Y8340D01*
X44740Y8348D01*
X44711Y8362D01*
X44674Y8384D01*
X44616Y8413D01*
X44558Y8442D01*
X44485Y8464D01*
X44405Y8479D01*
X44317Y8486D01*
X44310D01*
X44273D01*
X44230Y8479D01*
X44171Y8472D01*
X44113Y8450D01*
X44040Y8428D01*
X43967Y8391D01*
X43902Y8340D01*
X43894Y8333D01*
X43872Y8311D01*
X43843Y8282D01*
X43799Y8231D01*
X43756Y8173D01*
X43705Y8092D01*
X43654Y7998D01*
X43610Y7888D01*
X43603Y7881D01*
X43595Y7845D01*
X43573Y7786D01*
X43566Y7750D01*
X43552Y7699D01*
X43530Y7648D01*
X43515Y7582D01*
X43493Y7509D01*
X43471Y7422D01*
X43450Y7334D01*
X43420Y7232D01*
X43391Y7116D01*
X43362Y6992D01*
Y6984D01*
X43355Y6962D01*
X43347Y6926D01*
X43333Y6882D01*
X43318Y6824D01*
X43304Y6758D01*
X43260Y6613D01*
X43209Y6452D01*
X43158Y6284D01*
X43107Y6139D01*
X43078Y6073D01*
X43049Y6015D01*
Y6007D01*
X43041Y6000D01*
X43012Y5957D01*
X42976Y5891D01*
X42917Y5818D01*
X42852Y5731D01*
X42772Y5643D01*
X42677Y5556D01*
X42575Y5483D01*
X42560Y5475D01*
X42524Y5454D01*
X42465Y5424D01*
X42393Y5395D01*
X42298Y5366D01*
X42188Y5337D01*
X42072Y5315D01*
X41948Y5308D01*
X41941D01*
X41933D01*
X41911D01*
X41882D01*
X41809Y5322D01*
X41715Y5337D01*
X41605Y5359D01*
X41481Y5395D01*
X41357Y5446D01*
X41233Y5519D01*
X41226D01*
X41219Y5526D01*
X41175Y5563D01*
X41117Y5614D01*
X41044Y5679D01*
X40964Y5767D01*
X40876Y5876D01*
X40796Y6007D01*
X40723Y6153D01*
Y6161D01*
X40716Y6175D01*
X40709Y6197D01*
X40694Y6226D01*
X40679Y6263D01*
X40665Y6314D01*
X40636Y6423D01*
X40606Y6561D01*
X40577Y6722D01*
X40555Y6890D01*
X40548Y7079D01*
Y7174D01*
X40555Y7225D01*
Y7276D01*
X40570Y7414D01*
X40592Y7568D01*
X40628Y7728D01*
X40672Y7903D01*
X40730Y8063D01*
Y8071D01*
X40738Y8085D01*
X40752Y8107D01*
X40767Y8136D01*
X40803Y8209D01*
X40869Y8304D01*
X40942Y8413D01*
X41036Y8523D01*
X41146Y8625D01*
X41270Y8719D01*
X41277D01*
X41284Y8727D01*
X41306Y8741D01*
X41328Y8756D01*
X41401Y8792D01*
X41496Y8836D01*
X41612Y8887D01*
X41751Y8924D01*
X41897Y8960D01*
X42057Y8975D01*
X42108Y8333D01*
X42101D01*
X42086D01*
X42064Y8326D01*
X42028Y8318D01*
X41948Y8297D01*
X41838Y8267D01*
X41722Y8224D01*
X41605Y8158D01*
X41496Y8078D01*
X41394Y7976D01*
X41386Y7961D01*
X41357Y7925D01*
X41313Y7852D01*
X41270Y7757D01*
X41226Y7633D01*
X41182Y7487D01*
X41153Y7305D01*
X41146Y7101D01*
Y6999D01*
X41153Y6955D01*
X41160Y6897D01*
X41175Y6766D01*
X41204Y6620D01*
X41241Y6474D01*
X41299Y6335D01*
X41335Y6277D01*
X41372Y6219D01*
X41379Y6204D01*
X41408Y6175D01*
X41459Y6131D01*
X41518Y6088D01*
X41598Y6037D01*
X41685Y5993D01*
X41787Y5964D01*
X41904Y5949D01*
X41919D01*
X41948D01*
X41999Y5957D01*
X42057Y5971D01*
X42130Y5993D01*
X42203Y6029D01*
X42276Y6073D01*
X42349Y6139D01*
X42356Y6146D01*
X42378Y6182D01*
X42400Y6212D01*
X42414Y6241D01*
X42436Y6284D01*
X42465Y6335D01*
X42487Y6401D01*
X42516Y6474D01*
X42546Y6554D01*
X42582Y6649D01*
X42611Y6751D01*
X42648Y6868D01*
X42677Y6999D01*
X42713Y7145D01*
Y7152D01*
X42720Y7181D01*
X42728Y7225D01*
X42742Y7276D01*
X42757Y7342D01*
X42779Y7422D01*
X42801Y7502D01*
X42823Y7589D01*
X42874Y7779D01*
X42925Y7961D01*
X42954Y8049D01*
X42983Y8129D01*
X43005Y8202D01*
X43034Y8260D01*
Y8267D01*
X43041Y8282D01*
X43056Y8304D01*
X43070Y8333D01*
X43114Y8413D01*
X43172Y8508D01*
X43253Y8617D01*
X43340Y8727D01*
X43442Y8829D01*
X43552Y8916D01*
X43566Y8924D01*
X43603Y8953D01*
X43668Y8982D01*
X43756Y9025D01*
X43858Y9062D01*
X43982Y9098D01*
X44120Y9120D01*
X44266Y9128D01*
X44273D01*
X44281D01*
X44302D01*
X44332D01*
X44412Y9113D01*
D02*
G37*
G36*
X67000Y117677D02*
Y35000D01*
X59126D01*
Y117677D01*
X67000D01*
D02*
G37*
G36*
X58500Y128608D02*
Y35070D01*
X56425D01*
Y38037D01*
D01*
Y36316D01*
X56418Y36447D01*
X56396Y36579D01*
X56367Y36695D01*
X56331Y36812D01*
X56280Y36914D01*
X56229Y37009D01*
X56178Y37096D01*
X56119Y37176D01*
X56061Y37249D01*
X56010Y37308D01*
X55952Y37359D01*
X55908Y37402D01*
X55871Y37439D01*
X55842Y37461D01*
X55820Y37475D01*
X55813Y37483D01*
X56345D01*
Y38037D01*
X52686D01*
Y37417D01*
X54647D01*
X54814Y37410D01*
X54960Y37402D01*
X55084Y37388D01*
X55186Y37366D01*
X55266Y37344D01*
X55325Y37330D01*
X55354Y37322D01*
X55369Y37315D01*
X55456Y37271D01*
X55529Y37220D01*
X55594Y37162D01*
X55653Y37104D01*
X55696Y37053D01*
X55726Y37009D01*
X55747Y36980D01*
X55755Y36965D01*
X55799Y36870D01*
X55835Y36775D01*
X55857Y36688D01*
X55879Y36608D01*
X55886Y36542D01*
X55893Y36491D01*
Y36440D01*
X55886Y36338D01*
X55871Y36251D01*
X55850Y36170D01*
X55820Y36105D01*
X55799Y36046D01*
X55777Y36010D01*
X55762Y35981D01*
X55755Y35974D01*
X55696Y35908D01*
X55638Y35857D01*
X55573Y35813D01*
X55514Y35777D01*
X55456Y35755D01*
X55412Y35740D01*
X55383Y35726D01*
X55376D01*
X55296Y35711D01*
X55201Y35704D01*
X55091Y35697D01*
X54982D01*
X54880Y35689D01*
X54800D01*
X54763D01*
X54742D01*
X54727D01*
X54720D01*
X52686D01*
Y35070D01*
X50626D01*
Y128608D01*
X58500D01*
D02*
G37*
G36*
X56425Y35070D02*
X55091D01*
X55215Y35077D01*
X55310Y35084D01*
X55398Y35092D01*
X55456D01*
X55500Y35099D01*
X55529Y35106D01*
X55536D01*
X55631Y35128D01*
X55718Y35157D01*
X55799Y35186D01*
X55864Y35223D01*
X55923Y35252D01*
X55959Y35274D01*
X55988Y35288D01*
X55995Y35296D01*
X56061Y35354D01*
X56119Y35420D01*
X56170Y35485D01*
X56214Y35558D01*
X56251Y35616D01*
X56280Y35667D01*
X56294Y35697D01*
X56302Y35711D01*
X56345Y35820D01*
X56375Y35923D01*
X56396Y36025D01*
X56411Y36119D01*
X56418Y36200D01*
X56425Y36265D01*
Y35070D01*
D02*
G37*
%LPC*%
G36*
X41235Y117288D02*
X40347Y117245D01*
X39468Y117114D01*
X38775Y116941D01*
X38775Y116941D01*
X38291Y116777D01*
X37719Y116494D01*
X37188Y116139D01*
X37022Y115994D01*
X37022D01*
Y115994D01*
X36922Y115907D01*
X36802Y115805D01*
X36406Y115341D01*
X36088Y114822D01*
X35973Y114544D01*
X35968Y114546D01*
X35786Y114010D01*
X35654Y113346D01*
X35610Y112670D01*
X35654Y111995D01*
X35786Y111331D01*
X35968Y110795D01*
X35973Y110797D01*
X36088Y110519D01*
X36406Y109999D01*
X36802Y109536D01*
X36921Y109434D01*
X36922Y109433D01*
X37022Y109346D01*
X37185Y109204D01*
X37705Y108856D01*
X38267Y108579D01*
X38775Y108407D01*
X38776Y108410D01*
X39410Y108251D01*
X40318Y108116D01*
X41235Y108071D01*
X42151Y108116D01*
X43059Y108251D01*
X43694Y108410D01*
X43694Y108407D01*
X44217Y108584D01*
X44798Y108870D01*
X45336Y109230D01*
X45467Y109345D01*
X45467Y109346D01*
X45467Y109347D01*
X45467Y109348D01*
X45722Y109565D01*
X46110Y110020D01*
X46422Y110530D01*
X46533Y110797D01*
X46540Y110794D01*
X46731Y111354D01*
X46854Y111977D01*
X46896Y112609D01*
X46892Y112679D01*
X46896Y112740D01*
X46891Y112811D01*
X46854Y113367D01*
X46732Y113984D01*
X46541Y114547D01*
X46533Y114544D01*
X46422Y114811D01*
X46110Y115321D01*
X45722Y115775D01*
X45467Y115993D01*
X45467Y115993D01*
X45467Y115995D01*
X45332Y116114D01*
X44784Y116480D01*
X44193Y116771D01*
X43818Y116899D01*
X43694Y116941D01*
X43002Y117114D01*
X42123Y117245D01*
X41235Y117288D01*
D02*
G37*
G36*
X47764Y110260D02*
Y110260D01*
D01*
Y110260D01*
D02*
G37*
G36*
X44525Y86002D02*
X41056D01*
X41051Y86000D01*
X41049Y85995D01*
Y84031D01*
X41039Y83901D01*
X41038Y83872D01*
X41042Y83768D01*
X41078Y82755D01*
X41085Y82622D01*
X41089Y82531D01*
X41124Y82232D01*
X41121Y82228D01*
X41121D01*
X41186Y81732D01*
X41187Y81732D01*
X41187Y81732D01*
X41256Y81265D01*
X41264Y81260D01*
X41315Y80961D01*
X41352Y80830D01*
X41353Y80831D01*
X41469Y80428D01*
X41469Y80427D01*
X41596Y80053D01*
X41596Y80053D01*
X41639Y79926D01*
X41686Y79832D01*
X41741Y79710D01*
X41791Y79591D01*
X41908Y79399D01*
X41909Y79399D01*
X42063Y79111D01*
X42401Y78699D01*
X42813Y78361D01*
X43283Y78110D01*
X43793Y77955D01*
X44238Y77911D01*
X44324Y77903D01*
X44372Y77907D01*
X44450Y77904D01*
X44870Y77946D01*
X45273Y78068D01*
X45645Y78267D01*
X45971Y78534D01*
X46231Y78851D01*
X46228Y78853D01*
X46454Y79221D01*
X46561Y79480D01*
X46561D01*
X46561Y79480D01*
X46662Y79724D01*
X46718Y79959D01*
X46726Y79964D01*
X46753Y80099D01*
X46779Y80229D01*
X46779Y80229D01*
X46779D01*
X46780Y80231D01*
X46780Y80231D01*
X46805Y80360D01*
X46834Y80506D01*
X46835Y80506D01*
X46843Y80547D01*
X46851Y80665D01*
X46862Y80798D01*
X46879Y81103D01*
X46879D01*
X46887Y81236D01*
X46897Y81419D01*
X46897Y81422D01*
X46894Y81441D01*
X46857Y82018D01*
X46744Y82585D01*
X46671Y82800D01*
X46672Y82802D01*
Y82802D01*
X46672D01*
X46624Y82971D01*
X46350Y83632D01*
X46113Y84061D01*
X46113Y84061D01*
X45986Y84291D01*
X45502Y84974D01*
X45351Y85142D01*
X45351Y85147D01*
X44800Y85756D01*
X44530Y86000D01*
X44530Y86000D01*
X44525Y86002D01*
D02*
G37*
G36*
X64793Y194653D02*
Y193290D01*
X62883D01*
X62738Y193297D01*
X62606Y193304D01*
X62482Y193319D01*
X62373Y193341D01*
X62286Y193363D01*
X62220Y193377D01*
X62176Y193385D01*
X62162Y193392D01*
X62081Y193421D01*
X62016Y193457D01*
X61958Y193494D01*
X61906Y193530D01*
X61870Y193567D01*
X61841Y193589D01*
X61826Y193611D01*
X61819Y193618D01*
X61775Y193676D01*
X61746Y193742D01*
X61724Y193807D01*
X61710Y193859D01*
X61702Y193910D01*
X61695Y193946D01*
Y193982D01*
X61702Y194063D01*
X61717Y194143D01*
X61739Y194223D01*
X61761Y194289D01*
X61782Y194347D01*
X61804Y194391D01*
X61819Y194420D01*
X61826Y194427D01*
X61258Y194653D01*
X61192Y194529D01*
X61141Y194413D01*
X61105Y194310D01*
X61075Y194216D01*
X61061Y194135D01*
X61054Y194070D01*
Y194019D01*
X61061Y193939D01*
X61075Y193866D01*
X61097Y193793D01*
X61119Y193735D01*
X61141Y193691D01*
X61163Y193647D01*
X61177Y193625D01*
X61185Y193618D01*
X61243Y193552D01*
X61316Y193487D01*
X61403Y193421D01*
X61484Y193363D01*
X61564Y193304D01*
X61629Y193268D01*
X61681Y193239D01*
X61688Y193231D01*
X61134D01*
Y192670D01*
X61054D01*
X64793D01*
Y194653D01*
D02*
G37*
G36*
X64873Y191919D02*
D01*
Y190286D01*
X64859Y190512D01*
X64823Y190717D01*
X64779Y190899D01*
X64750Y190972D01*
X64720Y191044D01*
X64691Y191110D01*
X64662Y191168D01*
X64640Y191212D01*
X64618Y191256D01*
X64596Y191285D01*
X64582Y191307D01*
X64567Y191322D01*
Y191329D01*
X64436Y191475D01*
X64298Y191591D01*
X64152Y191693D01*
X64013Y191766D01*
X63889Y191825D01*
X63831Y191846D01*
X63787Y191868D01*
X63744Y191883D01*
X63714Y191890D01*
X63700Y191897D01*
X63692D01*
X63612Y191256D01*
X63751Y191198D01*
X63867Y191132D01*
X63969Y191066D01*
X64050Y191008D01*
X64108Y190957D01*
X64152Y190913D01*
X64181Y190877D01*
X64188Y190870D01*
X64247Y190775D01*
X64290Y190680D01*
X64319Y190578D01*
X64341Y190490D01*
X64356Y190410D01*
X64363Y190345D01*
Y190286D01*
X64356Y190199D01*
X64349Y190119D01*
X64312Y189973D01*
X64261Y189842D01*
X64203Y189725D01*
X64152Y189638D01*
X64101Y189572D01*
X64064Y189528D01*
X64050Y189521D01*
Y189514D01*
X63919Y189412D01*
X63773Y189331D01*
X63612Y189273D01*
X63467Y189229D01*
X63335Y189207D01*
X63277Y189193D01*
X63226Y189186D01*
X63182D01*
X63153Y189178D01*
X63131D01*
X63124D01*
Y191912D01*
X63051Y191919D01*
X62963D01*
X62796Y191912D01*
X62643Y191897D01*
X62497Y191876D01*
X62358Y191846D01*
X62234Y191810D01*
X62118Y191773D01*
X62016Y191730D01*
X61921Y191686D01*
X61834Y191642D01*
X61761Y191599D01*
X61702Y191562D01*
X61651Y191526D01*
X61608Y191497D01*
X61578Y191475D01*
X61564Y191460D01*
X61557Y191453D01*
X61469Y191365D01*
X61389Y191270D01*
X61323Y191168D01*
X61265Y191066D01*
X61214Y190964D01*
X61177Y190870D01*
X61141Y190768D01*
X61119Y190680D01*
X61097Y190585D01*
X61083Y190505D01*
X61068Y190432D01*
X61061Y190374D01*
X61054Y190323D01*
Y190250D01*
X61061Y190111D01*
X61075Y189980D01*
X61097Y189856D01*
X61134Y189740D01*
X61170Y189630D01*
X61214Y189528D01*
X61258Y189433D01*
X61309Y189353D01*
X61352Y189273D01*
X61403Y189207D01*
X61447Y189149D01*
X61484Y189105D01*
X61520Y189069D01*
X61542Y189040D01*
X61557Y189025D01*
X61564Y189018D01*
X61666Y188938D01*
X61775Y188865D01*
X61885Y188799D01*
X62001Y188741D01*
X62125Y188697D01*
X62242Y188661D01*
X62475Y188602D01*
X62577Y188581D01*
X62679Y188566D01*
X62767Y188559D01*
X62847Y188551D01*
X62912Y188544D01*
X61054D01*
X64873D01*
Y191919D01*
D02*
G37*
G36*
X66273Y187815D02*
Y186160D01*
X66266Y186357D01*
X66237Y186539D01*
X66208Y186700D01*
X66164Y186831D01*
X66127Y186940D01*
X66113Y186984D01*
X66091Y187021D01*
X66084Y187050D01*
X66069Y187072D01*
X66062Y187079D01*
Y187086D01*
X65982Y187217D01*
X65887Y187334D01*
X65792Y187429D01*
X65705Y187509D01*
X65624Y187567D01*
X65559Y187604D01*
X65515Y187633D01*
X65508Y187640D01*
X65500D01*
X65428Y187669D01*
X65347Y187698D01*
X65260Y187720D01*
X65165Y187742D01*
X64961Y187771D01*
X64764Y187793D01*
X64669Y187801D01*
X64582Y187808D01*
X64502D01*
X64436Y187815D01*
X61134D01*
Y187246D01*
X61586D01*
X61491Y187166D01*
X61411Y187079D01*
X61338Y186991D01*
X61279Y186904D01*
X61229Y186809D01*
X61185Y186722D01*
X61148Y186634D01*
X61119Y186554D01*
X61097Y186474D01*
X61083Y186401D01*
X61068Y186335D01*
X61061Y186284D01*
X61054Y186240D01*
Y186175D01*
X61061Y186000D01*
X61090Y185839D01*
X61134Y185694D01*
X61177Y185570D01*
X61221Y185468D01*
X61265Y185395D01*
X61279Y185366D01*
X61294Y185344D01*
X61301Y185336D01*
Y185329D01*
X61396Y185205D01*
X61513Y185096D01*
X61622Y185001D01*
X61731Y184921D01*
X61834Y184863D01*
X61914Y184819D01*
X61943Y184804D01*
X61965Y184790D01*
X61979Y184782D01*
X61987D01*
X62154Y184717D01*
X62322Y184673D01*
X62482Y184637D01*
X62628Y184615D01*
X62759Y184600D01*
X62810D01*
X62862Y184593D01*
X61054D01*
X66273D01*
Y187815D01*
D02*
G37*
G36*
X64793Y183879D02*
X62395D01*
X62271Y183871D01*
X62169Y183864D01*
X62081D01*
X62023Y183857D01*
X61979Y183849D01*
X61950Y183842D01*
X61943D01*
X61848Y183820D01*
X61761Y183784D01*
X61688Y183755D01*
X61615Y183725D01*
X61564Y183689D01*
X61527Y183667D01*
X61498Y183652D01*
X61491Y183645D01*
X61418Y183587D01*
X61360Y183521D01*
X61301Y183456D01*
X61258Y183383D01*
X61221Y183324D01*
X61199Y183273D01*
X61185Y183244D01*
X61177Y183230D01*
X61134Y183128D01*
X61105Y183018D01*
X61083Y182916D01*
X61068Y182821D01*
X61061Y182741D01*
X61054Y182683D01*
Y182625D01*
X61061Y182486D01*
X61083Y182355D01*
X61112Y182238D01*
X61148Y182122D01*
X61192Y182019D01*
X61243Y181925D01*
X61301Y181837D01*
X61352Y181764D01*
X61411Y181692D01*
X61469Y181633D01*
X61520Y181582D01*
X61564Y181538D01*
X61600Y181509D01*
X61629Y181487D01*
X61651Y181473D01*
X61659Y181465D01*
X61134D01*
Y180911D01*
X61054D01*
X64793D01*
Y183879D01*
D02*
G37*
G36*
Y179964D02*
X61134D01*
Y179344D01*
X60456D01*
Y179964D01*
X59749D01*
Y179344D01*
X64793D01*
Y179964D01*
D02*
G37*
G36*
Y178972D02*
D01*
Y177609D01*
X62883D01*
X62738Y177616D01*
X62606Y177624D01*
X62482Y177638D01*
X62373Y177660D01*
X62286Y177682D01*
X62220Y177697D01*
X62176Y177704D01*
X62162Y177711D01*
X62081Y177740D01*
X62016Y177777D01*
X61958Y177813D01*
X61906Y177850D01*
X61870Y177886D01*
X61841Y177908D01*
X61826Y177930D01*
X61819Y177937D01*
X61775Y177995D01*
X61746Y178061D01*
X61724Y178127D01*
X61710Y178178D01*
X61702Y178229D01*
X61695Y178265D01*
Y178302D01*
X61702Y178382D01*
X61717Y178462D01*
X61739Y178542D01*
X61761Y178608D01*
X61782Y178666D01*
X61804Y178710D01*
X61819Y178739D01*
X61826Y178746D01*
X61258Y178972D01*
X61192Y178848D01*
X61141Y178732D01*
X61105Y178630D01*
X61075Y178535D01*
X61061Y178455D01*
X61054Y178389D01*
Y178338D01*
X61061Y178258D01*
X61075Y178185D01*
X61097Y178112D01*
X61119Y178054D01*
X61141Y178010D01*
X61163Y177966D01*
X61177Y177944D01*
X61185Y177937D01*
X61243Y177872D01*
X61316Y177806D01*
X61403Y177740D01*
X61484Y177682D01*
X61564Y177624D01*
X61629Y177587D01*
X61681Y177558D01*
X61688Y177551D01*
X61134D01*
Y176989D01*
X61054D01*
X64793D01*
Y178972D01*
D02*
G37*
G36*
Y176049D02*
X61134D01*
Y175429D01*
X60456D01*
Y176049D01*
X59749D01*
Y175429D01*
X64793D01*
Y176049D01*
D02*
G37*
G36*
Y174591D02*
D01*
Y172236D01*
X64786Y172404D01*
X64779Y172557D01*
X64764Y172696D01*
X64750Y172812D01*
X64735Y172914D01*
X64728Y172987D01*
X64720Y173009D01*
X64713Y173031D01*
Y173046D01*
X64677Y173177D01*
X64633Y173293D01*
X64596Y173395D01*
X64553Y173483D01*
X64516Y173556D01*
X64487Y173607D01*
X64465Y173636D01*
X64458Y173651D01*
X64392Y173745D01*
X64312Y173826D01*
X64239Y173906D01*
X64166Y173971D01*
X64101Y174030D01*
X64050Y174073D01*
X64013Y174103D01*
X63999Y174110D01*
X63882Y174183D01*
X63758Y174256D01*
X63642Y174314D01*
X63525Y174358D01*
X63423Y174401D01*
X63343Y174431D01*
X63313Y174438D01*
X63292Y174445D01*
X63277Y174452D01*
X63270D01*
X63095Y174496D01*
X62920Y174533D01*
X62752Y174555D01*
X62592Y174576D01*
X62453Y174584D01*
X62395D01*
X62344Y174591D01*
X62249D01*
X62001Y174584D01*
X61775Y174562D01*
X61571Y174525D01*
X61476Y174511D01*
X61396Y174489D01*
X61316Y174467D01*
X61250Y174452D01*
X61192Y174438D01*
X61141Y174416D01*
X61097Y174409D01*
X61068Y174394D01*
X61054Y174387D01*
X61046D01*
X60857Y174307D01*
X60689Y174212D01*
X60543Y174110D01*
X60419Y174015D01*
X60317Y173928D01*
X60244Y173855D01*
X60223Y173826D01*
X60201Y173804D01*
X60193Y173796D01*
X60186Y173789D01*
X60091Y173672D01*
X60018Y173548D01*
X59953Y173425D01*
X59902Y173308D01*
X59865Y173206D01*
X59843Y173126D01*
X59829Y173097D01*
Y173075D01*
X59821Y173060D01*
Y173053D01*
X59800Y172929D01*
X59778Y172783D01*
X59763Y172637D01*
X59756Y172492D01*
X59749Y172360D01*
Y170421D01*
X64793D01*
Y174591D01*
D02*
G37*
G36*
Y167301D02*
X64086D01*
Y166594D01*
X64793D01*
Y167301D01*
D02*
G37*
G36*
Y165376D02*
X59749D01*
Y164735D01*
X63714D01*
X59749Y162089D01*
Y161403D01*
X64793D01*
Y165376D01*
D02*
G37*
G36*
Y158283D02*
X64086D01*
Y157576D01*
X62963D01*
X64793D01*
Y158283D01*
D02*
G37*
G36*
X62963D02*
X61134D01*
Y157576D01*
X61841D01*
Y158283D01*
X62963D01*
D02*
G37*
G36*
X64793Y155644D02*
X59727D01*
Y153785D01*
Y155243D01*
X59851Y155170D01*
X59967Y155090D01*
X60084Y154996D01*
X60186Y154908D01*
X60273Y154821D01*
X60346Y154755D01*
X60368Y154726D01*
X60390Y154704D01*
X60397Y154697D01*
X60405Y154689D01*
X60529Y154536D01*
X60645Y154383D01*
X60747Y154237D01*
X60827Y154092D01*
X60900Y153968D01*
X60930Y153917D01*
X60952Y153873D01*
X60973Y153836D01*
X60981Y153807D01*
X60995Y153793D01*
Y153785D01*
X59727D01*
X61593D01*
X61549Y153895D01*
X61498Y154004D01*
X61447Y154113D01*
X61396Y154216D01*
X61352Y154303D01*
X61316Y154376D01*
X61287Y154420D01*
X61279Y154427D01*
Y154434D01*
X61199Y154565D01*
X61119Y154682D01*
X61046Y154784D01*
X60981Y154864D01*
X60930Y154937D01*
X60886Y154981D01*
X60857Y155017D01*
X60849Y155025D01*
X64793D01*
Y155644D01*
D02*
G37*
G36*
Y153115D02*
D01*
Y151751D01*
X62883D01*
X62738Y151759D01*
X62606Y151766D01*
X62482Y151781D01*
X62373Y151803D01*
X62286Y151824D01*
X62220Y151839D01*
X62176Y151846D01*
X62162Y151854D01*
X62081Y151883D01*
X62016Y151919D01*
X61958Y151955D01*
X61906Y151992D01*
X61870Y152028D01*
X61841Y152050D01*
X61826Y152072D01*
X61819Y152079D01*
X61775Y152138D01*
X61746Y152203D01*
X61724Y152269D01*
X61710Y152320D01*
X61702Y152371D01*
X61695Y152408D01*
Y152444D01*
X61702Y152524D01*
X61717Y152604D01*
X61739Y152684D01*
X61761Y152750D01*
X61782Y152808D01*
X61804Y152852D01*
X61819Y152881D01*
X61826Y152889D01*
X61258Y153115D01*
X61192Y152991D01*
X61141Y152874D01*
X61105Y152772D01*
X61075Y152677D01*
X61061Y152597D01*
X61054Y152532D01*
Y152480D01*
X61061Y152400D01*
X61075Y152327D01*
X61097Y152254D01*
X61119Y152196D01*
X61141Y152152D01*
X61163Y152109D01*
X61177Y152087D01*
X61185Y152079D01*
X61243Y152014D01*
X61316Y151948D01*
X61403Y151883D01*
X61484Y151824D01*
X61564Y151766D01*
X61629Y151730D01*
X61681Y151700D01*
X61688Y151693D01*
X61134D01*
Y151132D01*
X61054D01*
X64793D01*
Y153115D01*
D02*
G37*
G36*
X64873Y150381D02*
X63051D01*
D01*
X64873D01*
D02*
G37*
G36*
D02*
D01*
Y148748D01*
X64859Y148974D01*
X64823Y149178D01*
X64779Y149360D01*
X64750Y149433D01*
X64720Y149506D01*
X64691Y149572D01*
X64662Y149630D01*
X64640Y149674D01*
X64618Y149717D01*
X64596Y149747D01*
X64582Y149769D01*
X64567Y149783D01*
Y149790D01*
X64436Y149936D01*
X64298Y150053D01*
X64152Y150155D01*
X64013Y150228D01*
X63889Y150286D01*
X63831Y150308D01*
X63787Y150330D01*
X63744Y150345D01*
X63714Y150352D01*
X63700Y150359D01*
X63692D01*
X63612Y149717D01*
X63751Y149659D01*
X63867Y149594D01*
X63969Y149528D01*
X64050Y149470D01*
X64108Y149419D01*
X64152Y149375D01*
X64181Y149338D01*
X64188Y149331D01*
X64247Y149236D01*
X64290Y149142D01*
X64319Y149040D01*
X64341Y148952D01*
X64356Y148872D01*
X64363Y148806D01*
Y148748D01*
X64356Y148661D01*
X64349Y148580D01*
X64312Y148434D01*
X64261Y148303D01*
X64203Y148187D01*
X64152Y148099D01*
X64101Y148033D01*
X64064Y147990D01*
X64050Y147983D01*
Y147975D01*
X63919Y147873D01*
X63773Y147793D01*
X63612Y147735D01*
X63467Y147691D01*
X63335Y147669D01*
X63277Y147654D01*
X63226Y147647D01*
X63182D01*
X63153Y147640D01*
X63131D01*
X63124D01*
Y150374D01*
X63051Y150381D01*
X62963D01*
X62796Y150374D01*
X62643Y150359D01*
X62497Y150337D01*
X62358Y150308D01*
X62234Y150272D01*
X62118Y150235D01*
X62016Y150191D01*
X61921Y150148D01*
X61834Y150104D01*
X61761Y150060D01*
X61702Y150024D01*
X61651Y149987D01*
X61608Y149958D01*
X61578Y149936D01*
X61564Y149922D01*
X61557Y149914D01*
X61469Y149827D01*
X61389Y149732D01*
X61323Y149630D01*
X61265Y149528D01*
X61214Y149426D01*
X61177Y149331D01*
X61141Y149229D01*
X61119Y149142D01*
X61097Y149047D01*
X61083Y148967D01*
X61068Y148894D01*
X61061Y148835D01*
X61054Y148784D01*
Y148712D01*
X61061Y148573D01*
X61075Y148442D01*
X61097Y148318D01*
X61134Y148201D01*
X61170Y148092D01*
X61214Y147990D01*
X61258Y147895D01*
X61309Y147815D01*
X61352Y147735D01*
X61403Y147669D01*
X61447Y147611D01*
X61484Y147567D01*
X61520Y147530D01*
X61542Y147501D01*
X61557Y147487D01*
X61564Y147479D01*
X61666Y147399D01*
X61775Y147326D01*
X61885Y147261D01*
X62001Y147203D01*
X62125Y147159D01*
X62242Y147122D01*
X62475Y147064D01*
X62577Y147042D01*
X62679Y147028D01*
X62767Y147020D01*
X62847Y147013D01*
X62912Y147006D01*
X61054D01*
X63000D01*
X63160Y147013D01*
X63313Y147028D01*
X63459Y147049D01*
X63590Y147079D01*
X63714Y147115D01*
X63831Y147151D01*
X63933Y147195D01*
X64028Y147239D01*
X64108Y147283D01*
X64181Y147326D01*
X64239Y147363D01*
X64290Y147399D01*
X64334Y147429D01*
X64363Y147450D01*
X64378Y147465D01*
X64385Y147472D01*
X64473Y147567D01*
X64545Y147662D01*
X64611Y147764D01*
X64669Y147873D01*
X64713Y147975D01*
X64757Y148085D01*
X64815Y148289D01*
X64830Y148383D01*
X64844Y148471D01*
X64859Y148551D01*
X64866Y148617D01*
X64873Y148668D01*
Y147006D01*
D01*
D01*
Y150381D01*
D02*
G37*
G36*
X64793Y146262D02*
X62395D01*
X62271Y146255D01*
X62169Y146247D01*
X62081D01*
X62023Y146240D01*
X61979Y146233D01*
X61950Y146226D01*
X61943D01*
X61848Y146204D01*
X61761Y146167D01*
X61688Y146138D01*
X61615Y146109D01*
X61564Y146072D01*
X61527Y146051D01*
X61498Y146036D01*
X61491Y146029D01*
X61418Y145970D01*
X61360Y145905D01*
X61301Y145839D01*
X61258Y145766D01*
X61221Y145708D01*
X61199Y145657D01*
X61185Y145628D01*
X61177Y145613D01*
X61134Y145511D01*
X61105Y145402D01*
X61083Y145300D01*
X61068Y145205D01*
X61061Y145125D01*
X61054Y145066D01*
Y145008D01*
X61061Y144870D01*
X61083Y144738D01*
X61112Y144622D01*
X61148Y144505D01*
X61192Y144403D01*
X61243Y144308D01*
X61301Y144221D01*
X61352Y144148D01*
X61411Y144075D01*
X61469Y144017D01*
X61520Y143966D01*
X61564Y143922D01*
X61600Y143893D01*
X61629Y143871D01*
X61651Y143856D01*
X61659Y143849D01*
X61134D01*
Y143295D01*
X61054D01*
X64793D01*
Y146262D01*
D02*
G37*
G36*
X66273Y142355D02*
Y140700D01*
X66266Y140897D01*
X66237Y141079D01*
X66208Y141239D01*
X66164Y141370D01*
X66127Y141480D01*
X66113Y141524D01*
X66091Y141560D01*
X66084Y141589D01*
X66069Y141611D01*
X66062Y141618D01*
Y141626D01*
X65982Y141757D01*
X65887Y141874D01*
X65792Y141968D01*
X65705Y142048D01*
X65624Y142107D01*
X65559Y142143D01*
X65515Y142172D01*
X65508Y142180D01*
X65500D01*
X65428Y142209D01*
X65347Y142238D01*
X65260Y142260D01*
X65165Y142282D01*
X64961Y142311D01*
X64764Y142333D01*
X64669Y142340D01*
X64582Y142347D01*
X64502D01*
X64436Y142355D01*
X61134D01*
Y141786D01*
X61586D01*
X61491Y141706D01*
X61411Y141618D01*
X61338Y141531D01*
X61279Y141443D01*
X61229Y141349D01*
X61185Y141261D01*
X61148Y141174D01*
X61119Y141094D01*
X61097Y141013D01*
X61083Y140940D01*
X61068Y140875D01*
X61061Y140824D01*
X61054Y140780D01*
Y140714D01*
X61061Y140539D01*
X61090Y140379D01*
X61134Y140233D01*
X61177Y140109D01*
X61221Y140007D01*
X61265Y139934D01*
X61279Y139905D01*
X61294Y139883D01*
X61301Y139876D01*
Y139869D01*
X61396Y139745D01*
X61513Y139635D01*
X61622Y139541D01*
X61731Y139461D01*
X61834Y139402D01*
X61914Y139358D01*
X61943Y139344D01*
X61965Y139329D01*
X61979Y139322D01*
X61987D01*
X62154Y139256D01*
X62322Y139213D01*
X62482Y139176D01*
X62628Y139154D01*
X62759Y139140D01*
X62810D01*
X62862Y139132D01*
X61054D01*
X66273D01*
Y142355D01*
D02*
G37*
G36*
X64793Y138425D02*
X61134D01*
Y137806D01*
X60456D01*
Y138425D01*
X59749D01*
Y137806D01*
X64793D01*
Y138425D01*
D02*
G37*
G36*
X64873Y137069D02*
D01*
Y135590D01*
X64866Y135750D01*
X64852Y135888D01*
X64830Y136020D01*
X64801Y136136D01*
X64771Y136231D01*
X64750Y136304D01*
X64735Y136348D01*
X64728Y136355D01*
Y136362D01*
X64662Y136486D01*
X64596Y136588D01*
X64524Y136676D01*
X64458Y136756D01*
X64400Y136814D01*
X64349Y136851D01*
X64319Y136880D01*
X64305Y136887D01*
X64203Y136945D01*
X64094Y136989D01*
X63999Y137026D01*
X63911Y137048D01*
X63831Y137062D01*
X63773Y137069D01*
X63722D01*
X63605Y137062D01*
X63503Y137048D01*
X63415Y137018D01*
X63335Y136996D01*
X63270Y136967D01*
X63226Y136938D01*
X63197Y136924D01*
X63190Y136916D01*
X63117Y136858D01*
X63051Y136792D01*
X62993Y136727D01*
X62949Y136661D01*
X62912Y136595D01*
X62891Y136552D01*
X62876Y136523D01*
X62869Y136508D01*
X62847Y136457D01*
X62825Y136399D01*
X62774Y136260D01*
X62723Y136107D01*
X62679Y135954D01*
X62635Y135816D01*
X62621Y135750D01*
X62606Y135699D01*
X62592Y135655D01*
X62584Y135619D01*
X62577Y135597D01*
Y135590D01*
X62555Y135509D01*
X62533Y135436D01*
X62519Y135371D01*
X62497Y135312D01*
X62475Y135218D01*
X62453Y135145D01*
X62431Y135094D01*
X62424Y135065D01*
X62417Y135050D01*
Y135043D01*
X62388Y134984D01*
X62366Y134933D01*
X62337Y134890D01*
X62315Y134861D01*
X62293Y134831D01*
X62271Y134817D01*
X62264Y134810D01*
X62256Y134802D01*
X62183Y134758D01*
X62111Y134737D01*
X62081D01*
X62060Y134729D01*
X62045D01*
X62038D01*
X61972Y134737D01*
X61906Y134758D01*
X61848Y134788D01*
X61804Y134824D01*
X61761Y134853D01*
X61731Y134882D01*
X61717Y134904D01*
X61710Y134912D01*
X61659Y134992D01*
X61622Y135087D01*
X61600Y135189D01*
X61578Y135283D01*
X61571Y135378D01*
X61564Y135451D01*
Y135524D01*
X61571Y135648D01*
X61586Y135765D01*
X61615Y135859D01*
X61644Y135932D01*
X61673Y135998D01*
X61702Y136041D01*
X61717Y136071D01*
X61724Y136078D01*
X61790Y136151D01*
X61863Y136202D01*
X61936Y136246D01*
X62001Y136282D01*
X62067Y136304D01*
X62118Y136319D01*
X62147Y136326D01*
X62162D01*
X62081Y136931D01*
X61958Y136902D01*
X61848Y136872D01*
X61753Y136836D01*
X61666Y136800D01*
X61608Y136763D01*
X61557Y136734D01*
X61527Y136720D01*
X61520Y136712D01*
X61447Y136647D01*
X61382Y136574D01*
X61323Y136494D01*
X61272Y136413D01*
X61236Y136340D01*
X61207Y136282D01*
X61192Y136246D01*
X61185Y136238D01*
Y136231D01*
X61141Y136107D01*
X61112Y135976D01*
X61083Y135852D01*
X61068Y135735D01*
X61061Y135626D01*
X61054Y135546D01*
Y135371D01*
X61068Y135269D01*
X61075Y135181D01*
X61090Y135101D01*
X61105Y135036D01*
X61119Y134984D01*
X61126Y134955D01*
X61134Y134941D01*
X61163Y134853D01*
X61192Y134773D01*
X61221Y134707D01*
X61250Y134649D01*
X61272Y134605D01*
X61294Y134576D01*
X61301Y134554D01*
X61309Y134547D01*
X61360Y134474D01*
X61418Y134416D01*
X61484Y134365D01*
X61535Y134321D01*
X61586Y134285D01*
X61622Y134263D01*
X61651Y134248D01*
X61659Y134241D01*
X61739Y134204D01*
X61812Y134175D01*
X61892Y134161D01*
X61958Y134146D01*
X62023Y134139D01*
X62067Y134132D01*
X62096D01*
X62111D01*
X62213Y134139D01*
X62300Y134153D01*
X62388Y134175D01*
X62461Y134197D01*
X62519Y134219D01*
X62570Y134241D01*
X62599Y134255D01*
X62606Y134263D01*
X62687Y134321D01*
X62752Y134387D01*
X62810Y134452D01*
X62862Y134518D01*
X62898Y134576D01*
X62927Y134620D01*
X62942Y134649D01*
X62949Y134664D01*
X62971Y134715D01*
X63000Y134780D01*
X63051Y134926D01*
X63095Y135079D01*
X63146Y135240D01*
X63182Y135378D01*
X63204Y135444D01*
X63219Y135502D01*
X63233Y135546D01*
X63240Y135582D01*
X63248Y135604D01*
Y135611D01*
X63270Y135706D01*
X63292Y135786D01*
X63313Y135859D01*
X63335Y135925D01*
X63350Y135983D01*
X63372Y136034D01*
X63401Y136122D01*
X63423Y136180D01*
X63445Y136216D01*
X63452Y136238D01*
X63459Y136246D01*
X63503Y136311D01*
X63561Y136355D01*
X63612Y136391D01*
X63663Y136413D01*
X63714Y136428D01*
X63751Y136435D01*
X63780D01*
X63787D01*
X63875Y136428D01*
X63948Y136406D01*
X64021Y136370D01*
X64079Y136333D01*
X64130Y136289D01*
X64166Y136260D01*
X64188Y136231D01*
X64196Y136224D01*
X64254Y136136D01*
X64290Y136041D01*
X64319Y135932D01*
X64341Y135830D01*
X64356Y135735D01*
X64363Y135662D01*
Y135590D01*
X64356Y135436D01*
X64334Y135305D01*
X64305Y135196D01*
X64268Y135101D01*
X64232Y135028D01*
X64203Y134970D01*
X64181Y134941D01*
X64174Y134926D01*
X64094Y134846D01*
X63999Y134780D01*
X63904Y134737D01*
X63816Y134700D01*
X63736Y134671D01*
X63663Y134656D01*
X63620Y134642D01*
X63612D01*
X63605D01*
X63700Y134029D01*
X63904Y134081D01*
X64086Y134146D01*
X64232Y134226D01*
X64356Y134307D01*
X64458Y134379D01*
X64524Y134445D01*
X64567Y134489D01*
X64575Y134496D01*
X64582Y134503D01*
X64633Y134576D01*
X64677Y134656D01*
X64750Y134831D01*
X64801Y135014D01*
X64837Y135189D01*
X64852Y135269D01*
X64859Y135342D01*
X64866Y135415D01*
Y135473D01*
X64873Y135524D01*
Y134029D01*
X61054D01*
X64873D01*
Y137069D01*
D02*
G37*
G36*
Y133519D02*
X63051D01*
D01*
X64873D01*
D02*
G37*
G36*
X63051D02*
X62963D01*
X62796Y133512D01*
X62643Y133497D01*
X62497Y133475D01*
X62358Y133446D01*
X62234Y133410D01*
X62118Y133373D01*
X62016Y133330D01*
X61921Y133286D01*
X61834Y133242D01*
X61761Y133198D01*
X61702Y133162D01*
X61651Y133125D01*
X61608Y133096D01*
X61578Y133074D01*
X61564Y133060D01*
X61557Y133053D01*
X61469Y132965D01*
X61389Y132870D01*
X61323Y132768D01*
X61265Y132666D01*
X61214Y132564D01*
X61177Y132469D01*
X61141Y132367D01*
X61119Y132280D01*
X61097Y132185D01*
X61083Y132105D01*
X61068Y132032D01*
X61061Y131974D01*
X61054Y131923D01*
Y131850D01*
X61061Y131711D01*
X61075Y131580D01*
X61097Y131456D01*
X61134Y131339D01*
X61170Y131230D01*
X61214Y131128D01*
X61258Y131033D01*
X61309Y130953D01*
X61352Y130873D01*
X61403Y130807D01*
X61447Y130749D01*
X61484Y130705D01*
X61520Y130669D01*
X61542Y130640D01*
X61557Y130625D01*
X61564Y130618D01*
X61666Y130537D01*
X61775Y130465D01*
X61885Y130399D01*
X62001Y130341D01*
X62125Y130297D01*
X62242Y130261D01*
X62475Y130202D01*
X62577Y130180D01*
X62679Y130166D01*
X62767Y130158D01*
X62847Y130151D01*
X62912Y130144D01*
X61054D01*
X63000D01*
X63160Y130151D01*
X63313Y130166D01*
X63459Y130188D01*
X63590Y130217D01*
X63714Y130253D01*
X63831Y130290D01*
X63933Y130333D01*
X64028Y130377D01*
X64108Y130421D01*
X64181Y130465D01*
X64239Y130501D01*
X64290Y130537D01*
X64334Y130567D01*
X64363Y130589D01*
X64378Y130603D01*
X64385Y130610D01*
X64473Y130705D01*
X64545Y130800D01*
X64611Y130902D01*
X64669Y131011D01*
X64713Y131113D01*
X64757Y131223D01*
X64815Y131427D01*
X64830Y131522D01*
X64844Y131609D01*
X64859Y131689D01*
X64866Y131755D01*
X64873Y131806D01*
Y131886D01*
X64859Y132112D01*
X64823Y132316D01*
X64779Y132499D01*
X64750Y132571D01*
X64720Y132644D01*
X64691Y132710D01*
X64662Y132768D01*
X64640Y132812D01*
X64618Y132856D01*
X64596Y132885D01*
X64582Y132907D01*
X64567Y132921D01*
Y132929D01*
X64436Y133074D01*
X64298Y133191D01*
X64152Y133293D01*
X64013Y133366D01*
X63889Y133424D01*
X63831Y133446D01*
X63787Y133468D01*
X63744Y133483D01*
X63714Y133490D01*
X63700Y133497D01*
X63692D01*
X63612Y132856D01*
X63751Y132797D01*
X63867Y132732D01*
X63969Y132666D01*
X64050Y132608D01*
X64108Y132557D01*
X64152Y132513D01*
X64181Y132477D01*
X64188Y132469D01*
X64247Y132375D01*
X64290Y132280D01*
X64319Y132178D01*
X64341Y132090D01*
X64356Y132010D01*
X64363Y131945D01*
Y131886D01*
X64356Y131799D01*
X64349Y131719D01*
X64312Y131573D01*
X64261Y131441D01*
X64203Y131325D01*
X64152Y131237D01*
X64101Y131172D01*
X64064Y131128D01*
X64050Y131121D01*
Y131113D01*
X63919Y131011D01*
X63773Y130931D01*
X63612Y130873D01*
X63467Y130829D01*
X63335Y130807D01*
X63277Y130793D01*
X63226Y130785D01*
X63182D01*
X63153Y130778D01*
X63131D01*
X63124D01*
Y133512D01*
X63051Y133519D01*
D02*
G37*
G36*
X62344Y129517D02*
X62249D01*
X62001Y129510D01*
X61775Y129488D01*
X61571Y129451D01*
X61476Y129437D01*
X61396Y129415D01*
X61316Y129393D01*
X61250Y129378D01*
X61192Y129364D01*
X61141Y129342D01*
X61097Y129335D01*
X61068Y129320D01*
X61054Y129313D01*
X61046D01*
X60857Y129233D01*
X60689Y129138D01*
X60543Y129036D01*
X60419Y128941D01*
X60317Y128853D01*
X60244Y128781D01*
X60223Y128752D01*
X60201Y128730D01*
X60193Y128722D01*
X60186Y128715D01*
X60091Y128598D01*
X60018Y128474D01*
X59953Y128350D01*
X59902Y128234D01*
X59865Y128132D01*
X59843Y128052D01*
X59829Y128023D01*
Y128001D01*
X59821Y127986D01*
Y127979D01*
X59800Y127855D01*
X59778Y127709D01*
X59763Y127563D01*
X59756Y127417D01*
X59749Y127286D01*
Y125347D01*
X64793D01*
Y127162D01*
D01*
X64786Y127330D01*
X64779Y127483D01*
X64764Y127621D01*
X64750Y127738D01*
X64735Y127840D01*
X64728Y127913D01*
X64720Y127935D01*
X64713Y127957D01*
Y127971D01*
X64677Y128103D01*
X64633Y128219D01*
X64596Y128321D01*
X64553Y128409D01*
X64516Y128482D01*
X64487Y128533D01*
X64465Y128562D01*
X64458Y128577D01*
X64392Y128671D01*
X64312Y128752D01*
X64239Y128832D01*
X64166Y128897D01*
X64101Y128956D01*
X64050Y128999D01*
X64013Y129028D01*
X63999Y129036D01*
X63882Y129109D01*
X63758Y129182D01*
X63642Y129240D01*
X63525Y129284D01*
X63423Y129327D01*
X63343Y129357D01*
X63313Y129364D01*
X63292Y129371D01*
X63277Y129378D01*
X63270D01*
X63095Y129422D01*
X62920Y129459D01*
X62752Y129481D01*
X62592Y129502D01*
X62453Y129510D01*
X62395D01*
X62344Y129517D01*
D02*
G37*
%LPD*%
G36*
X62614Y189215D02*
X62446Y189237D01*
X62293Y189280D01*
X62162Y189331D01*
X62060Y189390D01*
X61972Y189441D01*
X61906Y189492D01*
X61870Y189521D01*
X61855Y189535D01*
X61761Y189652D01*
X61688Y189769D01*
X61637Y189893D01*
X61600Y190009D01*
X61578Y190104D01*
X61571Y190184D01*
X61564Y190214D01*
Y190257D01*
X61571Y190345D01*
X61578Y190425D01*
X61622Y190578D01*
X61681Y190709D01*
X61746Y190819D01*
X61812Y190906D01*
X61870Y190972D01*
X61914Y191008D01*
X61921Y191023D01*
X61928D01*
X62023Y191088D01*
X62132Y191147D01*
X62242Y191183D01*
X62358Y191219D01*
X62453Y191241D01*
X62541Y191256D01*
X62570D01*
X62592Y191263D01*
X62606D01*
X62614D01*
Y189215D01*
D02*
G37*
G36*
X64873Y188544D02*
X63000D01*
X63160Y188551D01*
X63313Y188566D01*
X63459Y188588D01*
X63590Y188617D01*
X63714Y188653D01*
X63831Y188690D01*
X63933Y188734D01*
X64028Y188777D01*
X64108Y188821D01*
X64181Y188865D01*
X64239Y188901D01*
X64290Y188938D01*
X64334Y188967D01*
X64363Y188989D01*
X64378Y189003D01*
X64385Y189011D01*
X64473Y189105D01*
X64545Y189200D01*
X64611Y189302D01*
X64669Y189412D01*
X64713Y189514D01*
X64757Y189623D01*
X64815Y189827D01*
X64830Y189922D01*
X64844Y190009D01*
X64859Y190089D01*
X64866Y190155D01*
X64873Y190206D01*
Y188544D01*
D02*
G37*
G36*
X63175Y187225D02*
X63284Y187210D01*
X63379Y187195D01*
X63474Y187173D01*
X63561Y187144D01*
X63634Y187122D01*
X63700Y187093D01*
X63765Y187064D01*
X63816Y187042D01*
X63860Y187013D01*
X63889Y186991D01*
X63919Y186977D01*
X63940Y186962D01*
X63948Y186948D01*
X63955D01*
X64013Y186889D01*
X64064Y186831D01*
X64144Y186714D01*
X64203Y186590D01*
X64239Y186481D01*
X64268Y186379D01*
X64276Y186299D01*
X64283Y186270D01*
Y186226D01*
X64276Y186146D01*
X64268Y186073D01*
X64232Y185934D01*
X64181Y185810D01*
X64115Y185708D01*
X64057Y185621D01*
X64006Y185562D01*
X63969Y185526D01*
X63955Y185511D01*
X63889Y185460D01*
X63816Y185417D01*
X63649Y185344D01*
X63481Y185300D01*
X63306Y185264D01*
X63153Y185242D01*
X63080Y185234D01*
X63022D01*
X62971Y185227D01*
X62934D01*
X62912D01*
X62905D01*
X62781D01*
X62672Y185242D01*
X62570Y185256D01*
X62468Y185271D01*
X62380Y185293D01*
X62300Y185315D01*
X62220Y185344D01*
X62154Y185373D01*
X62096Y185395D01*
X62045Y185424D01*
X62001Y185446D01*
X61972Y185468D01*
X61943Y185482D01*
X61921Y185497D01*
X61914Y185511D01*
X61906D01*
X61848Y185570D01*
X61790Y185628D01*
X61710Y185745D01*
X61644Y185861D01*
X61608Y185978D01*
X61578Y186073D01*
X61571Y186153D01*
X61564Y186182D01*
Y186299D01*
X61578Y186372D01*
X61615Y186510D01*
X61673Y186634D01*
X61731Y186736D01*
X61797Y186824D01*
X61855Y186889D01*
X61892Y186926D01*
X61899Y186940D01*
X61906D01*
X61972Y186991D01*
X62045Y187042D01*
X62213Y187115D01*
X62380Y187166D01*
X62548Y187203D01*
X62694Y187225D01*
X62759Y187232D01*
X62818D01*
X62862Y187239D01*
X62898D01*
X62920D01*
X62927D01*
X63051D01*
X63175Y187225D01*
D02*
G37*
G36*
X64611Y187181D02*
X64691D01*
X64764D01*
X64830Y187173D01*
X64888D01*
X64939Y187166D01*
X65012Y187159D01*
X65070Y187152D01*
X65100Y187144D01*
X65107D01*
X65216Y187108D01*
X65311Y187057D01*
X65391Y187006D01*
X65464Y186955D01*
X65515Y186904D01*
X65559Y186860D01*
X65581Y186831D01*
X65588Y186824D01*
X65646Y186729D01*
X65690Y186619D01*
X65719Y186510D01*
X65741Y186408D01*
X65756Y186306D01*
X65763Y186233D01*
Y186160D01*
X65756Y186022D01*
X65734Y185890D01*
X65705Y185781D01*
X65668Y185694D01*
X65639Y185621D01*
X65610Y185570D01*
X65588Y185541D01*
X65581Y185526D01*
X65530Y185468D01*
X65464Y185424D01*
X65398Y185388D01*
X65333Y185358D01*
X65267Y185344D01*
X65216Y185329D01*
X65187Y185322D01*
X65172D01*
X65092Y184717D01*
X65201D01*
X65296Y184731D01*
X65391Y184746D01*
X65479Y184768D01*
X65632Y184833D01*
X65756Y184906D01*
X65850Y184979D01*
X65916Y185038D01*
X65960Y185089D01*
X65967Y185096D01*
X65974Y185103D01*
X66076Y185264D01*
X66149Y185439D01*
X66200Y185614D01*
X66237Y185781D01*
X66251Y185861D01*
X66259Y185934D01*
X66266Y185993D01*
Y186051D01*
X66273Y186095D01*
Y184593D01*
X62949D01*
X63087Y184600D01*
X63226Y184608D01*
X63474Y184659D01*
X63590Y184688D01*
X63692Y184724D01*
X63795Y184760D01*
X63882Y184797D01*
X63969Y184833D01*
X64042Y184870D01*
X64101Y184906D01*
X64159Y184935D01*
X64196Y184965D01*
X64232Y184986D01*
X64247Y184994D01*
X64254Y185001D01*
X64349Y185081D01*
X64429Y185169D01*
X64502Y185264D01*
X64567Y185358D01*
X64618Y185460D01*
X64662Y185555D01*
X64698Y185650D01*
X64728Y185745D01*
X64750Y185832D01*
X64764Y185912D01*
X64779Y185985D01*
X64786Y186051D01*
Y186102D01*
X64793Y186138D01*
Y186175D01*
X64786Y186284D01*
X64771Y186393D01*
X64750Y186496D01*
X64720Y186590D01*
X64640Y186758D01*
X64553Y186911D01*
X64509Y186969D01*
X64465Y187028D01*
X64421Y187079D01*
X64385Y187115D01*
X64356Y187144D01*
X64334Y187166D01*
X64319Y187181D01*
X64312Y187188D01*
X64421D01*
X64516D01*
X64611Y187181D01*
D02*
G37*
G36*
X64793Y181531D02*
X62803D01*
X62679D01*
X62555Y181546D01*
X62453Y181560D01*
X62358Y181575D01*
X62271Y181597D01*
X62191Y181619D01*
X62118Y181648D01*
X62060Y181677D01*
X62009Y181699D01*
X61965Y181728D01*
X61928Y181750D01*
X61899Y181772D01*
X61863Y181801D01*
X61848Y181815D01*
X61761Y181925D01*
X61702Y182041D01*
X61659Y182158D01*
X61622Y182260D01*
X61608Y182355D01*
X61600Y182428D01*
X61593Y182457D01*
Y182493D01*
X61600Y182581D01*
X61608Y182668D01*
X61629Y182741D01*
X61651Y182799D01*
X61673Y182851D01*
X61688Y182894D01*
X61702Y182916D01*
X61710Y182923D01*
X61753Y182989D01*
X61804Y183047D01*
X61855Y183091D01*
X61899Y183128D01*
X61943Y183150D01*
X61979Y183171D01*
X62001Y183186D01*
X62009D01*
X62089Y183208D01*
X62176Y183230D01*
X62271Y183244D01*
X62366Y183252D01*
X62446Y183259D01*
X62511D01*
X62563D01*
X62570D01*
X62577D01*
X64793D01*
Y181531D01*
D02*
G37*
G36*
X62439Y173898D02*
X62628Y173884D01*
X62796Y173862D01*
X62942Y173840D01*
X63000Y173826D01*
X63051Y173811D01*
X63102Y173796D01*
X63139Y173789D01*
X63168Y173782D01*
X63190Y173775D01*
X63204Y173767D01*
X63211D01*
X63350Y173716D01*
X63474Y173658D01*
X63583Y173592D01*
X63678Y173534D01*
X63751Y173483D01*
X63802Y173439D01*
X63831Y173410D01*
X63846Y173403D01*
X63904Y173330D01*
X63955Y173257D01*
X63999Y173184D01*
X64042Y173111D01*
X64072Y173046D01*
X64094Y172994D01*
X64101Y172958D01*
X64108Y172943D01*
X64137Y172834D01*
X64159Y172703D01*
X64174Y172572D01*
X64181Y172448D01*
X64188Y172338D01*
X64196Y172287D01*
Y171092D01*
X60346D01*
Y172258D01*
X60354Y172353D01*
Y172448D01*
X60361Y172535D01*
X60383Y172681D01*
X60397Y172798D01*
X60419Y172892D01*
X60441Y172958D01*
X60448Y172994D01*
X60456Y173009D01*
X60521Y173140D01*
X60602Y173264D01*
X60696Y173374D01*
X60791Y173468D01*
X60879Y173541D01*
X60952Y173600D01*
X60981Y173614D01*
X61002Y173629D01*
X61017Y173643D01*
X61024D01*
X61105Y173687D01*
X61199Y173731D01*
X61389Y173796D01*
X61593Y173840D01*
X61790Y173877D01*
X61877Y173884D01*
X61965Y173891D01*
X62038Y173898D01*
X62103D01*
X62162Y173906D01*
X62198D01*
X62227D01*
X62234D01*
X62439Y173898D01*
D02*
G37*
G36*
X64793Y162045D02*
X60835D01*
X64793Y164684D01*
Y162045D01*
D02*
G37*
G36*
X62614Y147676D02*
X62446Y147698D01*
X62293Y147742D01*
X62162Y147793D01*
X62060Y147851D01*
X61972Y147902D01*
X61906Y147953D01*
X61870Y147983D01*
X61855Y147997D01*
X61761Y148114D01*
X61688Y148230D01*
X61637Y148354D01*
X61600Y148471D01*
X61578Y148566D01*
X61571Y148646D01*
X61564Y148675D01*
Y148719D01*
X61571Y148806D01*
X61578Y148887D01*
X61622Y149040D01*
X61681Y149171D01*
X61746Y149280D01*
X61812Y149368D01*
X61870Y149433D01*
X61914Y149470D01*
X61921Y149484D01*
X61928D01*
X62023Y149550D01*
X62132Y149608D01*
X62242Y149645D01*
X62358Y149681D01*
X62453Y149703D01*
X62541Y149717D01*
X62570D01*
X62592Y149725D01*
X62606D01*
X62614D01*
Y147676D01*
D02*
G37*
G36*
X64793Y143915D02*
X62803D01*
X62679D01*
X62555Y143929D01*
X62453Y143944D01*
X62358Y143958D01*
X62271Y143980D01*
X62191Y144002D01*
X62118Y144031D01*
X62060Y144061D01*
X62009Y144082D01*
X61965Y144112D01*
X61928Y144133D01*
X61899Y144155D01*
X61863Y144184D01*
X61848Y144199D01*
X61761Y144308D01*
X61702Y144425D01*
X61659Y144542D01*
X61622Y144644D01*
X61608Y144738D01*
X61600Y144811D01*
X61593Y144841D01*
Y144877D01*
X61600Y144964D01*
X61608Y145052D01*
X61629Y145125D01*
X61651Y145183D01*
X61673Y145234D01*
X61688Y145278D01*
X61702Y145300D01*
X61710Y145307D01*
X61753Y145373D01*
X61804Y145431D01*
X61855Y145475D01*
X61899Y145511D01*
X61943Y145533D01*
X61979Y145555D01*
X62001Y145570D01*
X62009D01*
X62089Y145591D01*
X62176Y145613D01*
X62271Y145628D01*
X62366Y145635D01*
X62446Y145642D01*
X62511D01*
X62563D01*
X62570D01*
X62577D01*
X64793D01*
Y143915D01*
D02*
G37*
G36*
X63175Y141764D02*
X63284Y141750D01*
X63379Y141735D01*
X63474Y141713D01*
X63561Y141684D01*
X63634Y141662D01*
X63700Y141633D01*
X63765Y141604D01*
X63816Y141582D01*
X63860Y141553D01*
X63889Y141531D01*
X63919Y141516D01*
X63940Y141502D01*
X63948Y141487D01*
X63955D01*
X64013Y141429D01*
X64064Y141370D01*
X64144Y141254D01*
X64203Y141130D01*
X64239Y141021D01*
X64268Y140919D01*
X64276Y140838D01*
X64283Y140809D01*
Y140765D01*
X64276Y140685D01*
X64268Y140612D01*
X64232Y140474D01*
X64181Y140350D01*
X64115Y140248D01*
X64057Y140160D01*
X64006Y140102D01*
X63969Y140066D01*
X63955Y140051D01*
X63889Y140000D01*
X63816Y139956D01*
X63649Y139883D01*
X63481Y139840D01*
X63306Y139803D01*
X63153Y139781D01*
X63080Y139774D01*
X63022D01*
X62971Y139767D01*
X62934D01*
X62912D01*
X62905D01*
X62781D01*
X62672Y139781D01*
X62570Y139796D01*
X62468Y139810D01*
X62380Y139832D01*
X62300Y139854D01*
X62220Y139883D01*
X62154Y139912D01*
X62096Y139934D01*
X62045Y139963D01*
X62001Y139985D01*
X61972Y140007D01*
X61943Y140022D01*
X61921Y140036D01*
X61914Y140051D01*
X61906D01*
X61848Y140109D01*
X61790Y140168D01*
X61710Y140284D01*
X61644Y140401D01*
X61608Y140517D01*
X61578Y140612D01*
X61571Y140692D01*
X61564Y140722D01*
Y140838D01*
X61578Y140911D01*
X61615Y141050D01*
X61673Y141174D01*
X61731Y141276D01*
X61797Y141363D01*
X61855Y141429D01*
X61892Y141465D01*
X61899Y141480D01*
X61906D01*
X61972Y141531D01*
X62045Y141582D01*
X62213Y141655D01*
X62380Y141706D01*
X62548Y141742D01*
X62694Y141764D01*
X62759Y141771D01*
X62818D01*
X62862Y141779D01*
X62898D01*
X62920D01*
X62927D01*
X63051D01*
X63175Y141764D01*
D02*
G37*
G36*
X64611Y141720D02*
X64691D01*
X64764D01*
X64830Y141713D01*
X64888D01*
X64939Y141706D01*
X65012Y141699D01*
X65070Y141691D01*
X65100Y141684D01*
X65107D01*
X65216Y141648D01*
X65311Y141596D01*
X65391Y141545D01*
X65464Y141494D01*
X65515Y141443D01*
X65559Y141400D01*
X65581Y141370D01*
X65588Y141363D01*
X65646Y141268D01*
X65690Y141159D01*
X65719Y141050D01*
X65741Y140948D01*
X65756Y140846D01*
X65763Y140773D01*
Y140700D01*
X65756Y140561D01*
X65734Y140430D01*
X65705Y140321D01*
X65668Y140233D01*
X65639Y140160D01*
X65610Y140109D01*
X65588Y140080D01*
X65581Y140066D01*
X65530Y140007D01*
X65464Y139963D01*
X65398Y139927D01*
X65333Y139898D01*
X65267Y139883D01*
X65216Y139869D01*
X65187Y139861D01*
X65172D01*
X65092Y139256D01*
X65201D01*
X65296Y139271D01*
X65391Y139286D01*
X65479Y139307D01*
X65632Y139373D01*
X65756Y139446D01*
X65850Y139519D01*
X65916Y139577D01*
X65960Y139628D01*
X65967Y139635D01*
X65974Y139643D01*
X66076Y139803D01*
X66149Y139978D01*
X66200Y140153D01*
X66237Y140321D01*
X66251Y140401D01*
X66259Y140474D01*
X66266Y140532D01*
Y140590D01*
X66273Y140634D01*
Y139132D01*
X62949D01*
X63087Y139140D01*
X63226Y139147D01*
X63474Y139198D01*
X63590Y139227D01*
X63692Y139264D01*
X63795Y139300D01*
X63882Y139337D01*
X63969Y139373D01*
X64042Y139409D01*
X64101Y139446D01*
X64159Y139475D01*
X64196Y139504D01*
X64232Y139526D01*
X64247Y139533D01*
X64254Y139541D01*
X64349Y139621D01*
X64429Y139708D01*
X64502Y139803D01*
X64567Y139898D01*
X64618Y140000D01*
X64662Y140095D01*
X64698Y140190D01*
X64728Y140284D01*
X64750Y140372D01*
X64764Y140452D01*
X64779Y140525D01*
X64786Y140590D01*
Y140641D01*
X64793Y140678D01*
Y140714D01*
X64786Y140824D01*
X64771Y140933D01*
X64750Y141035D01*
X64720Y141130D01*
X64640Y141298D01*
X64553Y141451D01*
X64509Y141509D01*
X64465Y141567D01*
X64421Y141618D01*
X64385Y141655D01*
X64356Y141684D01*
X64334Y141706D01*
X64319Y141720D01*
X64312Y141728D01*
X64421D01*
X64516D01*
X64611Y141720D01*
D02*
G37*
G36*
X62614Y130815D02*
X62446Y130836D01*
X62293Y130880D01*
X62162Y130931D01*
X62060Y130990D01*
X61972Y131041D01*
X61906Y131092D01*
X61870Y131121D01*
X61855Y131135D01*
X61761Y131252D01*
X61688Y131369D01*
X61637Y131492D01*
X61600Y131609D01*
X61578Y131704D01*
X61571Y131784D01*
X61564Y131813D01*
Y131857D01*
X61571Y131945D01*
X61578Y132025D01*
X61622Y132178D01*
X61681Y132309D01*
X61746Y132418D01*
X61812Y132506D01*
X61870Y132571D01*
X61914Y132608D01*
X61921Y132623D01*
X61928D01*
X62023Y132688D01*
X62132Y132746D01*
X62242Y132783D01*
X62358Y132819D01*
X62453Y132841D01*
X62541Y132856D01*
X62570D01*
X62592Y132863D01*
X62606D01*
X62614D01*
Y130815D01*
D02*
G37*
G36*
X62439Y128824D02*
X62628Y128810D01*
X62796Y128788D01*
X62942Y128766D01*
X63000Y128752D01*
X63051Y128737D01*
X63102Y128722D01*
X63139Y128715D01*
X63168Y128708D01*
X63190Y128700D01*
X63204Y128693D01*
X63211D01*
X63350Y128642D01*
X63474Y128584D01*
X63583Y128518D01*
X63678Y128460D01*
X63751Y128409D01*
X63802Y128365D01*
X63831Y128336D01*
X63846Y128329D01*
X63904Y128256D01*
X63955Y128183D01*
X63999Y128110D01*
X64042Y128037D01*
X64072Y127971D01*
X64094Y127920D01*
X64101Y127884D01*
X64108Y127869D01*
X64137Y127760D01*
X64159Y127629D01*
X64174Y127498D01*
X64181Y127374D01*
X64188Y127264D01*
X64196Y127213D01*
Y126018D01*
X60346D01*
Y127184D01*
X60354Y127279D01*
Y127374D01*
X60361Y127461D01*
X60383Y127607D01*
X60397Y127724D01*
X60419Y127818D01*
X60441Y127884D01*
X60448Y127920D01*
X60456Y127935D01*
X60521Y128066D01*
X60602Y128190D01*
X60696Y128299D01*
X60791Y128394D01*
X60879Y128467D01*
X60952Y128525D01*
X60981Y128540D01*
X61002Y128555D01*
X61017Y128569D01*
X61024D01*
X61105Y128613D01*
X61199Y128657D01*
X61389Y128722D01*
X61593Y128766D01*
X61790Y128803D01*
X61877Y128810D01*
X61965Y128817D01*
X62038Y128824D01*
X62103D01*
X62162Y128832D01*
X62198D01*
X62227D01*
X62234D01*
X62439Y128824D01*
D02*
G37*
%LPC*%
G36*
X42538Y27389D02*
Y26317D01*
X43792Y26062D01*
Y27134D01*
X42538Y27389D01*
D02*
G37*
G36*
X43843Y20143D02*
Y20135D01*
X43850Y20128D01*
X43858Y20106D01*
X43865Y20077D01*
X43880Y20041D01*
X43894Y19997D01*
X43909Y19946D01*
X43923Y19888D01*
X43945Y19822D01*
X43960Y19742D01*
X43982Y19662D01*
X44003Y19567D01*
X44025Y19465D01*
X44047Y19363D01*
X44062Y19246D01*
X44084Y19122D01*
Y19108D01*
X44091Y19064D01*
X44106Y18991D01*
X44120Y18911D01*
X44135Y18823D01*
X44157Y18736D01*
X44179Y18656D01*
X44208Y18583D01*
Y18575D01*
X44222Y18554D01*
X44237Y18524D01*
X44259Y18495D01*
X44317Y18408D01*
X44405Y18335D01*
X44412D01*
X44426Y18320D01*
X44456Y18313D01*
X44492Y18298D01*
X44536Y18284D01*
X44579Y18269D01*
X44638Y18262D01*
X44696Y18255D01*
X44703D01*
X44740D01*
X44784Y18262D01*
X44842Y18277D01*
X44908Y18298D01*
X44973Y18335D01*
X45046Y18379D01*
X45112Y18437D01*
X45119Y18444D01*
X45134Y18473D01*
X45163Y18517D01*
X45192Y18575D01*
X45221Y18656D01*
X45250Y18750D01*
X45265Y18860D01*
X45272Y18991D01*
Y19049D01*
X45265Y19122D01*
X45250Y19202D01*
X45236Y19304D01*
X45206Y19407D01*
X45170Y19516D01*
X45119Y19625D01*
X45112Y19640D01*
X45090Y19669D01*
X45053Y19720D01*
X45002Y19778D01*
X44944Y19844D01*
X44871Y19917D01*
X44784Y19975D01*
X44689Y20033D01*
X44682Y20041D01*
X44652Y20048D01*
X44601Y20063D01*
X44536Y20085D01*
X44448Y20106D01*
X44346Y20121D01*
X44222Y20128D01*
X44076Y20135D01*
X43843Y20143D01*
D02*
G37*
G36*
X43501Y12474D02*
X43493D01*
X43479D01*
X43457Y12466D01*
X43428D01*
X43340Y12452D01*
X43245Y12430D01*
X43129Y12393D01*
X43019Y12357D01*
X42910Y12299D01*
X42815Y12233D01*
X42808D01*
X42801Y12219D01*
X42757Y12182D01*
X42699Y12116D01*
X42633Y12029D01*
X42567Y11920D01*
X42509Y11789D01*
X42465Y11635D01*
X42458Y11555D01*
X42451Y11468D01*
Y11424D01*
X42458Y11395D01*
X42465Y11315D01*
X42487Y11220D01*
X42524Y11103D01*
X42575Y10979D01*
X42648Y10863D01*
X42742Y10746D01*
X42757Y10731D01*
X42793Y10702D01*
X42859Y10651D01*
X42946Y10600D01*
X43049Y10542D01*
X43180Y10491D01*
X43333Y10447D01*
X43501Y10425D01*
Y12474D01*
D02*
G37*
G36*
X65640Y99025D02*
X60486D01*
Y95730D01*
Y97378D01*
X60501Y97181D01*
X60530Y96999D01*
X60581Y96845D01*
X60632Y96714D01*
X60690Y96605D01*
X60712Y96561D01*
X60741Y96525D01*
X60756Y96495D01*
X60770Y96474D01*
X60785Y96466D01*
Y96459D01*
X60901Y96328D01*
X61040Y96219D01*
X61178Y96124D01*
X61310Y96051D01*
X61434Y95992D01*
X61485Y95963D01*
X61536Y95949D01*
X61572Y95934D01*
X61601Y95920D01*
X61616Y95912D01*
X61623D01*
X61733Y95883D01*
X61842Y95854D01*
X62082Y95810D01*
X62323Y95774D01*
X62549Y95752D01*
X62658Y95745D01*
X62753Y95737D01*
X62841D01*
X62921Y95730D01*
X63067D01*
X63322Y95737D01*
X63562Y95752D01*
X63781Y95774D01*
X63985Y95810D01*
X64175Y95847D01*
X64342Y95890D01*
X64495Y95934D01*
X64627Y95978D01*
X64743Y96022D01*
X64845Y96073D01*
X64933Y96109D01*
X64998Y96146D01*
X65057Y96182D01*
X65093Y96204D01*
X65115Y96219D01*
X65122Y96226D01*
X65210Y96306D01*
X65290Y96393D01*
X65363Y96488D01*
X65421Y96583D01*
X65472Y96678D01*
X65516Y96772D01*
X65545Y96867D01*
X65574Y96955D01*
X65596Y97042D01*
X65611Y97122D01*
X65625Y97195D01*
X65633Y97254D01*
X65640Y97305D01*
Y97378D01*
X65625Y97574D01*
X65596Y97757D01*
X65545Y97910D01*
X65494Y98041D01*
X65443Y98150D01*
X65414Y98187D01*
X65392Y98223D01*
X65377Y98252D01*
X65363Y98274D01*
X65348Y98282D01*
Y98289D01*
X65224Y98420D01*
X65093Y98529D01*
X64947Y98624D01*
X64816Y98697D01*
X64692Y98755D01*
X64641Y98785D01*
X64590Y98799D01*
X64554Y98814D01*
X64525Y98828D01*
X64510Y98836D01*
X64503D01*
X64393Y98872D01*
X64284Y98901D01*
X64051Y98945D01*
X63810Y98981D01*
X63577Y99003D01*
X63475Y99010D01*
X63380Y99018D01*
X63293D01*
X63212Y99025D01*
X65640D01*
D02*
G37*
G36*
X65553Y95351D02*
X61893D01*
Y91990D01*
X65553Y93368D01*
Y93959D01*
X61893Y95351D01*
X65553D01*
D01*
D02*
G37*
G36*
Y90613D02*
X60486D01*
Y88753D01*
Y90211D01*
X60610Y90139D01*
X60726Y90058D01*
X60843Y89964D01*
X60945Y89876D01*
X61033Y89789D01*
X61106Y89723D01*
X61127Y89694D01*
X61149Y89672D01*
X61157Y89665D01*
X61164Y89657D01*
X61288Y89504D01*
X61405Y89351D01*
X61506Y89205D01*
X61587Y89060D01*
X61660Y88936D01*
X61689Y88885D01*
X61711Y88841D01*
X61733Y88805D01*
X61740Y88775D01*
X61754Y88761D01*
Y88753D01*
X62352D01*
X62308Y88863D01*
X62257Y88972D01*
X62206Y89082D01*
X62155Y89184D01*
X62112Y89271D01*
X62075Y89344D01*
X62046Y89388D01*
X62039Y89395D01*
Y89402D01*
X61958Y89534D01*
X61878Y89650D01*
X61805Y89752D01*
X61740Y89832D01*
X61689Y89905D01*
X61645Y89949D01*
X61616Y89986D01*
X61609Y89993D01*
X65553D01*
Y90613D01*
D02*
G37*
G36*
Y85407D02*
X61893D01*
Y84700D01*
X62600D01*
Y85407D01*
X64845D01*
Y84700D01*
X65553D01*
Y85407D01*
D02*
G37*
G36*
Y82768D02*
X60486D01*
Y80910D01*
D01*
Y82367D01*
X60610Y82295D01*
X60726Y82214D01*
X60843Y82120D01*
X60945Y82032D01*
X61033Y81945D01*
X61106Y81879D01*
X61127Y81850D01*
X61149Y81828D01*
X61157Y81821D01*
X61164Y81813D01*
X61288Y81660D01*
X61405Y81507D01*
X61506Y81362D01*
X61587Y81216D01*
X61660Y81092D01*
X61689Y81041D01*
X61711Y80997D01*
X61733Y80961D01*
X61740Y80931D01*
X61754Y80917D01*
Y80910D01*
X62352D01*
X62308Y81019D01*
X62257Y81128D01*
X62206Y81238D01*
X62155Y81340D01*
X62112Y81427D01*
X62075Y81500D01*
X62046Y81544D01*
X62039Y81551D01*
Y81558D01*
X61958Y81690D01*
X61878Y81806D01*
X61805Y81908D01*
X61740Y81988D01*
X61689Y82061D01*
X61645Y82105D01*
X61616Y82142D01*
X61609Y82149D01*
X65553D01*
Y82768D01*
D02*
G37*
G36*
Y79656D02*
X61813D01*
X63154D01*
X63030Y79648D01*
X62928Y79641D01*
X62841D01*
X62782Y79634D01*
X62739Y79626D01*
X62709Y79619D01*
X62702D01*
X62607Y79597D01*
X62520Y79561D01*
X62447Y79532D01*
X62374Y79502D01*
X62323Y79466D01*
X62287Y79444D01*
X62257Y79430D01*
X62250Y79422D01*
X62177Y79364D01*
X62119Y79298D01*
X62061Y79233D01*
X62017Y79160D01*
X61980Y79102D01*
X61958Y79050D01*
X61944Y79021D01*
X61937Y79007D01*
X61893Y78905D01*
X61864Y78795D01*
X61842Y78693D01*
X61827Y78598D01*
X61820Y78518D01*
X61813Y78460D01*
Y78402D01*
X61820Y78263D01*
X61842Y78132D01*
X61871Y78015D01*
X61908Y77899D01*
X61951Y77797D01*
X62002Y77702D01*
X62061Y77614D01*
X62112Y77542D01*
X62170Y77469D01*
X62228Y77410D01*
X62279Y77359D01*
X62323Y77315D01*
X62359Y77286D01*
X62389Y77264D01*
X62410Y77250D01*
X62418Y77243D01*
X61893D01*
Y76689D01*
X65553D01*
Y79656D01*
D02*
G37*
G36*
X65633Y75960D02*
X61813D01*
X63672D01*
X63511Y75952D01*
X63366Y75938D01*
X63227Y75916D01*
X63096Y75887D01*
X62972Y75850D01*
X62862Y75806D01*
X62753Y75763D01*
X62666Y75719D01*
X62586Y75675D01*
X62512Y75631D01*
X62447Y75588D01*
X62396Y75551D01*
X62359Y75522D01*
X62330Y75500D01*
X62316Y75486D01*
X62308Y75478D01*
X62221Y75384D01*
X62148Y75289D01*
X62075Y75187D01*
X62024Y75085D01*
X61973Y74983D01*
X61937Y74881D01*
X61871Y74684D01*
X61856Y74589D01*
X61842Y74509D01*
X61827Y74436D01*
X61820Y74370D01*
X61813Y74319D01*
Y74246D01*
X61820Y74123D01*
X61827Y74006D01*
X61878Y73780D01*
X61944Y73583D01*
X61980Y73496D01*
X62017Y73415D01*
X62053Y73342D01*
X62090Y73284D01*
X62126Y73226D01*
X62155Y73182D01*
X62185Y73146D01*
X62206Y73116D01*
X62214Y73102D01*
X62221Y73095D01*
X62316Y72992D01*
X62425Y72912D01*
X62542Y72832D01*
X62658Y72774D01*
X62782Y72716D01*
X62914Y72672D01*
X63037Y72635D01*
X63154Y72606D01*
X63271Y72577D01*
X63373Y72562D01*
X63475Y72548D01*
X63555Y72540D01*
X63628D01*
X63679Y72533D01*
X63723D01*
X63890Y72540D01*
X64051Y72555D01*
X64196Y72577D01*
X64335Y72606D01*
X64459Y72643D01*
X64576Y72679D01*
X64685Y72723D01*
X64780Y72767D01*
X64867Y72810D01*
X64940Y72854D01*
X64998Y72891D01*
X65049Y72927D01*
X65093Y72956D01*
X65122Y72978D01*
X65137Y72992D01*
X65144Y73000D01*
X65232Y73095D01*
X65305Y73189D01*
X65370Y73291D01*
X65429Y73393D01*
X65472Y73496D01*
X65516Y73605D01*
X65574Y73802D01*
X65589Y73889D01*
X65604Y73977D01*
X65618Y74050D01*
X65625Y74115D01*
X65633Y74173D01*
Y74246D01*
X65625Y74421D01*
X65596Y74582D01*
X65560Y74735D01*
X65523Y74859D01*
X65480Y74968D01*
X65465Y75012D01*
X65450Y75048D01*
X65436Y75085D01*
X65421Y75107D01*
X65414Y75114D01*
Y75121D01*
X65319Y75267D01*
X65217Y75391D01*
X65115Y75500D01*
X65013Y75588D01*
X64925Y75653D01*
X64853Y75704D01*
X64824Y75719D01*
X64802Y75734D01*
X64794Y75741D01*
X64787D01*
X64619Y75814D01*
X64437Y75865D01*
X64255Y75908D01*
X64073Y75930D01*
X63992Y75945D01*
X63920D01*
X63847Y75952D01*
X63788Y75960D01*
X65633D01*
D02*
G37*
G36*
X63679Y72533D02*
X61813D01*
X63679D01*
D01*
D02*
G37*
G36*
X65553Y71819D02*
X60508D01*
Y71199D01*
X61215D01*
Y71819D01*
X61893D01*
Y71199D01*
X65553D01*
Y71819D01*
D02*
G37*
G36*
X65633Y70463D02*
X61813D01*
X64481D01*
X64364Y70456D01*
X64262Y70441D01*
X64175Y70412D01*
X64095Y70390D01*
X64029Y70361D01*
X63985Y70332D01*
X63956Y70317D01*
X63949Y70310D01*
X63876Y70252D01*
X63810Y70186D01*
X63752Y70120D01*
X63708Y70055D01*
X63672Y69989D01*
X63650Y69945D01*
X63635Y69916D01*
X63628Y69902D01*
X63606Y69850D01*
X63584Y69792D01*
X63533Y69654D01*
X63482Y69501D01*
X63438Y69348D01*
X63395Y69209D01*
X63380Y69143D01*
X63366Y69092D01*
X63351Y69049D01*
X63344Y69012D01*
X63336Y68990D01*
Y68983D01*
X63314Y68903D01*
X63293Y68830D01*
X63278Y68764D01*
X63256Y68706D01*
X63234Y68611D01*
X63212Y68538D01*
X63191Y68487D01*
X63183Y68458D01*
X63176Y68444D01*
Y68436D01*
X63147Y68378D01*
X63125Y68327D01*
X63096Y68283D01*
X63074Y68254D01*
X63052Y68225D01*
X63030Y68210D01*
X63023Y68203D01*
X63016Y68196D01*
X62943Y68152D01*
X62870Y68130D01*
X62841D01*
X62819Y68123D01*
X62804D01*
X62797D01*
X62731Y68130D01*
X62666Y68152D01*
X62607Y68181D01*
X62564Y68218D01*
X62520Y68247D01*
X62491Y68276D01*
X62476Y68298D01*
X62469Y68305D01*
X62418Y68385D01*
X62381Y68480D01*
X62359Y68582D01*
X62338Y68677D01*
X62330Y68772D01*
X62323Y68844D01*
Y68917D01*
X62330Y69041D01*
X62345Y69158D01*
X62374Y69253D01*
X62403Y69326D01*
X62432Y69391D01*
X62462Y69435D01*
X62476Y69464D01*
X62483Y69472D01*
X62549Y69544D01*
X62622Y69595D01*
X62695Y69639D01*
X62760Y69676D01*
X62826Y69697D01*
X62877Y69712D01*
X62906Y69719D01*
X62921D01*
X62841Y70324D01*
X62717Y70295D01*
X62607Y70266D01*
X62512Y70230D01*
X62425Y70193D01*
X62367Y70157D01*
X62316Y70128D01*
X62287Y70113D01*
X62279Y70106D01*
X62206Y70040D01*
X62141Y69967D01*
X62082Y69887D01*
X62031Y69807D01*
X61995Y69734D01*
X61966Y69676D01*
X61951Y69639D01*
X61944Y69632D01*
Y69625D01*
X61900Y69501D01*
X61871Y69369D01*
X61842Y69245D01*
X61827Y69129D01*
X61820Y69020D01*
X61813Y68939D01*
Y68764D01*
X61827Y68662D01*
X61835Y68575D01*
X61849Y68495D01*
X61864Y68429D01*
X61878Y68378D01*
X61886Y68349D01*
X61893Y68334D01*
X61922Y68247D01*
X61951Y68167D01*
X61980Y68101D01*
X62010Y68043D01*
X62031Y67999D01*
X62053Y67970D01*
X62061Y67948D01*
X62068Y67941D01*
X62119Y67868D01*
X62177Y67809D01*
X62243Y67758D01*
X62294Y67715D01*
X62345Y67678D01*
X62381Y67656D01*
X62410Y67642D01*
X62418Y67634D01*
X62498Y67598D01*
X62571Y67569D01*
X62651Y67554D01*
X62717Y67540D01*
X62782Y67532D01*
X62826Y67525D01*
X62855D01*
X62870D01*
X62972Y67532D01*
X63059Y67547D01*
X63147Y67569D01*
X63220Y67591D01*
X63278Y67612D01*
X63329Y67634D01*
X63358Y67649D01*
X63366Y67656D01*
X63446Y67715D01*
X63511Y67780D01*
X63570Y67846D01*
X63621Y67911D01*
X63657Y67970D01*
X63686Y68014D01*
X63701Y68043D01*
X63708Y68057D01*
X63730Y68108D01*
X63759Y68174D01*
X63810Y68320D01*
X63854Y68473D01*
X63905Y68633D01*
X63941Y68772D01*
X63963Y68837D01*
X63978Y68896D01*
X63992Y68939D01*
X64000Y68976D01*
X64007Y68998D01*
Y69005D01*
X64029Y69100D01*
X64051Y69180D01*
X64073Y69253D01*
X64095Y69318D01*
X64109Y69377D01*
X64131Y69428D01*
X64160Y69515D01*
X64182Y69573D01*
X64204Y69610D01*
X64211Y69632D01*
X64218Y69639D01*
X64262Y69705D01*
X64320Y69749D01*
X64372Y69785D01*
X64423Y69807D01*
X64474Y69821D01*
X64510Y69829D01*
X64539D01*
X64547D01*
X64634Y69821D01*
X64707Y69800D01*
X64780Y69763D01*
X64838Y69727D01*
X64889Y69683D01*
X64925Y69654D01*
X64947Y69625D01*
X64955Y69617D01*
X65013Y69530D01*
X65049Y69435D01*
X65079Y69326D01*
X65101Y69224D01*
X65115Y69129D01*
X65122Y69056D01*
Y68983D01*
X65115Y68830D01*
X65093Y68699D01*
X65064Y68589D01*
X65028Y68495D01*
X64991Y68422D01*
X64962Y68363D01*
X64940Y68334D01*
X64933Y68320D01*
X64853Y68239D01*
X64758Y68174D01*
X64663Y68130D01*
X64576Y68094D01*
X64495Y68064D01*
X64423Y68050D01*
X64379Y68035D01*
X64372D01*
X64364D01*
X64459Y67423D01*
X64663Y67474D01*
X64845Y67540D01*
X64991Y67620D01*
X65115Y67700D01*
X65217Y67773D01*
X65283Y67839D01*
X65326Y67882D01*
X65334Y67889D01*
X65341Y67897D01*
X65392Y67970D01*
X65436Y68050D01*
X65509Y68225D01*
X65560Y68407D01*
X65596Y68582D01*
X65611Y68662D01*
X65618Y68735D01*
X65625Y68808D01*
Y68866D01*
X65633Y68917D01*
Y68983D01*
X65625Y69143D01*
X65611Y69282D01*
X65589Y69413D01*
X65560Y69530D01*
X65531Y69625D01*
X65509Y69697D01*
X65494Y69741D01*
X65487Y69749D01*
Y69756D01*
X65421Y69880D01*
X65356Y69982D01*
X65283Y70069D01*
X65217Y70149D01*
X65159Y70208D01*
X65108Y70244D01*
X65079Y70273D01*
X65064Y70281D01*
X64962Y70339D01*
X64853Y70383D01*
X64758Y70419D01*
X64670Y70441D01*
X64590Y70456D01*
X64532Y70463D01*
X65633D01*
D02*
G37*
G36*
X65553Y66723D02*
X60508D01*
Y66104D01*
X61215D01*
Y66723D01*
X61893D01*
Y66104D01*
X65553D01*
Y66723D01*
D02*
G37*
G36*
Y65549D02*
X61893D01*
D01*
X65553D01*
D02*
G37*
G36*
D02*
D01*
Y64157D01*
X61893Y65549D01*
Y64908D01*
X64131Y64099D01*
X64277Y64048D01*
X64408Y63997D01*
X64532Y63960D01*
X64627Y63924D01*
X64714Y63902D01*
X64772Y63880D01*
X64809Y63873D01*
X64824Y63865D01*
X64685Y63822D01*
X64547Y63785D01*
X64423Y63741D01*
X64313Y63705D01*
X64218Y63676D01*
X64145Y63654D01*
X64124Y63647D01*
X64102Y63639D01*
X64095Y63632D01*
X64087D01*
X61893Y62845D01*
Y62189D01*
D01*
X65553Y63567D01*
Y62189D01*
D01*
D01*
Y65549D01*
D02*
G37*
G36*
X65633Y61817D02*
X61813D01*
X63723D01*
X63555Y61810D01*
X63402Y61795D01*
X63256Y61773D01*
X63118Y61744D01*
X62994Y61708D01*
X62877Y61671D01*
X62775Y61627D01*
X62680Y61584D01*
X62593Y61540D01*
X62520Y61496D01*
X62462Y61460D01*
X62410Y61423D01*
X62367Y61394D01*
X62338Y61372D01*
X62323Y61358D01*
X62316Y61350D01*
X62228Y61263D01*
X62148Y61168D01*
X62082Y61066D01*
X62024Y60964D01*
X61973Y60862D01*
X61937Y60767D01*
X61900Y60665D01*
X61878Y60578D01*
X61856Y60483D01*
X61842Y60403D01*
X61827Y60330D01*
X61820Y60272D01*
X61813Y60220D01*
Y60148D01*
X61820Y60009D01*
X61835Y59878D01*
X61856Y59754D01*
X61893Y59637D01*
X61929Y59528D01*
X61973Y59426D01*
X62017Y59331D01*
X62068Y59251D01*
X62112Y59171D01*
X62163Y59105D01*
X62206Y59047D01*
X62243Y59003D01*
X62279Y58967D01*
X62301Y58937D01*
X62316Y58923D01*
X62323Y58916D01*
X62425Y58835D01*
X62534Y58763D01*
X62644Y58697D01*
X62760Y58639D01*
X62884Y58595D01*
X63001Y58558D01*
X63234Y58500D01*
X63336Y58478D01*
X63438Y58464D01*
X63526Y58456D01*
X63606Y58449D01*
X63672Y58442D01*
X63759D01*
X63920Y58449D01*
X64073Y58464D01*
X64218Y58485D01*
X64350Y58515D01*
X64474Y58551D01*
X64590Y58587D01*
X64692Y58631D01*
X64787Y58675D01*
X64867Y58719D01*
X64940Y58763D01*
X64998Y58799D01*
X65049Y58835D01*
X65093Y58864D01*
X65122Y58886D01*
X65137Y58901D01*
X65144Y58908D01*
X65232Y59003D01*
X65305Y59098D01*
X65370Y59200D01*
X65429Y59309D01*
X65472Y59411D01*
X65516Y59521D01*
X65574Y59725D01*
X65589Y59820D01*
X65604Y59907D01*
X65618Y59987D01*
X65625Y60053D01*
X65633Y60104D01*
Y60184D01*
X65618Y60410D01*
X65582Y60614D01*
X65538Y60796D01*
X65509Y60869D01*
X65480Y60942D01*
X65450Y61008D01*
X65421Y61066D01*
X65399Y61110D01*
X65377Y61154D01*
X65356Y61183D01*
X65341Y61205D01*
X65326Y61219D01*
Y61226D01*
X65195Y61372D01*
X65057Y61489D01*
X64911Y61591D01*
X64772Y61664D01*
X64648Y61722D01*
X64590Y61744D01*
X64547Y61766D01*
X64503Y61781D01*
X64474Y61788D01*
X64459Y61795D01*
X64452D01*
X64372Y61154D01*
X64510Y61095D01*
X64627Y61030D01*
X64729Y60964D01*
X64809Y60906D01*
X64867Y60855D01*
X64911Y60811D01*
X64940Y60774D01*
X64947Y60767D01*
X65006Y60672D01*
X65049Y60578D01*
X65079Y60476D01*
X65101Y60388D01*
X65115Y60308D01*
X65122Y60242D01*
Y60184D01*
X65115Y60097D01*
X65108Y60016D01*
X65071Y59870D01*
X65020Y59739D01*
X64962Y59623D01*
X64911Y59535D01*
X64860Y59470D01*
X64824Y59426D01*
X64809Y59419D01*
Y59411D01*
X64678Y59309D01*
X64532Y59229D01*
X64372Y59171D01*
X64226Y59127D01*
X64095Y59105D01*
X64036Y59091D01*
X63985Y59083D01*
X63941D01*
X63912Y59076D01*
X63890D01*
X63883D01*
Y61810D01*
X63810Y61817D01*
X65633D01*
D02*
G37*
G36*
X65553Y58084D02*
X64182Y57217D01*
X64036Y57115D01*
X63905Y57020D01*
X63796Y56925D01*
X63693Y56845D01*
X63621Y56772D01*
X63562Y56714D01*
X63526Y56678D01*
X63511Y56663D01*
X63468Y56605D01*
X63416Y56539D01*
X63336Y56408D01*
X63307Y56349D01*
X63278Y56306D01*
X63263Y56277D01*
X63256Y56262D01*
X63234Y56393D01*
X63212Y56517D01*
X63176Y56626D01*
X63147Y56736D01*
X63110Y56831D01*
X63067Y56918D01*
X63030Y56998D01*
X62994Y57071D01*
X62950Y57130D01*
X62914Y57188D01*
X62884Y57232D01*
X62855Y57268D01*
X62833Y57297D01*
X62811Y57319D01*
X62804Y57326D01*
X62797Y57334D01*
X62724Y57392D01*
X62651Y57450D01*
X62498Y57538D01*
X62345Y57596D01*
X62199Y57640D01*
X62075Y57669D01*
X62024Y57676D01*
X61973D01*
X61937Y57683D01*
X61908D01*
X61893D01*
X61886D01*
X61733Y57676D01*
X61594Y57654D01*
X61463Y57618D01*
X61353Y57582D01*
X61259Y57538D01*
X61186Y57509D01*
X61142Y57479D01*
X61135Y57472D01*
X61127D01*
X61011Y57385D01*
X60909Y57297D01*
X60821Y57202D01*
X60756Y57115D01*
X60705Y57035D01*
X60676Y56969D01*
X60654Y56925D01*
X60646Y56918D01*
Y56911D01*
X60624Y56845D01*
X60603Y56765D01*
X60566Y56605D01*
X60544Y56430D01*
X60522Y56269D01*
X60515Y56116D01*
Y56051D01*
X60508Y55992D01*
Y53652D01*
X65553D01*
Y54323D01*
X63314D01*
Y55183D01*
X63322Y55263D01*
Y55322D01*
X63329Y55373D01*
X63336Y55409D01*
Y55438D01*
X63344Y55453D01*
Y55460D01*
X63380Y55577D01*
X63402Y55628D01*
X63424Y55672D01*
X63446Y55715D01*
X63460Y55744D01*
X63468Y55759D01*
X63475Y55766D01*
X63519Y55825D01*
X63570Y55883D01*
X63679Y55992D01*
X63730Y56043D01*
X63774Y56080D01*
X63803Y56102D01*
X63810Y56109D01*
X63912Y56182D01*
X64022Y56262D01*
X64138Y56342D01*
X64248Y56422D01*
X64350Y56488D01*
X64430Y56539D01*
X64459Y56561D01*
X64481Y56576D01*
X64495Y56590D01*
X64503D01*
X65553Y57253D01*
Y58084D01*
D02*
G37*
%LPD*%
G36*
X62797Y99018D02*
X62680D01*
X62564Y99010D01*
X62462Y98996D01*
X62359Y98989D01*
X62272Y98981D01*
X62192Y98967D01*
X62119Y98959D01*
X62053Y98945D01*
X62002Y98938D01*
X61958Y98930D01*
X61922Y98923D01*
X61900Y98916D01*
X61886Y98909D01*
X61878D01*
X61718Y98865D01*
X61572Y98814D01*
X61448Y98755D01*
X61339Y98712D01*
X61244Y98661D01*
X61178Y98632D01*
X61142Y98602D01*
X61127Y98595D01*
X61018Y98515D01*
X60923Y98435D01*
X60843Y98347D01*
X60770Y98267D01*
X60719Y98194D01*
X60683Y98136D01*
X60661Y98099D01*
X60654Y98092D01*
Y98085D01*
X60595Y97968D01*
X60559Y97844D01*
X60530Y97728D01*
X60508Y97618D01*
X60493Y97523D01*
X60486Y97443D01*
Y99025D01*
X62928D01*
X62797Y99018D01*
D02*
G37*
G36*
X63497Y98376D02*
X63679Y98362D01*
X63854Y98347D01*
X64000Y98325D01*
X64138Y98296D01*
X64255Y98267D01*
X64364Y98245D01*
X64452Y98216D01*
X64525Y98187D01*
X64590Y98165D01*
X64641Y98136D01*
X64678Y98121D01*
X64700Y98107D01*
X64714Y98092D01*
X64721D01*
X64794Y98034D01*
X64853Y97975D01*
X64911Y97917D01*
X64955Y97859D01*
X65028Y97735D01*
X65079Y97625D01*
X65108Y97523D01*
X65122Y97451D01*
X65130Y97421D01*
Y97378D01*
X65122Y97297D01*
X65115Y97224D01*
X65064Y97086D01*
X64998Y96962D01*
X64925Y96853D01*
X64853Y96772D01*
X64787Y96707D01*
X64736Y96671D01*
X64729Y96656D01*
X64721D01*
X64634Y96605D01*
X64532Y96561D01*
X64415Y96517D01*
X64291Y96488D01*
X64160Y96459D01*
X64022Y96437D01*
X63737Y96401D01*
X63606Y96386D01*
X63482Y96379D01*
X63366Y96372D01*
X63271D01*
X63183Y96364D01*
X63118D01*
X63081D01*
X63067D01*
X62841Y96372D01*
X62637Y96379D01*
X62447Y96393D01*
X62272Y96415D01*
X62119Y96437D01*
X61980Y96466D01*
X61856Y96495D01*
X61747Y96525D01*
X61652Y96554D01*
X61572Y96576D01*
X61506Y96605D01*
X61448Y96627D01*
X61412Y96649D01*
X61383Y96663D01*
X61368Y96678D01*
X61361D01*
X61295Y96729D01*
X61237Y96780D01*
X61193Y96838D01*
X61149Y96896D01*
X61084Y97013D01*
X61040Y97122D01*
X61018Y97217D01*
X61004Y97297D01*
X60996Y97326D01*
Y97370D01*
X61004Y97451D01*
X61011Y97531D01*
X61033Y97604D01*
X61062Y97669D01*
X61127Y97793D01*
X61200Y97903D01*
X61281Y97983D01*
X61346Y98048D01*
X61375Y98070D01*
X61397Y98085D01*
X61405Y98099D01*
X61412D01*
X61499Y98150D01*
X61601Y98194D01*
X61718Y98238D01*
X61842Y98267D01*
X61973Y98296D01*
X62112Y98318D01*
X62389Y98354D01*
X62527Y98369D01*
X62651Y98376D01*
X62768Y98384D01*
X62862D01*
X62950Y98391D01*
X63016D01*
X63052D01*
X63059D01*
X63067D01*
X63293D01*
X63497Y98376D01*
D02*
G37*
G36*
X64131Y93900D02*
X64277Y93849D01*
X64408Y93798D01*
X64532Y93762D01*
X64627Y93725D01*
X64714Y93703D01*
X64772Y93682D01*
X64809Y93674D01*
X64824Y93667D01*
X64685Y93623D01*
X64547Y93587D01*
X64423Y93543D01*
X64313Y93507D01*
X64218Y93477D01*
X64145Y93456D01*
X64124Y93448D01*
X64102Y93441D01*
X64095Y93434D01*
X64087D01*
X61893Y92646D01*
Y94709D01*
X64131Y93900D01*
D02*
G37*
G36*
X65553Y77308D02*
X63562D01*
X63438D01*
X63314Y77323D01*
X63212Y77337D01*
X63118Y77352D01*
X63030Y77374D01*
X62950Y77396D01*
X62877Y77425D01*
X62819Y77454D01*
X62768Y77476D01*
X62724Y77505D01*
X62687Y77527D01*
X62658Y77549D01*
X62622Y77578D01*
X62607Y77592D01*
X62520Y77702D01*
X62462Y77819D01*
X62418Y77935D01*
X62381Y78037D01*
X62367Y78132D01*
X62359Y78205D01*
X62352Y78234D01*
Y78271D01*
X62359Y78358D01*
X62367Y78446D01*
X62389Y78518D01*
X62410Y78577D01*
X62432Y78628D01*
X62447Y78671D01*
X62462Y78693D01*
X62469Y78701D01*
X62512Y78766D01*
X62564Y78825D01*
X62615Y78868D01*
X62658Y78905D01*
X62702Y78927D01*
X62739Y78948D01*
X62760Y78963D01*
X62768D01*
X62848Y78985D01*
X62935Y79007D01*
X63030Y79021D01*
X63125Y79029D01*
X63205Y79036D01*
X63271D01*
X63322D01*
X63329D01*
X63336D01*
X65553D01*
Y77308D01*
D02*
G37*
G36*
X63956Y75311D02*
X64065Y75296D01*
X64175Y75274D01*
X64269Y75252D01*
X64357Y75223D01*
X64437Y75201D01*
X64510Y75172D01*
X64568Y75143D01*
X64627Y75114D01*
X64670Y75085D01*
X64707Y75063D01*
X64736Y75041D01*
X64758Y75026D01*
X64765Y75019D01*
X64772Y75012D01*
X64831Y74954D01*
X64889Y74888D01*
X64977Y74764D01*
X65035Y74633D01*
X65079Y74516D01*
X65101Y74407D01*
X65115Y74327D01*
X65122Y74290D01*
Y74246D01*
X65115Y74159D01*
X65108Y74079D01*
X65071Y73926D01*
X65013Y73794D01*
X64947Y73685D01*
X64889Y73598D01*
X64831Y73532D01*
X64794Y73488D01*
X64780Y73481D01*
Y73474D01*
X64707Y73423D01*
X64634Y73372D01*
X64466Y73299D01*
X64291Y73240D01*
X64116Y73204D01*
X63963Y73182D01*
X63898Y73175D01*
X63839D01*
X63788Y73168D01*
X63752D01*
X63730D01*
X63723D01*
X63599Y73175D01*
X63475Y73182D01*
X63366Y73197D01*
X63263Y73219D01*
X63169Y73240D01*
X63081Y73262D01*
X63008Y73291D01*
X62935Y73321D01*
X62877Y73350D01*
X62819Y73379D01*
X62775Y73401D01*
X62739Y73423D01*
X62709Y73444D01*
X62687Y73459D01*
X62680Y73474D01*
X62673D01*
X62615Y73532D01*
X62556Y73598D01*
X62469Y73721D01*
X62410Y73853D01*
X62367Y73977D01*
X62338Y74086D01*
X62330Y74166D01*
X62323Y74203D01*
Y74246D01*
X62330Y74334D01*
X62338Y74414D01*
X62374Y74560D01*
X62432Y74691D01*
X62498Y74800D01*
X62564Y74888D01*
X62615Y74954D01*
X62658Y74997D01*
X62666Y75012D01*
X62673D01*
X62739Y75070D01*
X62819Y75114D01*
X62979Y75194D01*
X63154Y75252D01*
X63314Y75289D01*
X63468Y75311D01*
X63533Y75318D01*
X63591D01*
X63635Y75325D01*
X63672D01*
X63693D01*
X63701D01*
X63832D01*
X63956Y75311D01*
D02*
G37*
G36*
X63373Y59112D02*
X63205Y59134D01*
X63052Y59178D01*
X62921Y59229D01*
X62819Y59287D01*
X62731Y59338D01*
X62666Y59389D01*
X62629Y59419D01*
X62615Y59433D01*
X62520Y59550D01*
X62447Y59666D01*
X62396Y59790D01*
X62359Y59907D01*
X62338Y60002D01*
X62330Y60082D01*
X62323Y60111D01*
Y60155D01*
X62330Y60242D01*
X62338Y60322D01*
X62381Y60476D01*
X62440Y60607D01*
X62505Y60716D01*
X62571Y60804D01*
X62629Y60869D01*
X62673Y60906D01*
X62680Y60920D01*
X62687D01*
X62782Y60986D01*
X62892Y61044D01*
X63001Y61081D01*
X63118Y61117D01*
X63212Y61139D01*
X63300Y61154D01*
X63329D01*
X63351Y61161D01*
X63366D01*
X63373D01*
Y59112D01*
D02*
G37*
G36*
X61980Y56991D02*
X62068Y56976D01*
X62141Y56954D01*
X62206Y56933D01*
X62265Y56903D01*
X62308Y56882D01*
X62338Y56867D01*
X62345Y56860D01*
X62418Y56809D01*
X62483Y56743D01*
X62534Y56678D01*
X62578Y56612D01*
X62607Y56554D01*
X62629Y56510D01*
X62644Y56481D01*
X62651Y56466D01*
X62680Y56364D01*
X62702Y56247D01*
X62717Y56131D01*
X62724Y56014D01*
X62731Y55912D01*
X62739Y55825D01*
Y54323D01*
X61069D01*
Y55912D01*
X61076Y56109D01*
X61106Y56277D01*
X61142Y56422D01*
X61186Y56532D01*
X61229Y56626D01*
X61266Y56685D01*
X61295Y56721D01*
X61302Y56736D01*
X61397Y56823D01*
X61492Y56889D01*
X61594Y56933D01*
X61681Y56969D01*
X61769Y56984D01*
X61835Y56991D01*
X61878Y56998D01*
X61886D01*
X61893D01*
X61980Y56991D01*
D02*
G37*
%LPC*%
G36*
X56345Y128608D02*
X51301D01*
Y127988D01*
X56345D01*
Y128608D01*
D02*
G37*
G36*
X56425Y127237D02*
D01*
Y125116D01*
X56418Y125247D01*
X56404Y125378D01*
X56389Y125495D01*
X56367Y125597D01*
X56345Y125677D01*
X56323Y125743D01*
X56316Y125786D01*
X56309Y125801D01*
X56258Y125925D01*
X56192Y126042D01*
X56119Y126151D01*
X56054Y126260D01*
X55988Y126348D01*
X55937Y126413D01*
X55901Y126457D01*
X55886Y126464D01*
Y126472D01*
X55981Y126486D01*
X56068Y126501D01*
X56148Y126515D01*
X56214Y126537D01*
X56272Y126559D01*
X56309Y126574D01*
X56338Y126581D01*
X56345Y126588D01*
Y127237D01*
D01*
X56265Y127201D01*
X56185Y127164D01*
X56112Y127135D01*
X56046Y127120D01*
X55988Y127099D01*
X55944Y127091D01*
X55915Y127084D01*
X55908D01*
X55857Y127077D01*
X55791Y127069D01*
X55718D01*
X55638Y127062D01*
X55456Y127055D01*
X55274D01*
X55099Y127048D01*
X55019D01*
X54953D01*
X54895D01*
X54851D01*
X54822D01*
X54814D01*
X53983D01*
X53845D01*
X53721Y127040D01*
X53626Y127033D01*
X53546D01*
X53488Y127026D01*
X53444Y127018D01*
X53422Y127011D01*
X53415D01*
X53320Y126989D01*
X53240Y126960D01*
X53174Y126931D01*
X53109Y126894D01*
X53065Y126865D01*
X53028Y126844D01*
X53007Y126829D01*
X52999Y126822D01*
X52941Y126763D01*
X52883Y126698D01*
X52839Y126625D01*
X52795Y126552D01*
X52766Y126486D01*
X52744Y126435D01*
X52729Y126399D01*
X52722Y126384D01*
X52686Y126268D01*
X52657Y126144D01*
X52635Y126020D01*
X52620Y125896D01*
X52613Y125786D01*
X52606Y125706D01*
Y125626D01*
X52613Y125451D01*
X52627Y125298D01*
X52649Y125152D01*
X52671Y125036D01*
X52693Y124934D01*
X52715Y124861D01*
X52722Y124831D01*
X52729Y124810D01*
X52737Y124802D01*
Y124795D01*
X52788Y124671D01*
X52853Y124562D01*
X52912Y124467D01*
X52970Y124387D01*
X53028Y124328D01*
X53072Y124285D01*
X53101Y124256D01*
X53109Y124248D01*
X53203Y124183D01*
X53305Y124124D01*
X53407Y124081D01*
X53502Y124044D01*
X53597Y124015D01*
X53663Y123993D01*
X53692Y123986D01*
X53714D01*
X53721Y123978D01*
X53728D01*
X53808Y124583D01*
X53677Y124627D01*
X53561Y124671D01*
X53466Y124722D01*
X53393Y124766D01*
X53335Y124810D01*
X53298Y124846D01*
X53276Y124875D01*
X53269Y124882D01*
X53218Y124970D01*
X53181Y125072D01*
X53152Y125181D01*
X53138Y125283D01*
X53123Y125385D01*
X53116Y125458D01*
Y125531D01*
X53123Y125699D01*
X53145Y125845D01*
X53181Y125961D01*
X53218Y126063D01*
X53262Y126136D01*
X53291Y126195D01*
X53320Y126231D01*
X53327Y126238D01*
X53393Y126297D01*
X53473Y126340D01*
X53561Y126377D01*
X53648Y126399D01*
X53728Y126413D01*
X53801Y126421D01*
X53845D01*
X53852D01*
X53859D01*
X53874D01*
X53903D01*
X53954D01*
X53998Y126413D01*
X54013D01*
X54020D01*
X54042Y126340D01*
X54063Y126260D01*
X54107Y126093D01*
X54144Y125903D01*
X54180Y125728D01*
X54195Y125641D01*
X54202Y125560D01*
X54217Y125487D01*
X54224Y125429D01*
X54231Y125378D01*
Y125342D01*
X54238Y125313D01*
Y125305D01*
X54253Y125174D01*
X54275Y125065D01*
X54290Y124970D01*
X54304Y124897D01*
X54311Y124839D01*
X54326Y124795D01*
X54333Y124766D01*
Y124759D01*
X54362Y124664D01*
X54392Y124583D01*
X54428Y124503D01*
X54457Y124438D01*
X54486Y124379D01*
X54515Y124343D01*
X54530Y124314D01*
X54537Y124306D01*
X54588Y124234D01*
X54647Y124175D01*
X54705Y124117D01*
X54763Y124073D01*
X54814Y124037D01*
X54858Y124008D01*
X54887Y123993D01*
X54895Y123986D01*
X54975Y123949D01*
X55062Y123920D01*
X55142Y123898D01*
X55223Y123884D01*
X55288Y123876D01*
X55339Y123869D01*
X52606D01*
X56425D01*
Y127237D01*
D02*
G37*
G36*
X56345Y123548D02*
D01*
X55799Y123468D01*
X55806Y123410D01*
X55813Y123352D01*
Y123301D01*
X55820Y123264D01*
Y123191D01*
X55813Y123096D01*
X55799Y123031D01*
X55784Y122994D01*
X55777Y122980D01*
X55740Y122929D01*
X55704Y122900D01*
X55675Y122878D01*
X55660Y122870D01*
X55624Y122863D01*
X55573Y122856D01*
X55456Y122848D01*
X55405Y122841D01*
X55361D01*
X55332D01*
X55317D01*
X53167D01*
Y123468D01*
X52686D01*
Y122841D01*
X51410D01*
X51782Y122222D01*
X52686D01*
Y121762D01*
X51410D01*
X56396D01*
D01*
X53167D01*
Y122222D01*
X55281D01*
X55383D01*
X55471D01*
X55551Y122229D01*
X55631Y122236D01*
X55696D01*
X55755Y122243D01*
X55850Y122258D01*
X55923Y122273D01*
X55974Y122280D01*
X56003Y122294D01*
X56010D01*
X56076Y122324D01*
X56127Y122367D01*
X56178Y122411D01*
X56214Y122448D01*
X56251Y122491D01*
X56272Y122520D01*
X56287Y122542D01*
X56294Y122550D01*
X56331Y122630D01*
X56353Y122710D01*
X56375Y122798D01*
X56382Y122885D01*
X56389Y122958D01*
X56396Y123016D01*
Y123074D01*
D01*
X56389Y123235D01*
X56382Y123315D01*
X56367Y123388D01*
X56360Y123454D01*
X56353Y123505D01*
X56345Y123534D01*
Y123548D01*
D02*
G37*
G36*
X51410Y122841D02*
Y121762D01*
D01*
Y122841D01*
D02*
G37*
G36*
X56345Y121172D02*
X52686D01*
Y120552D01*
X52008D01*
Y121172D01*
X51301D01*
Y120552D01*
X56345D01*
Y121172D01*
D02*
G37*
G36*
X57825Y119612D02*
Y117957D01*
X57818Y118154D01*
X57789Y118336D01*
X57760Y118496D01*
X57716Y118628D01*
X57679Y118737D01*
X57665Y118781D01*
X57643Y118817D01*
X57636Y118846D01*
X57621Y118868D01*
X57614Y118876D01*
Y118883D01*
X57534Y119014D01*
X57439Y119131D01*
X57344Y119225D01*
X57257Y119306D01*
X57176Y119364D01*
X57111Y119400D01*
X57067Y119430D01*
X57060Y119437D01*
X57052D01*
X56980Y119466D01*
X56899Y119495D01*
X56812Y119517D01*
X56717Y119539D01*
X56513Y119568D01*
X56316Y119590D01*
X56221Y119597D01*
X56134Y119605D01*
X56054D01*
X55988Y119612D01*
X52686D01*
Y119043D01*
X53138D01*
X53043Y118963D01*
X52963Y118876D01*
X52890Y118788D01*
X52832Y118701D01*
X52780Y118606D01*
X52737Y118518D01*
X52700Y118431D01*
X52671Y118351D01*
X52649Y118270D01*
X52635Y118198D01*
X52620Y118132D01*
X52613Y118081D01*
X52606Y118037D01*
Y117972D01*
X52613Y117797D01*
X52642Y117636D01*
X52686Y117490D01*
X52729Y117367D01*
X52773Y117264D01*
X52817Y117192D01*
X52832Y117162D01*
X52846Y117140D01*
X52853Y117133D01*
Y117126D01*
X52948Y117002D01*
X53065Y116893D01*
X53174Y116798D01*
X53284Y116718D01*
X53386Y116659D01*
X53466Y116616D01*
X53495Y116601D01*
X53517Y116586D01*
X53531Y116579D01*
X53539D01*
X53706Y116514D01*
X53874Y116470D01*
X54034Y116433D01*
X54180Y116411D01*
X54311Y116397D01*
X54362D01*
X54413Y116390D01*
X52606D01*
X57825D01*
Y119612D01*
D02*
G37*
G36*
X56345Y115682D02*
X52686D01*
Y115063D01*
X52008D01*
Y115682D01*
X51301D01*
Y115063D01*
X56345D01*
Y115682D01*
D02*
G37*
G36*
X56425Y114079D02*
D01*
Y112475D01*
X56418Y112599D01*
X56404Y112715D01*
X56375Y112825D01*
X56338Y112920D01*
X56302Y113014D01*
X56258Y113102D01*
X56207Y113175D01*
X56156Y113240D01*
X56105Y113306D01*
X56054Y113357D01*
X56010Y113401D01*
X55974Y113437D01*
X55937Y113466D01*
X55908Y113488D01*
X55893Y113496D01*
X55886Y113503D01*
X56345D01*
Y114079D01*
X56425D01*
X51301D01*
Y113459D01*
X53109D01*
X53028Y113393D01*
X52963Y113321D01*
X52897Y113255D01*
X52846Y113182D01*
X52810Y113124D01*
X52773Y113080D01*
X52759Y113051D01*
X52751Y113036D01*
X52700Y112941D01*
X52664Y112839D01*
X52642Y112737D01*
X52620Y112643D01*
X52613Y112562D01*
X52606Y112504D01*
Y112446D01*
X52613Y112285D01*
X52642Y112132D01*
X52678Y111994D01*
X52722Y111877D01*
X52773Y111775D01*
X52810Y111702D01*
X52824Y111673D01*
X52839Y111651D01*
X52846Y111644D01*
Y111636D01*
X52941Y111505D01*
X53057Y111396D01*
X53167Y111301D01*
X53276Y111228D01*
X53378Y111170D01*
X53458Y111126D01*
X53488Y111112D01*
X53509Y111097D01*
X53524Y111090D01*
X53531D01*
X53699Y111031D01*
X53874Y110988D01*
X54042Y110951D01*
X54195Y110929D01*
X54326Y110915D01*
X54384D01*
X54428Y110907D01*
X51301D01*
X54523D01*
X54727Y110915D01*
X54917Y110937D01*
X55084Y110973D01*
X55230Y111010D01*
X55296Y111024D01*
X55347Y111039D01*
X55398Y111061D01*
X55441Y111075D01*
X55471Y111090D01*
X55492Y111097D01*
X55507Y111104D01*
X55514D01*
X55667Y111185D01*
X55799Y111279D01*
X55915Y111374D01*
X56010Y111469D01*
X56083Y111549D01*
X56141Y111615D01*
X56170Y111658D01*
X56185Y111666D01*
Y111673D01*
X56265Y111811D01*
X56323Y111950D01*
X56367Y112089D01*
X56396Y112212D01*
X56411Y112314D01*
X56418Y112402D01*
X56425Y112431D01*
Y110907D01*
D01*
Y114079D01*
D02*
G37*
G36*
X57745Y110747D02*
X57300D01*
Y106643D01*
X56345D01*
Y110747D01*
D01*
Y106643D01*
X57745D01*
Y110747D01*
D02*
G37*
G36*
X57825Y106278D02*
Y104623D01*
X57818Y104820D01*
X57789Y105003D01*
X57760Y105163D01*
X57716Y105294D01*
X57679Y105404D01*
X57665Y105447D01*
X57643Y105484D01*
X57636Y105513D01*
X57621Y105535D01*
X57614Y105542D01*
Y105549D01*
X57534Y105681D01*
X57439Y105797D01*
X57344Y105892D01*
X57257Y105972D01*
X57176Y106030D01*
X57111Y106067D01*
X57067Y106096D01*
X57060Y106103D01*
X57052D01*
X56980Y106133D01*
X56899Y106162D01*
X56812Y106184D01*
X56717Y106205D01*
X56513Y106235D01*
X56316Y106256D01*
X56221Y106264D01*
X56134Y106271D01*
X56054D01*
X55988Y106278D01*
X52686D01*
Y105710D01*
X53138D01*
X53043Y105630D01*
X52963Y105542D01*
X52890Y105455D01*
X52832Y105367D01*
X52780Y105272D01*
X52737Y105185D01*
X52700Y105097D01*
X52671Y105017D01*
X52649Y104937D01*
X52635Y104864D01*
X52620Y104798D01*
X52613Y104747D01*
X52606Y104704D01*
Y104638D01*
X52613Y104463D01*
X52642Y104303D01*
X52686Y104157D01*
X52729Y104033D01*
X52773Y103931D01*
X52817Y103858D01*
X52832Y103829D01*
X52846Y103807D01*
X52853Y103800D01*
Y103793D01*
X52948Y103668D01*
X53065Y103559D01*
X53174Y103464D01*
X53284Y103384D01*
X53386Y103326D01*
X53466Y103282D01*
X53495Y103268D01*
X53517Y103253D01*
X53531Y103246D01*
X53539D01*
X53706Y103180D01*
X53874Y103136D01*
X54034Y103100D01*
X54180Y103078D01*
X54311Y103063D01*
X54362D01*
X54413Y103056D01*
X52606D01*
X57825D01*
Y106278D01*
D02*
G37*
G36*
X56345Y102342D02*
X53947D01*
X53823Y102334D01*
X53721Y102327D01*
X53633D01*
X53575Y102320D01*
X53531Y102313D01*
X53502Y102305D01*
X53495D01*
X53400Y102283D01*
X53313Y102247D01*
X53240Y102218D01*
X53167Y102189D01*
X53116Y102152D01*
X53079Y102130D01*
X53050Y102116D01*
X53043Y102109D01*
X52970Y102050D01*
X52912Y101985D01*
X52853Y101919D01*
X52810Y101846D01*
X52773Y101788D01*
X52751Y101737D01*
X52737Y101707D01*
X52729Y101693D01*
X52686Y101591D01*
X52657Y101481D01*
X52635Y101380D01*
X52620Y101285D01*
X52613Y101205D01*
X52606Y101146D01*
Y101088D01*
X52613Y100949D01*
X52635Y100818D01*
X52664Y100701D01*
X52700Y100585D01*
X52744Y100483D01*
X52795Y100388D01*
X52853Y100301D01*
X52904Y100228D01*
X52963Y100155D01*
X53021Y100096D01*
X53072Y100045D01*
X53116Y100002D01*
X53152Y99972D01*
X53181Y99951D01*
X53203Y99936D01*
X53211Y99929D01*
X52686D01*
Y99375D01*
X52606D01*
X56345D01*
Y102342D01*
D02*
G37*
G36*
Y98427D02*
X52686D01*
Y97807D01*
X52008D01*
Y98427D01*
X51301D01*
Y97807D01*
X56345D01*
Y98427D01*
D02*
G37*
G36*
Y96852D02*
X53947D01*
X53823Y96845D01*
X53721Y96838D01*
X53633D01*
X53575Y96830D01*
X53531Y96823D01*
X53502Y96816D01*
X53495D01*
X53400Y96794D01*
X53313Y96758D01*
X53240Y96728D01*
X53167Y96699D01*
X53116Y96663D01*
X53079Y96641D01*
X53050Y96626D01*
X53043Y96619D01*
X52970Y96561D01*
X52912Y96495D01*
X52853Y96430D01*
X52810Y96357D01*
X52773Y96298D01*
X52751Y96247D01*
X52737Y96218D01*
X52729Y96204D01*
X52686Y96101D01*
X52657Y95992D01*
X52635Y95890D01*
X52620Y95795D01*
X52613Y95715D01*
X52606Y95657D01*
Y95599D01*
X52613Y95460D01*
X52635Y95329D01*
X52664Y95212D01*
X52700Y95095D01*
X52744Y94993D01*
X52795Y94899D01*
X52853Y94811D01*
X52904Y94738D01*
X52963Y94665D01*
X53021Y94607D01*
X53072Y94556D01*
X53116Y94512D01*
X53152Y94483D01*
X53181Y94461D01*
X53203Y94447D01*
X53211Y94439D01*
X52686D01*
Y93885D01*
X52606D01*
X56345D01*
Y96852D01*
D02*
G37*
G36*
X54581Y93156D02*
X54465D01*
X54304Y93149D01*
X54158Y93134D01*
X54020Y93113D01*
X53889Y93084D01*
X53765Y93047D01*
X53655Y93003D01*
X53546Y92959D01*
X53458Y92916D01*
X53378Y92872D01*
X53305Y92828D01*
X53240Y92785D01*
X53189Y92748D01*
X53152Y92719D01*
X53123Y92697D01*
X53109Y92682D01*
X53101Y92675D01*
X53014Y92580D01*
X52941Y92486D01*
X52868Y92384D01*
X52817Y92282D01*
X52766Y92180D01*
X52729Y92077D01*
X52664Y91881D01*
X52649Y91786D01*
X52635Y91706D01*
X52620Y91633D01*
X52613Y91567D01*
X52606Y91516D01*
Y91443D01*
X52613Y91319D01*
X52620Y91203D01*
X52671Y90977D01*
X52737Y90780D01*
X52773Y90692D01*
X52810Y90612D01*
X52846Y90539D01*
X52883Y90481D01*
X52919Y90423D01*
X52948Y90379D01*
X52977Y90342D01*
X52999Y90313D01*
X53007Y90299D01*
X53014Y90291D01*
X53109Y90189D01*
X53218Y90109D01*
X53335Y90029D01*
X53451Y89971D01*
X53575Y89912D01*
X53706Y89869D01*
X53830Y89832D01*
X53947Y89803D01*
X54063Y89774D01*
X54166Y89759D01*
X54268Y89745D01*
X54348Y89737D01*
X54421D01*
X54472Y89730D01*
X56425D01*
X54515D01*
X54683Y89737D01*
X54844Y89752D01*
X54989Y89774D01*
X55128Y89803D01*
X55252Y89839D01*
X55369Y89876D01*
X55478Y89920D01*
X55573Y89963D01*
X55660Y90007D01*
X55733Y90051D01*
X55791Y90087D01*
X55842Y90124D01*
X55886Y90153D01*
X55915Y90175D01*
X55930Y90189D01*
X55937Y90197D01*
X56025Y90291D01*
X56098Y90386D01*
X56163Y90488D01*
X56221Y90590D01*
X56265Y90692D01*
X56309Y90802D01*
X56367Y90999D01*
X56382Y91086D01*
X56396Y91173D01*
X56411Y91246D01*
X56418Y91312D01*
X56425Y91370D01*
Y91443D01*
X56418Y91618D01*
X56389Y91778D01*
X56353Y91932D01*
X56316Y92056D01*
X56272Y92165D01*
X56258Y92209D01*
X56243Y92245D01*
X56229Y92282D01*
X56214Y92303D01*
X56207Y92311D01*
Y92318D01*
X56112Y92464D01*
X56010Y92588D01*
X55908Y92697D01*
X55806Y92785D01*
X55718Y92850D01*
X55646Y92901D01*
X55616Y92916D01*
X55594Y92930D01*
X55587Y92938D01*
X55580D01*
X55412Y93011D01*
X55230Y93062D01*
X55048Y93105D01*
X54865Y93127D01*
X54785Y93142D01*
X54712D01*
X54640Y93149D01*
X54581Y93156D01*
D02*
G37*
G36*
X56345Y89016D02*
X52686D01*
Y88396D01*
X52008D01*
Y89016D01*
X51301D01*
Y88396D01*
X56345D01*
Y89016D01*
D02*
G37*
G36*
X55325Y87660D02*
X55274D01*
X55157Y87652D01*
X55055Y87638D01*
X54967Y87609D01*
X54887Y87587D01*
X54822Y87558D01*
X54778Y87529D01*
X54749Y87514D01*
X54742Y87507D01*
X54669Y87448D01*
X54603Y87383D01*
X54545Y87317D01*
X54501Y87252D01*
X54465Y87186D01*
X54443Y87142D01*
X54428Y87113D01*
X54421Y87098D01*
X54399Y87047D01*
X54377Y86989D01*
X54326Y86851D01*
X54275Y86697D01*
X54231Y86544D01*
X54188Y86406D01*
X54173Y86340D01*
X54158Y86289D01*
X54144Y86245D01*
X54137Y86209D01*
X54129Y86187D01*
Y86180D01*
X54107Y86100D01*
X54085Y86027D01*
X54071Y85961D01*
X54049Y85903D01*
X54027Y85808D01*
X54005Y85735D01*
X53983Y85684D01*
X53976Y85655D01*
X53969Y85640D01*
Y85633D01*
X53940Y85575D01*
X53918Y85524D01*
X53889Y85480D01*
X53867Y85451D01*
X53845Y85422D01*
X53823Y85407D01*
X53816Y85400D01*
X53808Y85392D01*
X53736Y85349D01*
X53663Y85327D01*
X53633D01*
X53612Y85320D01*
X53597D01*
X53590D01*
X53524Y85327D01*
X53458Y85349D01*
X53400Y85378D01*
X53356Y85414D01*
X53313Y85444D01*
X53284Y85473D01*
X53269Y85495D01*
X53262Y85502D01*
X53211Y85582D01*
X53174Y85677D01*
X53152Y85779D01*
X53130Y85874D01*
X53123Y85968D01*
X53116Y86041D01*
Y86114D01*
X53123Y86238D01*
X53138Y86355D01*
X53167Y86450D01*
X53196Y86523D01*
X53225Y86588D01*
X53254Y86632D01*
X53269Y86661D01*
X53276Y86668D01*
X53342Y86741D01*
X53415Y86792D01*
X53488Y86836D01*
X53553Y86872D01*
X53619Y86894D01*
X53670Y86909D01*
X53699Y86916D01*
X53714D01*
X53633Y87521D01*
X53509Y87492D01*
X53400Y87463D01*
X53305Y87426D01*
X53218Y87390D01*
X53160Y87353D01*
X53109Y87324D01*
X53079Y87310D01*
X53072Y87303D01*
X52999Y87237D01*
X52934Y87164D01*
X52875Y87084D01*
X52824Y87004D01*
X52788Y86931D01*
X52759Y86872D01*
X52744Y86836D01*
X52737Y86829D01*
Y86821D01*
X52693Y86697D01*
X52664Y86566D01*
X52635Y86442D01*
X52620Y86326D01*
X52613Y86216D01*
X52606Y86136D01*
Y87660D01*
D01*
D01*
Y85531D01*
D01*
Y85961D01*
X52620Y85859D01*
X52627Y85772D01*
X52642Y85691D01*
X52657Y85626D01*
X52671Y85575D01*
X52678Y85546D01*
X52686Y85531D01*
X52715Y85444D01*
X52744Y85363D01*
X52773Y85298D01*
X52802Y85239D01*
X52824Y85196D01*
X52846Y85167D01*
X52853Y85145D01*
X52861Y85137D01*
X52912Y85065D01*
X52970Y85006D01*
X53036Y84955D01*
X53087Y84911D01*
X53138Y84875D01*
X53174Y84853D01*
X53203Y84838D01*
X53211Y84831D01*
X53291Y84795D01*
X53364Y84766D01*
X53444Y84751D01*
X53509Y84736D01*
X53575Y84729D01*
X53619Y84722D01*
X53648D01*
X53663D01*
X53765Y84729D01*
X53852Y84744D01*
X53940Y84766D01*
X54013Y84787D01*
X54071Y84809D01*
X54122Y84831D01*
X54151Y84846D01*
X54158Y84853D01*
X54238Y84911D01*
X54304Y84977D01*
X54362Y85043D01*
X54413Y85108D01*
X54450Y85167D01*
X54479Y85210D01*
X54494Y85239D01*
X54501Y85254D01*
X54523Y85305D01*
X54552Y85371D01*
X54603Y85516D01*
X54647Y85669D01*
X54698Y85830D01*
X54734Y85968D01*
X54756Y86034D01*
X54771Y86092D01*
X54785Y86136D01*
X54793Y86172D01*
X54800Y86194D01*
Y86202D01*
X54822Y86296D01*
X54844Y86377D01*
X54865Y86450D01*
X54887Y86515D01*
X54902Y86573D01*
X54924Y86624D01*
X54953Y86712D01*
X54975Y86770D01*
X54997Y86807D01*
X55004Y86829D01*
X55011Y86836D01*
X55055Y86901D01*
X55113Y86945D01*
X55164Y86982D01*
X55215Y87004D01*
X55266Y87018D01*
X55303Y87025D01*
X55332D01*
X55339D01*
X55427Y87018D01*
X55500Y86996D01*
X55573Y86960D01*
X55631Y86923D01*
X55682Y86880D01*
X55718Y86851D01*
X55740Y86821D01*
X55747Y86814D01*
X55806Y86727D01*
X55842Y86632D01*
X55871Y86523D01*
X55893Y86420D01*
X55908Y86326D01*
X55915Y86253D01*
Y86180D01*
X55908Y86027D01*
X55886Y85896D01*
X55857Y85786D01*
X55820Y85691D01*
X55784Y85619D01*
X55755Y85560D01*
X55733Y85531D01*
X55726Y85516D01*
X55646Y85436D01*
X55551Y85371D01*
X55456Y85327D01*
X55369Y85290D01*
X55288Y85261D01*
X55215Y85247D01*
X55172Y85232D01*
X55164D01*
X55157D01*
X55252Y84620D01*
X55456Y84671D01*
X55638Y84736D01*
X55784Y84817D01*
X55908Y84897D01*
X56010Y84970D01*
X56076Y85035D01*
X56119Y85079D01*
X56127Y85086D01*
X56134Y85094D01*
X56185Y85167D01*
X56229Y85247D01*
X56302Y85422D01*
X56353Y85604D01*
X56389Y85779D01*
X56404Y85859D01*
X56411Y85932D01*
X56418Y86005D01*
Y86063D01*
X56425Y86114D01*
Y86180D01*
X56418Y86340D01*
X56404Y86479D01*
X56382Y86610D01*
X56353Y86727D01*
X56323Y86821D01*
X56302Y86894D01*
X56287Y86938D01*
X56280Y86945D01*
Y86953D01*
X56214Y87076D01*
X56148Y87179D01*
X56076Y87266D01*
X56010Y87346D01*
X55952Y87405D01*
X55901Y87441D01*
X55871Y87470D01*
X55857Y87477D01*
X55755Y87536D01*
X55646Y87580D01*
X55551Y87616D01*
X55463Y87638D01*
X55383Y87652D01*
X55325Y87660D01*
D02*
G37*
G36*
X52606Y85524D02*
Y84620D01*
D01*
Y85524D01*
D02*
G37*
G36*
X55325Y84131D02*
X55274D01*
X55157Y84124D01*
X55055Y84109D01*
X54967Y84080D01*
X54887Y84058D01*
X54822Y84029D01*
X54778Y84000D01*
X54749Y83986D01*
X54742Y83978D01*
X54669Y83920D01*
X54603Y83854D01*
X54545Y83789D01*
X54501Y83723D01*
X54465Y83657D01*
X54443Y83614D01*
X54428Y83585D01*
X54421Y83570D01*
X54399Y83519D01*
X54377Y83461D01*
X54326Y83322D01*
X54275Y83169D01*
X54231Y83016D01*
X54188Y82877D01*
X54173Y82812D01*
X54158Y82761D01*
X54144Y82717D01*
X54137Y82681D01*
X54129Y82659D01*
Y82652D01*
X54107Y82571D01*
X54085Y82498D01*
X54071Y82433D01*
X54049Y82375D01*
X54027Y82280D01*
X54005Y82207D01*
X53983Y82156D01*
X53976Y82127D01*
X53969Y82112D01*
Y82105D01*
X53940Y82046D01*
X53918Y81995D01*
X53889Y81952D01*
X53867Y81923D01*
X53845Y81893D01*
X53823Y81879D01*
X53816Y81871D01*
X53808Y81864D01*
X53736Y81820D01*
X53663Y81798D01*
X53633D01*
X53612Y81791D01*
X53597D01*
X53590D01*
X53524Y81798D01*
X53458Y81820D01*
X53400Y81850D01*
X53356Y81886D01*
X53313Y81915D01*
X53284Y81944D01*
X53269Y81966D01*
X53262Y81973D01*
X53211Y82054D01*
X53174Y82148D01*
X53152Y82250D01*
X53130Y82345D01*
X53123Y82440D01*
X53116Y82513D01*
Y82586D01*
X53123Y82710D01*
X53138Y82826D01*
X53167Y82921D01*
X53196Y82994D01*
X53225Y83060D01*
X53254Y83103D01*
X53269Y83133D01*
X53276Y83140D01*
X53342Y83213D01*
X53415Y83264D01*
X53488Y83308D01*
X53553Y83344D01*
X53619Y83366D01*
X53670Y83381D01*
X53699Y83388D01*
X53714D01*
X53633Y83993D01*
X53509Y83964D01*
X53400Y83934D01*
X53305Y83898D01*
X53218Y83862D01*
X53160Y83825D01*
X53109Y83796D01*
X53079Y83781D01*
X53072Y83774D01*
X52999Y83709D01*
X52934Y83636D01*
X52875Y83555D01*
X52824Y83475D01*
X52788Y83402D01*
X52759Y83344D01*
X52744Y83308D01*
X52737Y83300D01*
Y83293D01*
X52693Y83169D01*
X52664Y83038D01*
X52635Y82914D01*
X52620Y82797D01*
X52613Y82688D01*
X52606Y82608D01*
Y82433D01*
X52620Y82331D01*
X52627Y82243D01*
X52642Y82163D01*
X52657Y82097D01*
X52671Y82046D01*
X52678Y82017D01*
X52686Y82003D01*
X52715Y81915D01*
X52744Y81835D01*
X52773Y81769D01*
X52802Y81711D01*
X52824Y81667D01*
X52846Y81638D01*
X52853Y81616D01*
X52861Y81609D01*
X52912Y81536D01*
X52970Y81478D01*
X53036Y81427D01*
X53087Y81383D01*
X53138Y81347D01*
X53174Y81325D01*
X53203Y81310D01*
X53211Y81303D01*
X53291Y81266D01*
X53364Y81237D01*
X53444Y81223D01*
X53509Y81208D01*
X53575Y81201D01*
X53619Y81194D01*
X53648D01*
X53663D01*
X53765Y81201D01*
X53852Y81215D01*
X53940Y81237D01*
X54013Y81259D01*
X54071Y81281D01*
X54122Y81303D01*
X54151Y81317D01*
X54158Y81325D01*
X54238Y81383D01*
X54304Y81449D01*
X54362Y81514D01*
X54413Y81580D01*
X54450Y81638D01*
X54479Y81682D01*
X54494Y81711D01*
X54501Y81726D01*
X54523Y81777D01*
X54552Y81842D01*
X54603Y81988D01*
X54647Y82141D01*
X54698Y82301D01*
X54734Y82440D01*
X54756Y82506D01*
X54771Y82564D01*
X54785Y82608D01*
X54793Y82644D01*
X54800Y82666D01*
Y82673D01*
X54822Y82768D01*
X54844Y82848D01*
X54865Y82921D01*
X54887Y82987D01*
X54902Y83045D01*
X54924Y83096D01*
X54953Y83184D01*
X54975Y83242D01*
X54997Y83278D01*
X55004Y83300D01*
X55011Y83308D01*
X55055Y83373D01*
X55113Y83417D01*
X55164Y83453D01*
X55215Y83475D01*
X55266Y83490D01*
X55303Y83497D01*
X55332D01*
X55339D01*
X55427Y83490D01*
X55500Y83468D01*
X55573Y83432D01*
X55631Y83395D01*
X55682Y83351D01*
X55718Y83322D01*
X55740Y83293D01*
X55747Y83286D01*
X55806Y83198D01*
X55842Y83103D01*
X55871Y82994D01*
X55893Y82892D01*
X55908Y82797D01*
X55915Y82724D01*
Y82652D01*
X55908Y82498D01*
X55886Y82367D01*
X55857Y82258D01*
X55820Y82163D01*
X55784Y82090D01*
X55755Y82032D01*
X55733Y82003D01*
X55726Y81988D01*
X55646Y81908D01*
X55551Y81842D01*
X55456Y81798D01*
X55369Y81762D01*
X55288Y81733D01*
X55215Y81718D01*
X55172Y81704D01*
X55164D01*
X55157D01*
X55252Y81091D01*
X55456Y81142D01*
X55638Y81208D01*
X55784Y81288D01*
X55908Y81368D01*
X56010Y81441D01*
X56076Y81507D01*
X56119Y81551D01*
X56127Y81558D01*
X56134Y81565D01*
X56185Y81638D01*
X56229Y81718D01*
X56302Y81893D01*
X56353Y82076D01*
X56389Y82250D01*
X56404Y82331D01*
X56411Y82404D01*
X56418Y82477D01*
Y82535D01*
X56425Y82586D01*
Y82652D01*
X56418Y82812D01*
X56404Y82950D01*
X56382Y83082D01*
X56353Y83198D01*
X56323Y83293D01*
X56302Y83366D01*
X56287Y83410D01*
X56280Y83417D01*
Y83424D01*
X56214Y83548D01*
X56148Y83650D01*
X56076Y83738D01*
X56010Y83818D01*
X55952Y83876D01*
X55901Y83913D01*
X55871Y83942D01*
X55857Y83949D01*
X55755Y84007D01*
X55646Y84051D01*
X55551Y84088D01*
X55463Y84109D01*
X55383Y84124D01*
X55325Y84131D01*
D02*
G37*
G36*
X56425Y81091D02*
X52606D01*
D01*
X56425D01*
D01*
D02*
G37*
G36*
X56345Y80392D02*
X52686D01*
Y79772D01*
X52008D01*
Y80392D01*
X51301D01*
Y79772D01*
X56345D01*
Y80392D01*
D02*
G37*
G36*
Y78853D02*
X53721D01*
X53619Y78839D01*
X53517Y78824D01*
X53429Y78810D01*
X53342Y78788D01*
X53269Y78759D01*
X53203Y78737D01*
X53138Y78708D01*
X53087Y78678D01*
X53036Y78657D01*
X52970Y78606D01*
X52926Y78576D01*
X52912Y78562D01*
X52810Y78445D01*
X52737Y78307D01*
X52678Y78168D01*
X52642Y78037D01*
X52620Y77913D01*
X52613Y77862D01*
Y77811D01*
X52606Y77775D01*
Y77723D01*
X52613Y77592D01*
X52635Y77476D01*
X52664Y77359D01*
X52708Y77250D01*
X52759Y77148D01*
X52810Y77053D01*
X52868Y76973D01*
X52926Y76892D01*
X52992Y76819D01*
X53050Y76761D01*
X53101Y76710D01*
X53152Y76666D01*
X53196Y76630D01*
X53225Y76608D01*
X53247Y76594D01*
X53254Y76586D01*
X53145Y76542D01*
X53050Y76484D01*
X52970Y76419D01*
X52904Y76360D01*
X52846Y76302D01*
X52810Y76258D01*
X52788Y76229D01*
X52780Y76214D01*
X52722Y76112D01*
X52678Y76003D01*
X52649Y75894D01*
X52627Y75784D01*
X52613Y75697D01*
X52606Y75617D01*
Y75551D01*
X52613Y75420D01*
X52635Y75296D01*
X52657Y75187D01*
X52686Y75092D01*
X52722Y75011D01*
X52744Y74953D01*
X52766Y74917D01*
X52773Y74902D01*
X52839Y74800D01*
X52912Y74713D01*
X52985Y74633D01*
X53057Y74567D01*
X53116Y74516D01*
X53167Y74472D01*
X53196Y74450D01*
X53211Y74443D01*
X52686D01*
Y73889D01*
X52606D01*
D01*
X56345D01*
Y75879D01*
Y74509D01*
X54450D01*
X54275Y74516D01*
X54122Y74523D01*
X53991Y74538D01*
X53881Y74560D01*
X53801Y74581D01*
X53743Y74596D01*
X53706Y74603D01*
X53692Y74611D01*
X53597Y74654D01*
X53517Y74705D01*
X53444Y74756D01*
X53386Y74807D01*
X53342Y74858D01*
X53313Y74895D01*
X53291Y74924D01*
X53284Y74931D01*
X53240Y75019D01*
X53203Y75099D01*
X53181Y75187D01*
X53160Y75259D01*
X53152Y75318D01*
X53145Y75369D01*
Y75412D01*
X53152Y75536D01*
X53174Y75639D01*
X53211Y75726D01*
X53247Y75792D01*
X53291Y75843D01*
X53320Y75879D01*
X53349Y75901D01*
X53356Y75908D01*
X53444Y75959D01*
X53539Y75996D01*
X53641Y76025D01*
X53743Y76039D01*
X53830Y76054D01*
X53910Y76061D01*
X53940D01*
X53954D01*
X53969D01*
X53976D01*
X56345D01*
Y77476D01*
Y76681D01*
X54224D01*
X54027Y76696D01*
X53859Y76725D01*
X53721Y76761D01*
X53604Y76812D01*
X53517Y76856D01*
X53458Y76900D01*
X53422Y76929D01*
X53407Y76936D01*
X53320Y77038D01*
X53254Y77148D01*
X53211Y77257D01*
X53174Y77359D01*
X53160Y77446D01*
X53152Y77519D01*
X53145Y77548D01*
Y77585D01*
X53152Y77665D01*
X53160Y77731D01*
X53174Y77796D01*
X53196Y77847D01*
X53218Y77898D01*
X53233Y77928D01*
X53240Y77949D01*
X53247Y77957D01*
X53291Y78015D01*
X53335Y78059D01*
X53378Y78095D01*
X53422Y78124D01*
X53458Y78146D01*
X53488Y78161D01*
X53509Y78175D01*
X53517D01*
X53582Y78197D01*
X53670Y78212D01*
X53757Y78219D01*
X53845Y78226D01*
X53925Y78234D01*
X53991D01*
X54034D01*
X54042D01*
X54049D01*
X56345D01*
Y78853D01*
D02*
G37*
G36*
Y72978D02*
X53721D01*
X53619Y72963D01*
X53517Y72948D01*
X53429Y72934D01*
X53342Y72912D01*
X53269Y72883D01*
X53203Y72861D01*
X53138Y72832D01*
X53087Y72803D01*
X53036Y72781D01*
X52970Y72730D01*
X52926Y72701D01*
X52912Y72686D01*
X52810Y72569D01*
X52737Y72431D01*
X52678Y72292D01*
X52642Y72161D01*
X52620Y72037D01*
X52613Y71986D01*
Y71935D01*
X52606Y71899D01*
Y72978D01*
Y68013D01*
X56345D01*
Y68640D01*
Y68633D01*
X54450D01*
X54275Y68640D01*
X54122Y68647D01*
X53991Y68662D01*
X53881Y68684D01*
X53801Y68706D01*
X53743Y68720D01*
X53706Y68728D01*
X53692Y68735D01*
X53597Y68779D01*
X53517Y68830D01*
X53444Y68881D01*
X53386Y68932D01*
X53342Y68983D01*
X53313Y69019D01*
X53291Y69048D01*
X53284Y69056D01*
X53240Y69143D01*
X53203Y69223D01*
X53181Y69311D01*
X53160Y69384D01*
X53152Y69442D01*
X53145Y69493D01*
Y69537D01*
X53152Y69661D01*
X53174Y69763D01*
X53211Y69850D01*
X53247Y69916D01*
X53291Y69967D01*
X53320Y70003D01*
X53349Y70025D01*
X53356Y70033D01*
X53444Y70083D01*
X53539Y70120D01*
X53641Y70149D01*
X53743Y70164D01*
X53830Y70178D01*
X53910Y70186D01*
X53940D01*
X53954D01*
X53969D01*
X53976D01*
X56345D01*
Y70805D01*
X54224D01*
X54027Y70820D01*
X53859Y70849D01*
X53721Y70885D01*
X53604Y70936D01*
X53517Y70980D01*
X53458Y71024D01*
X53422Y71053D01*
X53407Y71060D01*
X53320Y71162D01*
X53254Y71272D01*
X53211Y71381D01*
X53174Y71483D01*
X53160Y71571D01*
X53152Y71644D01*
X53145Y71673D01*
Y71709D01*
X53152Y71789D01*
X53160Y71855D01*
X53174Y71921D01*
X53196Y71972D01*
X53218Y72023D01*
X53233Y72052D01*
X53240Y72074D01*
X53247Y72081D01*
X53291Y72139D01*
X53335Y72183D01*
X53378Y72220D01*
X53422Y72249D01*
X53458Y72271D01*
X53488Y72285D01*
X53509Y72300D01*
X53517D01*
X53582Y72321D01*
X53670Y72336D01*
X53757Y72343D01*
X53845Y72351D01*
X53925Y72358D01*
X53991D01*
X54034D01*
X54042D01*
X54049D01*
X56345D01*
Y72978D01*
D02*
G37*
G36*
X56425Y67291D02*
D01*
Y65578D01*
X56418Y65753D01*
X56389Y65914D01*
X56353Y66067D01*
X56316Y66191D01*
X56272Y66300D01*
X56258Y66344D01*
X56243Y66380D01*
X56229Y66417D01*
X56214Y66439D01*
X56207Y66446D01*
Y66453D01*
X56112Y66599D01*
X56010Y66723D01*
X55908Y66832D01*
X55806Y66920D01*
X55718Y66985D01*
X55646Y67036D01*
X55616Y67051D01*
X55594Y67065D01*
X55587Y67073D01*
X55580D01*
X55412Y67146D01*
X55230Y67197D01*
X55048Y67240D01*
X54865Y67262D01*
X54785Y67277D01*
X54712D01*
X54640Y67284D01*
X54581Y67291D01*
X54465D01*
X54304Y67284D01*
X54158Y67270D01*
X54020Y67248D01*
X53889Y67219D01*
X53765Y67182D01*
X53655Y67138D01*
X53546Y67095D01*
X53458Y67051D01*
X53378Y67007D01*
X53305Y66963D01*
X53240Y66920D01*
X53189Y66883D01*
X53152Y66854D01*
X53123Y66832D01*
X53109Y66818D01*
X53101Y66810D01*
X53014Y66716D01*
X52941Y66621D01*
X52868Y66519D01*
X52817Y66417D01*
X52766Y66315D01*
X52729Y66212D01*
X52664Y66016D01*
X52649Y65921D01*
X52635Y65841D01*
X52620Y65768D01*
X52613Y65702D01*
X52606Y65651D01*
Y65578D01*
X52613Y65454D01*
X52620Y65338D01*
X52671Y65112D01*
X52737Y64915D01*
X52773Y64827D01*
X52810Y64747D01*
X52846Y64674D01*
X52883Y64616D01*
X52919Y64558D01*
X52948Y64514D01*
X52977Y64477D01*
X52999Y64448D01*
X53007Y64434D01*
X53014Y64426D01*
X53109Y64324D01*
X53218Y64244D01*
X53335Y64164D01*
X53451Y64106D01*
X53575Y64047D01*
X53706Y64004D01*
X53830Y63967D01*
X53947Y63938D01*
X54063Y63909D01*
X54166Y63894D01*
X54268Y63880D01*
X54348Y63872D01*
X54421D01*
X54472Y63865D01*
X52606D01*
D01*
X56425D01*
Y67291D01*
D02*
G37*
G36*
X55091Y63566D02*
X55084D01*
X55004Y62954D01*
X55164Y62925D01*
X55310Y62881D01*
X55427Y62823D01*
X55522Y62772D01*
X55602Y62721D01*
X55653Y62677D01*
X55689Y62655D01*
X55696Y62640D01*
X55769Y62546D01*
X55820Y62444D01*
X55864Y62341D01*
X55886Y62247D01*
X55901Y62167D01*
X55908Y62094D01*
X55915Y62050D01*
Y62035D01*
X55908Y61955D01*
X55901Y61875D01*
X55864Y61729D01*
X55813Y61605D01*
X55747Y61496D01*
X55689Y61416D01*
X55638Y61350D01*
X55602Y61314D01*
X55587Y61299D01*
X55522Y61248D01*
X55441Y61204D01*
X55281Y61139D01*
X55099Y61088D01*
X54924Y61058D01*
X54763Y61037D01*
X54698Y61029D01*
X54632D01*
X54588Y61022D01*
X54545D01*
X54523D01*
X54515D01*
X54384D01*
X54260Y61037D01*
X54144Y61051D01*
X54042Y61066D01*
X53947Y61088D01*
X53859Y61117D01*
X53779Y61139D01*
X53706Y61168D01*
X53648Y61197D01*
X53597Y61219D01*
X53553Y61248D01*
X53517Y61270D01*
X53488Y61285D01*
X53466Y61299D01*
X53458Y61314D01*
X53451D01*
X53393Y61372D01*
X53342Y61430D01*
X53254Y61554D01*
X53196Y61685D01*
X53160Y61802D01*
X53130Y61911D01*
X53123Y61992D01*
X53116Y62028D01*
Y62072D01*
X53123Y62181D01*
X53145Y62283D01*
X53174Y62371D01*
X53211Y62451D01*
X53247Y62509D01*
X53276Y62560D01*
X53298Y62589D01*
X53305Y62597D01*
X53378Y62670D01*
X53466Y62735D01*
X53561Y62793D01*
X53648Y62830D01*
X53728Y62866D01*
X53794Y62888D01*
X53838Y62896D01*
X53845Y62903D01*
X53852D01*
X53757Y63508D01*
X53561Y63457D01*
X53393Y63384D01*
X53247Y63304D01*
X53130Y63224D01*
X53036Y63143D01*
X52970Y63078D01*
X52926Y63034D01*
X52912Y63027D01*
Y63020D01*
X52810Y62866D01*
X52737Y62706D01*
X52678Y62546D01*
X52642Y62393D01*
X52620Y62254D01*
X52613Y62196D01*
Y62152D01*
X52606Y62108D01*
Y62050D01*
X52613Y61875D01*
X52642Y61715D01*
X52678Y61562D01*
X52715Y61438D01*
X52759Y61328D01*
X52780Y61285D01*
X52795Y61248D01*
X52810Y61219D01*
X52824Y61197D01*
X52832Y61182D01*
Y61175D01*
X52919Y61037D01*
X53028Y60913D01*
X53138Y60811D01*
X53247Y60723D01*
X53342Y60658D01*
X53422Y60614D01*
X53451Y60599D01*
X53473Y60585D01*
X53488Y60577D01*
X53495D01*
X53670Y60512D01*
X53845Y60468D01*
X54020Y60432D01*
X54180Y60410D01*
X54253Y60402D01*
X54319Y60395D01*
X54377D01*
X54428Y60388D01*
X52606D01*
X56425D01*
Y62043D01*
X56418Y62152D01*
X56411Y62261D01*
X56367Y62451D01*
X56316Y62626D01*
X56251Y62772D01*
X56214Y62830D01*
X56185Y62888D01*
X56156Y62939D01*
X56127Y62976D01*
X56105Y63005D01*
X56090Y63027D01*
X56083Y63041D01*
X56076Y63049D01*
X56003Y63122D01*
X55930Y63187D01*
X55769Y63304D01*
X55602Y63399D01*
X55449Y63464D01*
X55303Y63515D01*
X55244Y63530D01*
X55186Y63544D01*
X55142Y63552D01*
X55113Y63559D01*
X55091Y63566D01*
D02*
G37*
G36*
X57745Y60176D02*
X56345D01*
Y56276D01*
Y60176D01*
X57300D01*
Y56072D01*
X57745D01*
Y60176D01*
D02*
G37*
G36*
X52810Y56276D02*
X52744Y56152D01*
X52693Y56036D01*
X52657Y55934D01*
X52627Y55839D01*
X52613Y55759D01*
X52606Y55693D01*
Y55642D01*
X52613Y55562D01*
X52627Y55489D01*
X52649Y55416D01*
X52671Y55358D01*
X52693Y55314D01*
X52715Y55270D01*
X52729Y55248D01*
X52737Y55241D01*
X52795Y55176D01*
X52868Y55110D01*
X52956Y55044D01*
X53036Y54986D01*
X53116Y54928D01*
X53181Y54891D01*
X53233Y54862D01*
X53240Y54855D01*
X52686D01*
Y54293D01*
X56345D01*
Y56072D01*
Y54913D01*
X54435D01*
X54290Y54920D01*
X54158Y54928D01*
X54034Y54942D01*
X53925Y54964D01*
X53838Y54986D01*
X53772Y55001D01*
X53728Y55008D01*
X53714Y55015D01*
X53633Y55044D01*
X53568Y55081D01*
X53509Y55117D01*
X53458Y55154D01*
X53422Y55190D01*
X53393Y55212D01*
X53378Y55234D01*
X53371Y55241D01*
X53327Y55299D01*
X53298Y55365D01*
X53276Y55431D01*
X53262Y55482D01*
X53254Y55533D01*
X53247Y55569D01*
Y55606D01*
X53254Y55686D01*
X53269Y55766D01*
X53291Y55846D01*
X53313Y55912D01*
X53335Y55970D01*
X53356Y56014D01*
X53371Y56043D01*
X53378Y56050D01*
X52810Y56276D01*
D02*
G37*
G36*
X56425Y53543D02*
X52606D01*
X54515D01*
X54348Y53535D01*
X54195Y53521D01*
X54049Y53499D01*
X53910Y53470D01*
X53786Y53433D01*
X53670Y53397D01*
X53568Y53353D01*
X53473Y53309D01*
X53386Y53266D01*
X53313Y53222D01*
X53254Y53185D01*
X53203Y53149D01*
X53160Y53120D01*
X53130Y53098D01*
X53116Y53083D01*
X53109Y53076D01*
X53021Y52988D01*
X52941Y52894D01*
X52875Y52792D01*
X52817Y52690D01*
X52766Y52587D01*
X52729Y52493D01*
X52693Y52391D01*
X52671Y52303D01*
X52649Y52208D01*
X52635Y52128D01*
X52620Y52055D01*
X52613Y51997D01*
X52606Y51946D01*
Y51873D01*
X52613Y51735D01*
X52627Y51603D01*
X52649Y51479D01*
X52686Y51363D01*
X52722Y51253D01*
X52766Y51151D01*
X52810Y51057D01*
X52861Y50976D01*
X52904Y50896D01*
X52956Y50831D01*
X52999Y50772D01*
X53036Y50729D01*
X53072Y50692D01*
X53094Y50663D01*
X53109Y50648D01*
X53116Y50641D01*
X53218Y50561D01*
X53327Y50488D01*
X53437Y50422D01*
X53553Y50364D01*
X53677Y50320D01*
X53794Y50284D01*
X54027Y50226D01*
X54129Y50204D01*
X54231Y50189D01*
X54319Y50182D01*
X54399Y50174D01*
X54465Y50167D01*
X54552D01*
X54712Y50174D01*
X54865Y50189D01*
X55011Y50211D01*
X55142Y50240D01*
X55266Y50277D01*
X55383Y50313D01*
X55485Y50357D01*
X55580Y50401D01*
X55660Y50444D01*
X55733Y50488D01*
X55791Y50524D01*
X55842Y50561D01*
X55886Y50590D01*
X55915Y50612D01*
X55930Y50626D01*
X55937Y50634D01*
X56025Y50729D01*
X56098Y50823D01*
X56163Y50925D01*
X56221Y51035D01*
X56265Y51137D01*
X56309Y51246D01*
X56367Y51450D01*
X56382Y51545D01*
X56396Y51632D01*
X56411Y51713D01*
X56418Y51778D01*
X56425Y51829D01*
Y51910D01*
X56411Y52135D01*
X56375Y52340D01*
X56331Y52522D01*
X56302Y52595D01*
X56272Y52668D01*
X56243Y52733D01*
X56214Y52792D01*
X56192Y52835D01*
X56170Y52879D01*
X56148Y52908D01*
X56134Y52930D01*
X56119Y52945D01*
Y52952D01*
X55988Y53098D01*
X55850Y53214D01*
X55704Y53316D01*
X55565Y53389D01*
X55441Y53448D01*
X55383Y53470D01*
X55339Y53491D01*
X55296Y53506D01*
X55266Y53513D01*
X55252Y53521D01*
X55244D01*
X55164Y52879D01*
X55303Y52821D01*
X55419Y52755D01*
X55522Y52690D01*
X55602Y52631D01*
X55660Y52580D01*
X55704Y52536D01*
X55733Y52500D01*
X55740Y52493D01*
X55799Y52398D01*
X55842Y52303D01*
X55871Y52201D01*
X55893Y52114D01*
X55908Y52034D01*
X55915Y51968D01*
Y51910D01*
X55908Y51822D01*
X55901Y51742D01*
X55864Y51596D01*
X55813Y51465D01*
X55755Y51348D01*
X55704Y51261D01*
X55653Y51195D01*
X55616Y51151D01*
X55602Y51144D01*
Y51137D01*
X55471Y51035D01*
X55325Y50955D01*
X55164Y50896D01*
X55019Y50853D01*
X54887Y50831D01*
X54829Y50816D01*
X54778Y50809D01*
X54734D01*
X54705Y50801D01*
X54683D01*
X54676D01*
Y53535D01*
X54603Y53543D01*
X56425D01*
D02*
G37*
G36*
X57745Y49628D02*
Y47076D01*
X55966D01*
X56039Y47135D01*
X56105Y47200D01*
X56163Y47273D01*
X56207Y47331D01*
X56251Y47390D01*
X56280Y47434D01*
X56294Y47470D01*
X56302Y47477D01*
X56345Y47572D01*
X56375Y47667D01*
X56396Y47761D01*
X56411Y47849D01*
X56418Y47922D01*
X56425Y47980D01*
Y48031D01*
X56418Y48184D01*
X56389Y48337D01*
X56353Y48469D01*
X56309Y48593D01*
X56265Y48695D01*
X56229Y48768D01*
X56214Y48797D01*
X56200Y48819D01*
X56192Y48826D01*
Y48833D01*
X56090Y48972D01*
X55981Y49088D01*
X55871Y49190D01*
X55762Y49271D01*
X55660Y49336D01*
X55580Y49387D01*
X55551Y49402D01*
X55529Y49416D01*
X55514Y49424D01*
X55507D01*
X55332Y49489D01*
X55157Y49540D01*
X54989Y49577D01*
X54829Y49606D01*
X54698Y49621D01*
X54640D01*
X54588Y49628D01*
X57745D01*
X52606D01*
X54494D01*
X54304Y49621D01*
X54122Y49599D01*
X53961Y49569D01*
X53816Y49533D01*
X53699Y49497D01*
X53648Y49482D01*
X53604Y49467D01*
X53575Y49453D01*
X53553Y49446D01*
X53539Y49438D01*
X53531D01*
X53378Y49365D01*
X53240Y49278D01*
X53123Y49190D01*
X53028Y49103D01*
X52956Y49023D01*
X52897Y48957D01*
X52868Y48913D01*
X52853Y48906D01*
Y48899D01*
X52773Y48760D01*
X52708Y48622D01*
X52664Y48483D01*
X52635Y48352D01*
X52620Y48243D01*
X52613Y48192D01*
X52606Y48155D01*
Y48075D01*
X52613Y47944D01*
X52627Y47827D01*
X52649Y47725D01*
X52678Y47638D01*
X52708Y47565D01*
X52729Y47506D01*
X52744Y47477D01*
X52751Y47463D01*
X52810Y47375D01*
X52875Y47288D01*
X52941Y47215D01*
X53014Y47149D01*
X53072Y47091D01*
X53123Y47054D01*
X53152Y47025D01*
X53167Y47018D01*
X52686D01*
Y46457D01*
X57745D01*
Y49628D01*
D02*
G37*
G36*
Y46063D02*
X56345D01*
Y41959D01*
Y46063D01*
X57300D01*
Y41959D01*
X57745D01*
Y46063D01*
D02*
G37*
G36*
X56345Y41908D02*
X55338D01*
X55813D01*
Y40216D01*
X55820Y39939D01*
X55828Y39808D01*
Y39684D01*
X55835Y39582D01*
X55842Y39502D01*
X55850Y39473D01*
Y39429D01*
X55419Y39815D01*
X53101Y41798D01*
X52686D01*
Y41908D01*
D01*
Y38671D01*
X56345D01*
Y41908D01*
D02*
G37*
%LPD*%
G36*
X54742Y126413D02*
X54887Y126406D01*
X55011Y126399D01*
X55113Y126384D01*
X55201Y126362D01*
X55266Y126340D01*
X55317Y126326D01*
X55347Y126319D01*
X55354Y126311D01*
X55449Y126253D01*
X55536Y126195D01*
X55609Y126122D01*
X55667Y126056D01*
X55718Y125998D01*
X55755Y125947D01*
X55777Y125918D01*
X55784Y125903D01*
X55835Y125794D01*
X55871Y125684D01*
X55901Y125582D01*
X55915Y125480D01*
X55930Y125400D01*
X55937Y125327D01*
Y125269D01*
X55930Y125138D01*
X55915Y125028D01*
X55886Y124934D01*
X55857Y124853D01*
X55828Y124795D01*
X55799Y124751D01*
X55784Y124722D01*
X55777Y124715D01*
X55711Y124656D01*
X55638Y124613D01*
X55573Y124576D01*
X55507Y124554D01*
X55449Y124540D01*
X55405Y124532D01*
X55369D01*
X55361D01*
X55303Y124540D01*
X55244Y124547D01*
X55201Y124562D01*
X55157Y124576D01*
X55121Y124591D01*
X55091Y124598D01*
X55077Y124613D01*
X55070D01*
X54982Y124686D01*
X54924Y124773D01*
X54902Y124802D01*
X54887Y124831D01*
X54873Y124853D01*
Y124861D01*
X54844Y124934D01*
X54822Y125014D01*
X54800Y125101D01*
X54785Y125189D01*
X54771Y125269D01*
X54756Y125342D01*
X54749Y125385D01*
Y125400D01*
X54727Y125524D01*
X54712Y125641D01*
X54690Y125743D01*
X54669Y125845D01*
X54647Y125940D01*
X54625Y126020D01*
X54610Y126100D01*
X54588Y126165D01*
X54574Y126224D01*
X54559Y126275D01*
X54545Y126319D01*
X54530Y126355D01*
X54523Y126384D01*
X54515Y126406D01*
X54508Y126413D01*
Y126421D01*
X54742Y126413D01*
D02*
G37*
G36*
X56425Y123869D02*
X55383D01*
X55471Y123876D01*
X55543Y123884D01*
X55696Y123920D01*
X55820Y123971D01*
X55930Y124030D01*
X56017Y124088D01*
X56083Y124139D01*
X56119Y124175D01*
X56134Y124190D01*
X56229Y124321D01*
X56302Y124467D01*
X56353Y124627D01*
X56389Y124773D01*
X56411Y124904D01*
X56418Y124963D01*
Y125014D01*
X56425Y125057D01*
Y123869D01*
D02*
G37*
G36*
X54727Y119021D02*
X54836Y119007D01*
X54931Y118992D01*
X55026Y118970D01*
X55113Y118941D01*
X55186Y118919D01*
X55252Y118890D01*
X55317Y118861D01*
X55369Y118839D01*
X55412Y118810D01*
X55441Y118788D01*
X55471Y118773D01*
X55492Y118759D01*
X55500Y118744D01*
X55507D01*
X55565Y118686D01*
X55616Y118628D01*
X55696Y118511D01*
X55755Y118387D01*
X55791Y118278D01*
X55820Y118176D01*
X55828Y118096D01*
X55835Y118066D01*
Y118023D01*
X55828Y117942D01*
X55820Y117869D01*
X55784Y117731D01*
X55733Y117607D01*
X55667Y117505D01*
X55609Y117418D01*
X55558Y117359D01*
X55522Y117323D01*
X55507Y117308D01*
X55441Y117257D01*
X55369Y117213D01*
X55201Y117140D01*
X55033Y117097D01*
X54858Y117060D01*
X54705Y117038D01*
X54632Y117031D01*
X54574D01*
X54523Y117024D01*
X54486D01*
X54465D01*
X54457D01*
X54333D01*
X54224Y117038D01*
X54122Y117053D01*
X54020Y117068D01*
X53932Y117089D01*
X53852Y117111D01*
X53772Y117140D01*
X53706Y117170D01*
X53648Y117192D01*
X53597Y117221D01*
X53553Y117243D01*
X53524Y117264D01*
X53495Y117279D01*
X53473Y117294D01*
X53466Y117308D01*
X53458D01*
X53400Y117367D01*
X53342Y117425D01*
X53262Y117541D01*
X53196Y117658D01*
X53160Y117775D01*
X53130Y117869D01*
X53123Y117950D01*
X53116Y117979D01*
Y118096D01*
X53130Y118168D01*
X53167Y118307D01*
X53225Y118431D01*
X53284Y118533D01*
X53349Y118620D01*
X53407Y118686D01*
X53444Y118722D01*
X53451Y118737D01*
X53458D01*
X53524Y118788D01*
X53597Y118839D01*
X53765Y118912D01*
X53932Y118963D01*
X54100Y118999D01*
X54246Y119021D01*
X54311Y119029D01*
X54370D01*
X54413Y119036D01*
X54450D01*
X54472D01*
X54479D01*
X54603D01*
X54727Y119021D01*
D02*
G37*
G36*
X56163Y118977D02*
X56243D01*
X56316D01*
X56382Y118970D01*
X56440D01*
X56491Y118963D01*
X56564Y118956D01*
X56622Y118948D01*
X56652Y118941D01*
X56659D01*
X56768Y118905D01*
X56863Y118854D01*
X56943Y118803D01*
X57016Y118752D01*
X57067Y118701D01*
X57111Y118657D01*
X57133Y118628D01*
X57140Y118620D01*
X57198Y118526D01*
X57242Y118416D01*
X57271Y118307D01*
X57293Y118205D01*
X57308Y118103D01*
X57315Y118030D01*
Y117957D01*
X57308Y117818D01*
X57286Y117687D01*
X57257Y117578D01*
X57220Y117490D01*
X57191Y117418D01*
X57162Y117367D01*
X57140Y117337D01*
X57133Y117323D01*
X57082Y117264D01*
X57016Y117221D01*
X56950Y117184D01*
X56885Y117155D01*
X56819Y117140D01*
X56768Y117126D01*
X56739Y117119D01*
X56724D01*
X56644Y116514D01*
X56754D01*
X56848Y116528D01*
X56943Y116543D01*
X57031Y116565D01*
X57184Y116630D01*
X57308Y116703D01*
X57402Y116776D01*
X57468Y116834D01*
X57512Y116885D01*
X57519Y116893D01*
X57526Y116900D01*
X57628Y117060D01*
X57701Y117235D01*
X57752Y117410D01*
X57789Y117578D01*
X57803Y117658D01*
X57811Y117731D01*
X57818Y117789D01*
Y117848D01*
X57825Y117891D01*
Y116390D01*
X54501D01*
X54640Y116397D01*
X54778Y116404D01*
X55026Y116455D01*
X55142Y116484D01*
X55244Y116521D01*
X55347Y116557D01*
X55434Y116594D01*
X55522Y116630D01*
X55594Y116667D01*
X55653Y116703D01*
X55711Y116732D01*
X55747Y116761D01*
X55784Y116783D01*
X55799Y116790D01*
X55806Y116798D01*
X55901Y116878D01*
X55981Y116965D01*
X56054Y117060D01*
X56119Y117155D01*
X56170Y117257D01*
X56214Y117352D01*
X56251Y117447D01*
X56280Y117541D01*
X56302Y117629D01*
X56316Y117709D01*
X56331Y117782D01*
X56338Y117848D01*
Y117899D01*
X56345Y117935D01*
Y117972D01*
X56338Y118081D01*
X56323Y118190D01*
X56302Y118292D01*
X56272Y118387D01*
X56192Y118555D01*
X56105Y118708D01*
X56061Y118766D01*
X56017Y118825D01*
X55974Y118876D01*
X55937Y118912D01*
X55908Y118941D01*
X55886Y118963D01*
X55871Y118977D01*
X55864Y118985D01*
X55974D01*
X56068D01*
X56163Y118977D01*
D02*
G37*
G36*
X54814Y113503D02*
X54917Y113488D01*
X55019Y113474D01*
X55106Y113452D01*
X55194Y113423D01*
X55266Y113401D01*
X55332Y113372D01*
X55390Y113342D01*
X55449Y113321D01*
X55485Y113291D01*
X55522Y113269D01*
X55551Y113255D01*
X55573Y113240D01*
X55580Y113226D01*
X55587D01*
X55646Y113175D01*
X55696Y113116D01*
X55777Y113000D01*
X55835Y112883D01*
X55871Y112774D01*
X55901Y112679D01*
X55908Y112599D01*
X55915Y112570D01*
Y112533D01*
X55908Y112460D01*
X55901Y112387D01*
X55864Y112256D01*
X55806Y112132D01*
X55740Y112030D01*
X55682Y111950D01*
X55624Y111884D01*
X55587Y111848D01*
X55573Y111841D01*
Y111833D01*
X55500Y111782D01*
X55427Y111739D01*
X55259Y111666D01*
X55084Y111615D01*
X54917Y111578D01*
X54763Y111556D01*
X54698Y111549D01*
X54640D01*
X54588Y111542D01*
X54552D01*
X54530D01*
X54523D01*
X54392D01*
X54268Y111556D01*
X54151Y111571D01*
X54049Y111585D01*
X53954Y111607D01*
X53867Y111629D01*
X53786Y111651D01*
X53714Y111680D01*
X53655Y111709D01*
X53604Y111731D01*
X53561Y111753D01*
X53524Y111775D01*
X53495Y111797D01*
X53473Y111804D01*
X53466Y111819D01*
X53458D01*
X53400Y111870D01*
X53342Y111928D01*
X53262Y112045D01*
X53196Y112161D01*
X53160Y112271D01*
X53130Y112365D01*
X53123Y112446D01*
X53116Y112475D01*
Y112511D01*
X53123Y112592D01*
X53130Y112664D01*
X53174Y112803D01*
X53225Y112927D01*
X53291Y113029D01*
X53356Y113109D01*
X53415Y113175D01*
X53458Y113211D01*
X53466Y113226D01*
X53473D01*
X53546Y113277D01*
X53619Y113321D01*
X53794Y113393D01*
X53976Y113444D01*
X54151Y113481D01*
X54238Y113496D01*
X54319Y113503D01*
X54392Y113510D01*
X54450D01*
X54501Y113517D01*
X54537D01*
X54567D01*
X54574D01*
X54698D01*
X54814Y113503D01*
D02*
G37*
G36*
X54727Y105688D02*
X54836Y105673D01*
X54931Y105659D01*
X55026Y105637D01*
X55113Y105608D01*
X55186Y105586D01*
X55252Y105557D01*
X55317Y105527D01*
X55369Y105506D01*
X55412Y105476D01*
X55441Y105455D01*
X55471Y105440D01*
X55492Y105425D01*
X55500Y105411D01*
X55507D01*
X55565Y105352D01*
X55616Y105294D01*
X55696Y105178D01*
X55755Y105054D01*
X55791Y104944D01*
X55820Y104842D01*
X55828Y104762D01*
X55835Y104733D01*
Y104689D01*
X55828Y104609D01*
X55820Y104536D01*
X55784Y104397D01*
X55733Y104274D01*
X55667Y104172D01*
X55609Y104084D01*
X55558Y104026D01*
X55522Y103989D01*
X55507Y103975D01*
X55441Y103924D01*
X55369Y103880D01*
X55201Y103807D01*
X55033Y103763D01*
X54858Y103727D01*
X54705Y103705D01*
X54632Y103698D01*
X54574D01*
X54523Y103690D01*
X54486D01*
X54465D01*
X54457D01*
X54333D01*
X54224Y103705D01*
X54122Y103720D01*
X54020Y103734D01*
X53932Y103756D01*
X53852Y103778D01*
X53772Y103807D01*
X53706Y103836D01*
X53648Y103858D01*
X53597Y103887D01*
X53553Y103909D01*
X53524Y103931D01*
X53495Y103946D01*
X53473Y103960D01*
X53466Y103975D01*
X53458D01*
X53400Y104033D01*
X53342Y104091D01*
X53262Y104208D01*
X53196Y104325D01*
X53160Y104441D01*
X53130Y104536D01*
X53123Y104616D01*
X53116Y104645D01*
Y104762D01*
X53130Y104835D01*
X53167Y104973D01*
X53225Y105097D01*
X53284Y105199D01*
X53349Y105287D01*
X53407Y105352D01*
X53444Y105389D01*
X53451Y105404D01*
X53458D01*
X53524Y105455D01*
X53597Y105506D01*
X53765Y105578D01*
X53932Y105630D01*
X54100Y105666D01*
X54246Y105688D01*
X54311Y105695D01*
X54370D01*
X54413Y105702D01*
X54450D01*
X54472D01*
X54479D01*
X54603D01*
X54727Y105688D01*
D02*
G37*
G36*
X56163Y105644D02*
X56243D01*
X56316D01*
X56382Y105637D01*
X56440D01*
X56491Y105630D01*
X56564Y105622D01*
X56622Y105615D01*
X56652Y105608D01*
X56659D01*
X56768Y105571D01*
X56863Y105520D01*
X56943Y105469D01*
X57016Y105418D01*
X57067Y105367D01*
X57111Y105323D01*
X57133Y105294D01*
X57140Y105287D01*
X57198Y105192D01*
X57242Y105083D01*
X57271Y104973D01*
X57293Y104871D01*
X57308Y104769D01*
X57315Y104696D01*
Y104623D01*
X57308Y104485D01*
X57286Y104354D01*
X57257Y104244D01*
X57220Y104157D01*
X57191Y104084D01*
X57162Y104033D01*
X57140Y104004D01*
X57133Y103989D01*
X57082Y103931D01*
X57016Y103887D01*
X56950Y103851D01*
X56885Y103822D01*
X56819Y103807D01*
X56768Y103793D01*
X56739Y103785D01*
X56724D01*
X56644Y103180D01*
X56754D01*
X56848Y103195D01*
X56943Y103209D01*
X57031Y103231D01*
X57184Y103297D01*
X57308Y103370D01*
X57402Y103443D01*
X57468Y103501D01*
X57512Y103552D01*
X57519Y103559D01*
X57526Y103567D01*
X57628Y103727D01*
X57701Y103902D01*
X57752Y104077D01*
X57789Y104244D01*
X57803Y104325D01*
X57811Y104397D01*
X57818Y104456D01*
Y104514D01*
X57825Y104558D01*
Y103056D01*
X54501D01*
X54640Y103063D01*
X54778Y103071D01*
X55026Y103122D01*
X55142Y103151D01*
X55244Y103187D01*
X55347Y103224D01*
X55434Y103260D01*
X55522Y103297D01*
X55594Y103333D01*
X55653Y103370D01*
X55711Y103399D01*
X55747Y103428D01*
X55784Y103450D01*
X55799Y103457D01*
X55806Y103464D01*
X55901Y103545D01*
X55981Y103632D01*
X56054Y103727D01*
X56119Y103822D01*
X56170Y103924D01*
X56214Y104018D01*
X56251Y104113D01*
X56280Y104208D01*
X56302Y104296D01*
X56316Y104376D01*
X56331Y104449D01*
X56338Y104514D01*
Y104565D01*
X56345Y104602D01*
Y104638D01*
X56338Y104747D01*
X56323Y104857D01*
X56302Y104959D01*
X56272Y105054D01*
X56192Y105221D01*
X56105Y105374D01*
X56061Y105433D01*
X56017Y105491D01*
X55974Y105542D01*
X55937Y105578D01*
X55908Y105608D01*
X55886Y105630D01*
X55871Y105644D01*
X55864Y105651D01*
X55974D01*
X56068D01*
X56163Y105644D01*
D02*
G37*
G36*
X56345Y99994D02*
X54355D01*
X54231D01*
X54107Y100009D01*
X54005Y100023D01*
X53910Y100038D01*
X53823Y100060D01*
X53743Y100082D01*
X53670Y100111D01*
X53612Y100140D01*
X53561Y100162D01*
X53517Y100191D01*
X53480Y100213D01*
X53451Y100235D01*
X53415Y100264D01*
X53400Y100279D01*
X53313Y100388D01*
X53254Y100505D01*
X53211Y100621D01*
X53174Y100723D01*
X53160Y100818D01*
X53152Y100891D01*
X53145Y100920D01*
Y100957D01*
X53152Y101044D01*
X53160Y101132D01*
X53181Y101205D01*
X53203Y101263D01*
X53225Y101314D01*
X53240Y101358D01*
X53254Y101380D01*
X53262Y101387D01*
X53305Y101452D01*
X53356Y101511D01*
X53407Y101554D01*
X53451Y101591D01*
X53495Y101613D01*
X53531Y101635D01*
X53553Y101649D01*
X53561D01*
X53641Y101671D01*
X53728Y101693D01*
X53823Y101707D01*
X53918Y101715D01*
X53998Y101722D01*
X54063D01*
X54115D01*
X54122D01*
X54129D01*
X56345D01*
Y99994D01*
D02*
G37*
G36*
Y94505D02*
X54355D01*
X54231D01*
X54107Y94520D01*
X54005Y94534D01*
X53910Y94549D01*
X53823Y94571D01*
X53743Y94592D01*
X53670Y94622D01*
X53612Y94651D01*
X53561Y94673D01*
X53517Y94702D01*
X53480Y94724D01*
X53451Y94746D01*
X53415Y94775D01*
X53400Y94789D01*
X53313Y94899D01*
X53254Y95015D01*
X53211Y95132D01*
X53174Y95234D01*
X53160Y95329D01*
X53152Y95402D01*
X53145Y95431D01*
Y95467D01*
X53152Y95555D01*
X53160Y95642D01*
X53181Y95715D01*
X53203Y95774D01*
X53225Y95824D01*
X53240Y95868D01*
X53254Y95890D01*
X53262Y95897D01*
X53305Y95963D01*
X53356Y96021D01*
X53407Y96065D01*
X53451Y96101D01*
X53495Y96123D01*
X53531Y96145D01*
X53553Y96160D01*
X53561D01*
X53641Y96182D01*
X53728Y96204D01*
X53823Y96218D01*
X53918Y96226D01*
X53998Y96233D01*
X54063D01*
X54115D01*
X54122D01*
X54129D01*
X56345D01*
Y94505D01*
D02*
G37*
G36*
X54749Y92508D02*
X54858Y92493D01*
X54967Y92471D01*
X55062Y92449D01*
X55150Y92420D01*
X55230Y92398D01*
X55303Y92369D01*
X55361Y92340D01*
X55419Y92311D01*
X55463Y92282D01*
X55500Y92260D01*
X55529Y92238D01*
X55551Y92223D01*
X55558Y92216D01*
X55565Y92209D01*
X55624Y92150D01*
X55682Y92085D01*
X55769Y91961D01*
X55828Y91830D01*
X55871Y91713D01*
X55893Y91604D01*
X55908Y91523D01*
X55915Y91487D01*
Y91443D01*
X55908Y91356D01*
X55901Y91276D01*
X55864Y91123D01*
X55806Y90991D01*
X55740Y90882D01*
X55682Y90794D01*
X55624Y90729D01*
X55587Y90685D01*
X55573Y90678D01*
Y90671D01*
X55500Y90619D01*
X55427Y90568D01*
X55259Y90496D01*
X55084Y90437D01*
X54909Y90401D01*
X54756Y90379D01*
X54690Y90372D01*
X54632D01*
X54581Y90364D01*
X54545D01*
X54523D01*
X54515D01*
X54392Y90372D01*
X54268Y90379D01*
X54158Y90393D01*
X54056Y90415D01*
X53961Y90437D01*
X53874Y90459D01*
X53801Y90488D01*
X53728Y90517D01*
X53670Y90547D01*
X53612Y90576D01*
X53568Y90598D01*
X53531Y90619D01*
X53502Y90641D01*
X53480Y90656D01*
X53473Y90671D01*
X53466D01*
X53407Y90729D01*
X53349Y90794D01*
X53262Y90918D01*
X53203Y91049D01*
X53160Y91173D01*
X53130Y91283D01*
X53123Y91363D01*
X53116Y91400D01*
Y91443D01*
X53123Y91531D01*
X53130Y91611D01*
X53167Y91757D01*
X53225Y91888D01*
X53291Y91997D01*
X53356Y92085D01*
X53407Y92150D01*
X53451Y92194D01*
X53458Y92209D01*
X53466D01*
X53531Y92267D01*
X53612Y92311D01*
X53772Y92391D01*
X53947Y92449D01*
X54107Y92486D01*
X54260Y92508D01*
X54326Y92515D01*
X54384D01*
X54428Y92522D01*
X54465D01*
X54486D01*
X54494D01*
X54625D01*
X54749Y92508D01*
D02*
G37*
G36*
X52613Y71716D02*
X52635Y71600D01*
X52664Y71483D01*
X52708Y71374D01*
X52759Y71272D01*
X52810Y71177D01*
X52868Y71097D01*
X52926Y71017D01*
X52992Y70944D01*
X53050Y70885D01*
X53101Y70834D01*
X53152Y70791D01*
X53196Y70754D01*
X53225Y70732D01*
X53247Y70718D01*
X53254Y70710D01*
X53145Y70667D01*
X53050Y70608D01*
X52970Y70543D01*
X52904Y70485D01*
X52846Y70426D01*
X52810Y70382D01*
X52788Y70353D01*
X52780Y70339D01*
X52722Y70237D01*
X52678Y70127D01*
X52649Y70018D01*
X52627Y69909D01*
X52613Y69821D01*
X52606Y69741D01*
Y71848D01*
X52613Y71716D01*
D02*
G37*
G36*
Y69544D02*
X52635Y69420D01*
X52657Y69311D01*
X52686Y69216D01*
X52722Y69136D01*
X52744Y69077D01*
X52766Y69041D01*
X52773Y69026D01*
X52839Y68924D01*
X52912Y68837D01*
X52985Y68757D01*
X53057Y68691D01*
X53116Y68640D01*
X53167Y68596D01*
X53196Y68575D01*
X53211Y68567D01*
X52686D01*
Y68013D01*
X52606D01*
Y69675D01*
X52613Y69544D01*
D02*
G37*
G36*
X54749Y66643D02*
X54858Y66628D01*
X54967Y66606D01*
X55062Y66584D01*
X55150Y66555D01*
X55230Y66533D01*
X55303Y66504D01*
X55361Y66475D01*
X55419Y66446D01*
X55463Y66417D01*
X55500Y66395D01*
X55529Y66373D01*
X55551Y66358D01*
X55558Y66351D01*
X55565Y66344D01*
X55624Y66285D01*
X55682Y66220D01*
X55769Y66096D01*
X55828Y65965D01*
X55871Y65848D01*
X55893Y65739D01*
X55908Y65658D01*
X55915Y65622D01*
Y65578D01*
X55908Y65491D01*
X55901Y65411D01*
X55864Y65258D01*
X55806Y65126D01*
X55740Y65017D01*
X55682Y64929D01*
X55624Y64864D01*
X55587Y64820D01*
X55573Y64813D01*
Y64806D01*
X55500Y64754D01*
X55427Y64704D01*
X55259Y64631D01*
X55084Y64572D01*
X54909Y64536D01*
X54756Y64514D01*
X54690Y64507D01*
X54632D01*
X54581Y64499D01*
X54545D01*
X54523D01*
X54515D01*
X54392Y64507D01*
X54268Y64514D01*
X54158Y64529D01*
X54056Y64550D01*
X53961Y64572D01*
X53874Y64594D01*
X53801Y64623D01*
X53728Y64653D01*
X53670Y64682D01*
X53612Y64711D01*
X53568Y64733D01*
X53531Y64754D01*
X53502Y64776D01*
X53480Y64791D01*
X53473Y64806D01*
X53466D01*
X53407Y64864D01*
X53349Y64929D01*
X53262Y65053D01*
X53203Y65185D01*
X53160Y65309D01*
X53130Y65418D01*
X53123Y65498D01*
X53116Y65535D01*
Y65578D01*
X53123Y65666D01*
X53130Y65746D01*
X53167Y65892D01*
X53225Y66023D01*
X53291Y66132D01*
X53356Y66220D01*
X53407Y66285D01*
X53451Y66329D01*
X53458Y66344D01*
X53466D01*
X53531Y66402D01*
X53612Y66446D01*
X53772Y66526D01*
X53947Y66584D01*
X54107Y66621D01*
X54260Y66643D01*
X54326Y66650D01*
X54384D01*
X54428Y66657D01*
X54465D01*
X54486D01*
X54494D01*
X54625D01*
X54749Y66643D01*
D02*
G37*
G36*
X56425Y63865D02*
X54515D01*
X54683Y63872D01*
X54844Y63887D01*
X54989Y63909D01*
X55128Y63938D01*
X55252Y63974D01*
X55369Y64011D01*
X55478Y64055D01*
X55573Y64098D01*
X55660Y64142D01*
X55733Y64186D01*
X55791Y64222D01*
X55842Y64259D01*
X55886Y64288D01*
X55915Y64310D01*
X55930Y64324D01*
X55937Y64332D01*
X56025Y64426D01*
X56098Y64521D01*
X56163Y64623D01*
X56221Y64725D01*
X56265Y64827D01*
X56309Y64937D01*
X56367Y65134D01*
X56382Y65221D01*
X56396Y65309D01*
X56411Y65381D01*
X56418Y65447D01*
X56425Y65505D01*
Y63865D01*
D02*
G37*
G36*
Y60388D02*
X54530D01*
X54698Y60395D01*
X54851Y60410D01*
X55004Y60432D01*
X55135Y60461D01*
X55266Y60490D01*
X55376Y60534D01*
X55485Y60570D01*
X55580Y60614D01*
X55660Y60658D01*
X55733Y60694D01*
X55799Y60738D01*
X55850Y60767D01*
X55886Y60796D01*
X55915Y60818D01*
X55930Y60833D01*
X55937Y60840D01*
X56025Y60927D01*
X56098Y61022D01*
X56163Y61117D01*
X56221Y61219D01*
X56265Y61321D01*
X56309Y61416D01*
X56367Y61612D01*
X56382Y61700D01*
X56396Y61780D01*
X56411Y61853D01*
X56418Y61919D01*
X56425Y61970D01*
Y60388D01*
D02*
G37*
G36*
X54166Y50838D02*
X53998Y50860D01*
X53845Y50903D01*
X53714Y50955D01*
X53612Y51013D01*
X53524Y51064D01*
X53458Y51115D01*
X53422Y51144D01*
X53407Y51159D01*
X53313Y51275D01*
X53240Y51392D01*
X53189Y51516D01*
X53152Y51632D01*
X53130Y51727D01*
X53123Y51807D01*
X53116Y51837D01*
Y51880D01*
X53123Y51968D01*
X53130Y52048D01*
X53174Y52201D01*
X53233Y52332D01*
X53298Y52442D01*
X53364Y52529D01*
X53422Y52595D01*
X53466Y52631D01*
X53473Y52646D01*
X53480D01*
X53575Y52711D01*
X53685Y52770D01*
X53794Y52806D01*
X53910Y52843D01*
X54005Y52864D01*
X54093Y52879D01*
X54122D01*
X54144Y52886D01*
X54158D01*
X54166D01*
Y50838D01*
D02*
G37*
G36*
X54742Y48979D02*
X54858Y48964D01*
X54967Y48950D01*
X55062Y48928D01*
X55150Y48899D01*
X55237Y48870D01*
X55303Y48848D01*
X55369Y48819D01*
X55419Y48789D01*
X55471Y48768D01*
X55507Y48738D01*
X55536Y48724D01*
X55558Y48709D01*
X55565Y48695D01*
X55573D01*
X55631Y48636D01*
X55682Y48578D01*
X55769Y48461D01*
X55828Y48345D01*
X55871Y48235D01*
X55893Y48133D01*
X55908Y48060D01*
X55915Y48031D01*
Y47987D01*
X55908Y47915D01*
X55901Y47842D01*
X55864Y47710D01*
X55806Y47594D01*
X55747Y47492D01*
X55689Y47412D01*
X55631Y47353D01*
X55594Y47317D01*
X55580Y47302D01*
X55514Y47251D01*
X55441Y47207D01*
X55274Y47135D01*
X55106Y47091D01*
X54931Y47054D01*
X54778Y47032D01*
X54712Y47025D01*
X54654D01*
X54603Y47018D01*
X54567D01*
X54545D01*
X54537D01*
X54406D01*
X54290Y47032D01*
X54180Y47047D01*
X54071Y47062D01*
X53976Y47091D01*
X53889Y47113D01*
X53808Y47142D01*
X53736Y47171D01*
X53677Y47193D01*
X53619Y47222D01*
X53575Y47251D01*
X53531Y47273D01*
X53502Y47288D01*
X53480Y47302D01*
X53473Y47317D01*
X53466D01*
X53400Y47375D01*
X53342Y47434D01*
X53291Y47492D01*
X53247Y47557D01*
X53181Y47674D01*
X53138Y47783D01*
X53116Y47878D01*
X53101Y47951D01*
X53094Y47980D01*
Y48017D01*
X53101Y48090D01*
X53109Y48162D01*
X53145Y48294D01*
X53203Y48410D01*
X53269Y48512D01*
X53335Y48593D01*
X53386Y48651D01*
X53429Y48687D01*
X53437Y48702D01*
X53444D01*
X53509Y48753D01*
X53590Y48797D01*
X53757Y48870D01*
X53925Y48921D01*
X54093Y48957D01*
X54246Y48979D01*
X54311Y48986D01*
X54370D01*
X54421Y48994D01*
X54457D01*
X54479D01*
X54486D01*
X54618D01*
X54742Y48979D01*
D02*
G37*
G36*
X55850Y38671D02*
X52686D01*
Y38809D01*
X53189D01*
Y40413D01*
X53181Y40537D01*
Y40654D01*
X53174Y40763D01*
Y40858D01*
X53167Y40931D01*
Y40996D01*
X55850Y38671D01*
D02*
G37*
D10*
X256394Y134000D02*
X255606D01*
X256394D01*
D11*
X40953Y78494D02*
X41610Y77660D01*
X42463Y77028D01*
X43452Y76642D01*
X44508Y76529D01*
X36305Y139463D02*
X36880Y138740D01*
X37520Y138074D01*
X38221Y137472D01*
X36311Y147635D02*
X36875Y146890D01*
X37516Y146209D01*
X38226Y145600D01*
X46527Y110799D02*
X46796Y111722D01*
X46878Y112679D01*
X35318Y70930D02*
X35843Y70314D01*
X36433Y69762D01*
X46884Y43058D02*
X46858Y43901D01*
X46765Y44740D01*
X46605Y45568D01*
X34253Y112679D02*
X34363Y111442D01*
X34716Y110253D01*
X35979Y114541D02*
X35716Y113622D01*
X35628Y112670D01*
X35716Y111718D01*
X35979Y110799D01*
X47782Y110253D02*
X48079Y111212D01*
X48229Y112206D01*
Y113210D01*
X48079Y114203D01*
X47782Y115163D01*
X48253Y43050D02*
X48238Y43952D01*
X48139Y44849D01*
X47958Y45733D01*
X47695Y46597D01*
X36626Y131883D02*
X35842Y131507D01*
X35182Y130942D01*
X34689Y130226D01*
X36104Y117048D02*
X35308Y116184D01*
X34730Y115160D01*
X34716Y110253D02*
X35290Y109230D01*
X36082Y108365D01*
X46084Y48822D02*
X45282Y49331D01*
X44413Y49715D01*
X43496Y49965D01*
X35633Y149793D02*
X35813Y148664D01*
X36311Y147635D01*
X35497Y146587D02*
X36059Y145998D01*
X36693Y145488D01*
X35627Y141543D02*
X35806Y140451D01*
X36305Y139463D01*
X39216Y130861D02*
X38408Y130825D01*
X37610Y130696D01*
X35627Y127727D02*
X35802Y126582D01*
X36297Y125535D01*
X35368Y124710D02*
X35937Y124034D01*
X36573Y123422D01*
X37027Y115988D02*
X36418Y115326D01*
X35979Y114541D01*
X38299Y118255D02*
X37515Y117953D01*
X36779Y117548D01*
X36104Y117048D01*
X46407Y117053D02*
X45727Y117551D01*
X44986Y117954D01*
X44199Y118255D01*
X47782Y115163D02*
X47203Y116187D01*
X46407Y117053D01*
X46878Y112679D02*
X46796Y113628D01*
X46527Y114541D01*
X36082Y108365D02*
X36756Y107866D01*
X37491Y107462D01*
X38274Y107161D01*
X35979Y110799D02*
X36418Y110014D01*
X37027Y109352D01*
X44207Y107161D02*
X44995Y107466D01*
X45735Y107873D01*
X46415Y108374D01*
X47209Y109233D01*
X47782Y110253D01*
X4042Y96688D02*
X3958Y96548D01*
X3251Y103177D02*
X4338Y102727D01*
X40305Y79851D02*
X40495Y79360D01*
X45342Y85139D02*
X44525Y85995D01*
X46878Y81422D02*
X46663Y82800D01*
X47213Y84601D02*
X46735Y85321D01*
X46192Y85995D01*
X36062Y77578D02*
X36624Y77280D01*
X46044Y76849D02*
X47232Y77725D01*
X47695Y46597D02*
X47297Y47433D01*
X46754Y48182D01*
X46084Y48822D01*
X43822Y36174D02*
X44705Y36472D01*
X45540Y36885D01*
X46605Y40574D02*
X46765Y41394D01*
X46859Y42224D01*
X46884Y43058D01*
X34364Y148971D02*
X34749Y147766D01*
X35667Y150354D02*
X35642Y150082D01*
X35996Y153278D02*
X35250Y152762D01*
X34689Y152049D01*
X34253Y150147D02*
X34364Y148971D01*
X37312Y152280D02*
X37069Y152203D01*
X34646Y139940D02*
X35343Y138780D01*
X34253Y141922D02*
X34328Y140980D01*
X34852Y144153D02*
X34387Y143082D01*
X34253Y141922D01*
X37585Y144077D02*
X36470Y143634D01*
X3251Y123028D02*
X2801Y121941D01*
X4552Y122309D02*
X3967Y121727D01*
X34339Y127086D02*
X34666Y125943D01*
X34447Y129605D02*
X34297Y128867D01*
X34253Y128114D01*
X35842Y129191D02*
X35627Y127727D01*
X36297Y125535D02*
X36860Y124770D01*
X37492Y124061D01*
X38187Y123414D01*
X34730Y115160D02*
X34459Y114357D01*
X34299Y113525D01*
X34253Y112679D01*
X46527Y114541D02*
X46081Y115329D01*
X45462Y115988D01*
Y109352D02*
X46081Y110012D01*
X46527Y110799D01*
X27201Y102362D02*
X26744Y103452D01*
X34582Y79655D02*
X34701Y79311D01*
X35628Y82256D02*
X35651Y81539D01*
X34262Y81748D02*
X34289Y81279D01*
X35937Y84283D02*
X35685Y83284D01*
X35627Y82256D01*
X34596Y84623D02*
X34325Y83447D01*
X34253Y82242D01*
X35583Y86218D02*
X34994Y85479D01*
X34596Y84623D01*
X36100Y79624D02*
X36210Y79426D01*
X38067Y85883D02*
X36788Y85398D01*
X39682Y84394D02*
X39694Y83627D01*
X39796Y82211D02*
X39885Y81562D01*
X41752Y79715D02*
X41915Y79403D01*
X41194Y81733D02*
X41271Y81268D01*
X41056Y83901D02*
X41091Y82756D01*
X46217Y78860D02*
X46554Y79482D01*
X46663Y82800D02*
X46106Y84057D01*
X48253Y80686D02*
X48166Y81985D01*
X47848Y83276D02*
X47213Y84601D01*
X47988Y79041D02*
X48189Y79852D01*
X48253Y80686D01*
X35627Y73643D02*
X35867Y72497D01*
X34328Y73094D02*
X34646Y72045D01*
X36495Y71440D02*
X37370Y70506D01*
X2915Y62484D02*
X3087Y62070D01*
X25662Y61899D02*
X26750Y62348D01*
X27201Y63435D01*
X46644Y63954D02*
X46722Y64759D01*
X47101Y61938D02*
X47848Y62774D01*
X46605Y45568D02*
X46217Y46561D01*
X45565Y47405D01*
X45573Y38736D02*
X46216Y39584D01*
X46605Y40574D01*
X47901Y40150D02*
X48109Y41104D01*
X48226Y42074D01*
X48253Y43050D01*
X46948Y38148D02*
X47516Y39106D01*
X47901Y40150D01*
X44199Y118255D02*
X43230Y118489D01*
X42244Y118630D01*
X41249Y118678D01*
X40253Y118630D01*
X39267Y118489D01*
X38299Y118255D01*
X43691Y116931D02*
X42721Y117148D01*
X41732Y117257D01*
X40738D01*
X39749Y117148D01*
X38778Y116931D01*
X38778Y108418D02*
X39750Y108208D01*
X40738Y108102D01*
X41732D01*
X42720Y108208D01*
X43691Y108418D01*
X38274Y107161D02*
X39247Y106924D01*
X40239Y106781D01*
X41240Y106733D01*
X42241Y106781D01*
X43233Y106924D01*
X44207Y107161D01*
X36693Y145488D02*
X35657Y144979D01*
X34852Y144153D01*
X41915Y79403D02*
X42526Y78609D01*
X43384Y78091D01*
X44372Y77923D01*
X45565Y47405D02*
X44581Y48092D01*
X43460Y48520D01*
X43468Y37593D02*
X44593Y38032D01*
X45573Y38736D01*
X41932Y35870D02*
X42884Y35976D01*
X43822Y36174D01*
X38496Y152471D02*
X38168Y152442D01*
X39096Y153873D02*
X38176Y153836D01*
X36626Y153539D02*
X35996Y153278D01*
X36470Y151899D02*
X36043Y151455D01*
X39216Y144206D02*
X38397Y144179D01*
X37585Y144077D01*
X36470Y143634D02*
X35834Y142798D01*
X35343Y138780D02*
X35925Y138095D01*
X36573Y137472D01*
X39096Y132255D02*
X38176Y132214D01*
X36495Y130161D02*
X35842Y129191D01*
X4338Y123478D02*
X3251Y123028D01*
X38778Y116931D02*
X37854Y116550D01*
X37027Y115988D01*
X45462Y115988D02*
X44624Y116549D01*
X43691Y116931D01*
X37027Y109352D02*
X37854Y108793D01*
X38778Y108418D01*
X43691D02*
X44624Y108794D01*
X45462Y109352D01*
X4028Y98269D02*
X3210Y98364D01*
X39682Y85987D02*
X38873Y85963D01*
X38067Y85883D01*
X39216Y87389D02*
X38171Y87325D01*
X37147Y87110D01*
Y87110D02*
X36312Y86758D01*
X35583Y86218D01*
X36788Y85398D02*
X35937Y84283D01*
X3958Y81416D02*
X4130Y81002D01*
X3251Y80113D02*
X4338Y79663D01*
X36000Y79841D02*
X36100Y79624D01*
X46773Y80231D02*
X46819Y80508D01*
X44372Y77923D02*
X45416Y78152D01*
X46217Y78860D01*
X44508Y76529D02*
X45294Y76604D01*
X46044Y76849D01*
X35867Y72497D02*
X36495Y71440D01*
X37370Y70506D02*
X38374Y69762D01*
X44229Y62872D02*
X45545Y62994D01*
X45858Y61564D02*
X47101Y61938D01*
X44112Y61478D02*
X44986Y61496D01*
X45858Y61564D01*
X43496Y49965D02*
X42349Y50156D01*
X41190Y50266D01*
X40027Y50294D01*
X43460Y48520D02*
X42599Y48703D01*
X41728Y48827D01*
X40851Y48893D01*
X39972Y48900D01*
X39972Y37203D02*
X40854Y37211D01*
X41733Y37279D01*
X42606Y37406D01*
X43468Y37593D01*
X45540Y36885D02*
X46308Y37445D01*
X46948Y38148D01*
X40211Y35809D02*
X40775Y35819D01*
X38168Y152442D02*
X37861Y152400D01*
X37576Y152346D02*
X37312Y152280D01*
X37353Y153725D02*
X36626Y153539D01*
X37861Y152400D02*
X37576Y152346D01*
X38176Y153836D02*
X37353Y153725D01*
X39216Y152495D02*
X38496Y152471D01*
X35934Y151270D02*
X35842Y151068D01*
Y151068D02*
X35767Y150847D01*
X35767D02*
X35708Y150609D01*
X35667Y150354D01*
X34689Y152049D02*
X34447Y151489D01*
X36043Y151455D02*
X35934Y151270D01*
X34447Y151489D02*
X34253Y150147D01*
X37069Y152203D02*
X36848Y152113D01*
X36848Y152113D02*
X36648Y152012D01*
X36470Y151899D01*
X35642Y150082D02*
X35633Y149793D01*
X34749Y147766D02*
X35497Y146587D01*
X35834Y142798D02*
X35627Y141543D01*
X34328Y140980D02*
X34646Y139940D01*
X38176Y132214D02*
X37353Y132089D01*
X37353Y132089D02*
X36626Y131882D01*
X27201Y130103D02*
X27025Y130519D01*
X26605Y130685D02*
X26019Y130103D01*
X27025Y130519D02*
X26605Y130685D01*
X34689Y130226D02*
X34447Y129605D01*
X37610Y130696D02*
X36495Y130161D01*
X34253Y128114D02*
X34339Y127086D01*
X34666Y125943D02*
X35368Y124710D01*
X25436Y123478D02*
X25850Y123649D01*
X25849Y123649D02*
X26019Y124063D01*
X25662Y122309D02*
X26750Y122759D01*
X27201Y123846D01*
X2801Y104264D02*
X3251Y103177D01*
X3967Y104478D02*
X4552Y103896D01*
X26744Y103452D02*
X25648Y103896D01*
X26030Y102142D02*
X25861Y102556D01*
X25448Y102727D01*
X3210Y98364D02*
X2801Y97650D01*
X4204Y96674D02*
X4042Y96688D01*
X27030Y87067D02*
X27201Y87481D01*
X26202Y87067D02*
X26616Y86896D01*
X26030Y87481D02*
X26202Y87067D01*
X26616Y86896D02*
X27030Y87067D01*
X46106Y84057D02*
X45342Y85139D01*
X34253Y82242D02*
X34262Y81748D01*
X39694Y83627D02*
X39733Y82899D01*
X39733Y82899D02*
X39796Y82211D01*
X41091Y82756D02*
X41134Y82229D01*
X41134Y82229D02*
X41194Y81733D01*
X48166Y81985D02*
X47848Y83276D01*
X2801Y81199D02*
X3251Y80113D01*
X4130Y81002D02*
X4544Y80831D01*
X19981Y79834D02*
X20153Y80248D01*
X19567Y79663D02*
X19981Y79834D01*
X19981Y80661D02*
X19567Y80831D01*
X20153Y80248D02*
X19981Y80661D01*
X26016Y80502D02*
X25952Y80625D01*
X27201Y80502D02*
X26644Y81559D01*
X35773Y80606D02*
X35837Y80332D01*
X35837Y80332D02*
X35913Y80077D01*
X35913Y80077D02*
X36000Y79841D01*
X34481Y80023D02*
X34582Y79654D01*
X34398Y80417D02*
X34481Y80023D01*
X35651Y81539D02*
X35680Y81209D01*
X35680D02*
X35721Y80898D01*
X34289Y81279D02*
X34334Y80835D01*
X35721Y80898D02*
X35773Y80606D01*
X34334Y80835D02*
X34398Y80417D01*
X40139Y80382D02*
X40305Y79851D01*
X39885Y81562D02*
X39999Y80952D01*
X39999Y80952D02*
X40139Y80382D01*
X41477Y80430D02*
X41606Y80057D01*
X41752Y79715D01*
X41271Y81268D02*
X41366Y80834D01*
Y80834D02*
X41477Y80430D01*
X46554Y79482D02*
X46713Y79967D01*
X46713Y79967D02*
X46773Y80231D01*
X46852Y80799D02*
X46872Y81104D01*
X46872Y81104D02*
X46878Y81422D01*
X46819Y80508D02*
X46852Y80799D01*
X34701Y79311D02*
X34839Y78992D01*
X35170Y78430D02*
X36062Y77578D01*
X34839Y78992D02*
X35170Y78430D01*
X36210Y79426D02*
X36966Y78662D01*
X37981Y78310D01*
X40495Y79360D02*
X40953Y78494D01*
X47232Y77725D02*
X47675Y78346D01*
X47988Y79041D01*
X36934Y77163D02*
X37264Y77068D01*
X36624Y77280D02*
X36934Y77163D01*
X37264Y77068D02*
X37981Y76941D01*
X34253Y74011D02*
X34328Y73093D01*
X35661Y74563D02*
X35627Y74147D01*
X34646Y72045D02*
X35318Y70930D01*
X46718Y65268D02*
X46716Y65300D01*
X46716Y65300D02*
X46710Y65367D01*
Y65367D02*
X46705Y65401D01*
X48092Y64633D02*
X48083Y64810D01*
X3501Y63067D02*
X2915Y62484D01*
X25434Y63067D02*
X25847Y63239D01*
X26016Y63652D01*
X45545Y62994D02*
X46301Y63357D01*
X46644Y63954D01*
X47848Y62774D02*
X48099Y64221D01*
X3087Y62070D02*
X3501Y61899D01*
X40775Y35819D02*
X41349Y35840D01*
X30475Y102780D02*
X46089Y89977D01*
X4204Y96674D02*
X25952Y80625D01*
X4028Y98269D02*
X26644Y81559D01*
X3958Y81416D02*
Y96548D01*
X2801Y81199D02*
Y97650D01*
X27201Y123846D02*
Y130103D01*
X26019Y124063D02*
Y130103D01*
X27201Y87481D02*
Y102362D01*
X26030Y87481D02*
Y102142D01*
X29097Y91103D02*
Y104208D01*
X30475Y91103D02*
Y102780D01*
X47910Y89977D02*
Y104565D01*
X30938Y104208D02*
X46535Y91382D01*
X2801Y104264D02*
Y121941D01*
X3967Y104478D02*
Y121727D01*
X46535Y91382D02*
Y104565D01*
X27201Y63435D02*
Y80502D01*
X26016Y63652D02*
Y80502D01*
X35971Y59763D02*
Y61478D01*
X34596Y59763D02*
Y61478D01*
Y136078D02*
Y137472D01*
X47910Y136078D02*
Y137472D01*
X29097Y122019D02*
Y123414D01*
X47910Y122019D02*
Y123414D01*
X39682Y84394D02*
Y85987D01*
X41056Y83901D02*
Y85995D01*
X37981Y76941D02*
Y78310D01*
X31105Y61478D02*
Y62872D01*
X34596Y68367D02*
Y69762D01*
X35968Y62872D02*
Y65072D01*
X34593Y62872D02*
Y65072D01*
X48098Y64456D02*
X48098Y64398D01*
X47910Y68367D02*
Y69762D01*
X29097Y55134D02*
Y56528D01*
X47910Y55134D02*
Y56528D01*
X29097Y48900D02*
Y50294D01*
Y35809D02*
Y37203D01*
X39216Y152495D02*
X47910D01*
X39096Y153873D02*
X47910Y153889D01*
X39216Y144206D02*
X47916D01*
X38226Y145600D02*
X47916D01*
X38221Y137472D02*
X47910D01*
X34596Y136078D02*
X47910D01*
X39216Y130861D02*
X47910D01*
X39096Y132255D02*
X47910D01*
X38187Y123414D02*
X47910D01*
X4552Y122309D02*
X25662D01*
X4338Y123478D02*
X25436D01*
X29097Y122019D02*
X47910D01*
X4552Y103896D02*
X25648D01*
X4338Y102727D02*
X25448D01*
X39216Y87389D02*
X47910D01*
X4338Y79663D02*
X19567D01*
X4544Y80831D02*
X19567D01*
X38374Y69762D02*
X47910D01*
X34596Y68367D02*
X47910D01*
X35968Y62872D02*
X44229D01*
X3501Y63067D02*
X25434D01*
X35971Y61478D02*
X44112D01*
X3501Y61899D02*
X25662D01*
X29097Y56528D02*
X47910D01*
X29097Y55134D02*
X47910D01*
X29097Y50294D02*
X40027D01*
X29097Y48900D02*
X39972D01*
X29097Y37203D02*
X39972D01*
X29097Y35809D02*
X40025D01*
X34596Y137472D02*
X36573D01*
X29097Y123414D02*
X36573Y123422D01*
X41056Y85995D02*
X44525D01*
X34596Y69762D02*
X36433D01*
X29097Y104208D02*
X30938D01*
X46535Y104565D02*
X47910D01*
X29097Y91103D02*
X30475D01*
X46089Y89977D02*
X47910D01*
X46192Y85995D02*
X47910D01*
X46705Y65401D02*
X48030Y65398D01*
X31105Y62872D02*
X34593D01*
X31105Y61478D02*
X34596D01*
X47910Y152495D02*
Y153889D01*
X47916Y144206D02*
Y145600D01*
X47910Y130861D02*
Y132255D01*
Y85995D02*
Y87389D01*
X35627Y73643D02*
Y74147D01*
X34253Y74270D02*
X34278Y74549D01*
X35661Y74563D01*
X34253Y74011D02*
Y74270D01*
X34593Y65072D02*
X35968D01*
X46722Y64759D02*
Y65088D01*
X46722Y65145D02*
X46722Y65088D01*
X46722Y65175D02*
X46722Y65145D01*
X46721Y65205D02*
X46722Y65175D01*
X46720Y65236D02*
X46721Y65205D01*
X46718Y65268D02*
X46720Y65236D01*
X48030Y65398D02*
X48048Y65222D01*
X48059Y65104D01*
X48069Y64986D01*
X48079Y64868D01*
X48083Y64810D01*
X48092Y64633D02*
X48095Y64574D01*
X48096Y64515D01*
X48098Y64456D01*
X48098Y64398D02*
X48099Y64339D01*
X48099Y64280D01*
X48099Y64221D01*
X34596Y59763D02*
X35971D01*
X40025Y35809D02*
X40211Y35809D01*
X41349Y35840D02*
X41932Y35870D01*
D12*
X283394Y54000D02*
X282606D01*
X283394D01*
X47276Y4626D02*
X73260D01*
Y30610D01*
X47276D02*
X73260D01*
X47276Y4626D02*
Y30610D01*
X277742Y44532D02*
X279992D01*
X277742D02*
Y46500D01*
X184500D02*
X277742D01*
X184500Y44532D02*
Y46500D01*
X169500Y44532D02*
X184500D01*
X169500D02*
Y46500D01*
X76258D02*
X169500D01*
X76258Y44532D02*
Y46500D01*
X74008Y44532D02*
X76258D01*
X74008D02*
Y73469D01*
X76258D01*
Y71500D02*
Y73469D01*
Y71500D02*
X172000D01*
Y75516D01*
X182000D01*
Y71500D02*
Y75516D01*
Y71500D02*
X277742D01*
Y73469D01*
X279992D01*
Y44532D02*
Y73469D01*
D13*
X253716Y131500D02*
Y167610D01*
X88283D02*
X253716D01*
X88283Y131500D02*
Y167610D01*
Y131500D02*
X253716D01*
D14*
X200638Y293453D02*
Y348660D01*
X155362Y293453D02*
Y348658D01*
X154379Y293447D02*
X201621D01*
X155362Y348663D02*
X200638D01*
X201622Y218626D02*
Y293447D01*
X154378Y218626D02*
Y293447D01*
X154378Y218624D02*
X201622D01*
X93504Y293417D02*
Y348624D01*
X48228Y293417D02*
Y348622D01*
X47245Y293412D02*
X94487D01*
X48228Y348628D02*
X93504D01*
X94488Y218590D02*
Y293412D01*
X47244Y218590D02*
Y293412D01*
X47244Y218589D02*
X94488D01*
D15*
X67871Y216307D02*
X60000D01*
Y210404D01*
X63936Y212371D01*
X65904D01*
X67871Y210404D01*
Y206468D01*
X65904Y204500D01*
X61968D01*
X60000Y206468D01*
X71807Y216307D02*
Y208436D01*
X75743Y204500D01*
X79679Y208436D01*
Y216307D01*
X170871Y204000D02*
X163000D01*
X170871Y211872D01*
Y213839D01*
X168904Y215807D01*
X164968D01*
X163000Y213839D01*
X180711Y204000D02*
Y215807D01*
X174807Y209904D01*
X182679D01*
X186614Y215807D02*
Y207936D01*
X190550Y204000D01*
X194486Y207936D01*
Y215807D01*
X73900Y85598D02*
X77899Y79600D01*
Y85598D02*
X73900Y79600D01*
X79898Y84598D02*
X80898Y85598D01*
X82897D01*
X83897Y84598D01*
Y83599D01*
X82897Y82599D01*
X81897D01*
X82897D01*
X83897Y81599D01*
Y80600D01*
X82897Y79600D01*
X80898D01*
X79898Y80600D01*
X89200Y176698D02*
X93199Y170700D01*
Y176698D02*
X89200Y170700D01*
X99197D02*
X95198D01*
X99197Y174699D01*
Y175698D01*
X98197Y176698D01*
X96198D01*
X95198Y175698D01*
X142500Y290999D02*
X140501D01*
X141501D01*
Y286001D01*
X140501Y285001D01*
X139501D01*
X138502Y286001D01*
X144500Y289999D02*
X145499Y290999D01*
X147499D01*
X148498Y289999D01*
Y289000D01*
X147499Y288000D01*
X146499D01*
X147499D01*
X148498Y287000D01*
Y286001D01*
X147499Y285001D01*
X145499D01*
X144500Y286001D01*
X38000Y291499D02*
X36001D01*
X37001D01*
Y286501D01*
X36001Y285501D01*
X35001D01*
X34002Y286501D01*
X43998Y285501D02*
X40000D01*
X43998Y289500D01*
Y290499D01*
X42999Y291499D01*
X40999D01*
X40000Y290499D01*
M02*
