G04*
G04 #@! TF.GenerationSoftware,Altium Limited,Altium Designer,23.0.1 (38)*
G04*
G04 Layer_Color=32896*
%FSLAX25Y25*%
%MOIN*%
G70*
G04*
G04 #@! TF.SameCoordinates,0F18841D-DA8F-46EF-A0D6-61A62281B5C3*
G04*
G04*
G04 #@! TF.FilePolarity,Positive*
G04*
G01*
G75*
%ADD12C,0.00787*%
%ADD14C,0.00394*%
%ADD15C,0.01000*%
D12*
X39055Y215965D02*
X38268D01*
X39055D01*
X38268D01*
X39055D01*
X75335Y106500D02*
X74547D01*
X75335D01*
X36279Y38405D02*
Y226594D01*
X8721D02*
X36279D01*
X8721Y38405D02*
X36279D01*
X8721D02*
Y226594D01*
X277500Y91500D02*
Y111500D01*
X77500Y91500D02*
X277500D01*
X77500D02*
Y111500D01*
X277500D01*
X232565Y116869D02*
X233388Y117014D01*
X234355Y116337D01*
X234500Y115515D01*
X233145Y113580D01*
X232323Y113435D01*
X231356Y114112D01*
X231211Y114935D01*
X231888Y115902D01*
X232855Y115225D01*
X229905Y115128D02*
X231937Y118030D01*
X227971Y116483D01*
X230002Y119384D01*
X229035Y120062D02*
X227004Y117160D01*
X225553Y118176D01*
X225408Y118998D01*
X226762Y120932D01*
X227584Y121077D01*
X229035Y120062D01*
X242065Y116869D02*
X242888Y117014D01*
X243855Y116337D01*
X244000Y115515D01*
X242645Y113580D01*
X241823Y113435D01*
X240856Y114112D01*
X240711Y114935D01*
X241388Y115902D01*
X242355Y115225D01*
X239405Y115128D02*
X241437Y118030D01*
X237471Y116483D01*
X239502Y119384D01*
X238535Y120062D02*
X236504Y117160D01*
X235053Y118176D01*
X234908Y118998D01*
X236262Y120932D01*
X237084Y121077D01*
X238535Y120062D01*
X252565Y116869D02*
X253388Y117014D01*
X254355Y116337D01*
X254500Y115515D01*
X253145Y113580D01*
X252323Y113435D01*
X251356Y114112D01*
X251211Y114935D01*
X251888Y115902D01*
X252855Y115225D01*
X249905Y115128D02*
X251937Y118030D01*
X247971Y116483D01*
X250002Y119384D01*
X249035Y120062D02*
X247004Y117160D01*
X245553Y118176D01*
X245408Y118998D01*
X246762Y120932D01*
X247584Y121077D01*
X249035Y120062D01*
X262565Y116869D02*
X263388Y117014D01*
X264355Y116337D01*
X264500Y115515D01*
X263145Y113580D01*
X262323Y113435D01*
X261356Y114112D01*
X261211Y114935D01*
X261888Y115902D01*
X262855Y115225D01*
X259905Y115128D02*
X261937Y118030D01*
X257971Y116483D01*
X260002Y119384D01*
X259035Y120062D02*
X257003Y117160D01*
X255553Y118176D01*
X255408Y118998D01*
X256762Y120932D01*
X257584Y121077D01*
X259035Y120062D01*
X272404Y117353D02*
X274338Y115998D01*
X273323Y114547D01*
X272694Y115708D01*
X272210Y116047D01*
X271388Y115902D01*
X270711Y114935D01*
X270856Y114112D01*
X271823Y113435D01*
X272645Y113580D01*
X271437Y118030D02*
X270082Y116095D01*
X268438Y115806D01*
X268148Y117450D01*
X269502Y119384D01*
X270500Y82204D02*
X270355Y83026D01*
X269388Y83704D01*
X268565Y83559D01*
X268227Y83075D01*
X268372Y82253D01*
X268855Y81914D01*
X268372Y82253D01*
X267549Y82108D01*
X267211Y81624D01*
X267356Y80802D01*
X268323Y80125D01*
X269145Y80270D01*
X267937Y84720D02*
X266582Y82785D01*
X264938Y82495D01*
X264648Y84140D01*
X266002Y86074D01*
X264697Y86268D02*
X264552Y87090D01*
X263584Y87767D01*
X262762Y87622D01*
X262424Y87138D01*
X262569Y86316D01*
X263052Y85978D01*
X262569Y86316D01*
X261746Y86171D01*
X261408Y85688D01*
X261553Y84865D01*
X262520Y84188D01*
X263342Y84333D01*
X276372Y81141D02*
X278307Y79786D01*
X277727Y83075D01*
X278065Y83559D01*
X278888Y83704D01*
X279855Y83026D01*
X280000Y82204D01*
X273954Y82834D02*
X275986Y85735D01*
X276421Y83269D01*
X274486Y84623D01*
X274535Y86751D02*
X273181Y84817D01*
X271536Y84527D01*
X271246Y86171D01*
X272601Y88106D01*
X239177Y70482D02*
X237145Y67580D01*
X235695Y68596D01*
X235549Y69418D01*
X236904Y71353D01*
X237726Y71498D01*
X239177Y70482D01*
X236275Y72514D02*
X235308Y73191D01*
X235792Y72852D01*
X233760Y69950D01*
X234244Y69612D01*
X233277Y70289D01*
X231584Y75077D02*
X232407Y75222D01*
X233374Y74545D01*
X233519Y73723D01*
X232164Y71789D01*
X231342Y71644D01*
X230375Y72321D01*
X230230Y73143D01*
X230907Y74110D01*
X231874Y73433D01*
X228586Y72853D02*
X226651Y74208D01*
X228054Y78270D02*
X227087Y78947D01*
X227571Y78609D01*
X225539Y75707D01*
X226023Y75368D01*
X225055Y76046D01*
X224185Y80979D02*
X225153Y80302D01*
X225298Y79479D01*
X223943Y77545D01*
X223121Y77400D01*
X222154Y78077D01*
X222009Y78900D01*
X223363Y80834D01*
X224185Y80979D01*
X220364Y78610D02*
X218430Y79964D01*
X217801Y81125D02*
X219833Y84026D01*
X218382Y85042D01*
X217560Y84897D01*
X216883Y83930D01*
X217028Y83108D01*
X218479Y82092D01*
X214900Y83157D02*
X213933Y83834D01*
X214416Y83495D01*
X216448Y86397D01*
X216593Y85575D01*
X212579Y89106D02*
X213208Y87945D01*
X213498Y86300D01*
X212821Y85333D01*
X211998Y85188D01*
X211031Y85865D01*
X210886Y86688D01*
X211225Y87171D01*
X212047Y87316D01*
X213498Y86300D01*
X269677Y70482D02*
X267645Y67580D01*
X266195Y68596D01*
X266050Y69418D01*
X267404Y71353D01*
X268226Y71498D01*
X269677Y70482D01*
X266775Y72514D02*
X265808Y73191D01*
X266292Y72852D01*
X264260Y69950D01*
X264744Y69612D01*
X263776Y70289D01*
X262084Y75077D02*
X262907Y75222D01*
X263874Y74545D01*
X264019Y73723D01*
X262664Y71789D01*
X261842Y71644D01*
X260875Y72321D01*
X260730Y73143D01*
X261407Y74110D01*
X262374Y73433D01*
X259085Y72853D02*
X257151Y74208D01*
X258554Y78270D02*
X257587Y78947D01*
X258071Y78609D01*
X256039Y75707D01*
X256523Y75368D01*
X255555Y76046D01*
X254685Y80979D02*
X255653Y80302D01*
X255798Y79479D01*
X254443Y77545D01*
X253621Y77400D01*
X252654Y78077D01*
X252509Y78900D01*
X253863Y80834D01*
X254685Y80979D01*
X250864Y78610D02*
X248930Y79964D01*
X248302Y81125D02*
X250333Y84026D01*
X248882Y85042D01*
X248060Y84897D01*
X247383Y83930D01*
X247528Y83108D01*
X248979Y82092D01*
X245400Y83157D02*
X244433Y83834D01*
X244916Y83495D01*
X246948Y86397D01*
X247093Y85575D01*
X244675Y87268D02*
X244530Y88090D01*
X243563Y88767D01*
X242741Y88622D01*
X242402Y88139D01*
X242547Y87316D01*
X243031Y86978D01*
X242547Y87316D01*
X241725Y87171D01*
X241386Y86688D01*
X241531Y85865D01*
X242498Y85188D01*
X243320Y85333D01*
X259677Y70482D02*
X257645Y67580D01*
X256194Y68596D01*
X256049Y69418D01*
X257404Y71353D01*
X258226Y71498D01*
X259677Y70482D01*
X256775Y72514D02*
X255808Y73191D01*
X256292Y72852D01*
X254260Y69950D01*
X254744Y69612D01*
X253777Y70289D01*
X252084Y75077D02*
X252907Y75222D01*
X253874Y74545D01*
X254019Y73723D01*
X252664Y71789D01*
X251842Y71644D01*
X250875Y72321D01*
X250730Y73143D01*
X251407Y74110D01*
X252374Y73433D01*
X249085Y72853D02*
X247151Y74208D01*
X248554Y78270D02*
X247587Y78947D01*
X248071Y78609D01*
X246039Y75707D01*
X246523Y75368D01*
X245555Y76046D01*
X244686Y80979D02*
X245653Y80302D01*
X245798Y79479D01*
X244443Y77545D01*
X243621Y77400D01*
X242654Y78077D01*
X242509Y78900D01*
X243863Y80834D01*
X244686Y80979D01*
X240864Y78610D02*
X238930Y79964D01*
X238301Y81125D02*
X240333Y84026D01*
X238882Y85042D01*
X238060Y84897D01*
X237383Y83930D01*
X237528Y83108D01*
X238979Y82092D01*
X235400Y83157D02*
X234433Y83834D01*
X234916Y83495D01*
X236948Y86397D01*
X237093Y85575D01*
X231531Y85865D02*
X233563Y88767D01*
X233998Y86300D01*
X232063Y87655D01*
X249177Y70482D02*
X247145Y67580D01*
X245694Y68596D01*
X245550Y69418D01*
X246904Y71353D01*
X247726Y71498D01*
X249177Y70482D01*
X246275Y72514D02*
X245308Y73191D01*
X245792Y72852D01*
X243760Y69950D01*
X244244Y69612D01*
X243277Y70289D01*
X241584Y75077D02*
X242407Y75222D01*
X243374Y74545D01*
X243519Y73723D01*
X242164Y71789D01*
X241342Y71644D01*
X240375Y72321D01*
X240230Y73143D01*
X240907Y74110D01*
X241874Y73433D01*
X238585Y72853D02*
X236651Y74208D01*
X238054Y78270D02*
X237087Y78947D01*
X237571Y78609D01*
X235539Y75707D01*
X236023Y75368D01*
X235055Y76046D01*
X234186Y80979D02*
X235153Y80302D01*
X235298Y79479D01*
X233943Y77545D01*
X233121Y77400D01*
X232154Y78077D01*
X232009Y78900D01*
X233363Y80834D01*
X234186Y80979D01*
X230364Y78610D02*
X228430Y79964D01*
X227801Y81125D02*
X229833Y84026D01*
X228382Y85042D01*
X227560Y84897D01*
X226883Y83930D01*
X227028Y83108D01*
X228479Y82092D01*
X224900Y83157D02*
X223933Y83834D01*
X224416Y83495D01*
X226448Y86397D01*
X226593Y85575D01*
X222579Y89106D02*
X224514Y87751D01*
X223498Y86300D01*
X222869Y87461D01*
X222386Y87800D01*
X221563Y87655D01*
X220886Y86688D01*
X221031Y85865D01*
X221998Y85188D01*
X222820Y85333D01*
X210177Y70482D02*
X208145Y67580D01*
X206695Y68596D01*
X206550Y69418D01*
X207904Y71353D01*
X208726Y71498D01*
X210177Y70482D01*
X207275Y72514D02*
X206308Y73191D01*
X206792Y72852D01*
X204760Y69950D01*
X205244Y69612D01*
X204276Y70289D01*
X202584Y75077D02*
X203407Y75222D01*
X204374Y74545D01*
X204519Y73723D01*
X203164Y71789D01*
X202342Y71644D01*
X201375Y72321D01*
X201230Y73143D01*
X201907Y74110D01*
X202874Y73433D01*
X199585Y72853D02*
X197651Y74208D01*
X199054Y78270D02*
X198087Y78947D01*
X198571Y78609D01*
X196539Y75707D01*
X197023Y75368D01*
X196055Y76046D01*
X195185Y80979D02*
X196153Y80302D01*
X196298Y79479D01*
X194943Y77545D01*
X194121Y77400D01*
X193154Y78077D01*
X193009Y78900D01*
X194363Y80834D01*
X195185Y80979D01*
X191364Y78610D02*
X189430Y79964D01*
X188802Y81125D02*
X190833Y84026D01*
X189382Y85042D01*
X188560Y84897D01*
X187883Y83930D01*
X188028Y83108D01*
X189479Y82092D01*
X185900Y83157D02*
X184933Y83834D01*
X185416Y83495D01*
X187448Y86397D01*
X187593Y85575D01*
X183820Y85333D02*
X182998Y85188D01*
X182031Y85865D01*
X181886Y86688D01*
X183241Y88622D01*
X184063Y88767D01*
X185030Y88090D01*
X185175Y87268D01*
X184836Y86784D01*
X184014Y86639D01*
X182563Y87655D01*
X220177Y69982D02*
X218145Y67080D01*
X216694Y68096D01*
X216549Y68918D01*
X217904Y70853D01*
X218726Y70998D01*
X220177Y69982D01*
X217275Y72013D02*
X216308Y72691D01*
X216792Y72352D01*
X214760Y69450D01*
X215244Y69112D01*
X214277Y69789D01*
X212584Y74577D02*
X213407Y74722D01*
X214374Y74045D01*
X214519Y73223D01*
X213164Y71289D01*
X212342Y71144D01*
X211375Y71821D01*
X211230Y72643D01*
X211907Y73610D01*
X212874Y72933D01*
X209585Y72353D02*
X207651Y73708D01*
X209054Y77770D02*
X208087Y78447D01*
X208571Y78109D01*
X206539Y75207D01*
X207023Y74868D01*
X206055Y75546D01*
X205186Y80479D02*
X206153Y79802D01*
X206298Y78979D01*
X204943Y77045D01*
X204121Y76900D01*
X203154Y77577D01*
X203009Y78399D01*
X204363Y80334D01*
X205186Y80479D01*
X201364Y78110D02*
X199430Y79464D01*
X198802Y80625D02*
X200833Y83526D01*
X199382Y84542D01*
X198560Y84397D01*
X197883Y83430D01*
X198028Y82608D01*
X199479Y81592D01*
X195900Y82657D02*
X194933Y83334D01*
X195416Y82995D01*
X197448Y85897D01*
X197593Y85075D01*
X195175Y86768D02*
X195030Y87590D01*
X194063Y88267D01*
X193241Y88122D01*
X192902Y87638D01*
X193047Y86816D01*
X192225Y86671D01*
X191886Y86188D01*
X192031Y85365D01*
X192998Y84688D01*
X193821Y84833D01*
X194159Y85317D01*
X194014Y86139D01*
X194836Y86284D01*
X195175Y86768D01*
X194014Y86139D02*
X193047Y86816D01*
X230177Y69982D02*
X228145Y67080D01*
X226694Y68096D01*
X226550Y68918D01*
X227904Y70853D01*
X228726Y70998D01*
X230177Y69982D01*
X227275Y72013D02*
X226308Y72691D01*
X226792Y72352D01*
X224760Y69450D01*
X225244Y69112D01*
X224276Y69789D01*
X222584Y74577D02*
X223407Y74722D01*
X224374Y74045D01*
X224519Y73223D01*
X223164Y71289D01*
X222342Y71144D01*
X221375Y71821D01*
X221230Y72643D01*
X221907Y73610D01*
X222874Y72933D01*
X219585Y72353D02*
X217651Y73708D01*
X219054Y77770D02*
X218087Y78447D01*
X218571Y78109D01*
X216539Y75207D01*
X217023Y74868D01*
X216055Y75546D01*
X215185Y80479D02*
X216153Y79802D01*
X216298Y78979D01*
X214943Y77045D01*
X214121Y76900D01*
X213154Y77577D01*
X213009Y78399D01*
X214363Y80334D01*
X215185Y80479D01*
X211364Y78110D02*
X209430Y79464D01*
X208802Y80625D02*
X210833Y83526D01*
X209382Y84542D01*
X208560Y84397D01*
X207883Y83430D01*
X208028Y82608D01*
X209479Y81592D01*
X205900Y82657D02*
X204933Y83334D01*
X205416Y82995D01*
X207448Y85897D01*
X207593Y85075D01*
X205514Y87251D02*
X203579Y88606D01*
X203241Y88122D01*
X203820Y84833D01*
X203482Y84350D01*
X109677Y70143D02*
X107645Y67242D01*
X106194Y68257D01*
X106050Y69080D01*
X107404Y71014D01*
X108226Y71159D01*
X109677Y70143D01*
X106775Y72175D02*
X105808Y72852D01*
X106292Y72514D01*
X104260Y69612D01*
X104744Y69273D01*
X103777Y69950D01*
X102084Y74739D02*
X102907Y74884D01*
X103874Y74207D01*
X104019Y73384D01*
X102664Y71450D01*
X101842Y71305D01*
X100875Y71982D01*
X100730Y72804D01*
X101407Y73772D01*
X102374Y73094D01*
X99085Y72514D02*
X97151Y73869D01*
X98554Y77931D02*
X97587Y78609D01*
X98071Y78270D01*
X96039Y75368D01*
X96523Y75030D01*
X95555Y75707D01*
X94686Y80640D02*
X95653Y79963D01*
X95798Y79141D01*
X94443Y77206D01*
X93621Y77061D01*
X92654Y77739D01*
X92509Y78561D01*
X93863Y80495D01*
X94686Y80640D01*
X90864Y78271D02*
X88930Y79625D01*
X88301Y80786D02*
X90333Y83688D01*
X88882Y84704D01*
X88060Y84559D01*
X87383Y83592D01*
X87528Y82769D01*
X88979Y81753D01*
X83465Y84172D02*
X85400Y82818D01*
X84820Y86107D01*
X85159Y86590D01*
X85981Y86735D01*
X86948Y86058D01*
X87093Y85236D01*
X82837Y85333D02*
X82015Y85188D01*
X81048Y85865D01*
X80903Y86688D01*
X82257Y88622D01*
X83079Y88767D01*
X84046Y88090D01*
X84191Y87268D01*
X83853Y86784D01*
X83031Y86639D01*
X81580Y87655D01*
X120177Y70143D02*
X118145Y67242D01*
X116694Y68257D01*
X116550Y69080D01*
X117904Y71014D01*
X118726Y71159D01*
X120177Y70143D01*
X117275Y72175D02*
X116308Y72852D01*
X116792Y72514D01*
X114760Y69612D01*
X115244Y69273D01*
X114277Y69950D01*
X112584Y74739D02*
X113407Y74884D01*
X114374Y74207D01*
X114519Y73384D01*
X113164Y71450D01*
X112342Y71305D01*
X111375Y71982D01*
X111230Y72804D01*
X111907Y73772D01*
X112874Y73094D01*
X109585Y72514D02*
X107651Y73869D01*
X109054Y77931D02*
X108087Y78609D01*
X108571Y78270D01*
X106539Y75368D01*
X107023Y75030D01*
X106055Y75707D01*
X105185Y80640D02*
X106153Y79963D01*
X106298Y79141D01*
X104943Y77206D01*
X104121Y77061D01*
X103154Y77739D01*
X103009Y78561D01*
X104363Y80495D01*
X105185Y80640D01*
X101364Y78271D02*
X99430Y79625D01*
X98801Y80786D02*
X100833Y83688D01*
X99382Y84704D01*
X98560Y84559D01*
X97883Y83592D01*
X98028Y82769D01*
X99479Y81753D01*
X93966Y84172D02*
X95900Y82818D01*
X95320Y86107D01*
X95659Y86590D01*
X96481Y86735D01*
X97448Y86058D01*
X97593Y85236D01*
X94691Y87268D02*
X94546Y88090D01*
X93579Y88767D01*
X92757Y88622D01*
X92418Y88139D01*
X92563Y87316D01*
X91741Y87171D01*
X91403Y86688D01*
X91548Y85865D01*
X92515Y85188D01*
X93337Y85333D01*
X93676Y85817D01*
X93531Y86639D01*
X94353Y86784D01*
X94691Y87268D01*
X93531Y86639D02*
X92563Y87316D01*
X129677Y70143D02*
X127645Y67242D01*
X126195Y68257D01*
X126049Y69080D01*
X127404Y71014D01*
X128226Y71159D01*
X129677Y70143D01*
X126775Y72175D02*
X125808Y72852D01*
X126292Y72514D01*
X124260Y69612D01*
X124744Y69273D01*
X123776Y69950D01*
X122084Y74739D02*
X122907Y74884D01*
X123874Y74207D01*
X124019Y73384D01*
X122664Y71450D01*
X121842Y71305D01*
X120875Y71982D01*
X120730Y72804D01*
X121407Y73772D01*
X122374Y73094D01*
X119086Y72514D02*
X117151Y73869D01*
X118554Y77931D02*
X117587Y78609D01*
X118071Y78270D01*
X116039Y75368D01*
X116523Y75030D01*
X115555Y75707D01*
X114685Y80640D02*
X115653Y79963D01*
X115798Y79141D01*
X114443Y77206D01*
X113621Y77061D01*
X112654Y77739D01*
X112509Y78561D01*
X113863Y80495D01*
X114685Y80640D01*
X110864Y78271D02*
X108930Y79625D01*
X108301Y80786D02*
X110333Y83688D01*
X108882Y84704D01*
X108060Y84559D01*
X107383Y83592D01*
X107528Y82769D01*
X108979Y81753D01*
X103465Y84172D02*
X105400Y82818D01*
X104820Y86107D01*
X105159Y86590D01*
X105981Y86735D01*
X106948Y86058D01*
X107093Y85236D01*
X104530Y87751D02*
X102596Y89106D01*
X102257Y88622D01*
X102837Y85333D01*
X102498Y84850D01*
X139677Y70143D02*
X137645Y67242D01*
X136195Y68257D01*
X136049Y69080D01*
X137404Y71014D01*
X138226Y71159D01*
X139677Y70143D01*
X136775Y72175D02*
X135808Y72852D01*
X136292Y72514D01*
X134260Y69612D01*
X134744Y69273D01*
X133776Y69950D01*
X132084Y74739D02*
X132907Y74884D01*
X133874Y74207D01*
X134019Y73384D01*
X132664Y71450D01*
X131842Y71305D01*
X130875Y71982D01*
X130730Y72804D01*
X131407Y73772D01*
X132374Y73094D01*
X129086Y72514D02*
X127151Y73869D01*
X128554Y77931D02*
X127587Y78609D01*
X128071Y78270D01*
X126039Y75368D01*
X126523Y75030D01*
X125555Y75707D01*
X124686Y80640D02*
X125653Y79963D01*
X125798Y79141D01*
X124443Y77206D01*
X123621Y77061D01*
X122654Y77739D01*
X122509Y78561D01*
X123863Y80495D01*
X124686Y80640D01*
X120864Y78271D02*
X118930Y79625D01*
X118301Y80786D02*
X120333Y83688D01*
X118882Y84704D01*
X118060Y84559D01*
X117383Y83592D01*
X117528Y82769D01*
X118979Y81753D01*
X113465Y84172D02*
X115400Y82818D01*
X114820Y86107D01*
X115159Y86590D01*
X115981Y86735D01*
X116948Y86058D01*
X117093Y85236D01*
X112596Y89106D02*
X113224Y87945D01*
X113514Y86300D01*
X112837Y85333D01*
X112015Y85188D01*
X111048Y85865D01*
X110903Y86688D01*
X111241Y87171D01*
X112063Y87316D01*
X113514Y86300D01*
X150177Y70143D02*
X148145Y67242D01*
X146695Y68257D01*
X146549Y69080D01*
X147904Y71014D01*
X148726Y71159D01*
X150177Y70143D01*
X147275Y72175D02*
X146308Y72852D01*
X146792Y72514D01*
X144760Y69612D01*
X145244Y69273D01*
X144276Y69950D01*
X142584Y74739D02*
X143407Y74884D01*
X144374Y74207D01*
X144519Y73384D01*
X143164Y71450D01*
X142342Y71305D01*
X141375Y71982D01*
X141230Y72804D01*
X141907Y73772D01*
X142874Y73094D01*
X139585Y72514D02*
X137651Y73869D01*
X139054Y77931D02*
X138087Y78609D01*
X138571Y78270D01*
X136539Y75368D01*
X137023Y75030D01*
X136055Y75707D01*
X135186Y80640D02*
X136153Y79963D01*
X136298Y79141D01*
X134943Y77206D01*
X134121Y77061D01*
X133154Y77739D01*
X133009Y78561D01*
X134363Y80495D01*
X135186Y80640D01*
X131364Y78271D02*
X129430Y79625D01*
X128802Y80786D02*
X130833Y83688D01*
X129382Y84704D01*
X128560Y84559D01*
X127883Y83592D01*
X128028Y82769D01*
X129479Y81753D01*
X123966Y84172D02*
X125900Y82818D01*
X125320Y86107D01*
X125659Y86590D01*
X126481Y86735D01*
X127448Y86058D01*
X127593Y85236D01*
X123096Y89106D02*
X125030Y87751D01*
X124014Y86300D01*
X123386Y87461D01*
X122902Y87800D01*
X122080Y87655D01*
X121403Y86688D01*
X121548Y85865D01*
X122515Y85188D01*
X123337Y85333D01*
X160677Y70143D02*
X158645Y67242D01*
X157194Y68257D01*
X157050Y69080D01*
X158404Y71014D01*
X159226Y71159D01*
X160677Y70143D01*
X157775Y72175D02*
X156808Y72852D01*
X157292Y72514D01*
X155260Y69612D01*
X155744Y69273D01*
X154777Y69950D01*
X153084Y74739D02*
X153907Y74884D01*
X154874Y74207D01*
X155019Y73384D01*
X153664Y71450D01*
X152842Y71305D01*
X151875Y71982D01*
X151730Y72804D01*
X152407Y73772D01*
X153374Y73094D01*
X150085Y72514D02*
X148151Y73869D01*
X149554Y77931D02*
X148587Y78609D01*
X149071Y78270D01*
X147039Y75368D01*
X147523Y75030D01*
X146555Y75707D01*
X145686Y80640D02*
X146653Y79963D01*
X146798Y79141D01*
X145443Y77206D01*
X144621Y77061D01*
X143654Y77739D01*
X143509Y78561D01*
X144863Y80495D01*
X145686Y80640D01*
X141864Y78271D02*
X139930Y79625D01*
X139302Y80786D02*
X141333Y83688D01*
X139882Y84704D01*
X139060Y84559D01*
X138383Y83592D01*
X138528Y82769D01*
X139979Y81753D01*
X134466Y84172D02*
X136400Y82818D01*
X135820Y86107D01*
X136159Y86590D01*
X136981Y86735D01*
X137948Y86058D01*
X138093Y85236D01*
X132048Y85865D02*
X134079Y88767D01*
X134514Y86300D01*
X132580Y87655D01*
X171177Y70143D02*
X169145Y67242D01*
X167694Y68257D01*
X167550Y69080D01*
X168904Y71014D01*
X169726Y71159D01*
X171177Y70143D01*
X168275Y72175D02*
X167308Y72852D01*
X167792Y72514D01*
X165760Y69612D01*
X166244Y69273D01*
X165277Y69950D01*
X163584Y74739D02*
X164407Y74884D01*
X165374Y74207D01*
X165519Y73384D01*
X164164Y71450D01*
X163342Y71305D01*
X162375Y71982D01*
X162230Y72804D01*
X162907Y73772D01*
X163874Y73094D01*
X160585Y72514D02*
X158651Y73869D01*
X160054Y77931D02*
X159087Y78609D01*
X159571Y78270D01*
X157539Y75368D01*
X158023Y75030D01*
X157055Y75707D01*
X156185Y80640D02*
X157153Y79963D01*
X157298Y79141D01*
X155943Y77206D01*
X155121Y77061D01*
X154154Y77739D01*
X154009Y78561D01*
X155363Y80495D01*
X156185Y80640D01*
X152364Y78271D02*
X150430Y79625D01*
X149802Y80786D02*
X151833Y83688D01*
X150382Y84704D01*
X149560Y84559D01*
X148883Y83592D01*
X149028Y82769D01*
X150479Y81753D01*
X144966Y84172D02*
X146900Y82818D01*
X146320Y86107D01*
X146659Y86590D01*
X147481Y86735D01*
X148448Y86058D01*
X148593Y85236D01*
X145691Y87268D02*
X145546Y88090D01*
X144579Y88767D01*
X143757Y88622D01*
X143418Y88139D01*
X143563Y87316D01*
X144047Y86978D01*
X143563Y87316D01*
X142741Y87171D01*
X142403Y86688D01*
X142548Y85865D01*
X143515Y85188D01*
X144337Y85333D01*
X180677Y70143D02*
X178645Y67242D01*
X177194Y68257D01*
X177050Y69080D01*
X178404Y71014D01*
X179226Y71159D01*
X180677Y70143D01*
X177775Y72175D02*
X176808Y72852D01*
X177292Y72514D01*
X175260Y69612D01*
X175744Y69273D01*
X174776Y69950D01*
X173084Y74739D02*
X173907Y74884D01*
X174874Y74207D01*
X175019Y73384D01*
X173664Y71450D01*
X172842Y71305D01*
X171875Y71982D01*
X171730Y72804D01*
X172407Y73772D01*
X173374Y73094D01*
X170086Y72514D02*
X168151Y73869D01*
X169554Y77931D02*
X168587Y78609D01*
X169071Y78270D01*
X167039Y75368D01*
X167523Y75030D01*
X166555Y75707D01*
X165685Y80640D02*
X166653Y79963D01*
X166798Y79141D01*
X165443Y77206D01*
X164621Y77061D01*
X163654Y77739D01*
X163509Y78561D01*
X164863Y80495D01*
X165685Y80640D01*
X161864Y78271D02*
X159930Y79625D01*
X159301Y80786D02*
X161333Y83688D01*
X159882Y84704D01*
X159060Y84559D01*
X158383Y83592D01*
X158528Y82769D01*
X159979Y81753D01*
X154465Y84172D02*
X156400Y82818D01*
X155820Y86107D01*
X156159Y86590D01*
X156981Y86735D01*
X157948Y86058D01*
X158093Y85236D01*
X151564Y86204D02*
X153498Y84850D01*
X152918Y88139D01*
X153257Y88622D01*
X154079Y88767D01*
X155046Y88090D01*
X155191Y87268D01*
X190677Y70482D02*
X188645Y67580D01*
X187195Y68596D01*
X187049Y69418D01*
X188404Y71353D01*
X189226Y71498D01*
X190677Y70482D01*
X187775Y72514D02*
X186808Y73191D01*
X187292Y72852D01*
X185260Y69950D01*
X185744Y69612D01*
X184776Y70289D01*
X183084Y75077D02*
X183907Y75222D01*
X184874Y74545D01*
X185019Y73723D01*
X183664Y71789D01*
X182842Y71644D01*
X181875Y72321D01*
X181730Y73143D01*
X182407Y74110D01*
X183374Y73433D01*
X180086Y72853D02*
X178151Y74208D01*
X179554Y78270D02*
X178587Y78947D01*
X179071Y78609D01*
X177039Y75707D01*
X177523Y75368D01*
X176555Y76046D01*
X175686Y80979D02*
X176653Y80302D01*
X176798Y79479D01*
X175443Y77545D01*
X174621Y77400D01*
X173654Y78077D01*
X173509Y78900D01*
X174863Y80834D01*
X175686Y80979D01*
X171864Y78610D02*
X169930Y79964D01*
X169301Y81125D02*
X171333Y84026D01*
X169882Y85042D01*
X169060Y84897D01*
X168383Y83930D01*
X168528Y83108D01*
X169979Y82092D01*
X164465Y84511D02*
X166400Y83157D01*
X165820Y86445D01*
X166159Y86929D01*
X166981Y87074D01*
X167948Y86397D01*
X168093Y85575D01*
X163498Y85188D02*
X162531Y85865D01*
X163015Y85527D01*
X165046Y88428D01*
X165191Y87606D01*
X200677Y70143D02*
X198645Y67242D01*
X197195Y68257D01*
X197049Y69080D01*
X198404Y71014D01*
X199226Y71159D01*
X200677Y70143D01*
X197775Y72175D02*
X196808Y72852D01*
X197292Y72514D01*
X195260Y69612D01*
X195744Y69273D01*
X194776Y69950D01*
X193084Y74739D02*
X193907Y74884D01*
X194874Y74207D01*
X195019Y73384D01*
X193664Y71450D01*
X192842Y71305D01*
X191875Y71982D01*
X191730Y72804D01*
X192407Y73772D01*
X193374Y73094D01*
X190085Y72514D02*
X188151Y73869D01*
X189554Y77931D02*
X188587Y78609D01*
X189071Y78270D01*
X187039Y75368D01*
X187523Y75030D01*
X186555Y75707D01*
X185686Y80640D02*
X186653Y79963D01*
X186798Y79141D01*
X185443Y77206D01*
X184621Y77061D01*
X183654Y77739D01*
X183509Y78561D01*
X184863Y80495D01*
X185686Y80640D01*
X181864Y78271D02*
X179930Y79625D01*
X179302Y80786D02*
X181333Y83688D01*
X179882Y84704D01*
X179060Y84559D01*
X178383Y83592D01*
X178528Y82769D01*
X179979Y81753D01*
X174466Y84172D02*
X176400Y82818D01*
X175820Y86107D01*
X176159Y86590D01*
X176981Y86735D01*
X177948Y86058D01*
X178093Y85236D01*
X175191Y87268D02*
X175046Y88090D01*
X174079Y88767D01*
X173257Y88622D01*
X171903Y86688D01*
X172048Y85865D01*
X173015Y85188D01*
X173837Y85333D01*
X175191Y87268D01*
X83677Y116482D02*
X81645Y113580D01*
X80194Y114596D01*
X80050Y115418D01*
X81404Y117353D01*
X82226Y117498D01*
X83677Y116482D01*
X80775Y118514D02*
X79808Y119191D01*
X80292Y118852D01*
X78260Y115951D01*
X78744Y115612D01*
X77776Y116289D01*
X76084Y121077D02*
X76907Y121222D01*
X77874Y120545D01*
X78019Y119723D01*
X76664Y117789D01*
X75842Y117644D01*
X74875Y118321D01*
X74730Y119143D01*
X75407Y120110D01*
X76374Y119433D01*
X73085Y118853D02*
X71151Y120208D01*
X72554Y124270D02*
X71587Y124947D01*
X72071Y124609D01*
X70039Y121707D01*
X70523Y121368D01*
X69555Y122046D01*
X68686Y126979D02*
X69653Y126302D01*
X69798Y125479D01*
X68443Y123545D01*
X67621Y123400D01*
X66654Y124077D01*
X66509Y124899D01*
X67863Y126834D01*
X68686Y126979D01*
X64864Y124610D02*
X62930Y125964D01*
X62301Y127125D02*
X64333Y130026D01*
X62882Y131042D01*
X62060Y130897D01*
X61383Y129930D01*
X61528Y129108D01*
X62979Y128092D01*
X59400Y129157D02*
X58433Y129834D01*
X58916Y129495D01*
X60948Y132397D01*
X61093Y131575D01*
X55048Y132204D02*
X56982Y130850D01*
X56402Y134139D01*
X56741Y134622D01*
X57563Y134767D01*
X58530Y134090D01*
X58675Y133268D01*
X94177Y116482D02*
X92145Y113580D01*
X90694Y114596D01*
X90549Y115418D01*
X91904Y117353D01*
X92726Y117498D01*
X94177Y116482D01*
X91275Y118514D02*
X90308Y119191D01*
X90792Y118852D01*
X88760Y115951D01*
X89244Y115612D01*
X88276Y116289D01*
X86584Y121077D02*
X87407Y121222D01*
X88374Y120545D01*
X88519Y119723D01*
X87164Y117789D01*
X86342Y117644D01*
X85375Y118321D01*
X85230Y119143D01*
X85907Y120110D01*
X86874Y119433D01*
X83586Y118853D02*
X81651Y120208D01*
X83054Y124270D02*
X82087Y124947D01*
X82571Y124609D01*
X80539Y121707D01*
X81023Y121368D01*
X80055Y122046D01*
X79185Y126979D02*
X80153Y126302D01*
X80298Y125479D01*
X78943Y123545D01*
X78121Y123400D01*
X77154Y124077D01*
X77009Y124900D01*
X78363Y126834D01*
X79185Y126979D01*
X75364Y124610D02*
X73430Y125964D01*
X72802Y127125D02*
X74833Y130026D01*
X73382Y131042D01*
X72560Y130897D01*
X71883Y129930D01*
X72028Y129108D01*
X73479Y128092D01*
X69900Y129157D02*
X68933Y129834D01*
X69416Y129495D01*
X71448Y132397D01*
X71593Y131575D01*
X67482Y130850D02*
X66515Y131527D01*
X66998Y131188D01*
X69030Y134090D01*
X69175Y133268D01*
X103677Y116482D02*
X101645Y113580D01*
X100195Y114596D01*
X100049Y115418D01*
X101404Y117353D01*
X102226Y117498D01*
X103677Y116482D01*
X100775Y118514D02*
X99808Y119191D01*
X100292Y118852D01*
X98260Y115951D01*
X98744Y115612D01*
X97777Y116289D01*
X96084Y121077D02*
X96907Y121222D01*
X97874Y120545D01*
X98019Y119723D01*
X96664Y117789D01*
X95842Y117644D01*
X94875Y118321D01*
X94730Y119143D01*
X95407Y120110D01*
X96374Y119433D01*
X93085Y118853D02*
X91151Y120208D01*
X92554Y124270D02*
X91587Y124947D01*
X92071Y124609D01*
X90039Y121707D01*
X90523Y121368D01*
X89555Y122046D01*
X88686Y126979D02*
X89653Y126302D01*
X89798Y125479D01*
X88443Y123545D01*
X87621Y123400D01*
X86654Y124077D01*
X86509Y124899D01*
X87863Y126834D01*
X88686Y126979D01*
X84864Y124610D02*
X82930Y125964D01*
X82301Y127125D02*
X84333Y130026D01*
X82882Y131042D01*
X82060Y130897D01*
X81383Y129930D01*
X81528Y129108D01*
X82979Y128092D01*
X79400Y129157D02*
X78433Y129834D01*
X78916Y129495D01*
X80948Y132397D01*
X81093Y131575D01*
X78675Y133268D02*
X78530Y134090D01*
X77563Y134767D01*
X76741Y134622D01*
X75386Y132688D01*
X75531Y131866D01*
X76498Y131188D01*
X77320Y131333D01*
X78675Y133268D01*
X113677Y116482D02*
X111645Y113580D01*
X110195Y114596D01*
X110049Y115418D01*
X111404Y117353D01*
X112226Y117498D01*
X113677Y116482D01*
X110775Y118514D02*
X109808Y119191D01*
X110292Y118852D01*
X108260Y115951D01*
X108744Y115612D01*
X107776Y116289D01*
X106084Y121077D02*
X106907Y121222D01*
X107874Y120545D01*
X108019Y119723D01*
X106664Y117789D01*
X105842Y117644D01*
X104875Y118321D01*
X104730Y119143D01*
X105407Y120110D01*
X106374Y119433D01*
X103085Y118853D02*
X101151Y120208D01*
X102554Y124270D02*
X101587Y124947D01*
X102071Y124609D01*
X100039Y121707D01*
X100523Y121368D01*
X99555Y122046D01*
X98685Y126979D02*
X99653Y126302D01*
X99798Y125479D01*
X98443Y123545D01*
X97621Y123400D01*
X96654Y124077D01*
X96509Y124900D01*
X97863Y126834D01*
X98685Y126979D01*
X94864Y124610D02*
X92930Y125964D01*
X92301Y127125D02*
X94333Y130026D01*
X92882Y131042D01*
X92060Y130897D01*
X91383Y129930D01*
X91528Y129108D01*
X92979Y128092D01*
X89739Y129640D02*
X88916Y129495D01*
X87949Y130172D01*
X87804Y130995D01*
X89159Y132929D01*
X89981Y133074D01*
X90948Y132397D01*
X91093Y131575D01*
X90754Y131091D01*
X89932Y130946D01*
X88481Y131962D01*
X124177Y116482D02*
X122145Y113580D01*
X120694Y114596D01*
X120549Y115418D01*
X121904Y117353D01*
X122726Y117498D01*
X124177Y116482D01*
X121275Y118514D02*
X120308Y119191D01*
X120792Y118852D01*
X118760Y115951D01*
X119244Y115612D01*
X118277Y116289D01*
X116584Y121077D02*
X117407Y121222D01*
X118374Y120545D01*
X118519Y119723D01*
X117164Y117789D01*
X116342Y117644D01*
X115375Y118321D01*
X115230Y119143D01*
X115907Y120110D01*
X116874Y119433D01*
X113585Y118853D02*
X111651Y120208D01*
X113054Y124270D02*
X112087Y124947D01*
X112571Y124609D01*
X110539Y121707D01*
X111023Y121368D01*
X110055Y122046D01*
X109186Y126979D02*
X110153Y126302D01*
X110298Y125479D01*
X108943Y123545D01*
X108121Y123400D01*
X107154Y124077D01*
X107009Y124900D01*
X108363Y126834D01*
X109186Y126979D01*
X105364Y124610D02*
X103430Y125964D01*
X102802Y127125D02*
X104833Y130026D01*
X103382Y131042D01*
X102560Y130897D01*
X101883Y129930D01*
X102028Y129108D01*
X103479Y128092D01*
X101593Y131575D02*
X101448Y132397D01*
X100481Y133074D01*
X99659Y132929D01*
X99320Y132445D01*
X99465Y131623D01*
X98643Y131478D01*
X98304Y130995D01*
X98449Y130172D01*
X99416Y129495D01*
X100239Y129640D01*
X100577Y130124D01*
X100432Y130946D01*
X101254Y131091D01*
X101593Y131575D01*
X100432Y130946D02*
X99465Y131623D01*
X134677Y116482D02*
X132645Y113580D01*
X131194Y114596D01*
X131050Y115418D01*
X132404Y117353D01*
X133226Y117498D01*
X134677Y116482D01*
X131775Y118514D02*
X130808Y119191D01*
X131292Y118852D01*
X129260Y115951D01*
X129744Y115612D01*
X128777Y116289D01*
X127084Y121077D02*
X127907Y121222D01*
X128874Y120545D01*
X129019Y119723D01*
X127664Y117789D01*
X126842Y117644D01*
X125875Y118321D01*
X125730Y119143D01*
X126407Y120110D01*
X127374Y119433D01*
X124085Y118853D02*
X122151Y120208D01*
X123554Y124270D02*
X122587Y124947D01*
X123071Y124609D01*
X121039Y121707D01*
X121523Y121368D01*
X120555Y122046D01*
X119685Y126979D02*
X120653Y126302D01*
X120798Y125479D01*
X119443Y123545D01*
X118621Y123400D01*
X117654Y124077D01*
X117509Y124900D01*
X118863Y126834D01*
X119685Y126979D01*
X115864Y124610D02*
X113930Y125964D01*
X113302Y127125D02*
X115333Y130026D01*
X113882Y131042D01*
X113060Y130897D01*
X112383Y129930D01*
X112528Y129108D01*
X113979Y128092D01*
X112432Y132058D02*
X110497Y133413D01*
X110159Y132929D01*
X110739Y129640D01*
X110400Y129157D01*
X145177Y116482D02*
X143145Y113580D01*
X141694Y114596D01*
X141550Y115418D01*
X142904Y117353D01*
X143726Y117498D01*
X145177Y116482D01*
X142275Y118514D02*
X141308Y119191D01*
X141792Y118852D01*
X139760Y115951D01*
X140244Y115612D01*
X139277Y116289D01*
X137584Y121077D02*
X138407Y121222D01*
X139374Y120545D01*
X139519Y119723D01*
X138164Y117789D01*
X137342Y117644D01*
X136375Y118321D01*
X136230Y119143D01*
X136907Y120110D01*
X137874Y119433D01*
X134585Y118853D02*
X132651Y120208D01*
X134054Y124270D02*
X133087Y124947D01*
X133571Y124609D01*
X131539Y121707D01*
X132023Y121368D01*
X131055Y122046D01*
X130185Y126979D02*
X131153Y126302D01*
X131298Y125479D01*
X129943Y123545D01*
X129121Y123400D01*
X128154Y124077D01*
X128009Y124900D01*
X129363Y126834D01*
X130185Y126979D01*
X126364Y124610D02*
X124430Y125964D01*
X123802Y127125D02*
X125833Y130026D01*
X124382Y131042D01*
X123560Y130897D01*
X122883Y129930D01*
X123028Y129108D01*
X124479Y128092D01*
X120997Y133413D02*
X121626Y132252D01*
X121916Y130607D01*
X121239Y129640D01*
X120416Y129495D01*
X119449Y130172D01*
X119304Y130995D01*
X119643Y131478D01*
X120465Y131623D01*
X121916Y130607D01*
X154677Y116482D02*
X152645Y113580D01*
X151195Y114596D01*
X151049Y115418D01*
X152404Y117353D01*
X153226Y117498D01*
X154677Y116482D01*
X151775Y118514D02*
X150808Y119191D01*
X151292Y118852D01*
X149260Y115951D01*
X149744Y115612D01*
X148776Y116289D01*
X147084Y121077D02*
X147907Y121222D01*
X148874Y120545D01*
X149019Y119723D01*
X147664Y117789D01*
X146842Y117644D01*
X145875Y118321D01*
X145730Y119143D01*
X146407Y120110D01*
X147374Y119433D01*
X144086Y118853D02*
X142151Y120208D01*
X143554Y124270D02*
X142587Y124947D01*
X143071Y124609D01*
X141039Y121707D01*
X141523Y121368D01*
X140555Y122046D01*
X139685Y126979D02*
X140653Y126302D01*
X140798Y125479D01*
X139443Y123545D01*
X138621Y123400D01*
X137654Y124077D01*
X137509Y124900D01*
X138863Y126834D01*
X139685Y126979D01*
X135864Y124610D02*
X133930Y125964D01*
X133301Y127125D02*
X135333Y130026D01*
X133882Y131042D01*
X133060Y130897D01*
X132383Y129930D01*
X132528Y129108D01*
X133979Y128092D01*
X130497Y133413D02*
X132432Y132058D01*
X131416Y130607D01*
X130787Y131768D01*
X130304Y132107D01*
X129481Y131962D01*
X128804Y130995D01*
X128949Y130172D01*
X129916Y129495D01*
X130738Y129640D01*
X164677Y116482D02*
X162645Y113580D01*
X161195Y114596D01*
X161049Y115418D01*
X162404Y117353D01*
X163226Y117498D01*
X164677Y116482D01*
X161775Y118514D02*
X160808Y119191D01*
X161292Y118852D01*
X159260Y115951D01*
X159744Y115612D01*
X158776Y116289D01*
X157084Y121077D02*
X157907Y121222D01*
X158874Y120545D01*
X159019Y119723D01*
X157664Y117789D01*
X156842Y117644D01*
X155875Y118321D01*
X155730Y119143D01*
X156407Y120110D01*
X157374Y119433D01*
X154086Y118853D02*
X152151Y120208D01*
X153554Y124270D02*
X152587Y124947D01*
X153071Y124609D01*
X151039Y121707D01*
X151523Y121368D01*
X150555Y122046D01*
X149686Y126979D02*
X150653Y126302D01*
X150798Y125479D01*
X149443Y123545D01*
X148621Y123400D01*
X147654Y124077D01*
X147509Y124900D01*
X148863Y126834D01*
X149686Y126979D01*
X145864Y124610D02*
X143930Y125964D01*
X143301Y127125D02*
X145333Y130026D01*
X143882Y131042D01*
X143060Y130897D01*
X142383Y129930D01*
X142528Y129108D01*
X143979Y128092D01*
X138949Y130172D02*
X140981Y133074D01*
X141416Y130607D01*
X139481Y131962D01*
X174677Y116482D02*
X172645Y113580D01*
X171195Y114596D01*
X171049Y115418D01*
X172404Y117353D01*
X173226Y117498D01*
X174677Y116482D01*
X171775Y118514D02*
X170808Y119191D01*
X171292Y118852D01*
X169260Y115951D01*
X169744Y115612D01*
X168777Y116289D01*
X167084Y121077D02*
X167907Y121222D01*
X168874Y120545D01*
X169019Y119723D01*
X167664Y117789D01*
X166842Y117644D01*
X165875Y118321D01*
X165730Y119143D01*
X166407Y120110D01*
X167374Y119433D01*
X164085Y118853D02*
X162151Y120208D01*
X163554Y124270D02*
X162587Y124947D01*
X163071Y124609D01*
X161039Y121707D01*
X161523Y121368D01*
X160555Y122046D01*
X159686Y126979D02*
X160653Y126302D01*
X160798Y125479D01*
X159443Y123545D01*
X158621Y123400D01*
X157654Y124077D01*
X157509Y124900D01*
X158863Y126834D01*
X159686Y126979D01*
X155864Y124610D02*
X153930Y125964D01*
X153302Y127125D02*
X155333Y130026D01*
X153882Y131042D01*
X153060Y130897D01*
X152383Y129930D01*
X152528Y129108D01*
X153979Y128092D01*
X152093Y131575D02*
X151948Y132397D01*
X150981Y133074D01*
X150159Y132929D01*
X149820Y132445D01*
X149965Y131623D01*
X150449Y131285D01*
X149965Y131623D01*
X149143Y131478D01*
X148804Y130995D01*
X148949Y130172D01*
X149916Y129495D01*
X150739Y129640D01*
X184677Y116482D02*
X182645Y113580D01*
X181194Y114596D01*
X181050Y115418D01*
X182404Y117353D01*
X183226Y117498D01*
X184677Y116482D01*
X181775Y118514D02*
X180808Y119191D01*
X181292Y118852D01*
X179260Y115951D01*
X179744Y115612D01*
X178777Y116289D01*
X177084Y121077D02*
X177907Y121222D01*
X178874Y120545D01*
X179019Y119723D01*
X177664Y117789D01*
X176842Y117644D01*
X175875Y118321D01*
X175730Y119143D01*
X176407Y120110D01*
X177374Y119433D01*
X174085Y118853D02*
X172151Y120208D01*
X173554Y124270D02*
X172587Y124947D01*
X173071Y124609D01*
X171039Y121707D01*
X171523Y121368D01*
X170555Y122046D01*
X169685Y126979D02*
X170653Y126302D01*
X170798Y125479D01*
X169443Y123545D01*
X168621Y123400D01*
X167654Y124077D01*
X167509Y124900D01*
X168863Y126834D01*
X169685Y126979D01*
X165864Y124610D02*
X163930Y125964D01*
X163302Y127125D02*
X165333Y130026D01*
X163882Y131042D01*
X163060Y130897D01*
X162383Y129930D01*
X162528Y129108D01*
X163979Y128092D01*
X158466Y130511D02*
X160400Y129157D01*
X159820Y132445D01*
X160159Y132929D01*
X160981Y133074D01*
X161948Y132397D01*
X162093Y131575D01*
X195177Y116482D02*
X193145Y113580D01*
X191694Y114596D01*
X191550Y115418D01*
X192904Y117353D01*
X193726Y117498D01*
X195177Y116482D01*
X192275Y118514D02*
X191308Y119191D01*
X191792Y118852D01*
X189760Y115951D01*
X190244Y115612D01*
X189277Y116289D01*
X187584Y121077D02*
X188407Y121222D01*
X189374Y120545D01*
X189519Y119723D01*
X188164Y117789D01*
X187342Y117644D01*
X186375Y118321D01*
X186230Y119143D01*
X186907Y120110D01*
X187874Y119433D01*
X184585Y118853D02*
X182651Y120208D01*
X184054Y124270D02*
X183087Y124947D01*
X183571Y124609D01*
X181539Y121707D01*
X182023Y121368D01*
X181055Y122046D01*
X180185Y126979D02*
X181153Y126302D01*
X181298Y125479D01*
X179943Y123545D01*
X179121Y123400D01*
X178154Y124077D01*
X178009Y124899D01*
X179363Y126834D01*
X180185Y126979D01*
X176364Y124610D02*
X174430Y125964D01*
X173802Y127125D02*
X175833Y130026D01*
X174382Y131042D01*
X173560Y130897D01*
X172883Y129930D01*
X173028Y129108D01*
X174479Y128092D01*
X170900Y129157D02*
X169933Y129834D01*
X170416Y129495D01*
X172448Y132397D01*
X172593Y131575D01*
X205177Y116482D02*
X203145Y113580D01*
X201694Y114596D01*
X201550Y115418D01*
X202904Y117353D01*
X203726Y117498D01*
X205177Y116482D01*
X202275Y118514D02*
X201308Y119191D01*
X201792Y118852D01*
X199760Y115951D01*
X200244Y115612D01*
X199276Y116289D01*
X197584Y121077D02*
X198407Y121222D01*
X199374Y120545D01*
X199519Y119723D01*
X198164Y117789D01*
X197342Y117644D01*
X196375Y118321D01*
X196230Y119143D01*
X196907Y120110D01*
X197874Y119433D01*
X194586Y118853D02*
X192651Y120208D01*
X194054Y124270D02*
X193087Y124947D01*
X193571Y124609D01*
X191539Y121707D01*
X192023Y121368D01*
X191055Y122046D01*
X190185Y126979D02*
X191153Y126302D01*
X191298Y125479D01*
X189943Y123545D01*
X189121Y123400D01*
X188154Y124077D01*
X188009Y124900D01*
X189363Y126834D01*
X190185Y126979D01*
X186364Y124610D02*
X184430Y125964D01*
X183801Y127125D02*
X185833Y130026D01*
X184382Y131042D01*
X183560Y130897D01*
X182883Y129930D01*
X183028Y129108D01*
X184479Y128092D01*
X182593Y131575D02*
X182448Y132397D01*
X181481Y133074D01*
X180659Y132929D01*
X179304Y130995D01*
X179449Y130172D01*
X180416Y129495D01*
X181238Y129640D01*
X182593Y131575D01*
D14*
X36279Y38405D02*
Y226594D01*
X8721Y38405D02*
X36279D01*
X8721Y226594D02*
X36279D01*
X8721Y38405D02*
Y226594D01*
X77500Y91500D02*
Y111500D01*
Y91500D02*
X277500D01*
Y111500D01*
X77500D02*
X277500D01*
X207862Y293453D02*
Y348660D01*
X253138Y293453D02*
Y348658D01*
X206879Y293447D02*
X254121D01*
X207862Y348663D02*
X253138D01*
X206878Y218626D02*
Y293447D01*
X254122Y218626D02*
Y293447D01*
X206878Y218624D02*
X254122D01*
X100862Y293453D02*
Y348660D01*
X146138Y293453D02*
Y348658D01*
X99879Y293447D02*
X147121D01*
X100862Y348663D02*
X146138D01*
X99878Y218626D02*
Y293447D01*
X147122Y218626D02*
Y293447D01*
X99878Y218624D02*
X147122D01*
D15*
X140000Y212839D02*
X138032Y214807D01*
X134096D01*
X132129Y212839D01*
Y210872D01*
X134096Y208904D01*
X136064D01*
X134096D01*
X132129Y206936D01*
Y204968D01*
X134096Y203000D01*
X138032D01*
X140000Y204968D01*
X128193Y214807D02*
Y206936D01*
X124257Y203000D01*
X120321Y206936D01*
Y214807D01*
X116386Y212839D02*
X114418Y214807D01*
X110482D01*
X108514Y212839D01*
Y210872D01*
X110482Y208904D01*
X112450D01*
X110482D01*
X108514Y206936D01*
Y204968D01*
X110482Y203000D01*
X114418D01*
X116386Y204968D01*
X238128Y212839D02*
X240096Y214807D01*
X244032D01*
X246000Y212839D01*
Y204968D01*
X244032Y203000D01*
X240096D01*
X238128Y204968D01*
Y208904D01*
X242064D01*
X234193Y203000D02*
Y214807D01*
X226321Y203000D01*
Y214807D01*
X222386D02*
Y203000D01*
X216482D01*
X214514Y204968D01*
Y212839D01*
X216482Y214807D01*
X222386D01*
X289999Y101000D02*
Y99001D01*
Y100001D01*
X285001D01*
X284001Y99001D01*
Y98001D01*
X285001Y97002D01*
X289999Y106998D02*
Y103000D01*
X287000D01*
X288000Y104999D01*
Y105999D01*
X287000Y106998D01*
X285001D01*
X284001Y105999D01*
Y103999D01*
X285001Y103000D01*
X35999Y233999D02*
X32000Y228001D01*
Y233999D02*
X35999Y228001D01*
X30001D02*
X28001D01*
X29001D01*
Y233999D01*
X30001Y232999D01*
X199500Y289499D02*
X201499D01*
X200499D01*
Y284501D01*
X201499Y283501D01*
X202499D01*
X203498Y284501D01*
X194501Y283501D02*
Y289499D01*
X197500Y286500D01*
X193502D01*
X94000Y290999D02*
X95999D01*
X95000D01*
Y286001D01*
X95999Y285001D01*
X96999D01*
X97999Y286001D01*
X92001Y285001D02*
X90001D01*
X91001D01*
Y290999D01*
X92001Y289999D01*
M02*
